<?xml version="1.0" standalone="no"?>
<!DOCTYPE svg PUBLIC "-//W3C//DTD SVG 20010904//EN"
 "http://www.w3.org/TR/2001/REC-SVG-20010904/DTD/svg10.dtd">
<svg version="1.0" xmlns="http://www.w3.org/2000/svg"
 width="796.000000pt" height="796.000000pt" viewBox="0 0 796.000000 796.000000"
 preserveAspectRatio="xMidYMid meet">
<metadata>
Created by potrace 1.14, written by Peter Selinger 2001-2017
</metadata>
<g transform="translate(0.000000,796.000000) scale(0.100000,-0.100000)"
fill="#000000" stroke="none">
<path d="M4713 6508 c-13 -6 -23 -17 -23 -24 0 -7 61 -42 135 -78 74 -36 160
-82 192 -102 69 -44 138 -114 152 -155 l10 -30 -42 6 c-23 4 -44 8 -48 11 -3
2 -26 6 -50 9 -24 3 -51 7 -59 10 -26 7 -81 14 -245 30 -57 6 -375 7 -420 1
-16 -2 -65 -7 -108 -10 -43 -4 -86 -9 -95 -11 -31 -5 -97 -16 -127 -19 -16 -3
-51 -9 -78 -15 -26 -6 -64 -14 -83 -17 -53 -8 -65 -11 -114 -24 -25 -7 -56
-14 -70 -17 -14 -2 -63 -16 -110 -29 -308 -92 -510 -190 -631 -305 -78 -75
-99 -121 -60 -132 22 -5 69 25 121 79 84 87 241 169 474 249 75 25 144 48 153
50 10 2 59 13 108 26 50 12 99 23 110 25 11 1 55 10 98 18 42 9 104 18 138 21
33 3 64 7 68 9 42 26 823 28 951 3 123 -25 169 -46 171 -80 0 -7 1 -34 2 -60
2 -54 23 -78 60 -71 56 10 71 82 41 185 -39 132 -142 247 -294 328 -68 36 -71
43 -15 35 28 -4 61 -8 75 -9 14 -2 63 -13 110 -24 114 -29 104 -26 200 -56 47
-15 85 -27 85 -26 0 4 225 -76 345 -123 230 -91 400 -180 565 -298 58 -41 195
-147 205 -159 18 -20 145 -102 184 -119 58 -24 124 -27 133 -4 8 22 -33 61
-182 174 -364 274 -679 448 -1015 560 -103 34 -330 95 -395 106 -11 1 -31 6
-45 9 -50 11 -176 34 -225 41 -27 3 -59 8 -70 11 -47 10 -261 11 -282 1z"/>
<path d="M5418 6232 c-28 -6 -21 -30 14 -48 17 -9 102 -40 187 -69 86 -29 190
-67 231 -85 41 -17 93 -38 115 -47 77 -31 250 -124 273 -147 19 -19 21 -27 13
-49 -12 -30 12 -70 89 -152 26 -27 58 -62 71 -77 23 -26 37 -32 67 -29 18 2
-6 44 -70 124 -79 97 -88 110 -88 120 0 20 120 -76 229 -183 94 -93 181 -126
181 -69 0 20 -145 172 -200 209 -19 13 -37 27 -40 30 -12 13 -169 116 -253
166 -51 30 -99 59 -107 64 -79 48 -446 194 -540 215 -8 1 -33 8 -55 13 -53 14
-96 19 -117 14z"/>
<path d="M5460 6100 c0 -19 28 -65 57 -97 15 -16 39 -53 52 -81 27 -57 53 -72
69 -36 22 48 -19 139 -88 192 -40 31 -90 43 -90 22z"/>
<path d="M5740 5975 c12 -31 85 -128 124 -164 22 -21 26 -22 32 -7 9 24 -4 64
-35 110 -39 56 -62 75 -99 82 -32 6 -32 6 -22 -21z"/>
<path d="M4425 5976 c-77 -34 -118 -147 -61 -169 21 -8 30 10 27 56 -2 39 0
42 79 106 23 19 23 20 5 20 -11 0 -33 -6 -50 -13z"/>
<path d="M4965 5940 c-27 -11 -61 -49 -74 -82 -9 -23 -7 -32 13 -54 25 -29 51
-25 41 6 -11 36 7 72 51 100 24 15 41 30 37 34 -9 8 -43 7 -68 -4z"/>
<path d="M4051 5899 c-80 -57 -114 -130 -78 -166 21 -21 34 -10 35 28 1 41 27
75 85 114 25 16 45 35 43 40 -5 20 -47 12 -85 -16z"/>
<path d="M6006 5902 c-11 -18 85 -173 143 -232 13 -13 13 -11 7 15 -5 17 -11
46 -13 65 -7 47 -29 88 -70 127 -33 32 -57 41 -67 25z"/>
<path d="M5633 5800 c-38 -17 -76 -57 -102 -106 -9 -18 -7 -27 11 -49 20 -26
22 -26 34 -10 8 10 11 29 8 42 -9 33 16 66 78 102 29 17 51 31 48 32 -3 0 -12
2 -21 4 -9 1 -35 -5 -56 -15z"/>
<path d="M4695 5802 c-45 -9 -115 -101 -115 -151 0 -25 39 -49 50 -31 4 7 6
27 4 46 -4 40 21 74 76 105 57 32 52 44 -15 31z"/>
<path d="M3639 5763 c-16 -7 -33 -13 -37 -14 -17 -4 -61 -48 -75 -75 -16 -32
-9 -67 17 -77 14 -6 45 15 47 31 6 52 29 86 79 114 22 13 40 26 40 30 0 10
-37 5 -71 -9z"/>
<path d="M5180 5749 c-59 -24 -119 -113 -100 -149 6 -11 19 -24 30 -30 24 -13
42 14 30 45 -13 33 15 77 62 101 23 12 44 26 46 33 4 13 -33 14 -68 0z"/>
<path d="M5915 5716 c-45 -19 -95 -65 -95 -87 0 -27 29 -24 60 6 14 13 45 35
70 48 25 13 45 28 45 33 0 14 -47 14 -80 0z"/>
<path d="M4259 5683 c-51 -21 -99 -85 -99 -131 0 -25 46 -47 54 -26 3 8 3 20
0 28 -3 7 2 30 10 50 12 28 26 42 60 57 25 11 48 23 50 28 9 13 -38 10 -75 -6z"/>
<path d="M7029 5388 c-27 -32 -54 -69 -60 -81 -7 -12 -15 -24 -19 -27 -4 -3
-24 -30 -45 -60 -66 -96 -157 -220 -161 -220 -2 0 1 11 6 25 5 14 8 25 5 25
-2 0 3 17 11 37 18 41 16 35 45 161 21 91 21 94 3 107 -11 8 -28 15 -39 16
-48 2 -82 7 -106 13 -41 12 -34 34 -139 -406 -22 -92 -42 -178 -44 -190 -2
-13 -12 -54 -21 -93 -9 -38 -18 -77 -20 -85 -2 -8 -8 -28 -14 -44 -17 -43 -6
-61 52 -86 100 -43 114 -44 135 -5 11 23 61 204 67 247 2 15 9 46 16 70 l12
43 22 -85 c31 -116 60 -190 95 -239 41 -56 63 -54 127 13 50 52 52 56 42 88
-6 18 -12 40 -14 48 -2 8 -20 63 -39 122 -20 59 -36 113 -36 119 0 14 81 138
200 304 l90 128 -45 48 c-25 26 -45 52 -45 57 0 25 -38 2 -81 -50z"/>
<path d="M2563 5408 c-19 -5 -36 -20 -47 -40 -14 -28 -87 -306 -101 -388 -2
-14 -18 -81 -35 -150 -18 -69 -34 -136 -36 -150 -3 -14 -11 -51 -19 -83 -24
-94 -25 -92 70 -122 116 -36 123 -37 159 -18 134 69 306 252 371 396 59 128
68 303 21 393 -31 60 -42 73 -86 106 -67 49 -216 77 -297 56z m176 -243 c12
-12 16 -35 14 -93 -2 -106 -48 -226 -132 -342 -27 -37 -62 -72 -67 -67 -2 2
26 119 61 262 36 142 65 259 65 261 0 9 46 -8 59 -21z"/>
<path d="M3308 5388 c-15 -16 -28 -34 -28 -39 0 -5 -30 -71 -66 -147 -105
-216 -151 -317 -210 -457 -30 -71 -59 -139 -64 -150 -11 -26 -40 -116 -40
-125 0 -4 17 -19 39 -33 40 -27 108 -42 127 -29 6 4 31 58 55 120 33 83 49
114 64 117 36 9 142 13 152 6 5 -3 10 -40 12 -81 1 -41 7 -81 13 -87 24 -30
176 -3 179 31 1 6 3 27 4 46 21 296 30 411 40 505 2 22 7 72 10 110 4 39 8 89
11 111 3 30 -1 48 -14 63 -18 23 -129 58 -208 65 -42 4 -50 2 -76 -26z m88
-210 c-3 -18 -7 -42 -10 -53 -8 -43 -18 -108 -31 -220 -7 -58 -10 -62 -50 -69
-54 -9 -59 4 -29 70 15 32 28 64 29 69 17 65 82 235 91 235 3 0 3 -15 0 -32z"/>
<path d="M3881 5401 c-11 -11 -21 -25 -21 -31 0 -15 0 -17 -11 -52 -10 -33
-16 -54 -23 -85 -2 -10 -18 -74 -36 -143 -18 -69 -33 -132 -35 -140 -2 -8 -8
-33 -13 -55 -11 -38 -13 -50 -27 -120 -3 -16 -10 -46 -15 -65 -11 -41 -18 -80
-26 -137 -6 -36 -3 -48 20 -78 36 -47 58 -58 93 -44 34 13 195 50 240 54 43 5
73 22 74 43 0 9 3 36 5 60 5 41 4 43 -30 57 -20 8 -59 20 -88 26 -29 6 -57 14
-61 18 -4 4 8 70 27 147 19 76 49 200 66 274 17 74 35 146 39 160 4 14 7 38 7
54 -1 37 -43 64 -114 73 -42 5 -53 2 -71 -16z"/>
<path d="M4546 5408 c-10 -6 -42 -60 -71 -122 -29 -61 -81 -169 -115 -241 -34
-71 -84 -182 -112 -245 -27 -63 -53 -124 -58 -135 -13 -30 -57 -147 -64 -170
-7 -24 0 -34 42 -64 21 -15 49 -23 79 -24 l47 -2 33 85 c65 166 59 156 111
159 26 2 65 4 87 5 l40 1 3 -80 c2 -44 8 -85 14 -92 22 -27 174 -4 179 26 2
12 8 88 13 181 4 52 9 118 11 145 3 28 7 77 10 110 2 33 4 60 5 60 1 0 3 20 5
45 1 25 5 68 8 95 20 179 20 180 0 203 -32 39 -227 82 -267 60z m69 -236 c-3
-21 -7 -47 -9 -57 -7 -38 -17 -100 -22 -140 -18 -142 -14 -136 -68 -140 -20
-1 -39 2 -42 6 -2 5 8 37 24 71 16 35 42 101 57 148 49 147 72 191 60 112z"/>
<path d="M5666 5404 c-10 -6 -19 -23 -21 -37 -9 -46 -76 -322 -85 -347 -8 -23
-55 -218 -66 -273 -2 -12 -14 -67 -27 -122 -30 -133 -29 -144 12 -168 39 -24
136 -27 157 -5 14 14 30 70 65 223 32 139 48 212 54 258 10 63 90 380 103 404
9 16 8 24 -6 36 -47 43 -148 59 -186 31z"/>
<path d="M6173 5393 c-133 -72 -230 -212 -234 -336 -3 -70 18 -123 74 -188
100 -116 108 -130 101 -163 -19 -86 -116 -71 -159 23 -12 28 -24 41 -38 41
-26 0 -107 -47 -108 -63 -13 -116 71 -229 189 -255 168 -38 354 120 353 300 0
63 -19 96 -112 194 -43 46 -81 95 -85 108 -8 34 12 97 41 129 41 43 47 35 40
-48 -5 -70 -4 -75 17 -89 13 -8 48 -17 78 -21 49 -6 57 -4 77 17 36 38 52 99
49 183 -3 89 -10 99 -105 152 -85 48 -114 51 -178 16z"/>
<path d="M5106 5385 c-17 -9 -32 -53 -83 -260 -91 -364 -142 -596 -139 -622 2
-9 9 -20 17 -23 8 -4 24 -12 37 -19 12 -6 42 -14 65 -17 71 -10 81 6 126 194
21 89 40 164 42 166 2 2 29 7 60 10 92 10 163 26 177 39 19 20 23 57 11 109
-12 54 -21 58 -136 61 -35 1 -63 6 -63 11 0 19 33 131 41 140 5 5 43 11 84 13
42 2 86 5 98 7 12 3 29 5 39 5 45 2 42 158 -4 188 -19 12 -347 10 -372 -2z"/>
<path d="M7399 5277 c-93 -62 -121 -174 -61 -238 49 -52 59 -77 40 -95 -21
-21 -52 -11 -67 22 -9 20 -16 24 -34 18 -28 -9 -37 -23 -33 -51 12 -65 80
-108 145 -91 74 20 121 90 112 168 0 5 -22 33 -47 61 -40 45 -45 56 -40 82 10
51 30 53 36 5 5 -40 7 -42 41 -46 28 -2 37 1 48 20 11 22 15 56 12 100 -1 21
-68 68 -97 68 -12 0 -36 -10 -55 -23z"/>
<path d="M1276 5278 c-21 -12 -57 -89 -98 -208 -21 -61 -27 -74 -24 -45 10 85
22 151 30 164 8 13 -3 37 -17 39 -7 1 -24 4 -39 8 -23 5 -29 2 -38 -20 -5 -14
-18 -45 -29 -69 -10 -23 -24 -59 -31 -79 -17 -56 -29 -46 -14 11 7 28 15 65
18 84 3 19 10 45 15 59 13 34 -2 53 -42 56 -51 4 -55 -6 -73 -163 -3 -27 -7
-55 -9 -62 -2 -6 -7 -54 -11 -105 l-6 -94 39 -12 c22 -7 45 -12 50 -12 10 0
29 43 75 165 20 53 20 57 3 -60 -3 -22 -7 -48 -9 -58 -5 -19 16 -34 61 -42 36
-6 42 0 72 75 12 30 26 64 31 75 90 194 117 265 106 278 -16 21 -40 26 -60 15z
m-275 -281 c-10 -9 -11 -8 -5 6 3 10 9 15 12 12 3 -3 0 -11 -7 -18z"/>
<path d="M1695 5273 c-21 -20 -59 -105 -92 -206 -14 -43 -27 -76 -29 -75 -1 2
7 52 18 112 11 65 16 112 10 118 -5 5 -24 11 -43 14 l-34 6 -50 -126 c-27 -69
-50 -124 -51 -123 -1 1 11 60 27 131 19 85 26 133 20 140 -6 7 -28 13 -50 14
-39 3 -39 2 -46 -40 -4 -24 -9 -50 -10 -58 -2 -8 -6 -44 -10 -80 -4 -36 -9
-73 -11 -84 -2 -10 -6 -50 -9 -88 l-6 -69 35 -14 c49 -21 65 -19 75 8 5 12 17
40 27 62 10 22 18 45 19 50 2 9 13 39 29 75 5 13 1 -23 -8 -70 -23 -110 -16
-129 49 -133 l37 -2 89 204 c49 113 89 210 89 216 0 7 -11 17 -25 23 -32 15
-30 15 -50 -5z"/>
<path d="M2110 5268 c-20 -22 -70 -140 -95 -225 -16 -54 -33 -75 -20 -25 4 15
9 38 11 52 2 14 7 41 10 60 16 93 17 89 -11 100 -56 21 -60 18 -110 -115 -27
-69 -49 -124 -51 -123 -1 2 4 30 12 63 21 86 26 108 40 181 6 35 -2 41 -55 40
-38 -1 -44 -13 -55 -100 -3 -22 -7 -54 -10 -71 -7 -49 -17 -147 -21 -198 -3
-46 -2 -48 32 -62 20 -8 42 -15 50 -15 15 0 62 97 83 173 19 70 21 53 5 -38
-19 -109 -19 -112 13 -121 58 -17 73 -13 89 25 8 20 21 50 28 66 8 17 35 80
61 140 25 61 51 116 56 123 6 6 7 12 4 12 -4 0 -2 9 4 21 22 41 -37 72 -70 37z"/>
<path d="M7640 5275 c-16 -20 -100 -347 -100 -389 0 -27 45 -70 63 -59 5 3 17
7 26 8 9 0 42 5 74 9 52 8 57 11 57 33 0 47 -17 63 -66 63 -45 0 -46 1 -39 27
8 35 3 31 64 43 64 12 71 16 71 41 0 41 -18 58 -55 55 -19 -2 -37 0 -40 4 -8
12 16 70 28 71 40 2 101 10 108 15 11 6 12 55 1 69 -7 11 -31 15 -125 18 -32
1 -62 -2 -67 -8z"/>
<path d="M2172 4945 c-56 -47 -40 -127 22 -111 54 13 73 94 30 123 -19 12 -25
11 -52 -12z"/>
<path d="M7101 4944 c-30 -38 -37 -85 -15 -101 10 -7 25 -13 34 -13 35 0 80
78 62 107 -4 6 -20 16 -34 22 -24 9 -30 7 -47 -15z"/>
<path d="M7233 4640 c-13 -5 -23 -15 -23 -23 0 -7 42 -56 93 -109 194 -201
251 -310 383 -733 25 -82 64 -195 86 -250 41 -104 54 -186 37 -233 -13 -37
-85 -98 -128 -110 -20 -6 -74 -18 -121 -27 -156 -29 -183 -43 -156 -80 9 -13
26 -17 65 -17 29 1 56 4 59 6 4 2 26 7 48 10 54 8 94 20 176 53 64 25 70 25
85 10 15 -15 15 -18 -3 -38 -10 -11 -32 -28 -49 -36 -24 -13 -223 -84 -232
-83 -2 0 -4 0 -5 -1 -2 0 -12 -2 -23 -4 -11 -2 -50 -10 -86 -18 -148 -34 -297
-41 -394 -20 -33 7 -94 15 -136 18 -66 4 -78 3 -93 -14 -17 -19 -17 -20 13
-35 16 -9 47 -18 68 -21 21 -3 50 -8 65 -10 60 -9 197 -17 263 -17 142 2 210
15 417 80 164 52 219 45 167 -22 -53 -67 -190 -127 -334 -145 -87 -11 -321 -6
-395 8 -298 59 -739 252 -886 388 -17 16 -44 51 -59 78 -43 74 -66 84 -83 38
-11 -35 8 -109 38 -140 11 -12 20 -27 20 -33 0 -5 4 -10 8 -10 4 0 23 -15 42
-33 86 -82 311 -208 486 -272 38 -14 78 -29 89 -34 11 -5 40 -15 65 -22 80
-23 77 -26 -56 -57 -61 -14 -258 -12 -334 3 -73 15 -89 20 -210 65 -181 67
-218 36 -76 -63 15 -10 24 -23 21 -28 -4 -5 -10 -7 -14 -5 -4 3 -18 7 -32 9
-85 16 -383 111 -527 168 -123 49 -221 109 -242 149 -9 16 -6 25 18 48 37 37
50 61 45 82 -6 23 -48 17 -123 -17 -64 -29 -99 -43 -120 -48 -8 -2 -46 -13
-85 -23 -127 -36 -270 -64 -395 -78 -218 -24 -386 2 -712 109 -312 103 -494
212 -597 356 -50 71 -40 84 59 68 68 -12 83 -22 69 -48 -23 -43 18 -83 131
-129 30 -12 64 -26 75 -31 20 -8 103 -42 208 -84 31 -13 57 -21 57 -19 0 3 8
0 18 -5 11 -6 30 -12 43 -14 13 -3 42 -10 65 -16 66 -18 224 -43 354 -56 52
-6 300 -6 338 0 18 2 37 7 42 10 6 3 10 1 10 -5 0 -6 4 -9 9 -5 5 3 33 10 63
16 91 18 101 20 153 34 33 8 65 32 65 48 0 9 -141 4 -195 -7 -21 -4 -110 -15
-180 -22 -66 -7 -266 -6 -325 1 -70 8 -98 12 -190 32 -130 27 -138 29 -306 85
-150 50 -418 172 -359 163 17 -2 48 -7 70 -10 118 -17 540 -25 655 -12 81 9
97 12 240 43 139 31 165 42 209 83 l35 33 -40 -7 c-21 -4 -95 -20 -164 -36
-167 -39 -178 -41 -300 -58 -67 -9 -494 -8 -566 2 -47 6 -87 24 -80 36 3 4 92
6 198 5 173 -1 243 3 351 21 33 6 217 43 252 51 11 3 31 7 45 10 49 10 215 45
230 49 55 14 130 62 130 84 0 5 -7 14 -15 21 -18 15 -42 10 -214 -47 -77 -26
-160 -47 -192 -49 -50 -2 -60 0 -86 24 -37 35 -78 91 -87 119 -11 34 18 78 74
115 57 37 51 46 -18 27 -34 -9 -61 -26 -94 -61 -26 -26 -51 -48 -57 -48 -6 0
-63 27 -128 60 -116 58 -284 120 -373 136 -25 4 -47 8 -50 9 -3 1 -30 5 -60 9
-30 5 -64 10 -75 13 -39 8 -371 10 -425 3 -100 -15 -129 -21 -197 -41 -38 -11
-78 -23 -90 -26 -13 -3 -23 -9 -23 -14 0 -5 -5 -9 -12 -9 -6 0 -41 -18 -77
-39 -94 -56 -190 -153 -225 -228 -32 -69 -50 -79 -106 -59 -55 19 -185 113
-237 170 -71 80 -87 123 -89 247 -2 100 0 110 36 205 20 54 54 128 75 164 46
81 75 144 75 164 0 34 -25 27 -67 -19 -60 -65 -151 -255 -208 -435 -74 -232
-94 -286 -137 -378 -63 -136 -107 -239 -144 -340 -95 -263 -186 -390 -386
-542 -51 -39 -109 -87 -172 -143 -75 -68 -95 -87 -311 -292 -81 -77 -195 -185
-253 -240 -313 -296 -391 -385 -450 -507 -50 -104 -41 -129 36 -109 37 11 260
143 321 193 84 66 164 120 231 155 70 37 219 85 300 97 19 3 44 7 55 10 11 2
40 7 65 11 25 4 54 9 65 11 11 3 34 6 50 8 30 5 69 12 115 21 14 3 48 7 75 10
28 3 57 8 65 10 61 16 294 24 385 12 52 -7 63 -9 130 -27 22 -6 50 -14 63 -17
12 -3 25 -9 28 -14 3 -5 13 -9 22 -9 17 0 243 -107 252 -119 3 -4 21 -18 40
-31 118 -81 237 -219 310 -359 79 -151 149 -130 184 56 20 102 24 123 37 180
14 64 12 152 -5 208 -8 28 -56 169 -106 315 -82 237 -183 563 -195 630 -6 34
-14 70 -20 100 -6 27 -12 56 -21 105 -3 17 -7 46 -9 65 -2 19 -6 44 -9 55 -6
32 -19 172 -21 245 -6 217 119 340 444 436 117 34 162 39 351 39 321 0 488
-51 785 -238 61 -38 112 -73 113 -78 2 -5 9 -9 16 -9 6 0 20 -9 30 -21 19 -23
15 -65 -6 -67 -7 0 -24 -3 -38 -6 -57 -14 -189 -20 -415 -20 -295 0 -385 9
-518 51 -57 19 -75 9 -72 -40 3 -45 27 -89 94 -172 82 -103 160 -178 231 -224
61 -40 258 -122 375 -157 33 -10 65 -19 70 -21 116 -36 297 -75 420 -90 78
-10 411 -9 495 0 81 10 238 44 293 63 82 29 96 27 169 -26 188 -137 452 -249
678 -286 19 -3 38 -8 41 -10 30 -18 198 -23 264 -8 22 5 78 7 125 5 114 -5
259 -4 290 2 30 6 75 15 110 22 14 3 40 8 58 11 18 3 58 17 90 32 60 27 99 31
212 18 72 -8 276 -8 330 0 86 12 191 36 241 55 164 62 210 136 167 269 -7 19
-13 40 -14 45 -1 6 -10 30 -19 55 -14 35 -18 83 -20 215 -3 168 -9 218 -39
303 -9 24 -18 64 -22 89 -6 44 -4 47 39 88 121 117 137 187 73 314 -95 187
-143 235 -282 286 -67 24 -154 77 -204 123 -42 38 -141 102 -159 101 -9 0 -26
-4 -38 -9z m447 -278 c36 -18 73 -43 83 -54 16 -19 16 -23 2 -38 -21 -24 -111
-64 -128 -57 -11 4 -77 177 -77 202 0 6 38 -11 120 -53z m180 -222 c14 -27
-13 -45 -62 -41 -28 2 -24 50 5 60 27 10 44 4 57 -19z m-5990 -347 c-4 -16
-17 -55 -29 -88 -19 -54 -48 -153 -56 -196 -23 -115 -118 -345 -199 -479 -162
-268 -345 -447 -722 -705 -111 -76 -175 -133 -199 -179 -33 -61 -8 -59 62 4
44 42 153 125 308 236 204 146 357 282 450 399 22 28 43 52 46 55 3 3 27 36
53 74 103 150 189 355 241 571 1 6 5 17 8 25 3 8 11 35 18 60 22 88 86 210
109 210 13 0 1 -59 -34 -179 -29 -99 -69 -254 -81 -313 -11 -55 -72 -271 -106
-378 -73 -227 -112 -306 -194 -395 -39 -43 -115 -153 -115 -167 0 -21 39 -4
80 35 108 102 203 258 259 425 17 50 33 100 35 110 1 9 6 24 9 32 3 8 10 38
16 65 6 28 26 122 45 210 19 88 37 173 40 189 5 29 21 107 32 156 3 14 6 30 7
35 6 26 48 85 60 85 22 0 25 -8 16 -56 -5 -25 -11 -60 -13 -77 -3 -18 -10 -61
-16 -97 -15 -86 -18 -107 -25 -160 -3 -25 -8 -61 -11 -80 -3 -19 -7 -51 -9
-70 -13 -106 -17 -135 -21 -154 -15 -77 -36 -293 -37 -381 -1 -67 14 -203 27
-245 12 -42 13 -34 11 105 -1 83 1 179 5 215 12 98 21 180 25 230 2 25 6 59 9
75 3 17 8 55 11 85 3 30 7 71 10 90 3 19 7 55 10 80 5 41 12 101 21 170 9 72
14 107 19 128 3 12 7 31 10 43 5 24 23 49 36 49 12 0 28 -43 30 -78 1 -15 -2
-119 -7 -232 -17 -469 -5 -636 61 -850 2 -5 5 -14 29 -74 6 -16 23 -54 38 -85
21 -44 27 -51 27 -31 1 14 -3 41 -8 60 -6 19 -12 58 -15 85 -5 43 -12 84 -29
170 -33 159 -53 342 -51 475 2 128 18 386 28 455 2 11 4 26 5 33 1 13 59 16
79 4 9 -7 14 -64 17 -228 2 -120 6 -239 9 -264 10 -89 16 -135 20 -160 3 -14
10 -61 16 -105 7 -44 13 -87 15 -95 2 -8 10 -55 19 -103 23 -120 71 -309 87
-338 7 -13 12 -26 11 -29 -3 -8 17 -67 56 -170 20 -52 35 -99 34 -103 -1 -5 3
-7 10 -5 7 3 13 19 12 36 -1 30 -50 197 -64 217 -4 6 -13 28 -19 50 -7 22 -15
47 -18 55 -3 8 -7 20 -8 25 -2 6 -11 37 -20 70 -10 33 -18 61 -17 62 0 2 -3
17 -8 34 -5 18 -12 48 -15 68 -3 20 -8 48 -10 61 -11 51 -22 138 -30 225 -4
39 -8 88 -11 110 -2 22 -6 74 -9 115 -4 41 -8 81 -10 88 -3 6 -7 69 -10 140
-6 113 -5 131 13 161 33 61 49 49 57 -42 10 -109 23 -189 49 -298 8 -37 17
-78 20 -90 26 -137 100 -425 125 -484 13 -31 99 -306 107 -340 12 -56 16 -110
17 -228 0 -117 0 -118 -29 -148 -24 -26 -34 -30 -63 -25 -18 3 -59 25 -90 49
-144 113 -371 237 -531 290 -152 50 -398 74 -550 54 -30 -4 -75 -10 -100 -13
-25 -3 -83 -14 -130 -25 -47 -11 -96 -23 -110 -25 -114 -22 -594 -187 -700
-241 -36 -19 -39 8 -5 57 23 34 136 150 191 197 42 36 196 176 355 323 144
133 477 466 520 520 56 69 111 171 179 330 34 80 68 159 75 175 75 169 135
295 140 295 2 0 0 -12 -5 -27z"/>
<path d="M5558 4415 c-46 -17 -113 -63 -151 -103 -21 -22 -27 -36 -22 -51 9
-30 27 -26 63 13 27 30 118 83 154 90 28 5 88 35 88 44 0 25 -74 28 -132 7z"/>
<path d="M5144 4371 c-43 -20 -137 -104 -147 -133 -3 -9 1 -22 9 -29 13 -11
22 -6 55 32 21 24 39 47 39 50 0 6 62 35 135 64 31 13 36 18 25 25 -24 15 -71
11 -116 -9z"/>
<path d="M6600 4348 c-19 -4 -43 -10 -53 -13 -9 -2 -53 -22 -97 -44 -203 -102
-284 -195 -283 -326 1 -87 36 -159 115 -237 113 -111 235 -169 345 -164 142 8
344 146 407 280 23 49 26 65 22 122 -7 79 -48 172 -107 238 -37 41 -150 118
-204 140 -30 12 -105 14 -145 4z m172 -67 c59 -30 115 -68 121 -85 3 -7 -8
-12 -27 -13 -17 -1 -42 -3 -56 -6 -80 -14 -108 -19 -130 -27 -14 -5 -44 -14
-67 -20 -36 -9 -124 -61 -159 -94 -79 -73 -168 -164 -175 -178 -14 -26 -25
-22 -43 15 -36 78 7 210 99 300 56 55 157 112 215 122 19 3 37 8 39 11 3 3 33
4 67 3 44 -2 78 -10 116 -28z m-14 -233 c6 -6 12 -16 12 -23 0 -14 -31 -42
-45 -40 -73 7 -98 52 -41 75 22 9 53 4 74 -12z"/>
<path d="M4657 4239 c-41 -22 -97 -83 -97 -107 0 -9 5 -24 10 -32 9 -13 14
-10 35 15 14 17 33 40 42 51 10 12 42 33 71 48 28 14 52 31 52 37 0 15 -74 7
-113 -12z"/>
<path d="M3775 4241 c-61 -25 -92 -93 -60 -135 18 -24 33 -13 41 30 4 21 19
47 35 62 45 40 36 64 -16 43z"/>
<path d="M4215 4169 c-73 -38 -117 -119 -80 -149 12 -10 18 -7 32 20 47 83 55
92 108 116 30 14 55 27 55 30 0 13 -81 1 -115 -17z"/>
<path d="M5220 4092 c-129 -44 -177 -76 -211 -143 -22 -45 -24 -63 -6 -77 17
-15 77 21 77 46 0 43 64 90 165 122 49 16 69 30 57 42 -11 11 -62 17 -82 10z"/>
<path d="M4790 4019 c-56 -9 -134 -42 -178 -76 -29 -22 -33 -30 -30 -66 5 -67
23 -60 93 35 36 48 39 49 175 88 24 6 24 7 5 17 -11 5 -39 6 -65 2z"/>
<path d="M4750 3390 c-19 -5 -52 -11 -72 -14 -21 -3 -57 -10 -81 -16 -65 -14
-150 -20 -367 -26 -107 -3 -201 -7 -207 -9 -34 -11 5 -49 62 -62 6 -1 21 -4
35 -7 13 -3 42 -8 65 -11 22 -4 54 -8 70 -11 118 -21 462 -27 545 -10 14 2 47
7 74 11 54 7 76 16 96 39 11 14 9 16 -11 17 -13 1 -27 1 -31 0 -93 -13 -365
-17 -538 -6 -36 2 -78 4 -94 4 -55 2 -18 12 60 16 186 12 221 15 284 31 14 4
36 6 50 6 30 0 120 37 120 49 0 10 -12 10 -60 -1z"/>
</g>
</svg>
