<?xml version="1.0" standalone="no"?>
<!DOCTYPE svg PUBLIC "-//W3C//DTD SVG 20010904//EN"
 "http://www.w3.org/TR/2001/REC-SVG-20010904/DTD/svg10.dtd">
<svg version="1.0" xmlns="http://www.w3.org/2000/svg"
 width="796.000000pt" height="796.000000pt" viewBox="0 0 796.000000 796.000000"
 preserveAspectRatio="xMidYMid meet">
<metadata>
Created by potrace 1.14, written by Peter Selinger 2001-2017
</metadata>
<g transform="translate(0.000000,796.000000) scale(0.100000,-0.100000)"
fill="#000000" stroke="none">
<path d="M4713 6508 c-13 -6 -23 -17 -23 -24 0 -7 69 -46 153 -87 205 -101
296 -171 327 -252 10 -26 10 -26 -32 -20 -24 4 -45 8 -49 11 -3 2 -26 6 -50 9
-24 3 -51 7 -59 10 -26 7 -81 14 -245 30 -56 6 -374 7 -420 1 -16 -2 -66 -7
-109 -10 -43 -4 -86 -9 -95 -11 -30 -5 -96 -16 -126 -19 -16 -3 -51 -9 -78
-15 -26 -6 -64 -14 -83 -17 -53 -8 -65 -11 -114 -24 -25 -7 -56 -14 -70 -17
-14 -2 -63 -16 -110 -29 -308 -92 -510 -190 -631 -305 -78 -75 -99 -121 -60
-132 22 -5 69 25 121 79 85 88 248 173 479 250 118 40 305 91 366 100 11 1 55
10 98 18 42 9 104 18 138 21 33 3 64 7 68 9 42 26 823 28 951 3 123 -25 169
-46 171 -80 0 -7 1 -34 2 -60 2 -54 23 -78 60 -71 56 10 71 82 41 185 -39 132
-142 247 -294 328 -68 36 -71 43 -15 35 28 -4 61 -8 75 -9 14 -2 63 -13 110
-24 114 -29 104 -26 200 -56 47 -15 85 -27 85 -26 0 4 224 -76 345 -124 228
-89 399 -179 565 -297 58 -41 195 -147 205 -159 18 -20 145 -102 184 -119 58
-24 124 -27 133 -4 8 22 -33 61 -182 174 -364 274 -679 448 -1015 560 -103 34
-330 95 -395 106 -11 1 -31 6 -45 9 -50 11 -176 34 -225 41 -27 3 -59 8 -70
11 -47 10 -261 11 -282 1z"/>
<path d="M5418 6232 c-28 -6 -21 -30 14 -48 17 -9 102 -40 187 -69 86 -30 183
-65 216 -78 33 -14 78 -32 100 -41 92 -38 285 -140 305 -161 17 -18 19 -27 11
-48 -12 -30 12 -71 89 -152 26 -27 58 -62 71 -77 23 -26 37 -32 67 -29 18 2
-6 44 -70 124 -78 97 -88 110 -88 120 0 19 126 -81 229 -183 94 -93 181 -126
181 -69 0 20 -145 172 -200 209 -19 13 -37 27 -40 30 -12 13 -169 116 -253
166 -51 30 -99 59 -107 64 -79 48 -446 194 -540 215 -8 1 -33 8 -55 13 -53 14
-96 19 -117 14z"/>
<path d="M5460 6100 c0 -19 28 -65 57 -97 15 -16 39 -53 52 -81 27 -57 53 -72
69 -36 22 48 -19 139 -88 192 -40 31 -90 43 -90 22z"/>
<path d="M5740 5975 c12 -31 85 -128 124 -164 22 -21 26 -22 32 -7 9 24 -4 64
-35 110 -39 56 -62 75 -99 82 -32 6 -32 6 -22 -21z"/>
<path d="M4421 5974 c-73 -31 -111 -137 -60 -164 24 -13 33 3 30 53 -2 39 0
42 79 106 23 19 23 20 5 20 -11 0 -35 -6 -54 -15z"/>
<path d="M4965 5940 c-27 -11 -61 -49 -74 -82 -9 -23 -7 -32 13 -54 25 -29 51
-25 41 6 -11 36 7 72 51 100 24 15 41 30 37 34 -9 8 -43 7 -68 -4z"/>
<path d="M4051 5899 c-80 -57 -114 -130 -78 -166 21 -21 34 -10 35 28 1 41 27
75 85 114 25 16 45 35 43 40 -5 20 -47 12 -85 -16z"/>
<path d="M6006 5902 c-11 -18 85 -173 143 -232 13 -13 13 -11 7 15 -5 17 -11
46 -13 65 -7 47 -29 88 -70 127 -33 32 -57 41 -67 25z"/>
<path d="M5633 5800 c-38 -17 -76 -57 -102 -106 -9 -18 -7 -27 11 -49 20 -26
22 -26 34 -10 8 10 11 29 8 42 -9 33 16 66 78 102 29 17 51 31 48 32 -3 0 -12
2 -21 4 -9 1 -35 -5 -56 -15z"/>
<path d="M4695 5802 c-45 -9 -115 -101 -115 -151 0 -25 39 -49 50 -31 4 7 6
27 4 46 -4 40 21 74 76 105 57 32 52 44 -15 31z"/>
<path d="M5180 5749 c-59 -24 -119 -113 -100 -149 6 -11 19 -24 30 -30 25 -13
34 2 32 54 -2 48 8 63 63 93 22 12 41 26 43 32 5 14 -34 13 -68 0z"/>
<path d="M5915 5716 c-45 -19 -95 -65 -95 -87 0 -27 29 -24 60 6 14 13 45 35
70 48 25 13 45 28 45 33 0 14 -47 14 -80 0z"/>
<path d="M4259 5683 c-51 -21 -99 -85 -99 -131 0 -25 46 -47 54 -26 3 8 3 20
0 28 -3 7 2 30 10 50 12 28 26 42 60 57 25 11 48 23 50 28 9 13 -38 10 -75 -6z"/>
<path d="M3386 5559 c-53 -62 -43 -104 25 -115 28 -5 41 -1 67 21 36 30 39 52
17 95 -22 43 -73 42 -109 -1z"/>
<path d="M3589 5559 c-41 -44 -48 -78 -19 -101 31 -25 73 -23 109 8 35 29 38
51 16 94 -22 42 -66 41 -106 -1z"/>
<path d="M4034 5368 c-28 -7 -32 -12 -32 -42 0 -19 -2 -39 -5 -43 -3 -5 -22
-81 -42 -168 -87 -388 -110 -465 -139 -465 -14 0 -14 16 2 44 3 5 6 28 7 52 3
67 -24 89 -99 85 -40 -2 -54 -16 -67 -65 -19 -67 -14 -132 13 -172 27 -40 108
-83 153 -79 102 7 227 164 259 325 9 46 44 204 56 250 6 25 12 52 14 60 14 56
28 107 33 120 3 8 7 20 9 25 1 6 5 17 8 26 14 32 -104 65 -170 47z"/>
<path d="M4535 5369 c-73 -10 -166 -36 -181 -51 -11 -11 -58 -170 -71 -238 -2
-14 -17 -79 -33 -145 -31 -127 -45 -191 -55 -240 -3 -16 -9 -46 -13 -65 -5
-19 -4 -44 1 -56 10 -24 81 -60 117 -60 33 1 45 28 69 156 19 96 26 120 34
109 2 -2 37 -56 79 -120 65 -97 104 -139 132 -139 8 0 52 44 67 67 20 30 13
67 -32 156 -16 31 -27 57 -24 57 3 0 -2 11 -11 25 -17 25 -17 25 71 108 92 86
125 136 131 198 4 39 -25 135 -52 177 -29 45 -136 73 -229 61z m105 -174 c21
-26 -7 -84 -72 -146 -51 -49 -117 -94 -125 -85 -1 1 11 49 27 107 17 57 30
105 30 106 0 1 7 9 16 17 20 21 107 22 124 1z"/>
<path d="M5093 5360 c-44 -20 -62 -40 -132 -143 -112 -164 -173 -351 -159
-483 14 -131 57 -183 174 -209 71 -16 79 -16 119 0 52 19 117 80 168 158 34
52 88 157 93 182 1 6 10 37 19 70 9 33 18 99 20 146 6 154 -40 234 -156 271
-81 25 -105 27 -146 8z m96 -179 c17 -31 6 -189 -17 -254 -49 -136 -120 -247
-157 -247 -15 0 -32 45 -30 80 8 115 72 287 149 398 33 47 41 50 55 23z"/>
<path d="M2822 5357 c-6 -7 -13 -24 -15 -37 -3 -14 -15 -59 -26 -100 -12 -41
-23 -82 -25 -90 -2 -8 -9 -33 -14 -55 -6 -22 -13 -51 -16 -65 -2 -14 -18 -81
-34 -150 -62 -258 -63 -268 -13 -318 l30 -29 85 23 c81 21 142 33 178 34 9 0
23 6 30 14 18 18 23 112 7 122 -6 4 -42 14 -78 24 -80 20 -78 9 -27 210 21 80
40 156 42 170 3 14 14 59 25 102 10 42 19 86 19 98 0 41 -140 81 -168 47z"/>
<path d="M3370 5354 c-41 -25 -136 -161 -189 -269 -59 -121 -85 -215 -85 -315
1 -89 16 -140 55 -185 32 -36 55 -46 141 -65 50 -11 61 -11 103 6 97 40 212
200 264 369 55 176 42 332 -34 407 -58 58 -200 86 -255 52z m116 -166 c15 -24
12 -154 -5 -218 -36 -132 -126 -290 -167 -290 -36 0 -40 99 -8 206 10 33 19
64 20 69 5 26 71 155 102 198 35 49 46 55 58 35z"/>
<path d="M5972 5358 c-19 -24 -94 -198 -148 -346 -22 -61 -41 -97 -45 -90 -4
7 -6 15 -4 19 3 3 7 37 10 75 7 77 11 121 21 211 l6 62 -38 10 c-55 14 -117
27 -129 26 -31 -2 -61 -16 -71 -32 -9 -15 -75 -253 -89 -323 -2 -8 -4 -15 -5
-15 -1 0 -3 -7 -5 -15 -1 -8 -11 -44 -20 -80 -9 -36 -19 -78 -22 -93 -2 -16
-10 -47 -17 -70 -7 -23 -13 -63 -15 -89 -2 -47 -2 -47 43 -67 50 -23 106 -28
107 -8 1 15 1 17 29 142 12 55 24 111 26 125 3 14 7 32 9 40 3 8 7 33 11 55 3
22 8 47 9 55 2 8 6 43 10 78 4 34 12 65 17 68 7 4 7 -29 2 -97 -10 -131 -11
-365 -2 -375 4 -3 26 -8 50 -11 l43 -5 53 112 c28 61 52 116 52 121 0 5 5 9
12 9 6 0 9 3 6 6 -4 3 11 44 32 90 22 46 39 87 40 89 0 3 8 24 17 47 25 63 27
31 3 -53 -21 -73 -86 -307 -95 -343 -2 -10 -11 -43 -20 -73 -9 -29 -13 -58
-10 -63 8 -13 73 -30 116 -30 29 0 38 4 43 23 14 47 57 213 62 235 3 13 18 77
34 143 16 66 32 139 35 161 4 23 17 81 29 130 l23 88 -26 19 c-25 18 -131 51
-164 51 -8 0 -19 -6 -25 -12z"/>
<path d="M6456 5349 c-58 -31 -145 -124 -173 -186 -18 -38 -26 -73 -26 -116
-1 -69 15 -108 68 -166 92 -99 105 -130 67 -164 -40 -37 -103 -6 -132 64 -14
32 -24 32 -82 3 -35 -18 -41 -30 -40 -71 4 -110 119 -202 237 -190 157 15 289
206 230 331 -9 18 -46 64 -84 103 -74 76 -89 111 -71 159 12 30 48 74 61 74 5
0 6 -31 4 -69 -3 -62 -2 -69 18 -79 36 -19 103 -22 125 -6 34 23 55 95 50 168
-5 76 -15 91 -97 135 -68 36 -101 38 -155 10z"/>
<path d="M6985 5262 c-30 -6 -105 -91 -106 -121 -4 -58 2 -75 36 -116 40 -49
42 -57 19 -76 -14 -12 -20 -9 -43 17 -22 27 -29 30 -48 21 -60 -27 3 -127 81
-127 57 0 126 68 126 125 0 16 -18 56 -29 65 -4 3 -18 20 -33 38 -27 32 -28
50 -4 81 9 11 12 6 16 -24 4 -34 9 -39 35 -42 38 -5 55 17 55 73 0 35 -5 46
-27 62 -35 24 -53 29 -78 24z"/>
<path d="M1716 5238 c-24 -36 -65 -134 -77 -183 -16 -63 -22 -49 -10 21 23
132 24 121 -11 133 -42 15 -48 8 -89 -104 -43 -117 -51 -126 -28 -28 11 43 22
97 25 120 6 39 4 43 -19 48 -14 4 -33 5 -43 3 -17 -3 -19 -8 -30 -88 -3 -25
-7 -56 -9 -70 -25 -173 -26 -210 -7 -216 9 -3 24 -9 33 -14 27 -14 46 9 79 95
16 44 28 67 25 50 -11 -63 -15 -124 -7 -128 4 -3 23 -8 43 -12 42 -8 44 -4 98
130 16 39 40 95 54 125 50 110 52 119 21 131 -33 12 -31 12 -48 -13z"/>
<path d="M2067 5207 c-13 -29 -33 -76 -43 -105 -10 -28 -23 -52 -27 -52 -5 0
-6 7 -3 17 4 9 9 32 12 52 2 20 7 46 9 58 4 17 -2 23 -27 32 -42 15 -47 9 -93
-111 -20 -54 -39 -98 -42 -98 -3 0 -2 7 1 17 15 38 47 206 42 219 -6 15 -54
19 -71 6 -12 -8 -13 -13 -21 -84 -3 -29 -7 -58 -9 -65 -5 -14 -18 -144 -19
-187 -1 -27 4 -31 40 -42 l42 -12 33 86 c18 48 36 92 41 97 5 6 5 -2 -1 -17
-5 -15 -12 -51 -15 -81 -6 -53 -5 -55 23 -67 16 -6 37 -10 47 -8 20 4 180 366
167 378 -4 4 -20 10 -34 14 -24 5 -29 1 -52 -47z m-70 -189 c-3 -8 -6 -5 -6 6
-1 11 2 17 5 13 3 -3 4 -12 1 -19z"/>
<path d="M2462 5247 c-16 -19 -61 -122 -83 -187 l-18 -55 6 50 c3 28 7 53 9
57 9 15 15 86 7 91 -4 2 -21 7 -36 11 -26 6 -29 3 -51 -46 -29 -68 -38 -91
-42 -103 -5 -20 -24 -65 -27 -65 -2 0 8 51 23 113 15 61 24 117 19 122 -4 6
-21 12 -38 13 -28 2 -43 -9 -47 -33 -6 -35 -15 -96 -19 -130 -7 -70 -16 -139
-20 -166 -5 -30 9 -46 54 -59 l30 -8 31 81 c17 45 35 91 40 102 10 19 10 19 5
-2 -34 -132 -29 -157 33 -169 31 -6 32 -5 67 71 19 43 35 84 35 91 0 8 5 14
10 14 6 0 10 6 10 13 0 6 16 49 37 95 22 49 33 86 27 91 -18 17 -51 21 -62 8z"/>
<path d="M7165 5251 c-3 -6 -46 -169 -60 -227 -2 -11 -9 -37 -14 -59 -6 -22
-11 -48 -11 -57 0 -20 37 -61 48 -54 4 2 25 7 47 10 59 9 100 21 98 29 -2 4
-3 13 -3 21 0 26 -28 45 -60 40 -24 -4 -30 -2 -30 13 0 30 13 40 58 47 56 7
62 12 62 46 0 29 -15 40 -56 40 -17 0 -24 6 -24 19 0 31 28 51 69 51 21 0 44
6 50 14 12 14 10 50 -2 63 -9 9 -166 12 -172 4z"/>
<path d="M2500 4953 c-34 -43 -24 -91 18 -88 28 2 49 22 56 55 13 53 -40 76
-74 33z"/>
<path d="M6695 4959 c-10 -10 -18 -35 -19 -55 -1 -32 2 -37 23 -39 29 -2 71
35 71 62 -1 44 -47 64 -75 32z"/>
<path d="M7233 4640 c-13 -5 -23 -15 -23 -23 0 -7 42 -56 93 -109 150 -156
215 -256 283 -436 31 -81 95 -278 109 -332 7 -29 67 -195 92 -254 27 -66 37
-153 22 -194 -13 -37 -85 -98 -128 -110 -20 -6 -74 -18 -121 -27 -156 -29
-183 -43 -156 -80 9 -13 26 -17 65 -17 29 1 56 4 59 6 4 2 26 7 48 10 54 8 94
20 176 53 64 25 70 25 85 10 15 -15 15 -18 -3 -38 -10 -11 -32 -28 -49 -36
-24 -13 -223 -84 -232 -83 -2 0 -4 0 -5 -1 -2 0 -12 -2 -23 -4 -11 -2 -50 -10
-86 -18 -148 -34 -297 -41 -394 -20 -33 7 -94 15 -136 18 -66 4 -78 3 -93 -14
-17 -19 -17 -20 13 -35 16 -9 47 -18 68 -21 21 -3 50 -8 65 -10 60 -9 197 -17
263 -17 142 2 210 15 417 80 164 52 219 45 167 -22 -53 -67 -190 -127 -334
-145 -87 -11 -321 -6 -395 8 -298 59 -739 252 -886 388 -17 16 -44 51 -59 78
-43 74 -66 84 -83 38 -11 -35 8 -109 38 -140 11 -12 20 -27 20 -33 0 -5 4 -10
8 -10 4 0 23 -15 42 -33 86 -82 311 -208 486 -272 38 -14 78 -29 89 -34 11 -5
40 -15 65 -22 25 -7 49 -16 53 -19 20 -18 -122 -44 -248 -46 -166 -3 -221 7
-405 76 -181 67 -218 36 -76 -63 15 -10 24 -23 21 -28 -4 -5 -10 -7 -14 -5 -4
3 -18 7 -32 9 -86 16 -383 111 -528 169 -85 33 -198 97 -222 125 -30 35 -30
42 -1 71 37 37 50 61 45 82 -6 23 -48 17 -123 -17 -63 -29 -98 -43 -120 -48
-8 -3 -40 -11 -70 -20 -81 -23 -218 -53 -275 -60 -27 -4 -53 -9 -56 -11 -3 -1
-37 -6 -75 -10 -227 -23 -389 1 -716 109 -311 103 -480 203 -591 350 -58 76
-48 90 53 74 68 -12 83 -22 69 -48 -27 -50 19 -85 220 -166 75 -30 162 -65
194 -78 31 -13 57 -21 57 -19 0 3 8 0 18 -5 11 -6 30 -12 43 -14 13 -3 42 -10
65 -16 66 -18 229 -44 354 -56 64 -7 284 -7 345 0 138 14 289 49 317 72 39 34
4 44 -99 29 -24 -3 -61 -8 -83 -11 -22 -3 -57 -7 -78 -10 -162 -22 -390 -22
-505 1 -12 2 -38 7 -57 10 -96 17 -251 59 -371 100 -139 48 -396 167 -344 159
17 -2 48 -7 70 -10 118 -17 540 -25 655 -12 81 9 97 12 240 43 139 31 165 42
209 83 l35 33 -40 -7 c-21 -4 -104 -22 -184 -41 -147 -34 -164 -37 -280 -53
-67 -9 -507 -7 -572 2 -43 7 -81 25 -74 36 3 4 92 6 198 5 196 -2 260 3 403
32 44 8 92 17 107 19 15 2 36 6 47 10 20 6 45 12 91 21 241 48 308 69 343 108
21 23 21 30 2 46 -18 15 -42 10 -214 -47 -167 -55 -238 -63 -275 -28 -38 35
-84 37 -117 4 l-20 -20 20 -18 c24 -21 27 -44 9 -58 -33 -26 -169 -37 -463
-37 -295 0 -385 9 -518 51 -58 19 -76 8 -71 -42 4 -46 27 -88 89 -166 86 -106
166 -184 234 -228 62 -40 259 -122 376 -157 33 -10 65 -19 70 -21 61 -19 217
-57 280 -69 141 -25 196 -29 400 -29 215 1 335 15 492 61 137 40 132 40 204
-15 158 -119 414 -233 622 -277 41 -9 122 -25 152 -32 44 -9 164 -7 210 4 22
5 78 7 125 5 114 -5 259 -4 290 2 30 6 75 15 110 22 14 3 40 8 58 11 18 3 58
17 90 32 60 27 99 31 212 18 72 -8 276 -8 330 0 294 42 437 128 423 254 -2 19
-18 78 -35 130 -30 90 -32 104 -34 260 -2 162 -8 213 -38 298 -9 24 -18 64
-22 89 -6 44 -4 47 39 88 118 114 137 187 77 305 -55 111 -113 196 -156 228
-37 29 -66 43 -174 83 -19 7 -82 49 -139 92 -160 121 -170 126 -218 107z m447
-278 c36 -18 73 -43 83 -54 16 -19 16 -23 2 -38 -21 -24 -111 -64 -128 -57
-11 4 -77 177 -77 202 0 6 38 -11 120 -53z m180 -222 c14 -27 -13 -45 -62 -41
-28 2 -24 50 5 60 27 10 44 4 57 -19z"/>
<path d="M2093 4566 c-45 -51 -115 -180 -161 -301 -33 -85 -43 -114 -48 -130
-37 -140 -85 -274 -141 -395 -59 -126 -103 -231 -139 -328 -95 -263 -186 -390
-386 -542 -41 -32 -143 -116 -169 -140 -14 -14 -68 -64 -120 -112 -52 -48
-133 -124 -180 -170 -48 -46 -151 -144 -230 -218 -348 -330 -426 -416 -487
-542 -50 -104 -41 -129 36 -109 37 11 260 143 321 193 84 66 164 120 231 155
70 37 219 85 300 97 19 3 44 7 55 10 11 2 40 7 65 11 25 4 54 9 65 11 11 3 34
6 50 8 17 3 46 8 65 11 19 4 46 9 60 11 14 1 43 6 65 9 22 3 51 7 65 10 126
24 361 24 455 1 11 -3 38 -10 60 -16 22 -6 50 -14 63 -17 12 -3 25 -9 28 -14
3 -5 13 -9 22 -9 17 0 243 -107 252 -119 3 -4 21 -18 40 -31 118 -81 237 -219
310 -359 79 -151 149 -130 184 56 20 102 24 123 37 182 21 96 12 170 -36 301
-52 140 -194 572 -229 697 -36 130 -41 149 -51 208 -3 17 -8 37 -10 45 -2 8
-7 29 -10 45 -2 17 -7 41 -10 55 -3 14 -7 43 -10 65 -2 22 -6 49 -9 60 -2 12
-7 57 -11 100 -22 235 -4 318 91 411 99 98 345 191 549 208 53 5 89 33 83 65
-7 33 -218 16 -375 -30 -38 -11 -78 -23 -90 -26 -13 -3 -23 -9 -23 -14 0 -5
-5 -9 -12 -9 -6 0 -41 -18 -77 -39 -94 -56 -190 -153 -225 -228 -32 -69 -50
-79 -106 -59 -55 19 -185 113 -237 170 -71 80 -87 123 -89 247 -2 100 0 110
36 205 20 54 54 128 75 164 72 127 88 177 59 187 -6 2 -29 -17 -51 -41z m-223
-773 c-4 -16 -17 -55 -29 -88 -19 -54 -48 -153 -56 -196 -23 -115 -119 -347
-199 -479 -163 -269 -345 -447 -722 -705 -111 -76 -175 -133 -199 -179 -33
-61 -8 -59 62 4 44 42 153 125 308 236 204 146 357 282 450 399 22 28 43 52
46 55 3 3 27 36 53 74 103 150 189 355 241 571 1 6 4 17 7 25 3 8 16 47 28 85
33 103 77 185 100 185 12 0 2 -58 -25 -145 -13 -44 -55 -204 -94 -355 -124
-486 -185 -644 -296 -765 -39 -43 -115 -153 -115 -167 0 -21 39 -4 80 35 128
121 223 291 287 512 24 84 106 452 119 535 3 19 8 38 10 41 2 4 6 24 10 44 3
21 8 47 10 59 3 11 6 26 7 31 6 26 48 85 60 85 22 0 25 -8 16 -56 -5 -25 -11
-60 -13 -77 -3 -18 -10 -61 -16 -97 -15 -86 -18 -107 -25 -160 -3 -25 -8 -61
-11 -80 -3 -19 -7 -51 -9 -70 -13 -106 -17 -135 -21 -154 -15 -77 -36 -293
-37 -381 -1 -67 14 -203 27 -245 12 -42 13 -34 11 105 -1 83 1 179 5 215 10
79 20 168 26 235 2 28 6 61 9 75 3 13 7 52 10 85 3 33 8 71 10 85 2 14 7 50
10 80 5 53 8 76 21 170 3 25 7 59 9 75 3 17 7 40 10 53 3 12 7 31 10 43 5 24
23 49 36 49 12 0 28 -43 30 -78 1 -15 -2 -119 -7 -232 -17 -471 -6 -636 61
-850 2 -5 5 -14 29 -74 6 -16 23 -54 38 -85 21 -44 27 -51 27 -31 1 14 -3 41
-8 60 -6 19 -12 58 -15 85 -5 43 -12 84 -29 170 -35 166 -53 343 -51 490 2
131 17 369 28 440 2 11 4 26 5 33 1 14 78 14 87 0 3 -4 7 -105 9 -225 2 -120
6 -238 9 -263 11 -90 16 -136 20 -160 3 -14 10 -61 16 -105 7 -44 13 -87 15
-95 2 -8 10 -55 19 -103 23 -120 71 -309 87 -338 7 -13 12 -26 11 -29 -3 -8
17 -67 56 -170 20 -52 35 -99 34 -103 -1 -5 3 -7 10 -5 7 3 13 19 12 36 -1 30
-50 197 -64 217 -4 6 -13 28 -19 50 -7 22 -15 47 -18 55 -3 8 -7 20 -8 25 -2
6 -11 37 -20 70 -10 33 -18 61 -17 62 0 2 -3 17 -8 34 -5 18 -12 48 -15 68 -3
20 -8 48 -10 61 -11 51 -22 138 -30 225 -4 39 -8 88 -11 110 -2 22 -6 72 -9
110 -3 39 -8 81 -11 94 -3 13 -7 78 -10 145 -4 104 -2 126 14 155 33 61 49 49
57 -42 10 -109 23 -189 49 -298 8 -37 17 -78 20 -90 33 -172 84 -364 151 -564
90 -268 96 -302 98 -488 0 -117 0 -118 -29 -148 -24 -26 -34 -30 -63 -25 -18
3 -59 25 -90 49 -144 113 -371 237 -531 290 -152 50 -397 74 -550 54 -30 -4
-73 -9 -95 -12 -22 -3 -62 -10 -90 -15 -27 -6 -60 -12 -73 -15 -12 -2 -26 -6
-30 -9 -5 -3 -24 -8 -43 -11 -113 -20 -596 -184 -709 -242 -37 -19 -39 8 -5
57 24 34 135 149 191 197 43 37 198 178 355 323 144 134 477 466 520 520 56
69 111 171 179 330 34 80 68 159 75 175 75 169 135 295 140 295 2 0 0 -12 -5
-27z"/>
<path d="M4289 4396 c-2 -3 -38 -6 -79 -7 -102 -3 -120 -10 -120 -52 0 -26 4
-33 21 -34 12 -1 23 -4 25 -6 3 -3 -20 -113 -42 -202 -2 -11 -7 -36 -10 -55
-5 -32 -2 -36 24 -46 35 -14 53 -5 58 27 2 13 8 42 14 64 6 22 16 58 21 80 33
134 38 144 72 147 28 3 32 7 35 37 3 31 -8 58 -19 47z"/>
<path d="M4678 4367 c-15 -18 -44 -58 -64 -88 -46 -67 -49 -70 -40 -39 21 70
27 113 19 121 -5 5 -24 10 -43 11 l-34 3 -18 -70 c-10 -38 -20 -79 -22 -90 -2
-11 -14 -60 -25 -108 -12 -48 -21 -92 -21 -96 0 -17 62 -32 77 -20 7 7 11 14
9 16 -2 3 2 23 10 45 7 22 12 43 9 48 -2 4 1 13 8 21 7 8 11 13 11 11 -4 -8
28 -98 41 -119 13 -19 19 -21 35 -13 35 19 40 41 21 110 -17 60 -17 67 -2 90
8 14 18 27 21 30 11 10 80 117 80 123 0 9 -33 47 -40 47 -3 0 -17 -15 -32 -33z"/>
<path d="M5195 4392 c-9 -7 -13 -17 -20 -52 -1 -8 -6 -33 -10 -55 -10 -48 -11
-59 -13 -104 -1 -19 -5 -32 -8 -28 -5 5 -10 65 -13 169 -1 33 -44 60 -76 48
-18 -7 -39 -64 -61 -165 -1 -5 -12 -52 -23 -102 -12 -51 -21 -99 -21 -107 0
-15 42 -27 59 -17 14 9 28 49 35 106 17 127 26 158 26 94 0 -19 5 -54 11 -79
6 -25 12 -51 13 -59 6 -37 80 -56 90 -23 23 75 85 359 82 369 -6 14 -54 17
-71 5z"/>
<path d="M3605 4384 c-5 -1 -22 -5 -37 -8 -26 -6 -37 -28 -53 -106 -2 -8 -4
-16 -5 -17 -3 -3 -3 -3 -15 -58 -4 -22 -10 -44 -11 -50 -8 -27 -18 -83 -18
-110 -1 -23 5 -33 27 -43 53 -26 187 31 212 90 13 33 5 75 -17 89 -7 5 0 17
21 34 48 41 61 73 46 110 -19 45 -48 66 -97 69 -23 2 -47 2 -53 0z m70 -84 c8
-14 -14 -45 -46 -64 -35 -21 -43 -8 -24 38 12 27 21 36 40 36 13 0 26 -4 30
-10z m-50 -171 c10 -16 -25 -49 -53 -49 -18 0 -23 4 -18 16 3 9 6 22 6 30 0
17 55 20 65 3z"/>
<path d="M3977 4378 c-8 -7 -18 -31 -22 -53 -3 -22 -12 -65 -21 -95 -8 -30
-17 -66 -20 -79 -15 -72 -72 -117 -61 -48 8 50 17 90 27 117 21 59 33 131 24
139 -5 6 -22 12 -37 15 -25 4 -30 1 -42 -27 -20 -48 -54 -186 -59 -242 -5 -45
-3 -50 31 -81 63 -57 105 -54 166 12 24 25 50 105 78 234 6 30 15 60 20 65 10
13 0 29 -28 44 -28 14 -35 14 -56 -1z"/>
<path d="M4345 4353 c-5 -21 -9 -42 -11 -48 -2 -5 -5 -19 -7 -30 -3 -11 -17
-66 -31 -121 -42 -164 -41 -174 19 -174 27 0 34 5 40 28 5 15 9 32 11 37 1 6
12 55 23 110 11 55 27 125 36 155 14 51 13 56 -2 68 -9 6 -29 12 -44 12 -23 0
-28 -5 -34 -37z"/>
<path d="M4782 4353 c-13 -32 -67 -250 -76 -305 -9 -52 11 -70 72 -63 94 11
117 19 118 44 2 28 -35 53 -70 47 -20 -4 -26 -1 -26 12 0 29 13 39 64 48 36 7
51 15 57 31 11 30 -10 54 -49 55 -23 1 -32 6 -32 18 0 29 24 48 66 53 53 5 64
13 64 42 0 34 -27 45 -108 45 -67 0 -70 -1 -80 -27z"/>
<path d="M6600 4348 c-19 -4 -43 -10 -53 -13 -9 -2 -53 -22 -97 -44 -203 -102
-284 -195 -283 -326 1 -87 36 -159 115 -237 113 -111 235 -169 345 -164 142 8
344 146 407 280 23 49 26 65 22 122 -7 79 -48 172 -107 238 -37 41 -150 118
-204 140 -30 12 -105 14 -145 4z m172 -67 c59 -30 115 -68 121 -85 3 -7 -8
-12 -27 -13 -17 -1 -42 -3 -56 -6 -80 -14 -108 -19 -130 -27 -14 -5 -44 -14
-67 -20 -36 -9 -124 -61 -159 -94 -79 -73 -168 -164 -175 -178 -14 -26 -24
-22 -42 14 -22 46 -15 122 17 191 90 188 352 299 518 218z m-14 -233 c6 -6 12
-16 12 -23 0 -14 -31 -42 -45 -40 -73 7 -98 52 -41 75 22 9 53 4 74 -12z"/>
<path d="M4750 3390 c-19 -5 -52 -11 -72 -14 -21 -3 -57 -10 -81 -16 -65 -14
-150 -20 -367 -26 -107 -3 -201 -7 -207 -9 -34 -11 5 -49 62 -62 6 -1 21 -4
35 -7 13 -3 42 -8 65 -11 22 -4 54 -8 70 -11 118 -21 462 -27 545 -10 14 2 47
7 74 11 54 7 76 16 96 39 11 14 9 16 -11 17 -13 1 -27 1 -30 1 -120 -14 -358
-17 -544 -7 -33 2 -73 4 -89 4 -59 2 -15 13 66 17 143 6 214 14 278 30 14 4
36 6 50 6 30 0 120 37 120 49 0 10 -12 10 -60 -1z"/>
</g>
</svg>
