<?xml version="1.0" encoding="utf-8"?>
<!-- Generator: Adobe Illustrator 26.3.1, SVG Export Plug-In . SVG Version: 6.00 Build 0)  -->
<svg version="1.1" id="Lager_1" xmlns="http://www.w3.org/2000/svg" xmlns:xlink="http://www.w3.org/1999/xlink" x="0px" y="0px"
	 viewBox="0 0 86 56" style="enable-background:new 0 0 86 56;" xml:space="preserve">
<style type="text/css">
	.st0{fill:#CB5252;}
</style>
<g>
	<path d="M6.7,19.6c0-0.4,0-0.8,0-1.2v-0.7c0-0.1,0.1-2.3,0.4-6.7c0.2-2.4,0-2.5,1.2-2.5c0.4,0,0.9,0.2,1.4,0.3
		C9.9,8.8,9.9,9,9.9,10.2c0,3.8-0.8,6.3-0.8,6.9c0,0.1,0,0.1,0.1,0.1c0.3,0,0.8-2.5,2.9-7.3c0.7-1.6,0.8-2.2,1.1-2.2
		c0.1,0,0.1,0,0.2,0c0.2,0,0.3,0,0.4,0c0.3,0,0.5,0.1,0.7,0.1h0.1c0.3,0,1,0.6,1,0.8c0,0.3-1.1,2.1-2.7,5.6c0,0.1-0.8,1.8-2.5,5.3
		c-0.6,1.4-0.7,1.7-1,1.7c-0.6,0-0.8-0.2-1-0.3c-0.4-0.3-0.8-0.2-0.9-0.3c-0.5-0.2-0.7-0.3-0.9-0.5C6.7,19.9,6.7,19.7,6.7,19.6z"/>
	<path d="M15.4,13.8c0.9-3.4,1.3-5.1,1.3-5.1c0-0.4,0-0.7,1.2-0.7c0.9,0,1.8,0.7,1.8,0.8c0,0.1-0.2,0.3-0.3,0.6c0,0.1-0.2,0.8-0.5,2
		c-0.4,1.6-0.7,3.2-1,4.6c-0.4,2.1-0.8,3.7-1.1,4.7c-0.1,0.5-0.4,0.5-1.1,0.5h-0.3c-1,0-1.5-0.6-1.5-0.7
		C13.9,20.3,14.3,18.1,15.4,13.8z"/>
	<path d="M49.7,20.3c0-0.6,0.7-3.9,2.2-9.8c0.5-2,0.2-2.3,1.7-2.3c0.5,0,0.9,0,1.1,0c0.6,0,1.2-0.1,1.7-0.1c0.3,0,0.5,0.1,0.6,0.1
		c0.1,0,0.2-0.1,0.3-0.1c0.3,0,0.9,0.7,0.9,1.6c0,0.6-0.1,1-0.3,1.1c-0.1,0.1-1,0.3-1.6,0.3c-0.2,0-0.4,0-0.6,0
		c-0.2,0-0.6,0.1-1.1,0.2c-0.2,0.8-0.4,1.5-0.5,2c1.6,0,2.4,0.1,2.6,0.2c0,0,0.3,0.8,0.3,1.2c0,1-0.4,1-0.5,1.1
		c-0.2,0.1-1.2,0.3-3,0.5c-0.6,1.9-0.8,3.3-1,4c-0.2,0.5-0.3,1-1.2,1c-0.3,0-0.7-0.3-1.6-0.5C49.7,20.5,49.7,20.4,49.7,20.3z"/>
	<path d="M58.7,13.8c0.9-3.4,1.3-5.1,1.3-5.1c0-0.4,0-0.7,1.2-0.7c0.9,0,1.8,0.7,1.8,0.8c0,0.1-0.2,0.3-0.3,0.6c0,0.1-0.2,0.8-0.5,2
		c-0.4,1.6-0.7,3.2-1,4.6c-0.4,2.1-0.8,3.7-1.1,4.7c-0.1,0.5-0.4,0.5-1.1,0.5h-0.3c-1,0-1.5-0.6-1.5-0.7
		C57.2,20.3,57.6,18.1,58.7,13.8z"/>
	<path d="M63.6,16.7c0.4,0,0.4,0,0.5,0.4c0.3,0.8,0.8,1.3,1.4,1.3c0.4,0,0.9-0.4,0.9-1c0-0.5-0.6-1-1.5-2c-0.6-0.7-1-1.5-1-2.3
		c0-1.6,0.9-3.1,2.5-4.4c0.7-0.5,1.5-0.8,1.7-0.8c0.6,0,0.9,0.4,1.4,0.6C70.3,9,71,9,71,10.7c0,1.5-0.6,2.6-1.3,2.6
		c-0.4,0-1.3-0.2-1.5-0.3c-0.3-0.1-0.3-0.3-0.3-0.6v-0.3c0-0.6,0.1-1.1,0.1-1.3c0-0.1-0.1-0.2-0.2-0.2c-0.2,0-1.1,0.8-1.1,1.8
		c0,0.8,0.7,1.4,1.5,2.2c0.8,0.8,1.2,1.4,1.2,2.2c0,2.1-2,4.2-4.1,4.2c-1.7,0-3.3-1.4-3.3-3.2c0-0.1,0-0.3,0-0.5
		C62.9,17,63.3,16.7,63.6,16.7z"/>
	<path d="M78.3,19.1c0,0.3-0.4,0.7-0.5,0.8c-0.3,0.2-0.8,0.8-1,0.8c-0.7,0-1.5-1.3-2.1-4.1c-0.1-0.5-0.1-0.8-0.3-0.8
		c-0.2,0-0.2,0.9-0.8,3.1c-0.4,1.3-0.5,2.1-1,2.1c0,0-0.7-0.2-1.8-0.6c-0.3-0.1-0.5-0.4-0.5-0.6c0-0.1,0.2-0.5,0.4-1.4
		c0.1-0.2,0.4-1.9,1.2-5c0.7-2.9,1.1-4.5,1.1-4.6c0-0.1,0-0.1,0-0.2c0-0.1,0.3-0.4,0.3-0.4c0.1,0,0.3,0.1,0.6,0.1
		c0.5,0.1,1,0.1,1.3,0.1C75.7,8.7,76,8.9,76,9.1c0,0-0.1,0.9-0.4,1.9c-0.5,1.6-0.8,2.4-0.8,2.5c0,0,0,0.1,0.1,0.1
		c0.1,0,1-1.3,2.9-4.1c0.9-1.3,1.5-1.9,1.6-1.9c0.5,0,0.3,0.1,0.5,0.4c0.3,0.5,1,0.8,1,1.2c0,0.3-1.5,1.9-3.9,5.8
		C77.8,17.5,78.3,18.9,78.3,19.1z"/>
</g>
<g>
	<path d="M4.5,38c0-0.2,0-0.5,0-0.7V37c0,0,0-1.3,0.2-3.7c0.1-1.3,0-1.4,0.7-1.4c0.2,0,0.5,0.1,0.8,0.1c0.2,0,0.2,0.1,0.2,0.8
		c0,2.1-0.4,3.5-0.4,3.8c0,0,0,0.1,0,0.1c0.1,0,0.5-1.4,1.6-4.1c0.4-0.9,0.5-1.2,0.6-1.2c0,0,0.1,0,0.1,0c0.1,0,0.2,0,0.2,0
		c0.2,0,0.3,0.1,0.4,0.1H9c0.1,0,0.5,0.3,0.5,0.4c0,0.1-0.6,1.2-1.5,3.1c0,0-0.5,1-1.4,2.9c-0.4,0.8-0.4,0.9-0.5,0.9
		c-0.3,0-0.4-0.1-0.6-0.2c-0.2-0.2-0.4-0.1-0.5-0.2c-0.3-0.1-0.4-0.2-0.5-0.3C4.5,38.2,4.5,38.1,4.5,38z"/>
	<path d="M9.3,38.6c-0.2,0.5-0.1,0.5-0.4,0.5c-0.1,0-0.2,0-0.4,0c-0.1,0-0.2-0.1-0.5-0.3c-0.1-0.1-0.2-0.1-0.2-0.2
		c0-0.3,0.8-2.2,2.5-5.8c0.5-1.1,0.5-1.3,1-1.3c0.2,0,0.4,0,0.6,0.1c0.4,0.1,0.7,0.2,0.8,0.2c0.2,0.1,0.4,0.2,0.4,0.5
		c0,0.2-0.2,1.8-0.4,4.8c-0.1,0.8,0,1.2-0.1,1.3c-0.4,0.2-0.5,0.2-0.7,0.2h-0.2c-0.4,0-0.4-0.2-0.4-0.4v-0.1c0-0.1,0-0.2,0-0.3
		s0-0.2-0.1-0.5c0,0,0-0.1,0-0.1c-0.7,0-1,0.1-1.1,0.1c0,0-0.1,0-0.1,0C9.7,37.4,9.7,37.8,9.3,38.6z M10.6,36c0.5,0,0.5,0,0.5-0.2
		c0-0.1,0-0.3,0.1-0.6c0.2-1.2,0.3-1.9,0.3-2c0,0,0,0,0,0c-0.1,0-0.2,0.3-0.5,1.1c-0.3,1.1-0.6,1.6-0.6,1.6
		C10.4,35.9,10.5,36,10.6,36z M11.7,29.6c0.3-0.3,0.5-0.5,0.6-0.5c0.8,0,1.2,0.3,1.2,0.8c0,0.6-0.9,1.5-1.4,1.5
		c-0.8,0-1.1-0.3-1.1-0.8C11.1,30.3,11.3,29.9,11.7,29.6z M11.9,30.5c0,0.2,0.1,0.4,0.2,0.4c0.1,0,0.6-0.4,0.6-0.9
		c0-0.2-0.1-0.3-0.2-0.3C12.4,29.7,11.9,30.1,11.9,30.5z"/>
	<path d="M17.9,38.1L17.9,38.1c0,0.1-0.5,0.8-0.7,0.8c-0.3,0-0.6-0.4-1.1-1.2c-0.4-0.6-0.5-1-0.6-1c-0.2,0-0.2,0.7-0.5,1.9
		c-0.1,0.3-0.1,0.4-0.6,0.4c0,0-0.4-0.2-0.7-0.4c-0.1-0.1-0.1-0.2-0.1-0.3c0-0.1,0.4-2.1,1.3-5.7C14.9,32.2,15,32,15,32
		c0.1,0,0.3-0.1,0.6-0.2c0.7-0.2,1.2-0.2,1.3-0.2c0.3,0,1.1,0.1,1.4,0.4c0.1,0.1,0.2,0.2,0.2,0.3c0.3,0.6,0.4,1.1,0.4,1.3
		c0,0.8-0.7,1.5-1.8,2.4C17.4,36.9,17.9,37.5,17.9,38.1z M15.8,35.1c0,0,0.5-0.3,1-0.8c0.5-0.4,0.6-0.8,0.6-1.1
		c0-0.2-0.2-0.3-0.5-0.3c-0.5,0-0.7,0.1-0.7,0.2c0,0.1-0.1,0.3-0.3,0.9C15.9,34.7,15.8,35,15.8,35.1C15.8,35.1,15.8,35.1,15.8,35.1z
		"/>
	<path d="M20.9,38c-0.1,0.4-0.1,0.9-0.5,0.9c-0.1,0-0.3-0.2-0.8-0.3c-0.1,0-0.3,0-0.3-0.2c0-0.1,0.4-1.8,1.2-5.1c-0.1,0-0.3,0-0.4,0
		c0,0-0.1,0-0.1,0c-0.1,0-0.2,0-0.3,0h0c-0.1,0-0.1,0-0.1-0.1c0-0.1,0-0.1,0-0.2s0-0.2,0-0.2c0-0.3,0.1-0.6,0.1-0.6
		c0.4-0.2,1-0.2,1.8-0.3c0.5,0,1,0,1.4,0h0.4c0.1,0,0.2,0.4,0.2,1c0,0.3-0.3,0.4-1.3,0.6C21.3,36.2,20.9,37.8,20.9,38z"/>
	<path d="M27.2,34.7v-0.1c0,0,0-0.1,0-0.1c-0.1,0-0.1,0-0.1,0.1c0,0-0.1,1.4-0.6,3.7c-0.1,0.3-0.3,0.6-0.9,0.6
		c-0.1,0-0.3-0.1-0.5-0.1c-0.1,0-0.2,0-0.2-0.2c0-0.1,0.3-1.7,1.1-4.8c0.3-1,0.4-1.6,0.5-1.7c0.1-0.2,0.2-0.2,0.6-0.2
		c0.2,0,0.3,0.1,0.6,0.2c0.1,0,0.2,0,0.3,0.1c0.1,0.1,0.2,0,0.2,0.3c0,0,0,0.1,0,0.3c0,0,0,0.9,0.2,2.8c0,0.5,0,0.7,0.1,0.7
		c0.1,0,0.1-0.1,0.1-0.2c0-0.1,0-0.6,0.1-1.2c0.2-1.1,0.3-2,0.5-2.6c0.1-0.3,0.1-0.5,0.1-0.5c0.1-0.1,0.4-0.2,0.6-0.2
		c0.1,0,0.1,0,0.2,0h0.1c0.2,0,0.6,0.2,0.6,0.2c0,0-0.2,0.8-0.5,2.2c-0.2,1-0.4,2-0.7,3.1c-0.3,1.1-0.4,1.5-0.5,1.5
		c-0.1,0-0.2,0-0.3,0c0,0-0.3,0-0.9-0.2C27.4,37.2,27.2,35.9,27.2,34.7z"/>
	<path d="M32,38.8C32,38.8,32,38.8,32,38.8l-0.2,0c-0.1,0-0.2,0-0.3,0c-0.7-0.3-1-1-1-2c0-0.9,0.5-2.5,1.3-3.7
		c0.6-0.8,0.9-1.4,1.6-1.4c0.1,0,0.1,0,0.3,0c0.2,0,0.4,0.1,0.7,0.2c0.8,0.3,1.2,0.9,1.2,2c0,0.8-0.2,1.7-0.5,2.5
		c-0.4,1-1.1,1.8-1.5,2.2c-0.3,0.2-0.7,0.4-1,0.4h-0.1C32.3,38.9,32.1,38.8,32,38.8z M32.4,37.5c0.2,0,0.5-0.3,0.9-1
		c0.4-0.8,0.7-1.6,0.7-2.6c0-0.6-0.1-0.8-0.3-0.8c-0.1,0-0.3,0.3-0.7,0.9c-0.7,1.2-0.9,2.5-0.9,2.9C32.1,37.3,32.2,37.5,32.4,37.5z"
		/>
	<path d="M39.2,38.1c-0.5,0.6-1.1,0.8-1.7,0.8c-0.9,0-1.8-0.7-1.8-1.9c0-0.7,0.2-1.6,0.7-2.7c0.5-1.1,1-1.9,1.5-2.4
		c0.4-0.4,0.7-0.4,1-0.4c0.4,0,0.7,0.2,1,0.4c0.4,0.3,0.7,0.4,0.7,1.2c0,0.6-0.1,1.1-0.2,1.3c-0.1,0.2-0.4,0.3-0.9,0.3
		c-0.3,0-0.4-0.1-0.4-0.4c0-0.7,0-1.1,0-1.2c0-0.1-0.1-0.2-0.1-0.2c-0.1,0-0.5,0.4-0.9,1.2c-0.6,1.1-0.9,2-0.9,2.7
		c0,0.4,0.1,0.6,0.3,0.6c0.4,0,0.9-0.7,0.9-1c0-0.1,0-0.1-0.1-0.1s-0.1,0-0.1,0c-0.3,0-0.4-0.2-0.4-0.5c0-0.5,0.1-0.7,0.4-0.7
		c0.6,0,1.2-0.1,1.9-0.1h0.1c0.1,0,0.2,0.1,0.2,0.3C40.4,36.1,40,37.2,39.2,38.1z"/>
	<path d="M41.5,38.6c-0.2,0.5-0.1,0.5-0.4,0.5c-0.1,0-0.2,0-0.4,0c-0.1,0-0.2-0.1-0.5-0.3c-0.1-0.1-0.2-0.1-0.2-0.2
		c0-0.3,0.8-2.2,2.5-5.8c0.5-1.1,0.5-1.3,1-1.3c0.2,0,0.4,0,0.6,0.1c0.4,0.1,0.7,0.2,0.8,0.2c0.2,0.1,0.4,0.2,0.4,0.5
		c0,0.2-0.2,1.8-0.4,4.8c-0.1,0.8,0,1.2-0.1,1.3c-0.4,0.2-0.5,0.2-0.7,0.2h-0.2c-0.4,0-0.4-0.2-0.4-0.4v-0.1c0-0.1,0-0.2,0-0.3
		s0-0.2-0.1-0.5c0,0,0-0.1,0-0.1c-0.7,0-1,0.1-1.1,0.1c0,0-0.1,0-0.1,0C42,37.4,41.9,37.8,41.5,38.6z M42.9,36c0.5,0,0.5,0,0.5-0.2
		c0-0.1,0-0.3,0.1-0.6c0.2-1.2,0.3-1.9,0.3-2c0,0,0,0,0,0c-0.1,0-0.2,0.3-0.5,1.1c-0.3,1.1-0.6,1.6-0.6,1.6
		C42.7,35.9,42.7,36,42.9,36z"/>
	<path d="M49.9,38.8c-0.1,0-0.5-0.2-1.1-0.8c-0.3-0.2-0.4-0.4-0.4-1c0-0.4,0.1-1.1,0.4-2.2c0.5-1.8,0.8-2.8,0.8-2.8
		c0.1-0.1,0.3-0.3,0.6-0.3c0.3,0,1,0.3,1,0.6c0,0-0.1,0.2-0.5,1.5C50.3,35.5,50,36.6,50,37c0,0.2,0.1,0.3,0.3,0.3
		c0.7,0,0.9-1.4,1.6-4c0.2-0.9,0.2-1.4,0.3-1.5c0.1-0.1,0.3-0.2,0.6-0.2c0.6,0,1.1,0.5,1.1,0.6c0,0.1-0.2,0.5-0.4,1.4
		c-0.1,0.5-0.3,1.5-0.7,3c-0.4,1.4-1.7,2.3-2.3,2.3C50.2,38.9,50,38.8,49.9,38.8z"/>
	<path d="M55.7,38c-0.1,0.4-0.1,0.9-0.5,0.9c-0.1,0-0.3-0.2-0.8-0.3c-0.1,0-0.3,0-0.3-0.2c0-0.1,0.4-1.8,1.2-5.1c-0.1,0-0.3,0-0.4,0
		c0,0-0.1,0-0.1,0c-0.1,0-0.2,0-0.3,0h0c-0.1,0-0.1,0-0.1-0.1c0-0.1,0-0.1,0-0.2s0-0.2,0-0.2c0-0.3,0.1-0.6,0.2-0.6
		c0.4-0.2,1-0.2,1.8-0.3c0.5,0,1,0,1.4,0H58c0.2,0,0.2,0.4,0.2,1c0,0.3-0.3,0.4-1.3,0.6C56.1,36.2,55.7,37.8,55.7,38z"/>
	<path d="M58.1,38c0-0.2,0-0.5,0-0.7V37c0,0,0-1.3,0.2-3.7c0.1-1.3,0-1.4,0.7-1.4c0.2,0,0.5,0.1,0.8,0.1c0.2,0,0.2,0.1,0.2,0.8
		c0,2.1-0.4,3.5-0.4,3.8c0,0,0,0.1,0,0.1c0.1,0,0.5-1.4,1.6-4.1c0.4-0.9,0.5-1.2,0.6-1.2c0,0,0.1,0,0.1,0c0.1,0,0.2,0,0.2,0
		c0.2,0,0.3,0.1,0.4,0.1h0.1c0.1,0,0.5,0.3,0.5,0.4c0,0.1-0.6,1.2-1.5,3.1c0,0-0.5,1-1.4,2.9c-0.4,0.8-0.4,0.9-0.5,0.9
		c-0.3,0-0.5-0.1-0.6-0.2c-0.2-0.2-0.4-0.1-0.5-0.2c-0.3-0.1-0.4-0.2-0.5-0.3C58.1,38.2,58.1,38.1,58.1,38z"/>
	<path d="M62.9,38.6c-0.2,0.5-0.1,0.5-0.4,0.5c-0.1,0-0.2,0-0.4,0c-0.1,0-0.2-0.1-0.5-0.3c-0.1-0.1-0.2-0.1-0.2-0.2
		c0-0.3,0.8-2.2,2.5-5.8c0.5-1.1,0.5-1.3,1-1.3c0.2,0,0.4,0,0.6,0.1c0.4,0.1,0.7,0.2,0.8,0.2c0.2,0.1,0.4,0.2,0.4,0.5
		c0,0.2-0.2,1.8-0.4,4.8c-0.1,0.8,0,1.2-0.1,1.3c-0.4,0.2-0.5,0.2-0.7,0.2h-0.2c-0.4,0-0.4-0.2-0.4-0.4v-0.1c0-0.1,0-0.2,0-0.3
		s0-0.2-0.1-0.5c0,0,0-0.1,0-0.1c-0.7,0-1,0.1-1.1,0.1c0,0-0.1,0-0.1,0C63.3,37.4,63.2,37.8,62.9,38.6z M64.2,36
		c0.5,0,0.5,0,0.5-0.2c0-0.1,0-0.3,0.1-0.6c0.2-1.2,0.3-1.9,0.3-2c0,0,0,0,0,0c-0.1,0-0.2,0.3-0.4,1.1c-0.3,1.1-0.7,1.6-0.7,1.6
		C64,35.9,64,36,64.2,36z"/>
	<path d="M67.1,38.1c0,0,0.4-2.1,1.3-5.7c0.1-0.5,0.1-0.8,0.7-0.8c0.5,0,1,0.3,1,0.5c0,0.1-0.2,0.8-0.5,2.1
		c-0.4,1.7-0.7,2.6-0.7,2.7c0,0.2,0.2,0.1,0.8,0.3c0.4,0.1,0.6,0.2,0.6,0.4c0,0.1,0,0.2,0,0.3c0,0.1,0,0.2,0,0.3v0.1
		c0,0,0,0.1,0,0.1c0,0-0.1,0.1-0.1,0.1c-0.1,0.1-0.9,0.1-2.5,0.6C67.3,38.6,67.1,38.2,67.1,38.1z"/>
	<path d="M71.5,38.6c-0.4-0.1-0.6-0.2-0.6-0.3c0-0.1,0.5-2,1.3-5.7c0.2-0.8,0.3-1,0.9-1h0.4c1.3,0,2.4,0.9,2.4,2.3
		c0,1.6-0.6,2.7-2,4c-0.7,0.7-1.3,1-1.5,1C72.2,38.9,71.9,38.7,71.5,38.6z M72.8,37.3c0,0,0.4-0.4,0.8-1.1c0.4-0.7,0.7-1.3,0.7-2.2
		c0-0.5-0.1-0.7-0.5-0.7c-0.1,0,0,0.1-0.2,0.5c0,0-0.2,0.6-0.4,1.6c-0.3,1.2-0.5,1.8-0.5,1.8C72.7,37.2,72.7,37.3,72.8,37.3z"/>
	<path d="M76.8,38.6c-0.2,0.5-0.1,0.5-0.4,0.5c-0.1,0-0.2,0-0.4,0c-0.1,0-0.2-0.1-0.5-0.3c-0.1-0.1-0.2-0.1-0.2-0.2
		c0-0.3,0.8-2.2,2.5-5.8c0.5-1.1,0.5-1.3,1-1.3c0.2,0,0.4,0,0.6,0.1c0.4,0.1,0.7,0.2,0.8,0.2c0.2,0.1,0.4,0.2,0.4,0.5
		c0,0.2-0.2,1.8-0.4,4.8c-0.1,0.8,0,1.2-0.1,1.3c-0.4,0.2-0.5,0.2-0.7,0.2h-0.2c-0.4,0-0.4-0.2-0.4-0.4v-0.1c0-0.1,0-0.2,0-0.3
		s0-0.2,0-0.5c0,0,0-0.1,0-0.1c-0.7,0-1,0.1-1.1,0.1c0,0-0.1,0-0.1,0C77.2,37.4,77.2,37.8,76.8,38.6z M78.1,36c0.5,0,0.5,0,0.5-0.2
		c0-0.1,0-0.3,0.1-0.6c0.2-1.2,0.3-1.9,0.3-2c0,0,0,0,0,0c-0.1,0-0.2,0.3-0.5,1.1c-0.3,1.1-0.6,1.6-0.6,1.6C77.9,35.9,78,36,78.1,36
		z"/>
	<path d="M13.3,50.4c0-0.3,0.4-2.2,1.2-5.4c0.3-1.1,0.1-1.2,1-1.2c0.3,0,0.5,0,0.6,0c0.4,0,0.7,0,0.9,0c0.2,0,0.3,0,0.3,0
		c0.1,0,0.1-0.1,0.1-0.1c0.2,0,0.5,0.4,0.5,0.9c0,0.3,0,0.5-0.1,0.6c0,0-0.6,0.1-0.9,0.1c-0.1,0-0.2,0-0.3,0c-0.1,0-0.3,0-0.6,0.1
		c-0.1,0.5-0.2,0.8-0.3,1.1c0.9,0,1.3,0.1,1.4,0.1c0,0,0.2,0.5,0.2,0.6c0,0.5-0.2,0.6-0.3,0.6c-0.1,0-0.6,0.2-1.6,0.2
		c-0.3,1.1-0.4,1.8-0.5,2.2c-0.1,0.3-0.2,0.5-0.7,0.5c-0.2,0-0.4-0.2-0.9-0.3C13.3,50.6,13.3,50.5,13.3,50.4z"/>
	<path d="M18.3,46.8C18.7,45,19,44,19,44c0-0.2,0-0.4,0.7-0.4c0.5,0,1,0.4,1,0.5c0,0.1-0.1,0.2-0.1,0.3c0,0.1-0.1,0.4-0.3,1.1
		c-0.2,0.9-0.4,1.8-0.5,2.6c-0.2,1.2-0.5,2-0.6,2.6c-0.1,0.3-0.2,0.3-0.6,0.3h-0.1c-0.5,0-0.8-0.3-0.8-0.4
		C17.4,50.5,17.7,49.2,18.3,46.8z"/>
	<path d="M20.9,48.4c0.2,0,0.2,0,0.3,0.2c0.2,0.5,0.4,0.7,0.8,0.7c0.2,0,0.5-0.2,0.5-0.6c0-0.3-0.3-0.6-0.8-1.1
		c-0.4-0.4-0.5-0.9-0.5-1.3c0-0.9,0.5-1.7,1.4-2.4c0.4-0.3,0.8-0.4,0.9-0.4c0.3,0,0.5,0.2,0.8,0.3c0.4,0.2,0.8,0.3,0.8,1.2
		c0,0.9-0.3,1.4-0.7,1.4c-0.2,0-0.7-0.1-0.8-0.2c-0.1-0.1-0.2-0.2-0.2-0.3V46c0-0.3,0.1-0.6,0.1-0.7c0-0.1,0-0.1-0.1-0.1
		c-0.1,0-0.6,0.4-0.6,1c0,0.5,0.4,0.7,0.8,1.2c0.4,0.4,0.7,0.8,0.7,1.2c0,1.2-1.1,2.3-2.2,2.3c-0.9,0-1.9-0.8-1.9-1.7
		c0-0.1,0-0.2,0-0.3C20.6,48.6,20.8,48.4,20.9,48.4z"/>
	<path d="M29.1,49.8c0,0.1-0.2,0.4-0.3,0.5c-0.1,0.1-0.4,0.5-0.5,0.5c-0.4,0-0.8-0.7-1.2-2.3C27,48.1,27,48,27,48
		c-0.1,0-0.1,0.5-0.4,1.7c-0.2,0.7-0.3,1.2-0.5,1.2c0,0-0.4-0.1-1-0.4c-0.2-0.1-0.2-0.2-0.2-0.3c0,0,0.1-0.3,0.2-0.8
		c0-0.1,0.2-1,0.6-2.8c0.4-1.6,0.6-2.5,0.6-2.6c0,0,0-0.1,0-0.1c0-0.1,0.2-0.2,0.2-0.2c0.1,0,0.2,0.1,0.3,0.1
		c0.3,0.1,0.5,0.1,0.7,0.1c0.2,0,0.3,0.2,0.3,0.3c0,0-0.1,0.5-0.2,1c-0.2,0.9-0.4,1.3-0.4,1.4c0,0,0,0,0,0c0.1,0,0.5-0.7,1.6-2.3
		c0.5-0.7,0.8-1.1,0.9-1.1c0.2,0,0.2,0.1,0.3,0.2c0.1,0.3,0.6,0.5,0.6,0.7c0,0.1-0.8,1.1-2.2,3.2C28.9,48.9,29.1,49.7,29.1,49.8z"/>
	<path d="M30.3,48.4c0.2,0,0.2,0,0.3,0.2c0.2,0.5,0.4,0.7,0.8,0.7c0.2,0,0.5-0.2,0.5-0.6c0-0.3-0.3-0.6-0.8-1.1
		c-0.4-0.4-0.5-0.9-0.5-1.3c0-0.9,0.5-1.7,1.4-2.4c0.4-0.3,0.8-0.4,0.9-0.4c0.3,0,0.5,0.2,0.8,0.3c0.4,0.2,0.8,0.3,0.8,1.2
		c0,0.9-0.3,1.4-0.7,1.4c-0.2,0-0.7-0.1-0.8-0.2c-0.1-0.1-0.2-0.2-0.2-0.3V46c0-0.3,0.1-0.6,0.1-0.7c0-0.1,0-0.1-0.1-0.1
		c-0.1,0-0.6,0.4-0.6,1c0,0.5,0.4,0.7,0.8,1.2c0.4,0.4,0.7,0.8,0.7,1.2c0,1.2-1.1,2.3-2.2,2.3c-0.9,0-1.9-0.8-1.9-1.7
		c0-0.1,0-0.2,0-0.3C29.9,48.6,30.1,48.4,30.3,48.4z"/>
	<path d="M35.7,50.8C35.7,50.8,35.7,50.8,35.7,50.8l-0.2,0c-0.1,0-0.2,0-0.3,0c-0.7-0.3-1-1-1-2c0-0.9,0.5-2.5,1.3-3.7
		c0.6-0.8,0.9-1.4,1.6-1.4c0.1,0,0.1,0,0.3,0c0.2,0,0.4,0.1,0.7,0.2c0.8,0.3,1.2,0.9,1.2,2c0,0.8-0.2,1.7-0.5,2.5
		c-0.4,1-1.1,1.8-1.5,2.2c-0.3,0.2-0.7,0.4-1,0.4h-0.1C36,50.9,35.8,50.8,35.7,50.8z M36.1,49.5c0.2,0,0.5-0.3,0.9-1
		c0.4-0.8,0.7-1.6,0.7-2.6c0-0.6-0.1-0.8-0.3-0.8c-0.1,0-0.3,0.3-0.7,0.9c-0.7,1.2-0.9,2.5-0.9,2.9C35.8,49.3,35.9,49.5,36.1,49.5z"
		/>
	<path d="M43.8,50.1L43.8,50.1c0,0.1-0.5,0.8-0.7,0.8c-0.3,0-0.6-0.4-1.1-1.2c-0.4-0.6-0.5-1-0.6-1c-0.2,0-0.2,0.7-0.5,1.9
		c-0.1,0.3-0.1,0.4-0.6,0.4c0,0-0.4-0.2-0.7-0.4c-0.1-0.1-0.1-0.2-0.1-0.3c0-0.1,0.4-2.1,1.3-5.7c0.1-0.3,0.2-0.5,0.2-0.6
		c0.1,0,0.3-0.1,0.6-0.2c0.7-0.2,1.2-0.2,1.3-0.2c0.3,0,1.1,0.1,1.4,0.4c0.1,0.1,0.2,0.2,0.2,0.3c0.3,0.6,0.4,1.1,0.4,1.3
		c0,0.8-0.7,1.5-1.8,2.4C43.2,48.9,43.8,49.5,43.8,50.1z M41.7,47.1c0,0,0.5-0.3,1-0.8c0.5-0.4,0.6-0.8,0.6-1.1
		c0-0.2-0.2-0.3-0.5-0.3c-0.5,0-0.7,0.1-0.7,0.2c0,0.1-0.1,0.3-0.3,0.9C41.7,46.7,41.6,47,41.7,47.1C41.6,47.1,41.7,47.1,41.7,47.1z
		"/>
	<path d="M46.7,50c-0.1,0.4-0.1,0.9-0.5,0.9c-0.1,0-0.3-0.2-0.8-0.3c-0.1,0-0.3,0-0.3-0.2c0-0.1,0.4-1.8,1.2-5.1c-0.2,0-0.3,0-0.4,0
		c0,0-0.1,0-0.1,0c-0.1,0-0.2,0-0.3,0h0c-0.1,0-0.1,0-0.1-0.1c0-0.1,0-0.1,0-0.2s0-0.2,0-0.2c0-0.3,0.1-0.6,0.1-0.6
		c0.4-0.2,1-0.2,1.8-0.3c0.5,0,1,0,1.4,0h0.4c0.1,0,0.2,0.4,0.2,1c0,0.3-0.3,0.4-1.3,0.6C47.2,48.2,46.8,49.8,46.7,50z"/>
	<path d="M49.3,46.8C49.8,45,50,44,50,44c0-0.2,0-0.4,0.7-0.4c0.5,0,1,0.4,1,0.5c0,0.1-0.1,0.2-0.2,0.3c0,0.1-0.1,0.4-0.3,1.1
		c-0.2,0.9-0.4,1.8-0.6,2.6c-0.2,1.2-0.5,2-0.6,2.6c-0.1,0.3-0.2,0.3-0.6,0.3h-0.2c-0.5,0-0.8-0.3-0.8-0.4
		C48.4,50.5,48.7,49.2,49.3,46.8z"/>
	<path d="M52.3,50.9c-0.4,0-0.6-0.2-0.9-0.3c0,0-0.1-0.1-0.1-0.3c0-0.2,0.2-1,0.4-2.1c0.6-2.3,0.9-3.4,0.9-3.6
		c0.1-0.4,0.3-0.6,0.7-0.6c0.3,0,0.8,0.1,1.4,0.3c0.1,0,0.1,0.1,0.1,0.2c0,0.2-0.1,0.8-0.2,1.6c0,0.8-0.1,1.3-0.1,1.4c0,0,0,0,0.1,0
		c0.1,0,0.4-1.3,1.2-3c0.4-0.8,0.3-0.9,0.6-0.9c0.3,0,0.9,0.2,1.4,0.4c0.1,0.1,0.2,0.2,0.2,0.3c0,0.1-0.2,0.5-0.3,1.3
		c-0.1,0.8-0.4,1.9-0.8,3.4c-0.3,1.1-0.4,1.6-0.4,1.7c0,0.1-0.2,0.1-0.4,0.1c-0.4,0-1-0.2-1-0.3c0-0.1,0.2-0.6,0.5-1.8
		c0.5-1.9,0.8-2.8,0.8-2.9c0,0,0-0.1,0-0.1c-0.1,0-0.6,1.5-2,4.4c-0.1,0-0.2-0.1-0.3-0.1c0,0,0,0-0.1,0c-0.1,0-0.2-0.1-0.3-0.1
		c-0.1,0-0.1,0-0.1-0.2v-0.3c0-0.3,0-0.6,0-1c0-1.1,0.2-2,0.2-2.5c0-0.1,0-0.1-0.1-0.1c-0.1,0-0.1,1.1-0.6,3
		c-0.2,0.9-0.4,1.5-0.4,1.8v0.1l-0.1,0.1C52.5,50.9,52.4,50.9,52.3,50.9z"/>
	<path d="M57.9,50c0-0.2,0.3-1.5,1-4.1c0.4-1.4,0.5-2.1,0.7-2.1c0.1,0,0.1,0,0.2,0c0,0,0.1,0,0.1,0c0.2,0,0.3,0.1,0.6,0.1
		c0.2,0,0.5-0.1,0.9-0.1c0.2,0,0.7,0.1,1,0.1c0.2,0,0.3,0.1,0.3,0.7c0,0.2-0.1,0.5-0.1,0.6c-0.1,0.1-0.7,0.1-2,0.2
		c-0.1,0.4-0.2,0.8-0.3,1.2c0.1,0,0.3,0,0.5,0c0.5,0,0.9,0,0.9,0.1c0.1,0.1,0.2,0.4,0.2,0.6c0,0.2-0.1,0.6-0.1,0.6
		C61.7,48,61,48,59.9,48.2c-0.1,0.5-0.2,0.8-0.2,0.9c0,0,0,0.1,0,0.1c0.8,0,1.2-0.1,1.2-0.1c0.1,0,0.1,0,0.1,0.1v0.1
		c0,0.1,0.3,0.2,0.3,0.7c0,0.5-0.1,0.5-0.3,0.5h0c-0.4,0-0.7,0.2-1.2,0.2c-0.4,0.1-0.8,0.1-1.3,0.2C58.2,50.7,57.9,50.4,57.9,50z"/>
	<path d="M64.5,46.7v-0.1c0,0,0-0.1,0-0.1c0,0-0.1,0-0.1,0.1c0,0-0.1,1.4-0.6,3.7c-0.1,0.3-0.3,0.6-0.9,0.6c-0.1,0-0.3-0.1-0.5-0.1
		c-0.1,0-0.2,0-0.2-0.2c0-0.1,0.3-1.7,1.1-4.8c0.3-1,0.4-1.6,0.5-1.7c0.1-0.2,0.2-0.2,0.6-0.2c0.2,0,0.3,0.1,0.6,0.2
		c0.1,0,0.2,0,0.3,0.1c0.1,0.1,0.2,0,0.2,0.3c0,0,0,0.1,0,0.3c0,0,0,0.9,0.2,2.8c0,0.5,0,0.7,0.1,0.7s0.1-0.1,0.1-0.2
		c0-0.1,0-0.6,0.1-1.2c0.2-1.1,0.3-2,0.5-2.6c0.1-0.3,0.1-0.5,0.1-0.5c0.1-0.1,0.4-0.2,0.6-0.2c0.1,0,0.1,0,0.2,0h0.1
		c0.2,0,0.6,0.2,0.6,0.2c0,0-0.2,0.8-0.5,2.2c-0.2,1-0.4,2-0.7,3.1c-0.3,1.1-0.3,1.5-0.5,1.5c-0.1,0-0.2,0-0.3,0c0,0-0.3,0-0.9-0.2
		C64.7,49.2,64.5,47.9,64.5,46.7z"/>
	<path d="M69.9,50c-0.1,0.4-0.1,0.9-0.5,0.9c-0.1,0-0.3-0.2-0.8-0.3c-0.1,0-0.3,0-0.3-0.2c0-0.1,0.4-1.8,1.2-5.1c-0.1,0-0.3,0-0.4,0
		c0,0-0.1,0-0.1,0c-0.1,0-0.2,0-0.3,0h0c-0.1,0-0.1,0-0.1-0.1c0-0.1,0-0.1,0-0.2s0-0.2,0-0.2c0-0.3,0.1-0.6,0.2-0.6
		c0.4-0.2,1-0.2,1.8-0.3c0.5,0,1,0,1.4,0h0.4c0.1,0,0.2,0.4,0.2,1c0,0.3-0.3,0.4-1.3,0.6C70.3,48.2,70,49.8,69.9,50z"/>
</g>
<g>
	<path class="st0" d="M35.5,5.6c-2.7-2.7-7.2-2.7-9.9,0s-2.7,7.2,0,9.9l9.9,9.9l9.9-9.9c2.7-2.7,2.7-7.2,0-9.9S38.2,2.8,35.5,5.6z"
		/>
</g>
<g>
	<path d="M29.1,25.8H5.6c-0.3,0-0.5-0.2-0.5-0.5s0.2-0.5,0.5-0.5h23.4c0.3,0,0.5,0.2,0.5,0.5S29.4,25.8,29.1,25.8z"/>
</g>
<g>
	<path d="M81,25.8H42.6c-0.3,0-0.5-0.2-0.5-0.5s0.2-0.5,0.5-0.5H81c0.3,0,0.5,0.2,0.5,0.5S81.3,25.8,81,25.8z"/>
</g>
</svg>
