<?xml version="1.0" encoding="utf-8"?>
<!-- Generator: Adobe Illustrator 28.0.0, SVG Export Plug-In . SVG Version: 6.00 Build 0)  -->
<svg version="1.1" id="Lager_1" xmlns="http://www.w3.org/2000/svg" xmlns:xlink="http://www.w3.org/1999/xlink" x="0px" y="0px"
	 viewBox="0 0 86 56" style="enable-background:new 0 0 86 56;" xml:space="preserve">
<style type="text/css">
	.st0{fill:#CB5252;}
</style>
<g>
	<path d="M20.4,22c0.2,0,0.4,0,0.4,0c0.6,0,1.6,1,1.6,1.1c0,0-0.1,0.1-0.1,0.2c0,0,0,0.1,0,0.2c0,0.3-0.6,1.7-2.1,3.2
		c-0.9,1-2.1,1.5-3.2,1.5c-2.6,0-4.1-1.7-4.1-4.5c0-1.8,0.7-3.7,1.9-5.9c0.9-1.7,1.8-3.1,3.1-4.3c0.3-0.3,0.5-0.7,2.1-0.7
		c2.1,0,3,0.9,3,2.8c0,1.2-0.3,2.4-0.7,3.7c-0.1,0.4-0.3,0.5-1.6,0.5c-0.9,0-1.2-0.4-1.2-1.5c0-0.8,0.2-1.4,0.2-1.8
		c0-0.2-0.1-0.3-0.2-0.3c-0.3,0-1,1.3-2.4,3.9c-0.8,1.6-1.1,3-1.1,4c0,0.7,0.2,1,0.7,1c1,0,2.1-1,3.2-3.1H20.4z"/>
	<path d="M25.1,27.6c-0.4,1-0.3,1.2-0.8,1.2c-0.2,0-0.4,0-0.8,0c-0.2,0-0.5-0.3-1.1-0.7c-0.2-0.2-0.3-0.2-0.3-0.4
		c0-0.5,1.6-4.7,5.2-12.1c1.1-2.3,1-2.7,2.1-2.7c0.3,0,0.8,0.1,1.3,0.2c0.9,0.3,1.5,0.3,1.7,0.4c0.5,0.2,0.8,0.5,0.8,1
		c0,0.4-0.4,3.9-0.9,10.1c-0.1,1.7,0,2.5-0.3,2.7c-0.8,0.5-1.2,0.5-1.6,0.5h-0.5C29,27.8,29,27.5,29,27v-0.2c0-0.3,0-0.5,0-0.6
		s-0.1-0.5-0.1-1.2c0-0.1,0-0.1-0.1-0.1c-1.4,0-2.2,0.1-2.3,0.1c-0.1,0-0.1,0-0.2,0C26,25,25.8,26,25.1,27.6z M27.9,22
		c1,0,1,0,1.1-0.4c0.1-0.3,0.1-0.7,0.2-1.3c0.3-2.5,0.7-3.9,0.7-4.1c0-0.1,0-0.1-0.1-0.1c-0.2,0-0.4,0.7-0.9,2.3
		c-0.7,2.2-1.4,3.3-1.4,3.5C27.4,22,27.5,22,27.9,22z"/>
	<path d="M35.3,26.4c0-0.5,0-1,0-1.4v-0.8c0-0.1,0.1-2.7,0.4-7.8c0.2-2.8,0-2.9,1.4-2.9c0.5,0,1,0.2,1.6,0.3
		c0.3,0.1,0.3,0.3,0.3,1.6c0,4.5-0.9,7.4-0.9,8.1c0,0.1,0,0.1,0.1,0.1c0.3,0,1-2.9,3.4-8.5c0.8-1.9,1-2.6,1.3-2.6c0.1,0,0.2,0,0.2,0
		c0.2,0,0.4,0,0.5,0c0.4,0,0.6,0.1,0.8,0.1h0.1c0.3,0,1.1,0.7,1.1,0.9c0,0.3-1.3,2.5-3.1,6.6c0,0.1-1,2.1-2.9,6.2
		c-0.8,1.6-0.8,2-1.1,2c-0.7,0-0.9-0.2-1.2-0.4c-0.5-0.3-0.9-0.3-1-0.3c-0.6-0.2-0.9-0.3-1.1-0.6C35.3,26.8,35.3,26.6,35.3,26.4z"/>
	<path d="M45.5,19.7c1-3.9,1.5-6,1.5-6c0-0.4,0-0.9,1.4-0.9c1,0,2.1,0.8,2.1,1c0,0.1-0.2,0.3-0.3,0.7c0,0.1-0.3,0.9-0.6,2.4
		c-0.5,1.9-0.8,3.7-1.2,5.4c-0.5,2.4-1,4.3-1.3,5.4c-0.1,0.5-0.5,0.6-1.3,0.6h-0.3c-1.2,0-1.8-0.7-1.8-0.9
		C43.8,27.3,44.3,24.6,45.5,19.7z"/>
	<path d="M51.8,27.6c-0.4,1-0.3,1.2-0.8,1.2c-0.2,0-0.4,0-0.8,0c-0.2,0-0.5-0.3-1.1-0.7c-0.2-0.2-0.3-0.2-0.3-0.4
		c0-0.5,1.6-4.7,5.2-12.1c1.1-2.3,1-2.7,2.1-2.7c0.3,0,0.8,0.1,1.3,0.2c0.9,0.3,1.5,0.3,1.7,0.4c0.5,0.2,0.8,0.5,0.8,1
		c0,0.4-0.4,3.9-0.9,10.1c-0.1,1.7,0,2.5-0.3,2.7c-0.8,0.5-1.2,0.5-1.6,0.5h-0.5c-0.9,0-0.9-0.3-0.9-0.8v-0.2c0-0.3,0-0.5,0-0.6
		s-0.1-0.5-0.1-1.2c0-0.1,0-0.1-0.1-0.1c-1.4,0-2.2,0.1-2.3,0.1c-0.1,0-0.1,0-0.2,0C52.7,25,52.5,26,51.8,27.6z M54.6,22
		c1,0,1,0,1.1-0.4c0.1-0.3,0.1-0.7,0.2-1.3c0.3-2.5,0.7-3.9,0.7-4.1c0-0.1,0-0.1-0.1-0.1c-0.2,0-0.4,0.7-0.9,2.3
		c-0.7,2.2-1.4,3.3-1.4,3.5C54.1,22,54.2,22,54.6,22z"/>
	<path d="M69.9,26.5L69.9,26.5c0,0.3-1.1,1.6-1.5,1.6c-0.6,0-1.2-0.8-2.4-2.6c-0.8-1.2-1.1-2.1-1.3-2.1c-0.4,0-0.4,1.5-1,3.9
		c-0.2,0.7-0.2,0.9-1.2,0.9c-0.1,0-0.9-0.3-1.5-0.8c-0.2-0.2-0.3-0.4-0.3-0.7c0-0.3,0.8-4.4,2.7-12c0.2-0.7,0.4-1.1,0.5-1.2
		s0.6-0.2,1.3-0.4c1.5-0.4,2.6-0.4,2.8-0.4c0.7,0,2.2,0.3,2.9,0.8c0.2,0.2,0.4,0.3,0.5,0.6c0.6,1.3,0.8,2.3,0.8,2.7
		c0,1.7-1.4,3.1-3.9,5.1C68.7,24,69.9,25.3,69.9,26.5z M65.5,20.2c0.1,0,1.1-0.6,2.2-1.6c1-0.9,1.4-1.8,1.4-2.4c0-0.4-0.4-0.6-1-0.6
		c-1,0-1.4,0.1-1.6,0.5c0,0.1-0.3,0.7-0.6,1.9c-0.4,1.3-0.5,1.9-0.5,2S65.4,20.2,65.5,20.2z"/>
</g>
<g>
	<path d="M16.2,44.8c0.3,0,0.3,0,0.4,0.3c0.2,0.6,0.6,0.9,1,0.9c0.3,0,0.7-0.3,0.7-0.7c0-0.4-0.4-0.7-1.1-1.4
		c-0.5-0.5-0.7-1.1-0.7-1.7c0-1.2,0.6-2.3,1.8-3.2c0.5-0.4,1.1-0.6,1.2-0.6c0.4,0,0.7,0.3,1,0.5c0.5,0.3,1,0.3,1,1.6
		c0,1.1-0.4,1.9-0.9,1.9c-0.3,0-0.9-0.1-1.1-0.2c-0.2-0.1-0.2-0.2-0.2-0.4v-0.2c0-0.4,0.1-0.8,0.1-1c0-0.1-0.1-0.1-0.1-0.1
		c-0.1,0-0.8,0.6-0.8,1.3c0,0.6,0.5,1,1.1,1.6c0.6,0.6,0.9,1,0.9,1.6c0,1.5-1.4,3-2.9,3c-1.2,0-2.4-1-2.4-2.3c0-0.1,0-0.2,0-0.4
		C15.7,45,16,44.8,16.2,44.8z"/>
	<path d="M21.3,46.8c0-0.2,0.4-2,1.3-5.3c0.5-1.9,0.7-2.7,0.9-2.7c0.1,0,0.2,0,0.2,0c0,0,0.1,0,0.2,0c0.2,0,0.5,0.1,0.7,0.1
		c0.3,0,0.7-0.1,1.2-0.1c0.3,0,0.9,0.1,1.3,0.2c0.2,0.1,0.4,0.1,0.4,0.9c0,0.3-0.1,0.7-0.1,0.7c-0.1,0.1-0.9,0.1-2.6,0.3
		c-0.2,0.5-0.3,1-0.4,1.5c0.2,0,0.4,0,0.6,0c0.7,0,1.1,0.1,1.2,0.1c0.1,0.2,0.3,0.5,0.3,0.8c0,0.3-0.2,0.8-0.2,0.8
		c-0.2,0.2-1,0.2-2.4,0.4c-0.1,0.6-0.3,1-0.3,1.2c0,0,0,0.1,0,0.1c1,0,1.5-0.1,1.6-0.1c0.1,0,0.2,0,0.2,0.1v0.1
		c0,0.1,0.4,0.3,0.4,0.9c0,0.6-0.1,0.6-0.4,0.6h0c-0.5,0-1,0.2-1.5,0.3c-0.5,0.1-1.1,0.1-1.7,0.3C21.6,47.7,21.3,47.3,21.3,46.8z"/>
	<path d="M32.8,47L32.8,47c0,0.2-0.7,1-0.9,1c-0.4,0-0.8-0.5-1.5-1.6c-0.5-0.8-0.7-1.3-0.8-1.3c-0.3,0-0.2,0.9-0.6,2.4
		c-0.1,0.4-0.1,0.5-0.7,0.5c0,0-0.6-0.2-0.9-0.5c-0.1-0.1-0.2-0.2-0.2-0.4c0-0.2,0.5-2.7,1.7-7.4c0.1-0.4,0.2-0.7,0.3-0.7
		c0.1,0,0.4-0.1,0.8-0.2c0.9-0.3,1.6-0.3,1.7-0.3c0.4,0,1.4,0.2,1.8,0.5c0.1,0.1,0.2,0.2,0.3,0.4c0.4,0.8,0.5,1.4,0.5,1.7
		c0,1.1-0.9,1.9-2.4,3.1C32.1,45.4,32.8,46.2,32.8,47z M30.1,43c0,0,0.7-0.4,1.4-1c0.6-0.6,0.8-1.1,0.8-1.5c0-0.2-0.2-0.4-0.6-0.4
		c-0.6,0-0.9,0.1-1,0.3c0,0.1-0.2,0.5-0.4,1.2C30.1,42.5,30,42.9,30.1,43C30,43,30,43,30.1,43z"/>
	<path d="M34.9,42.7c0.6-2.4,0.9-3.7,0.9-3.7c0-0.3,0-0.5,0.9-0.5c0.6,0,1.3,0.5,1.3,0.6c0,0.1-0.1,0.2-0.2,0.4
		c0,0.1-0.2,0.6-0.4,1.5c-0.3,1.2-0.5,2.3-0.7,3.3c-0.3,1.5-0.6,2.7-0.8,3.4C35.8,48,35.6,48,35.1,48h-0.2c-0.7,0-1.1-0.4-1.1-0.5
		C33.8,47.4,34.1,45.8,34.9,42.7z"/>
	<path d="M39.7,47.8c0,0-0.1,0-0.1,0h-0.2c-0.1,0-0.2,0-0.4-0.1c-0.9-0.4-1.3-1.3-1.3-2.7c0-1.2,0.6-3.2,1.8-4.8
		c0.8-1.1,1.2-1.8,2-1.8c0.1,0,0.2,0,0.3,0c0.3,0,0.6,0.1,1,0.3c1.1,0.4,1.6,1.2,1.6,2.7c0,1.1-0.2,2.2-0.7,3.2
		c-0.6,1.3-1.4,2.3-2,2.8c-0.4,0.3-0.9,0.6-1.3,0.6h-0.1C40,48,39.8,47.9,39.7,47.8z M40.2,46.2c0.3,0,0.7-0.4,1.1-1.3
		c0.6-1.1,0.9-2.1,0.9-3.4c0-0.7-0.2-1.1-0.4-1.1c-0.1,0-0.4,0.4-0.9,1.2c-0.9,1.6-1.2,3.2-1.2,3.8C39.8,45.9,39.9,46.2,40.2,46.2z
		 M40.8,36.5c0.2-0.3,0.5-0.5,0.9-0.5c0.4,0,0.6,0.8,0.6,0.8c0,0.3-0.6,0.9-1,0.9c-0.4,0-0.9-0.3-0.9-0.6
		C40.5,37.1,40.7,36.7,40.8,36.5z M43.1,36.5c0.2-0.3,0.4-0.5,0.9-0.5c0.4,0,0.7,0.8,0.7,0.8c0,0.3-0.6,0.9-1,0.9
		c-0.4,0-0.9-0.3-0.9-0.6C42.8,37.1,42.9,36.7,43.1,36.5z"/>
	<path d="M45.2,44.8c0.3,0,0.3,0,0.4,0.3c0.2,0.6,0.6,0.9,1,0.9c0.3,0,0.7-0.3,0.7-0.7c0-0.4-0.4-0.7-1.1-1.4
		c-0.5-0.5-0.7-1.1-0.7-1.7c0-1.2,0.6-2.3,1.8-3.2c0.5-0.4,1.1-0.6,1.2-0.6c0.4,0,0.7,0.3,1,0.5c0.5,0.3,1,0.3,1,1.6
		c0,1.1-0.4,1.9-0.9,1.9c-0.3,0-0.9-0.1-1.1-0.2c-0.2-0.1-0.2-0.2-0.2-0.4v-0.2c0-0.4,0.1-0.8,0.1-1c0-0.1-0.1-0.1-0.1-0.1
		c-0.1,0-0.8,0.6-0.8,1.3c0,0.6,0.5,1,1.1,1.6c0.6,0.6,0.9,1,0.9,1.6c0,1.5-1.4,3-2.9,3c-1.2,0-2.4-1-2.4-2.3c0-0.1,0-0.2,0-0.4
		C44.7,45,45,44.8,45.2,44.8z"/>
	<path d="M53.4,47c0,0,0.5-2.8,1.8-7.4c0.2-0.6,0.1-1.1,0.8-1.1c0.6,0,1.3,0.4,1.3,0.6c0,0.1-0.2,1-0.6,2.7
		c-0.5,2.2-0.9,3.4-0.9,3.5c0,0.3,0.3,0.2,1.1,0.4c0.5,0.1,0.7,0.2,0.7,0.5c0,0.1,0,0.2-0.1,0.4c0,0.1,0,0.3,0,0.4V47
		c0,0.1,0,0.1,0,0.1c0,0.1-0.1,0.1-0.1,0.2c-0.1,0.1-1.2,0.1-3.2,0.7C53.6,47.7,53.4,47.1,53.4,47z"/>
	<path d="M59.4,47.8c-0.2-0.1-0.5,0-0.6-0.1c-0.1-0.1-0.1-0.1-0.1-0.1c0-0.1,0.1-0.6,0.4-1.6c0.1-0.7,0.3-1,0.3-1.2
		c0-0.1-0.3-0.6-0.4-1.5c-0.1-0.8-0.2-1.8-0.2-2.9c0-0.4,0.1-0.7,0.1-0.8c0.1-0.2,0.8-0.4,1.1-0.4c0.7,0,1,0.9,1,2.7
		c0,0.2,0,0.4,0,0.6c0,0.2,0,0.3,0,0.3c0.2,0,0.4-1.2,1.3-2.7c0.8-1.3,1-1.9,1.4-1.9c0.4,0,1.2,0.4,1.2,0.7c0,0.2-0.6,1.2-1.7,3.2
		c-1.1,1.9-1.7,2.8-1.8,3.1c0,0-0.3,0.9-0.8,2.7c0,0.2-0.1,0.3-0.7,0.3C59.6,47.9,59.5,47.8,59.4,47.8z"/>
	<path d="M65.1,43.3c-0.1-1.1-0.2-2.1-0.2-3.1c0-0.3,0-0.6,0.1-1.1l0.1-0.1h0.2c0.2,0,0.3,0,0.4,0c0.7,0,1.2,0.3,1.2,0.9
		c0,0.9-0.2,1.5-0.2,1.8c0,0.1,0,0.1,0,0.1c0.2,0,0.5-0.8,1.3-2c0.6-0.9,1-1.3,1.1-1.3c0.4,0,0.4,0.1,0.5,0.2
		c0.3,0.5,0.5,0.9,0.5,1.1c0,0.4-0.2,0.4-0.4,0.7c-0.2,0.3-1,1.3-2.2,3.1c0.3,2.2,0.4,3.4,0.4,3.7c0,0.3-0.3,0.5-0.7,0.5
		c-0.4,0-1.1-0.2-1.2-0.5c-0.2-0.6-0.2-1.2-0.2-1.8v-0.4c0-0.1,0-0.2,0-0.2c-0.1,0-0.3,0.8-0.9,1.8c-0.6,1-0.8,1.4-1,1.4
		c-0.2,0-0.3-0.1-0.4-0.2c-0.1-0.1-0.4-0.2-0.5-0.3c-0.3-0.2-0.4-0.4-0.4-0.7C63.4,45.8,64.2,44.6,65.1,43.3z"/>
</g>
<g>
	<path d="M76,32.8H11c-0.3,0-0.5-0.2-0.5-0.5s0.2-0.5,0.5-0.5h65c0.3,0,0.5,0.2,0.5,0.5S76.3,32.8,76,32.8z"/>
</g>
<g id="wmheRJ_00000018950743586684493960000009220617005744085903_">
	<g>
		<g>
			<path class="st0" d="M63.7,4.5c0,0.1-0.1,0.1-0.1,0.2c0,0.3,0,0.5,0,0.8c0,0,0,0.1,0,0.2c-0.3-0.5-0.4-1-0.7-1.4c0,0,0,0-0.1,0
				c0,0.2,0.1,0.4,0.1,0.6c0,0,0,0,0,0c-0.1-0.3-0.1-0.6-0.2-0.8c0.1-0.1,0.2-0.2,0.3-0.3c0-0.1,0.1-0.1,0.2-0.1c0,0,0.1,0,0.1-0.1
				c0.1-0.1,0.3-0.2,0.4-0.3c0.1,0.2,0.1,0.4,0.2,0.6C64,3.6,63.9,3.4,64,3.2c0.1,0,0.2-0.1,0.4-0.1c0.1,0,0.1,0,0.2,0
				c0,0,0.1,0,0.1,0c0,0,0-0.1,0.1-0.2c0,0,0.1-0.1,0.1-0.1c0.1,0,0.1-0.1,0.2-0.2c0,0.1,0,0.2,0,0.2c0,0.2,0,0.5,0,0.7
				c0,0.1,0.1,0.2,0.1,0.3c0,0,0.1,0.1,0.1,0.1c0,0,0.1-0.1,0.1-0.1c0-0.2,0-0.4,0-0.5c0-0.3-0.1-0.5-0.1-0.8c0,0,0-0.1,0-0.1
				c0,0,0.1,0,0.1,0c0.1,0.1,0.1,0.2,0.2,0.3c0,0.1,0.1,0.1,0.1,0.2c0.1-0.2,0.1-0.4,0.1-0.6c0.5-0.2,0.9-0.3,1.4-0.5
				c0.9-0.3,1.7-0.6,2.6-0.7c0.3,0,0.6,0,0.9,0c0.3,0,0.6,0.2,0.8,0.5c0.1,0.2,0.2,0.4,0.3,0.6c0.1,0.2,0.3,0.3,0.4,0.5
				C72.3,3,72.4,3,72.5,3c0.4-0.2,0.9-0.4,1.4-0.4c0.7-0.1,1.4,0.1,2,0.5c0.4,0.3,0.7,0.6,1,0.9c0.5,0.5,0.9,1,1.5,1.3
				c0,0,0.1,0.1,0.1,0.1c0.2,0.3,0.4,0.6,0.6,0.8c0.2,0.2,0.3,0.4,0.6,0.4c0,0.2,0.1,0.2,0.2,0.2c0.1,0.5,0.4,0.9,0.7,1.3
				c0.3,0.3,0.5,0.7,0.6,1.1c0.1,0.4,0.3,0.7,0.4,1.1c0,0.1,0.1,0.2,0,0.3c-0.1,0.7-0.1,1.5-0.1,2.2c0,0.2,0,0.2,0.2,0.2
				c0,0,0.1,0,0.1,0.1c0,0-0.1,0.1-0.1,0.1c-0.1,0-0.1,0.1-0.2,0.1c-0.1,0.1-0.2,0.1-0.1,0.3c-0.2,0-0.3-0.1-0.5-0.1
				c0.1-0.1,0.2-0.2,0.3-0.2c0,0,0,0,0,0c-0.1,0-0.1,0-0.2,0c-0.2,0-0.3,0-0.5,0c-0.1,0-0.2,0-0.3-0.1c0.1-0.1,0.1-0.1,0.2-0.2
				c0,0,0-0.1,0-0.1c0,0-0.1,0-0.1,0c-0.1,0-0.1,0-0.2,0c-0.2,0-0.3,0.1-0.5,0.1c-0.1,0-0.1,0-0.2,0c0,0,0,0,0,0
				c0.1-0.1,0.1-0.1,0.2-0.2c0.3-0.2,0.6-0.4,0.9-0.7c0.1-0.1,0.2-0.1,0.3-0.2c0,0,0.1-0.1,0.1-0.1c0,0,0,0,0,0c-0.1,0-0.1,0-0.2,0
				c-0.4,0.1-0.8,0.3-1.1,0.6c-0.1,0.1-0.3,0.2-0.4,0.2c-0.1,0-0.2,0.1-0.3-0.1c0.1-0.1,0.2-0.1,0.2-0.2c0.1-0.1,0.2-0.2,0.3-0.3
				c0.1-0.1,0.1-0.2,0-0.2c0.2-0.2,0.4-0.3,0.5-0.5c0.1-0.1,0.1-0.2,0.1-0.2c-0.1,0-0.2,0-0.3,0c-0.1,0-0.1,0.1-0.2,0.1
				c-0.1,0.1-0.3,0.1-0.4,0.1c-0.2,0-0.3,0.1-0.5,0.2c0,0-0.1,0.1-0.1,0.1c0,0,0.1,0.1,0.1,0.1c0.1,0,0.3,0.1,0.4,0.1
				c-0.2,0.2-0.4,0.4-0.7,0.5c-0.1-0.2-0.1-0.4-0.2-0.5c0,0,0-0.1,0.1-0.1c0.4-0.3,0.7-0.5,1.1-0.8c0.2-0.1,0.4-0.3,0.5-0.4
				c0,0,0.1-0.1,0.1-0.1c0,0,0,0,0,0c-0.1,0-0.1,0-0.2,0c-0.3,0.1-0.6,0.3-0.9,0.4c-0.1,0-0.2,0.1-0.3,0.1c0,0-0.1,0-0.1,0
				c0-0.1,0-0.1,0.1-0.1c0.1,0,0.2-0.1,0.3-0.1c0.1,0,0.1-0.1,0.1-0.2c-0.1,0-0.1-0.1-0.2-0.1c-0.2,0-0.3,0.1-0.5,0.1
				c-0.1-0.2-0.1-0.2-0.3-0.1c-0.2,0.1-0.4,0.3-0.6,0.4c-0.2,0.1-0.4,0.3-0.6,0.3c0.2-0.1,0.4-0.3,0.6-0.4c0,0,0,0,0,0
				c0.1,0,0.1,0,0.1-0.1c0.2-0.2,0.4-0.4,0.6-0.6c0.3-0.3,0.5-0.6,0.8-0.9c0.1-0.1,0.1-0.2,0.1-0.2c0,0,0,0,0,0
				c-0.1,0-0.2,0.1-0.2,0.1c-0.3,0.3-0.6,0.5-0.9,0.8c-0.3,0.3-0.7,0.7-1,1.1c0,0-0.1,0.1-0.1,0.1c0,0-0.1,0-0.1-0.1
				c0,0-0.1-0.1-0.1,0c0,0-0.1,0.1-0.1,0.1c0,0.1,0.1,0.3,0.1,0.4c0,0-0.1,0-0.1,0c0,0,0,0.1,0,0.1c0,0.3,0,0.6,0,0.8
				c0.2,0.1,0.4,0.3,0.6,0.4c0.1,0,0.2,0.1,0.2,0.1c0.1,0.1,0.1,0,0.1-0.1c-0.1,0-0.1,0-0.2-0.1c-0.1-0.2-0.2-0.5-0.3-0.7
				c0.5,0.3,0.9,0.5,1,1.1c0,0.1,0,0.1,0,0.2c-0.2,0.6-0.2,1.3,0,1.9c0,0.1,0,0.1,0.1,0.2c0.2-0.3,0.1-0.6,0.2-0.9
				c0,0.1,0,0.2,0,0.3c0.1,0.2,0.1,0.4,0.2,0.6c0,0.1,0.1,0.2,0.2,0.1c0,0,0-0.1,0-0.2c0,0,0-0.1,0-0.1c0.1,0,0.1,0.1,0.2,0.2
				c0-0.1,0-0.1,0-0.2c0-0.2-0.1-0.4-0.1-0.6c-0.1-0.5-0.2-0.9-0.3-1.4c0-0.1,0-0.1,0-0.2c0.1,0.1,0.2,0.2,0.3,0.3
				c0.1,0.3,0.2,0.6,0.2,0.9c0.1,0.2,0.1,0.4,0.2,0.6c0.1,0.2,0.2,0.2,0.3,0.1c0,0,0.1-0.1,0.1-0.1c0,0-0.1-0.1-0.2-0.1
				c0-0.1,0-0.3,0-0.4c0.2,0.3,0.4,0.6,0.6,0.8c0-0.2-0.1-0.4-0.1-0.6c0.1,0.1,0.2,0.2,0.3,0.3c0.2,0.3,0.3,0.6,0.5,0.9
				c-0.1,0-0.1,0-0.1,0c0,0-0.1,0-0.1-0.1c-0.2-0.1-0.2,0-0.2,0.2c-0.2,0-0.2,0-0.2,0.3c-0.1,0-0.1-0.1-0.2-0.1
				c-0.1,0-0.2,0-0.2,0.1c0,0.1,0,0.2-0.1,0.3c0,0,0,0.1-0.1,0.2c0-0.1-0.1-0.1-0.1-0.2c-0.1-0.1-0.2-0.2-0.3,0
				c-0.1,0.1-0.1,0.1-0.2,0.1c0,0,0,0.1,0,0.1c0,0,0,0,0.1,0c0,0,0,0,0.1,0c0,0,0,0,0,0c0,0-0.1,0-0.1,0c-0.1-0.1-0.2,0-0.3,0.1
				c0,0,0,0.1,0,0.1c-0.1,0-0.2,0-0.3,0c-0.3,0.1-0.6,0.3-0.9,0.6c0,0,0,0.1-0.1,0.2c0,0.2-0.1,0.2-0.2,0.1
				c-0.1-0.1-0.2-0.1-0.3-0.2c-0.1,0-0.1,0-0.1,0.1c0,0.1,0,0.1,0,0.2c-0.2,0-0.3,0-0.5,0.1c-0.3,0-0.5,0.1-0.8,0.1c0,0-0.1,0-0.1,0
				c-0.2-0.1-0.3-0.1-0.4,0.2c-0.4-0.1-0.4-0.1-0.5,0.3c-0.1-0.1-0.2-0.1-0.3,0c-0.2,0.2-0.3,0.3-0.5,0.3c0,0-0.1,0-0.2,0
				c-0.2-0.1-0.2-0.1-0.3,0.1c-0.1-0.2-0.3-0.2-0.5-0.1c-0.2,0.1-0.5,0.1-0.8,0c0-0.1,0-0.1,0-0.1c0-0.1,0-0.1-0.1-0.1
				c-0.1,0-0.1,0-0.2,0c0-0.1,0-0.2,0-0.2c0.2-0.5,0.2-1,0.3-1.5c0-0.4,0.1-0.8,0.2-1.1c0-0.1,0.1-0.2,0.1-0.3
				c0,0.4-0.1,0.8,0.1,1.2c0,0,0,0,0.1,0c0-0.1,0.1-0.1,0.1-0.2c0.1-0.3,0.1-0.6,0.2-0.9c0,0,0-0.1,0-0.1c0,0,0.1,0,0.1,0
				c0-0.3,0-0.6,0-0.8c0.1,0,0.1-0.1,0.2-0.1c-0.1-0.1-0.1-0.1-0.1-0.1c0-0.1,0-0.2,0-0.3c0,0,0,0,0,0c0.1,0,0.1,0.1,0.2,0.1
				c0.1,0.1,0.3,0.3,0.4,0.5c0.2,0.2,0.4,0.4,0.5,0.7c-0.1,0-0.1,0.1-0.2,0.2c0,0,0,0,0,0c-0.2-0.2-0.3-0.2-0.3,0.1
				c-0.1,0.3-0.1,0.7-0.1,1c0,0.2-0.1,0.5-0.1,0.7c0,0,0,0.1,0,0.1c0.1,0,0.1,0,0.2,0c0.1,0,0.1-0.1,0.1-0.2
				c0.1-0.2,0.1-0.4,0.2-0.7c0-0.3,0.1-0.6,0.1-0.8c0,0,0,0,0,0c0.1,0.3,0.2,0.3,0.3,0c0.1-0.1,0.2-0.2,0.4-0.3
				c0,0.1-0.1,0.2-0.1,0.3c-0.2,0.3-0.3,0.6-0.5,1c-0.1,0.2-0.2,0.3-0.2,0.5c0,0.1,0,0.1,0,0.2c0.1,0,0.1,0,0.2-0.1
				c0.6-0.6,1-1.3,1.2-2c0.3-0.8,0.3-1.6-0.1-2.4c0,0,0.1,0,0.2,0c-0.1-0.1-0.2-0.2-0.2-0.4c0.1,0,0.2,0.2,0.3,0c0-0.1,0-0.2,0-0.2
				c0,0-0.1,0-0.2,0c-0.3-0.3-0.4-0.3-0.5,0c0,0,0,0,0,0c-0.2-0.2-0.3-0.2-0.6,0c-0.1,0.1-0.2,0.1-0.3-0.1c0-0.1,0-0.1-0.1-0.2
				c-0.1-0.1-0.1-0.2-0.3-0.2c-0.1,0-0.2,0-0.2,0.1c0,0,0,0.1,0,0.2c0,0.1,0.1,0.1,0.1,0.1c0,0.1-0.1,0.1-0.1,0.2
				c0,0.1,0.1,0.2,0.1,0.2c0.1,0.1,0.2,0.2,0.4,0.3c-0.1,0.2-0.1,0.4-0.1,0.6c0,0.2,0.1,0.5,0.1,0.8c-0.1-0.1-0.2-0.1-0.2-0.2
				c0,0-0.1-0.1-0.1-0.1c0,0-0.1,0-0.1-0.1c0-0.1-0.1-0.2-0.2-0.2c-0.1,0-0.1,0.1-0.2,0.1c-0.1-0.4,0-0.8-0.2-1.2c0,0,0,0-0.1,0
				c0,0.1-0.1,0.1-0.1,0.2c0,0.4-0.1,0.7-0.1,1.1c0,0,0,0.1,0,0.1c-0.2,0-0.2,0-0.2,0.2c0,0.1,0.1,0.2,0.3,0.2
				c0,0.3-0.1,0.6-0.1,0.9c-0.1,0-0.1,0-0.1-0.1c-0.2-0.1-0.3,0-0.4,0.2c-0.1,0.1-0.1,0.3-0.1,0.4c0,0.5-0.1,1-0.1,1.4
				c0,0.3-0.1,0.7-0.3,1c0,0.1-0.1,0.1-0.2,0.2c-0.1,0.1-0.2,0.1-0.3-0.1c0-0.1-0.1-0.3-0.1-0.4c0-0.4,0.1-0.8,0.2-1.2
				c0.1-0.5,0.2-0.9,0.3-1.4c0-0.1,0-0.2,0-0.3c-0.1,0.1-0.1,0.1-0.2,0.2c-0.1,0.1-0.1,0.2-0.2,0.2c0,0,0,0,0,0c0,0,0-0.1,0-0.1
				c0-0.5,0.2-1.1,0.3-1.6c0,0.4,0.3,0.6,0.7,0.6c0,0,0,0.1,0,0.1c0,0.1,0,0.2,0.1,0.2c0.1,0,0.2,0,0.2,0c0.2-0.1,0.3-0.3,0.1-0.5
				c0.1-0.1,0.1-0.2,0.2-0.2c0-0.1,0-0.2-0.1-0.3c0,0-0.1-0.1-0.2-0.1c0,0-0.1,0.1-0.1,0.1c0,0.1-0.1,0.3-0.1,0.4c0-0.1,0-0.2,0-0.3
				c0,0-0.1-0.1-0.1-0.1c-0.4-0.2-0.5-0.4-0.5-0.8c0-0.1,0.1-0.2,0.1-0.3c0-0.1,0-0.1,0-0.2c-0.3,0.1-0.4,0.3-0.6,0.4
				c0,0,0.1,0.1,0.1,0.1c0.1,0.2,0.1,0.4-0.1,0.6c-0.1,0.1-0.2,0.1-0.3-0.1c0-0.1,0-0.2,0-0.3c0.1-0.3,0.1-0.6,0.2-0.9
				c0.1,0.2,0.2,0.3,0.4,0.2c0.3,0,0.3-0.3,0.4-0.5c0.3-0.1,0.6-0.1,0.9-0.2c0,0,0.1,0,0.1,0c0.1,0,0.1,0.1,0.2,0
				c0,0,0.1-0.1,0.1-0.1c0,0,0.1,0.1,0.2,0.2c0.1-0.1,0.1-0.2,0.1-0.3c0,0,0-0.1-0.1-0.2c0.2-0.2,0.4-0.2,0.7-0.3
				c0.5,0,1,0.1,1.5,0.3c0.3,0.1,0.6,0.2,0.8,0.3c0,0,0,0,0,0c-0.3,0-0.6-0.1-1-0.1c0,0,0,0.1,0.1,0.1c0.8,0.8,1.2,1.7,1.5,2.7
				c0,0.1,0.1,0.2,0.1,0.3c0,0,0.1,0.1,0,0.1c0,0,0,0,0,0.1c0.1,0.5,0.1,1.1,0.1,1.6c0,0,0,0,0,0c0,0,0,0.1,0,0.1c0,0,0.1,0,0.1-0.1
				c0.1-0.1,0.1-0.2,0.1-0.3c0.2-0.4,0.2-0.8,0.2-1.3c0.1,0.1,0.1,0.2,0.1,0.3c0,0,0,0.1,0,0.1c-0.1,0.2,0,0.4,0,0.6
				c0,0.1,0.1,0.1,0.1,0.1c0-0.1,0.1-0.1,0.1-0.2c0.1-0.2,0-0.4-0.1-0.5c0,0-0.1-0.1-0.1-0.1c0.2-0.1,0.2-0.3,0.2-0.5
				c0-0.5-0.2-1-0.4-1.5c0-0.1-0.1-0.1-0.1-0.2c0,0,0,0,0,0c0,0.1,0,0.1,0,0.2c0,0.3,0.1,0.6,0.1,0.9c0,0.1,0,0.3,0,0.4
				c-0.2-0.5-0.3-1-0.5-1.5c-0.2-0.5-0.5-0.9-0.8-1.4c0.3,0,0.5-0.2,0.4-0.4c0-0.1-0.1-0.2-0.2-0.2c-0.1,0-0.2,0-0.3-0.1
				c-0.1,0-0.2-0.1-0.2-0.2C75.5,10,75.3,9.9,75,9.7c-0.2-0.1-0.5-0.2-0.7-0.3c-0.3-0.1-0.6-0.2-0.8-0.3c-0.1,0-0.2-0.1-0.3-0.2
				c-0.1-0.1-0.1-0.2,0-0.3c0.1-0.1,0.3-0.2,0.4-0.2c0,0,0.1,0,0.2,0c0.1,0,0.1,0,0.2,0c0-0.1,0-0.1,0-0.2c-0.2-0.2-0.1-0.4-0.1-0.7
				c0-0.3,0.1-0.6,0.1-0.9c0-0.1,0-0.2,0.1-0.3c0.1-0.2,0.2-0.5,0.3-0.7c0,0,0.1-0.1,0.1-0.1c0.1-0.1-0.1-0.3,0.1-0.4c0,0,0,0,0,0
				c0,0.1,0.1,0.1,0.1,0.2c0.1-0.1,0.1-0.1,0.2-0.2c0.2-0.4,0.3-0.8,0.4-1.2c0,0,0-0.1,0-0.2c-0.2,0.3-0.3,0.6-0.5,0.9
				c0-0.2,0.1-0.4,0.1-0.6c0-0.1,0-0.2,0-0.2c0,0,0-0.1-0.1-0.1c0,0-0.1,0-0.1,0C74.7,4,74.6,4,74.5,4.1c-0.1,0.2-0.2,0.4-0.3,0.6
				c-0.1,0-0.2,0-0.4,0.1c0-0.1,0-0.1,0-0.2c0,0,0-0.1,0-0.1c0,0-0.1,0-0.1,0c0,0-0.1,0-0.1,0.1c-0.2,0.2-0.3,0.4-0.4,0.7
				c0,0.1,0,0.2,0,0.4c-0.1,0.1-0.1,0.2-0.2,0.3l0,0c0-0.1,0-0.2,0-0.3c0-0.1-0.1-0.1-0.1-0.2c-0.1,0-0.1,0.1-0.2,0.1
				c-0.1,0.1-0.1,0.2-0.2,0.3c0.1-0.2,0.1-0.5,0.2-0.7c0.2,0.1,0.2,0.1,0.4,0C73.3,5,73.3,5,73.4,4.9c0-0.1,0-0.1,0-0.2
				c-0.1,0-0.1,0-0.2,0c0,0-0.1,0.1-0.1,0.1c0,0-0.1,0.1-0.1,0.1c0.2-0.4,0.4-0.8,0.5-1.2C73.2,3.8,73.1,4,73,4.1
				c-0.1,0-0.3,0-0.4,0c0,0-0.1,0-0.1-0.1c-0.1-0.1-0.1-0.2-0.3-0.1c-0.2,0.2-0.4,0.5-0.5,0.8c0,0.1,0,0.1-0.1,0.1c0,0,0,0,0,0
				c-0.1,0-0.2,0.1-0.2,0.2c0,0.1,0.1,0.1,0.2,0.1c0.1,0,0.2,0,0.3,0c-0.2,0.7-0.5,1.3-0.7,2c-0.1,0-0.1,0-0.2-0.1
				c0,0.2,0,0.3,0,0.4C71,7.4,71,7.4,70.7,7.4c0.3-1.3,0.7-2.5,0.9-3.8c0,0,0,0,0,0c0,0,0,0,0,0c-0.1,0.2-0.2,0.5-0.3,0.7
				c0,0-0.1,0-0.1,0c-0.1,0.9-0.3,1.7-0.6,2.5c-0.2,0-0.3,0-0.2,0.2C70.2,7,70.1,7,70.1,7.1c-0.1,0.1-0.1,0.2,0,0.3
				c0.1,0.1,0.1,0.1,0,0.3c0,0,0,0,0,0C70,7.6,70,7.5,70,7.5c-0.1,0-0.1,0.1-0.2,0.1c0,0.1-0.1,0.1-0.2,0.1c-0.1,0-0.3,0-0.4-0.1
				c-0.2,0-0.3-0.1-0.3-0.4c0-0.2,0.1-0.4,0.1-0.7c0.1-0.3,0.1-0.7,0.2-1C69.3,5.8,69.3,6,69.5,6c-0.1,0.4-0.1,0.9,0,1.3
				c0,0,0,0,0.1,0c0,0,0.1-0.1,0.1-0.1c0.3-0.7,0.4-1.4,0.5-2.1c0-0.1,0-0.2,0-0.3c0,0,0,0,0,0c0,0.1,0,0.1,0.1,0.2
				c0,0,0.1,0.1,0.2,0.1c-0.1,0.2-0.1,0.3-0.2,0.5c0,0.1-0.1,0.3-0.1,0.4c0,0,0,0.1,0,0.1c0,0,0.1,0,0.1,0c0.1-0.1,0.1-0.1,0.2-0.2
				c0.1-0.3,0.3-0.6,0.4-0.9c0-0.1,0.1-0.2,0.1-0.4c0-0.1,0-0.1-0.1-0.1c-0.1,0-0.2,0.1-0.3,0.2c0-0.3,0-0.6,0-0.9
				c-0.2,0.2-0.2,0.4-0.3,0.7c-0.1-0.1-0.2-0.1-0.3,0c-0.1,0.2,0,0.3,0.1,0.4c-0.1,0.3-0.3,0.6-0.4,0.9c0,0,0,0,0,0
				c0-0.1,0-0.3,0.1-0.4c0.1-0.4,0.2-0.7,0.2-1.1c0-0.1,0-0.2,0-0.3c0,0,0-0.1,0-0.1c0,0-0.1,0-0.1,0c-0.1,0-0.2,0.1-0.2,0.1
				c0,0-0.1,0.1-0.1,0.1c0,0.1,0,0.1,0,0.2c0,0.1,0,0.2-0.2,0.2c0-0.4,0-0.7-0.1-1.1c-0.2,0.2-0.2,0.5-0.3,0.7
				c-0.1,0-0.1-0.1-0.2-0.1c0,0.1,0,0.1,0,0.2c0,0.2,0.1,0.4,0.1,0.6c0,0.2,0,0.3,0,0.4c-0.2,0-0.3,0.1-0.4,0.1
				c0.1-0.5,0.1-1.1,0-1.6c0,0,0,0-0.1,0c0,0.1-0.1,0.1-0.1,0.2c-0.1,0.4-0.1,0.7-0.2,1.1c0,0,0,0.1,0,0.2c-0.1-0.3-0.3-0.6-0.4-1
				c0-0.2-0.1-0.3-0.1-0.5c0-0.2,0.1-0.4,0.3-0.6c0.1,0,0.1-0.1,0.2,0c0,0,0.1,0,0.1-0.1c0-0.1,0-0.2,0-0.3c0,0,0-0.1-0.1-0.1
				c0,0-0.1,0-0.1,0c0,0.1-0.1,0.2-0.1,0.3c-0.1,0-0.2,0.1-0.2,0.1c0,0,0.1-0.1,0.1-0.1C68,3,68,2.9,68.1,2.9c0-0.1,0-0.3,0-0.4
				c0-0.1-0.1-0.2-0.2-0.1c-0.1,0-0.2,0.1-0.3,0.1c-0.2,0.1-0.3,0.1-0.4-0.1c0,0,0,0-0.1,0c-0.1,0.2-0.1,0.4-0.2,0.6c0,0,0,0,0,0
				c0,0,0-0.1,0-0.1c0,0-0.1-0.1-0.1-0.1c0,0-0.1,0.1-0.1,0.1c-0.1,0.1-0.1,0.3-0.2,0.4c0,0.1,0,0.1-0.1,0.2c0,0-0.1,0-0.1,0
				c0-0.1,0-0.1,0-0.2c0.1,0,0.1,0,0.1,0c0-0.1,0-0.1-0.1-0.2c-0.1,0-0.2,0-0.2,0c-0.1,0-0.1,0.1-0.1,0.2c0,0.2,0,0.3-0.1,0.5
				c0,0.1,0,0.2,0,0.3C66,4,66,4,66,4c0,0.1,0.1,0.1,0.1,0.2c0-0.1,0.1-0.1,0.1-0.2c0-0.1,0-0.3,0.1-0.4c0,0,0-0.1,0-0.1
				c0,0,0,0,0,0c0,0.1,0,0.1,0,0.2c0,0.2,0,0.4,0,0.6c0,0,0,0,0,0c-0.2,0.2-0.1,0.4-0.1,0.5c0,0,0,0,0,0C66.1,4.9,66,4.7,66,4.5
				c0-0.4-0.1-0.7-0.1-1.1c0-0.1-0.1-0.1-0.1-0.2c0,0.1-0.1,0.1-0.1,0.2c0,0.1,0,0.1-0.1,0.1c0,0,0,0.1,0,0.1c0,0.5,0,1,0.2,1.5
				c0,0.1,0.1,0.1,0.2,0.2c0,0.1-0.1,0.1-0.1,0.2c0,0,0,0.1-0.1,0.2c0.1,0,0.1,0,0.2,0c0,0.1,0,0.2-0.1,0.3c0,0,0,0.1,0,0.1
				c0,0.1,0.1,0.1,0.1,0.2c0,0,0,0.1,0,0.2c0,0.1,0,0.1,0.1,0.2c0.1,0,0.1,0.1,0.2,0.1c0,0,0-0.1,0-0.1c0-0.1-0.1-0.1-0.1-0.2
				c0.2,0,0.3,0,0.3,0.2c0,0.1,0.1,0.3,0.2,0.4c0,0,0.1,0.1,0.1,0.1c0.1,0,0.2,0,0.3,0c0-0.1,0-0.2-0.1-0.2c0-0.1-0.1-0.1-0.1-0.2
				c0-0.1,0-0.2,0.1-0.3c0.1,0,0.2,0,0.4-0.1c0,0.2,0,0.4,0.1,0.5c0,0.1,0,0.2,0.1,0.3c0,0,0.1,0.1,0.1,0.1c0,0,0.1-0.1,0.1-0.1
				c0-0.1,0.1-0.3,0.1-0.5c0.1-0.5,0-1,0-1.5c0.1,0.2,0.2,0.3,0.4,0.4c0,0,0.1,0.1,0.1,0.2c0,0.3,0,0.5-0.1,0.8c0,0,0,0.1,0,0.1
				c0,0,0.1,0,0.1,0c0.2-0.1,0.3-0.2,0.5-0.3c0,0.3-0.1,0.6-0.1,0.9c0,0.1-0.1,0.2-0.2,0.3c0,0,0,0,0,0.1c0,0.1-0.1,0.2-0.1,0.2
				c-0.2,0-0.4,0.1-0.6,0.1c-1.2,0.1-2.3,0-3.4-0.3c-0.1,0-0.1,0-0.2,0c-0.1,0-0.1-0.1-0.2-0.2c-0.1-0.1-0.2-0.2-0.3-0.3
				c-0.4-0.4-0.5-0.9-0.5-1.5c0.1,0.2,0.2,0.4,0.3,0.5c0.1,0.1,0.1,0.2,0.2,0.2c0.1,0,0.1-0.2,0.2-0.3c0,0,0-0.1,0.1-0.2
				c0,0,0,0.1,0,0.1C64,6.1,64,6.4,64,6.6c0,0.2,0.2,0.3,0.2,0.4c0,0,0,0.1,0.1,0.1c0,0,0,0,0,0c0-0.1,0-0.2,0-0.2
				c0-0.5-0.1-0.9-0.1-1.4c0-0.3-0.1-0.6-0.2-0.9c0-0.1-0.1-0.2-0.1-0.2c-0.1,0.2-0.1,0.4-0.1,0.6C63.8,4.8,63.8,4.6,63.7,4.5
				c0,0,0.1-0.1,0.1-0.1c0-0.3,0-0.5-0.1-0.7c0,0-0.1-0.1-0.1-0.1c0,0-0.1,0.1-0.1,0.1C63.3,4,63.5,4.2,63.7,4.5z M75.2,6.1
				C75.2,6.1,75.2,6.1,75.2,6.1c0.1,0.1,0.3,0.1,0.4,0.1c0,0.2-0.1,0.4-0.2,0.6c-0.2,0.2-0.3,0.5-0.5,0.7c-0.2,0.3-0.5,0.6-0.7,0.8
				C74.1,8.3,74,8.5,74,8.6c-0.1,0.1,0,0.2,0.1,0.2c0.1,0,0.3,0,0.4-0.1c0.1-0.1,0.2-0.2,0.3-0.3c0.6-0.6,1.1-1.3,1.2-2.2
				C76,6.1,76,6,76.1,5.9c0,0,0,0,0.1,0c0.1,0,0.3-0.2,0.3-0.3c0-0.1-0.1-0.1-0.2-0.1c0,0,0,0,0,0c0-0.1,0-0.2,0-0.3
				c0,0,0-0.1-0.1-0.1c0,0-0.1,0-0.2,0.1c0,0-0.1,0.1-0.1,0.1c0,0,0,0,0,0c-0.1,0-0.2,0-0.3,0c0,0,0,0,0-0.1c0-0.2,0-0.4,0-0.6
				c0,0,0-0.1-0.1-0.1c0,0-0.1,0-0.1,0.1c-0.1,0.1-0.1,0.2-0.2,0.3c-0.4,0.9-0.9,1.7-1.3,2.6c0,0,0,0,0,0.1c0,0,0.1,0,0.1,0
				c0.3-0.1,0.5-0.4,0.7-0.7c0.1-0.2,0.2-0.5,0.4-0.7c0.1-0.1,0.2-0.2,0.3-0.3c0.1-0.1,0.3-0.2,0.5-0.1C75.6,5.7,75.4,5.9,75.2,6.1z
				 M76.7,6.6C76.4,7,76.2,7.3,76,7.7c0,0,0,0.1-0.1,0.1c-0.1,0-0.2,0.1-0.2,0.2c-0.2,0.2-0.3,0.4-0.5,0.6c-0.1,0.1-0.1,0.2-0.2,0.3
				c0,0.1,0,0.2,0,0.2c0.1,0,0.2,0,0.2-0.1c0.2-0.2,0.4-0.3,0.5-0.5c0.2-0.2,0.4-0.5,0.5-0.7C76.5,8,76.6,8,76.8,7.9
				c0.1,0,0.1,0,0.2,0c0.1,0,0.2,0,0.2,0c0,0,0.1,0,0.2,0c0,0,0-0.1,0.1-0.2c0,0,0-0.1,0-0.1c0.1,0,0.1,0,0.2,0c0,0,0,0,0,0
				c-0.1,0-0.1-0.1-0.1-0.1c0.1-0.1,0.2-0.2,0.2-0.4c0.1-0.1,0.1-0.3,0.2-0.4c0-0.1,0-0.2,0-0.3c-0.1,0-0.2,0.1-0.2,0.1
				c-0.1,0.1-0.2,0.2-0.2,0.2c0-0.2,0-0.2-0.3-0.2c0.1-0.1,0.1-0.2,0.2-0.4c0,0,0-0.1,0-0.2c-0.1,0-0.1,0-0.2,0.1
				c-0.1,0.1-0.2,0.2-0.3,0.3c0-0.1,0-0.2-0.1-0.2c-0.1,0-0.1,0-0.2,0.1c0.1-0.2,0.2-0.3,0.2-0.4c0,0,0-0.1,0-0.1c0,0-0.1,0-0.1,0
				c-0.2,0.1-0.4,0.3-0.4,0.5c0,0.2,0,0.4-0.2,0.5C76,6.8,76,6.9,75.9,7c0.1,0,0.2,0,0.3,0c0,0,0,0,0.1,0c0.1-0.1,0.1-0.2,0.2-0.3
				C76.6,6.7,76.6,6.6,76.7,6.6z M76,9.8c-0.1,0.1-0.1,0.1,0,0.2c0.1,0.1,0.6,0.2,0.7,0c0.2-0.2,0.5-0.5,0.7-0.7
				c0.2-0.2,0.4-0.5,0.6-0.7c0,0.1,0,0.1-0.1,0.2C77.9,9,77.9,9,78,9c0,0,0.1,0,0.1,0c0.4-0.2,0.7-0.5,0.9-0.9c0,0,0.1-0.1,0.1-0.1
				c0,0,0-0.1,0-0.1c0,0-0.1,0-0.1,0c-0.1,0-0.1,0.1-0.2,0.1c-0.2,0.2-0.4,0.4-0.6,0.5c0,0-0.1,0-0.1,0.1c0,0,0,0,0,0
				c0,0,0.1-0.1,0.1-0.1c0.1-0.2,0.3-0.5,0.4-0.7c0-0.1,0-0.1,0-0.2c0-0.1-0.1-0.1-0.1-0.1c-0.1,0.1-0.2,0.2-0.3,0.2
				c-0.4,0.4-0.8,0.9-1.2,1.3c-0.2,0.2-0.5,0.5-0.7,0.7c-0.1-0.1-0.1-0.2-0.1-0.2C76.1,9.4,76,9.3,76,9.3c0,0-0.1,0-0.2-0.1
				c-0.1,0-0.2,0-0.3,0.1c0,0.1,0,0.2,0.1,0.2C75.8,9.6,75.9,9.7,76,9.8z M75.4,15.2C75.4,15.2,75.4,15.3,75.4,15.2
				C75.4,15.3,75.4,15.3,75.4,15.2c0.2,0.1,0.1,0.2,0.1,0.3c0,0.1-0.1,0.3-0.1,0.4c0,0,0,0.1,0,0.1c0,0,0.1,0,0.1,0c0,0,0,0,0.1-0.1
				c0.4-0.5,0.6-1,0.8-1.6c0-0.1,0-0.1,0-0.2c0-0.1,0-0.1,0-0.2c0-0.3,0.1-0.7,0.1-1c0-0.2-0.1-0.3-0.3-0.2c-0.1,0-0.1-0.1-0.1-0.1
				c0,0.1-0.1,0.1-0.1,0.2c0,0,0,0.1,0,0.1c0,0.3-0.1,0.5-0.1,0.8c-0.1,0.4-0.1,0.9-0.3,1.3c0,0.1-0.1,0.1-0.2,0.1
				C75.4,15.2,75.4,15.2,75.4,15.2z M65.1,7.1C65.1,7.1,65.1,7.1,65.1,7.1c0.1-0.1,0.1-0.2,0.1-0.3c0-0.3-0.1-0.6-0.2-0.9
				c-0.1-0.3-0.2-0.6-0.3-0.9c0-0.1-0.1-0.1-0.2-0.2c-0.1,0.2-0.1,0.3-0.1,0.5c0,0.2,0.1,0.4,0.1,0.5c0.1,0.4,0.3,0.8,0.4,1.2
				C65,7,65,7,65.1,7.1z M77.8,7.8C77.8,7.8,77.9,7.8,77.8,7.8c0.4-0.2,0.6-0.5,0.7-0.9c0,0,0-0.1,0-0.1c0,0-0.1,0-0.1,0
				c-0.1,0-0.1,0.1-0.2,0.1c-0.2,0.2-0.3,0.4-0.4,0.6C77.7,7.6,77.7,7.7,77.8,7.8C77.7,7.8,77.8,7.8,77.8,7.8z M72.4,12.5
				C72.4,12.4,72.4,12.4,72.4,12.5c0-0.1-0.1-0.1-0.1-0.1c-0.1-0.1-0.2-0.1-0.2-0.2C72,12,71.9,11.9,72,11.8c0-0.1,0-0.1,0-0.2
				c0,0,0,0,0,0c-0.1,0.1-0.2,0.2-0.2,0.3c-0.1,0.1-0.1,0.2-0.2,0.2c-0.1,0-0.1,0.1-0.2,0.1c0,0,0,0,0,0.1c0,0,0.1,0,0.1,0
				c0.2,0.1,0.5,0.2,0.7,0.3C72.3,12.5,72.4,12.5,72.4,12.5z M76.2,9.3c0.2-0.1,0.3-0.2,0.4-0.3c0.1-0.2,0.1-0.3-0.1-0.3
				c-0.1,0-0.2,0.1-0.3,0.1c-0.2,0.1-0.2,0.1-0.2,0.3C76,9.3,76,9.3,76.2,9.3z M72.8,16.3C72.8,16.4,72.8,16.4,72.8,16.3
				c0.1,0.1,0.1,0.2,0.2,0.2c0-0.1,0.1-0.1,0.1-0.2c0-0.2,0-0.4,0-0.6c0,0-0.1-0.1-0.1-0.1c0,0-0.1,0-0.1,0
				C72.8,15.9,72.7,16.1,72.8,16.3z M68.7,2.7c0,0,0-0.1,0-0.2c0-0.1,0-0.2-0.1-0.2c-0.1,0-0.1,0.1-0.2,0.1c0,0.1,0,0.2,0,0.3
				c0.1,0.1,0.2,0.3,0.3,0.4c0,0,0.1,0,0.1,0c0-0.1,0.1-0.2,0.1-0.3C68.9,2.8,68.8,2.8,68.7,2.7z M70.9,4.1c0,0-0.1,0-0.1,0.1
				c0,0.1-0.1,0.1-0.1,0.2c0,0.1,0.1,0.1,0.1,0.1c0,0,0.1-0.1,0.2-0.1c0.1-0.1,0.1-0.1,0.1-0.2c0,0,0.1-0.1,0.1-0.1
				c0-0.1-0.1-0.2-0.1-0.3c0,0-0.1-0.1-0.1-0.1c0,0-0.1,0.1-0.1,0.1C70.9,3.8,70.9,3.9,70.9,4.1z M75.9,5.1C76,5,76,5,76.1,5
				c0,0,0.1-0.1,0-0.1C76.1,4.8,76,4.7,76,4.7c0-0.1,0.1-0.2,0.1-0.3c0-0.1-0.1-0.2-0.2-0.1c-0.1,0.1-0.1,0.3,0,0.4
				c-0.1,0-0.3,0-0.2,0.2C75.7,5,75.8,5.1,75.9,5.1z M74.2,3.8C74.2,3.8,74.2,3.7,74.2,3.8c0-0.1,0-0.1,0-0.2c0,0-0.1,0-0.1,0
				c-0.1,0.1-0.2,0.2-0.2,0.3C73.7,4,73.7,4,73.9,4.1c0.1,0,0.1,0,0.2,0c0,0,0.1,0,0.1,0.1c0,0.1,0.1,0.1,0.2,0.1
				c0.1,0,0.1-0.1,0-0.2C74.3,4,74.2,3.9,74.2,3.8z M76.5,14.7c-0.1,0.2-0.2,0.4-0.2,0.5c0,0.1,0,0.2,0.1,0.3c0,0,0.1,0,0.1,0
				C76.6,15.4,76.7,15,76.5,14.7z M72.6,11C72.6,11,72.6,11,72.6,11c-0.2,0.1-0.3,0.2-0.3,0.3c0,0,0,0.1,0,0.1
				c0.1,0.1,0.1,0.2,0.2,0.2c0.1,0,0.2,0,0.2-0.1c0.1-0.1,0.1-0.2,0.2-0.3c0,0,0-0.1,0-0.2C72.8,11,72.7,11,72.6,11z M73.3,11.5
				C73.3,11.5,73.3,11.5,73.3,11.5c-0.1,0.1-0.1,0.2-0.2,0.3c0,0,0,0,0,0c0,0.1,0.1,0.3,0.1,0.3c0.1,0.1,0.2,0,0.2-0.1
				C73.4,11.9,73.4,11.7,73.3,11.5z M65,3.8C65,3.8,65,3.8,65,3.8c-0.1-0.1-0.1-0.2-0.2-0.1c0,0-0.1,0.1-0.1,0.1c0,0.1,0,0.2,0,0.3
				c0,0,0,0.1,0.1,0.1c0,0,0.1,0,0.1-0.1C65,4.1,65,3.9,65,3.8z M76.6,5.2C76.6,5.2,76.6,5.2,76.6,5.2c0-0.1-0.1-0.1-0.1-0.2
				c0-0.1,0-0.1-0.1-0.1c0,0-0.1,0-0.2,0c0,0,0,0.1,0,0.2c0,0,0,0.1,0,0.1c0,0.1,0,0.1,0.1,0.2c0,0,0.1,0,0.1,0
				C76.6,5.4,76.6,5.3,76.6,5.2z M69.2,2.6c-0.2,0-0.3,0-0.3,0.2C69,2.9,69,3,69,3.1c0,0,0.1,0.1,0.1,0c0,0,0.1-0.1,0.1-0.1
				C69.2,2.9,69.2,2.7,69.2,2.6z M75,6.5c-0.1,0-0.1,0.1-0.1,0.2c0,0.1,0.2,0.2,0.3,0.2c0.1,0,0.1-0.2,0.1-0.3
				C75.2,6.5,75.1,6.4,75,6.5z M70,3.9c0,0.1,0.1,0.2,0.2,0.2c0.1,0,0.2-0.1,0.1-0.2c0-0.1-0.2-0.2-0.2-0.2C70,3.6,70,3.8,70,3.9z
				 M77.9,5.8c0-0.1,0-0.1-0.1-0.1c0,0-0.1,0-0.1,0c-0.1,0.1-0.1,0.2-0.1,0.2c-0.1,0.1,0,0.2,0,0.2c0.1,0,0.2,0,0.2-0.1
				C77.9,5.9,77.9,5.8,77.9,5.8z M75,10.6c0-0.1-0.1-0.1-0.1-0.1c-0.1,0-0.2,0.1-0.3,0.1c0,0,0,0.1-0.1,0.1c0,0,0.1,0.1,0.1,0.1
				c0.1,0,0.2,0,0.3,0C75,10.8,75.1,10.7,75,10.6z M77.5,5.5c0.1,0.1,0.1,0.1,0.2,0.1c0.1-0.1,0.1-0.1,0.2-0.2c0,0,0-0.2,0-0.2
				c-0.1,0-0.2,0-0.2,0C77.6,5.3,77.5,5.4,77.5,5.5z M77.3,8c-0.1,0-0.1,0.1-0.1,0.2c0,0.1,0.1,0.2,0.2,0.2c0.1,0,0.2-0.2,0.1-0.3
				C77.5,8.1,77.4,8.1,77.3,8z M69.4,3.2c-0.1-0.1-0.1-0.1-0.2-0.2c-0.1,0.1-0.1,0.1-0.2,0.2c0,0.1,0,0.2,0.1,0.2c0,0,0.1,0,0.1,0
				C69.4,3.4,69.4,3.3,69.4,3.2z M77,4.6c-0.1-0.1-0.1-0.1-0.1-0.1c0,0-0.1,0-0.1,0.1c0,0.1-0.1,0.1-0.1,0.2c0,0,0,0.1,0.1,0.1
				c0,0,0.1,0,0.1,0C76.9,4.9,76.9,4.8,77,4.6z M76.3,16c-0.1-0.1-0.2-0.2-0.3-0.2c-0.1,0-0.1,0.1-0.1,0.1c0,0.1,0.2,0.3,0.2,0.2
				C76.2,16.2,76.2,16.1,76.3,16z M68.7,3.3C68.7,3.3,68.6,3.3,68.7,3.3c-0.1,0.1-0.1,0.2-0.1,0.2c0,0,0,0.1,0,0.1c0,0,0.1,0,0.2,0
				c0,0,0.1-0.1,0.1-0.1C68.8,3.5,68.7,3.4,68.7,3.3z M73.7,12.4c-0.1-0.1-0.2-0.1-0.3-0.2c0,0.1-0.1,0.1-0.1,0.2
				c0,0.1,0.2,0.2,0.3,0.1C73.7,12.5,73.7,12.4,73.7,12.4z M75.5,12.2c0.1,0.1,0.2,0.2,0.2,0.2c0.1,0,0.1-0.1,0.1-0.2
				c0-0.1-0.1-0.2-0.2-0.1C75.6,12,75.6,12.1,75.5,12.2z M66.4,2.8C66.4,2.8,66.4,2.9,66.4,2.8c0.1,0.1,0.1,0.1,0.1,0.2
				c0,0,0.1-0.1,0.1-0.1c0,0,0,0,0-0.1c0-0.1-0.1-0.2-0.2-0.2C66.3,2.6,66.4,2.7,66.4,2.8C66.4,2.8,66.4,2.8,66.4,2.8z M76.5,4.2
				c-0.2,0-0.2,0.1-0.2,0.2c0,0.1,0.1,0.1,0.1,0.1C76.5,4.5,76.6,4.4,76.5,4.2C76.6,4.3,76.5,4.3,76.5,4.2z M72.9,3.7
				c0,0-0.1-0.1-0.1-0.1c-0.1,0-0.1,0.2-0.1,0.2c0,0,0.1,0.1,0.1,0.1C72.8,4,72.9,3.8,72.9,3.7z M68.7,2.6c0.1,0,0.1,0.1,0.1,0.1
				C68.9,2.6,69,2.5,69,2.4c-0.1,0-0.1-0.1-0.2-0.1C68.8,2.4,68.8,2.5,68.7,2.6z M70.8,3.2C70.7,3.2,70.7,3.2,70.8,3.2
				c0,0.1,0,0.1,0,0.2c0,0,0.1,0,0.1,0c0,0,0,0,0,0C70.9,3.2,70.8,3.2,70.8,3.2z M77.6,9.8c0-0.1,0.1-0.1,0.1-0.1c0,0-0.1,0-0.1-0.1
				c0,0,0,0.1,0,0.1C77.5,9.7,77.6,9.7,77.6,9.8z M71.8,11.4C71.8,11.4,71.8,11.4,71.8,11.4c0.1,0,0.1,0,0.2,0c0,0-0.1-0.1-0.1-0.1
				C71.8,11.3,71.8,11.3,71.8,11.4z M65.4,4.3C65.3,4.3,65.3,4.3,65.4,4.3c-0.1,0-0.1,0.1-0.1,0.1c0,0,0.1,0,0.1,0
				C65.3,4.4,65.4,4.4,65.4,4.3z"/>
		</g>
		<g>
			<path class="st0" d="M66.6,11.6c0.3,0,0.4,0.2,0.4,0.5c0,0.2-0.1,0.3-0.2,0.5c-0.1,0.2-0.2,0.3-0.3,0.5c-0.1-0.1-0.1-0.2-0.2-0.3
				c0,0-0.1,0-0.1-0.1c0,0.1,0,0.1,0,0.2c0,0.1,0.1,0.2,0.2,0.3c0,0,0,0,0,0c0,0-0.1-0.1-0.1-0.1c-0.1,0.1-0.1,0.5,0.1,0.6
				c0.1,0,0.2,0,0.2,0c0.1-0.1,0.2-0.2,0.3-0.4c0,0,0-0.1,0.1-0.1c0,0.1,0,0.2,0,0.2c-0.1,0.5-0.3,1-0.4,1.4
				c-0.1,0.3-0.2,0.6-0.3,0.8c0,0.1,0,0.1,0,0.2c0,0,0,0,0,0c0,0,0.1-0.1,0.1-0.1c0.1-0.1,0.2-0.3,0.3-0.4c0.4-0.5,0.5-1.1,0.6-1.7
				c0-0.2,0-0.3,0-0.5c0-0.1-0.1-0.2-0.3-0.2c0.1-0.1,0.1-0.2,0.2-0.4c0.1,0.1,0.2,0.1,0.2,0c0.1-0.2,0.4-0.2,0.6-0.2
				c0,0.1,0,0.2,0,0.2c0.1,0.1,0.2,0,0.3-0.1c0,0.1,0.1,0.2,0.1,0.2c0.1,0,0.2,0,0.3-0.1c0,0.1,0,0.1,0,0.2
				c-0.1,0.4-0.1,0.7-0.2,1.1c-0.2,0.8-0.5,1.6-0.9,2.3c-0.1,0.1-0.2,0.3-0.2,0.4c-0.1,0.1-0.2,0.1-0.3,0.1c-0.1,0-0.2-0.1-0.2-0.2
				c0-0.1,0-0.2,0-0.2c0,0,0,0,0,0c-0.1,0.1-0.2,0.3-0.4,0.4c-0.3-0.4-0.9-0.4-1.3-0.5c0-0.2,0-0.2-0.2-0.3c-0.3,0-0.5-0.1-0.8-0.1
				c0,0-0.1,0-0.1,0c-0.2-0.2-0.4-0.3-0.6-0.5c-0.2-0.2-0.3-0.4-0.5-0.6c0,0,0-0.1-0.1-0.1c0-0.1-0.1-0.2-0.1-0.2c0,0-0.1,0-0.2,0.1
				c0,0,0,0-0.1,0.1c0-0.2,0.1-0.3,0.1-0.5c0,0,0-0.1,0-0.1c0-0.1,0-0.2-0.1-0.3c-0.1-0.1-0.2,0-0.3,0c0,0-0.1,0-0.1,0
				c-0.1-0.2-0.3-0.4-0.5-0.4c-0.1-0.1-0.1-0.2-0.1-0.2c-0.1-0.1-0.2-0.2-0.3-0.4c-0.1-0.1,0-0.2,0.1-0.2c0.2,0,0.3,0,0.5,0
				c0,0,0,0,0,0c0.1,0.2,0.2,0.1,0.4,0.1c0-0.1,0-0.1,0-0.1c0.1,0,0.1-0.1,0.1-0.1c0,0,0,0.1,0.1,0.1c0-0.1,0.1-0.1,0.1-0.1
				c0.1-0.1,0.2-0.3,0.3-0.5c0.2-0.3,0.4-0.5,0.7-0.6c0,0,0,0,0,0c0.2-0.1,0.2-0.1,0-0.3c0.1-0.1,0.3-0.2,0.4-0.3
				c0.2-0.1,0.4-0.3,0.5-0.5c0.2-0.2,0.3-0.3,0.3-0.6c0,0,0-0.1,0.1-0.2c-0.2,0-0.3,0-0.5,0c0.1-0.1,0.1-0.1,0.2-0.1
				c0.1,0,0.2,0,0.3-0.1c0.1,0,0.1,0,0.2-0.1c0.2-0.1,0.3-0.4,0.1-0.6c0,0-0.1,0-0.2,0c-0.2,0-0.4,0-0.6,0c0-0.1,0-0.1,0-0.1
				c0-0.2,0-0.2-0.2-0.2c-0.1,0-0.2,0-0.4,0c0,0,0,0,0,0c0.1,0,0.1,0,0.2,0c0.9,0,1.8,0,2.7,0.2c0.2,0,0.3,0.1,0.5,0.2
				c0.1,0,0.2,0.1,0.2,0.1c0,0.1-0.1,0.2-0.1,0.2c0.1,0,0.1,0.1,0.2,0.1c0.2,0,0.3,0,0.4,0.2c0.3,0.3,0.6,0.5,0.9,0.8
				c0.3,0.3,0.6,0.6,0.7,0.9c0,0,0,0,0.1-0.1c0.1-0.1,0.3-0.1,0.4,0c0.1,0.1,0.1,0.2,0.1,0.3c0,0.5-0.1,0.9-0.3,1.4c0,0,0,0,0,0
				c0-0.1,0-0.1,0-0.2c0-0.1,0.1-0.3,0.1-0.4c0-0.2-0.1-0.2-0.2-0.1c-0.1,0.1-0.2,0.1-0.2,0.2c0,0-0.1,0.1-0.1,0.1
				c0,0-0.1-0.1-0.1-0.1c0-0.1,0.1-0.3,0.2-0.3c0,0,0.1,0,0.1-0.1c0-0.1,0-0.2-0.1-0.2c-0.1,0-0.2,0-0.2,0.1
				c-0.1,0.1-0.1,0.3-0.2,0.4c0,0,0,0.1,0,0.1c-0.2,0-0.3-0.1-0.2-0.3c0-0.1,0-0.2-0.1-0.2c-0.2,0-0.3,0-0.5,0c-0.1,0-0.1,0-0.2,0
				c-0.1-0.1-0.2-0.1-0.2,0c-0.1-0.1,0-0.2,0.1-0.2c0.1,0,0.2,0,0.3,0c0.3,0,0.4,0,0.5-0.2c0.1,0,0.1,0.1,0.2,0.1c0,0,0,0,0.1,0
				c0,0,0.1,0.1,0.1,0c0.1-0.1,0.1-0.1,0.2-0.2c0,0-0.1-0.1-0.1-0.1c-0.1,0-0.1,0-0.2-0.1c0-0.1,0-0.1,0.1-0.2c0-0.1,0-0.2,0-0.2
				c0,0,0,0,0,0c0,0-0.1,0.1-0.1,0.1c-0.1,0.2-0.3,0.3-0.4,0.5c0,0-0.1,0.1-0.2,0.1c-0.1,0-0.1-0.1-0.1-0.2c0-0.1,0-0.2,0-0.3
				c0-0.1,0-0.1-0.1-0.1c-0.1,0.1-0.2,0.1-0.2,0.2c-0.1,0.1-0.1,0.1-0.2,0c0-0.1-0.1-0.1-0.1,0c0,0,0,0,0,0c-0.1,0-0.2,0.1-0.2,0.2
				c0,0.1-0.1,0.3-0.1,0.4c0,0.1,0,0.2,0.1,0.2c0,0,0.1,0,0.2-0.1c-0.1,0.3-0.3,0.3-0.6,0c0,0,0.1-0.1,0.1-0.1
				c0.2-0.2,0.2-0.4,0-0.6c-0.1-0.1-0.3-0.2-0.4-0.3c0,0,0-0.1,0-0.1c0-0.1,0-0.2-0.1-0.2c0,0-0.1,0-0.2,0c-0.3,0.3-0.6,0.6-0.9,0.9
				c0,0-0.1,0-0.1,0.1c0,0-0.1,0.1-0.1,0.1c-0.1,0.1-0.2,0.2-0.2,0.4c-0.4,0.7-0.6,1.5-0.9,2.3c0,0.1,0,0.2-0.1,0.4c0,0,0.1,0,0.1,0
				c0.1-0.2,0.3-0.3,0.4-0.6c0.1-0.4,0.3-0.8,0.5-1.2c0,0,0.1-0.1,0.1-0.1c0,0.1,0.1,0.2,0.1,0.3c0,0.2,0,0.5,0.1,0.7
				c0,0.2,0,0.4,0,0.7c0,0.1,0,0.2,0.1,0.3c0,0,0.1,0.1,0.1,0.1c0,0,0-0.1,0.1-0.1c0-0.1,0.1-0.2,0.1-0.3c0.1-0.1,0.1-0.2,0.2-0.2
				c0.1-0.1,0.1-0.2-0.1-0.2c0,0,0,0-0.1-0.1c0.2,0,0.3-0.2,0.2-0.4c0-0.1,0-0.1,0-0.2c0.1-0.2,0.2-0.4,0.2-0.5c0,0,0,0,0,0
				c0.1,0,0.1-0.1,0.2-0.2C66.5,11.9,66.6,11.8,66.6,11.6z M63.7,12.9C63.7,12.9,63.7,12.9,63.7,12.9c0.1-0.1,0.2-0.2,0.3-0.3
				c0.3-0.6,0.6-1.3,1.1-1.9c0.2-0.3,0.5-0.6,0.9-0.8c0.3-0.2,0.7-0.2,1,0c0,0,0.1,0,0.1,0c0.2-0.1,0.2-0.3,0-0.5
				c-0.1,0-0.2-0.1-0.2-0.1c-0.1-0.1-0.1,0-0.1,0c0,0-0.1,0-0.1,0.1c0-0.1,0-0.2,0-0.2c-0.1,0-0.2,0-0.2,0c0-0.1,0-0.2-0.1-0.3
				c-0.1,0-0.2,0-0.2,0.1c-0.2,0-0.3,0-0.3,0.1c0,0.2,0.2,0.2,0.3,0.2c-0.7,0.7-1.3,1.4-2,2c-0.1,0-0.2,0-0.2,0
				c-0.1,0.1-0.1,0.2-0.2,0.3c-0.2,0.4-0.3,0.8-0.5,1.2c-0.1,0.2-0.1,0.4-0.2,0.6c0,0,0,0.1,0,0.2c0,0,0.1,0,0.1-0.1
				c0.2-0.1,0.3-0.2,0.3-0.4c0-0.3,0.1-0.6,0.4-0.8C63.7,12.4,63.6,12.6,63.7,12.9z M67.5,14.4c-0.1-0.1-0.1-0.1-0.2-0.1
				c-0.1,0-0.1,0-0.2,0.1c-0.1,0.1,0,0.2,0,0.2c0,0,0.1,0.1,0.1,0.1c0,0,0,0,0,0.1c0,0.1,0.1,0.3,0.1,0.4c0,0.1,0.1,0.1,0.2,0
				c0,0,0-0.1,0.1-0.1c0.2-0.6,0.4-1.3,0.6-1.9c0-0.1,0.1-0.3,0.1-0.5c0,0,0-0.1,0-0.1c0,0-0.1,0-0.1,0.1c-0.1,0-0.1,0.1-0.2,0.1
				c0,0,0,0,0,0C67.8,13.3,67.8,13.9,67.5,14.4z M65.3,15.7C65.3,15.7,65.3,15.8,65.3,15.7c0.5-0.3,0.7-0.9,0.9-1.3
				c0.1,0,0.1,0,0.2,0c0-0.1-0.1-0.1-0.1-0.2c0,0,0,0,0-0.1c0.1-0.1,0.1-0.3,0-0.5c0,0-0.1-0.1-0.1-0.1c0,0-0.1,0.1-0.1,0.1
				c0,0.1,0,0.1-0.1,0.2c-0.1,0.2-0.3,0.5-0.4,0.7c-0.1,0.3-0.2,0.5-0.3,0.8C65.3,15.5,65.3,15.6,65.3,15.7z M62.5,12.5
				c-0.3,0.1-0.6,0.4-0.6,0.6C62.1,13.1,62.5,12.7,62.5,12.5z M67.6,9.6c-0.1,0-0.2,0.1-0.2,0.2c0,0.1,0.2,0.2,0.2,0.2
				c0.1,0,0.2-0.2,0.1-0.3C67.7,9.6,67.6,9.5,67.6,9.6z M63.8,13.1c-0.1,0-0.1-0.1-0.2-0.1c-0.1,0-0.2,0.2-0.2,0.2
				c0,0.1,0,0.2,0.1,0.2C63.7,13.4,63.8,13.3,63.8,13.1z M63.4,14.4C63.4,14.4,63.4,14.4,63.4,14.4c0,0.1,0.1,0.1,0.1,0.1
				c0,0,0.1-0.1,0.1-0.1c0,0,0,0,0-0.1c0-0.1,0-0.2,0-0.2c-0.1,0-0.1-0.1-0.2-0.1C63.4,14.2,63.4,14.3,63.4,14.4
				C63.4,14.4,63.4,14.4,63.4,14.4z M68.5,10.2c0-0.1,0.1-0.1,0.1-0.2c0-0.1-0.1-0.1-0.1-0.2c-0.1,0-0.1,0.1-0.2,0.1c0,0,0,0,0,0
				c0,0.1-0.1,0.1,0,0.2C68.4,10.2,68.5,10.2,68.5,10.2z M67.3,9.1C67.2,9.1,67.2,9.1,67.3,9.1c-0.1,0.1,0,0.1,0,0.2
				c0,0,0.1,0,0.1-0.1C67.3,9.2,67.3,9.1,67.3,9.1z"/>
		</g>
		<g>
			<path class="st0" d="M60.9,11.2c0.1-0.1,0.2-0.2,0.3-0.3c0,0,0,0,0-0.1c-0.1,0-0.2,0-0.4,0c0,0,0-0.1,0-0.1c0,0-0.1,0-0.1-0.1
				c0.1-0.1,0.2-0.2,0.3-0.3c0,0,0,0,0,0c0-0.1,0.1-0.1,0.1-0.2c-0.1,0-0.1-0.1-0.2-0.1c0,0,0,0-0.1,0c0-0.1,0.1-0.1,0.1-0.2
				c0.1,0.2,0.2,0.2,0.3,0.1c0.1-0.1,0.2-0.1,0.2-0.2c0,0,0-0.1,0-0.1c0,0-0.1,0-0.1,0c-0.1,0-0.2,0-0.3,0.1
				c0.1-0.1,0.2-0.2,0.1-0.3c0,0,0.1-0.1,0.1-0.1c0-0.1,0-0.2-0.1-0.2c0.3-0.3,0.6-0.4,0.9-0.1C62,9,61.9,9.2,61.8,9.3
				c0,0-0.1,0.1-0.1,0.1c0,0.1,0,0.1-0.1,0.2c0.1,0,0.1,0,0.2,0c0,0,0.1,0,0.1,0c-0.1,0.1-0.1,0.1-0.1,0.2c0,0.1,0,0.1,0.1,0.1
				c0.3,0,0.5-0.1,0.7-0.3c0.1-0.1,0-0.1,0-0.2c-0.1,0-0.1,0-0.2-0.1c0.2-0.2,0.4-0.4,0.6-0.5c0.3-0.2,0.9-0.2,1.2,0
				c0.1,0.1,0.2,0.2,0,0.4c-0.2,0.2-0.3,0.4-0.5,0.5c-0.7,0.6-1.3,1.2-2,1.7c-0.1,0.1-0.1,0.1-0.2,0.1c-0.1,0-0.2,0-0.2,0.1
				c0,0.1,0,0.2,0,0.2c0,0.1,0.1,0.1,0.2,0.1c0.1,0,0.2-0.1,0.4-0.1c-0.1,0.1-0.2,0.2-0.3,0.4c-0.1-0.1-0.3-0.1-0.4-0.2
				c-0.1-0.1-0.1-0.2,0-0.3c0,0,0.1-0.1,0.1-0.1c0,0,0.1-0.1,0.1-0.1c0,0,0,0,0,0C61.1,11.2,61,11.2,60.9,11.2z M61.9,10.7
				c0.3,0,0.5-0.2,0.6-0.4c0.2,0.1,0.3,0.1,0.4-0.1C63,10.1,63,10,63,9.9c0,0,0-0.1,0.1-0.1c0.2-0.1,0.3-0.3,0.4-0.4
				c0-0.1,0-0.1,0-0.2c-0.1,0-0.1,0-0.2,0c-0.2,0.1-0.5,0.3-0.7,0.5c-0.3,0.2-0.5,0.6-0.7,0.9C61.9,10.6,61.9,10.6,61.9,10.7
				c-0.1-0.1-0.2-0.1-0.2,0c0,0.1-0.1,0.1-0.1,0.2C61.8,11,61.9,10.9,61.9,10.7z M61.1,10.5c0,0,0.1,0.1,0.2,0.1
				c0.1,0,0.2-0.2,0.2-0.3c0-0.1-0.1-0.1-0.2-0.1C61.1,10.2,61,10.4,61.1,10.5z M61.4,10.5C61.4,10.5,61.4,10.5,61.4,10.5
				c-0.1,0-0.1,0.1-0.1,0.2c0,0,0.1,0,0.1,0C61.4,10.7,61.4,10.6,61.4,10.5z"/>
		</g>
		<g>
			<path class="st0" d="M70,12.7c-0.1,0.6-0.2,1.2-0.4,1.8c-0.1,0.7-0.4,1.3-0.7,1.9c-0.1,0.1-0.1,0.2-0.1,0.3c-0.2-0.2-0.3,0-0.5,0
				c0-0.2-0.2-0.2-0.4-0.2c0.2-0.4,0.3-0.8,0.5-1.1c0.2-0.1,0.3-0.4,0.3-0.6c0-0.1,0.1-0.3,0.1-0.5c0.1-0.4,0.2-0.8,0.3-1.3
				c0-0.1,0.1-0.1,0.2-0.1C69.6,13,69.8,13,70,12.7z M69.4,14.9C69.4,14.9,69.4,14.9,69.4,14.9c0.1-0.2,0.2-0.4,0.3-0.6
				c0.1-0.2,0.1-0.4,0.1-0.6c0-0.1,0-0.2-0.1-0.2c0,0,0,0-0.1,0c-0.2,0.4-0.4,0.8-0.4,1.2C69.3,14.8,69.3,14.9,69.4,14.9z M69,15.4
				c0.1,0.1,0.1,0.1,0.2,0.2c0,0,0.1-0.1,0.1-0.2c0-0.1,0-0.2,0.1-0.3c0-0.1,0-0.1-0.1-0.2c-0.1,0-0.2,0-0.2,0.1
				C69.1,15.2,69,15.3,69,15.4z"/>
		</g>
		<g>
			<path class="st0" d="M70.5,13c0,0,0.1,0.1,0.2,0.1c-0.2,0.7-0.4,2.3-0.2,2.5c0.1-0.1,0.1-0.3,0.2-0.4c0-0.2,0.1-0.3,0.1-0.5
				c0.1,0,0.1,0.1,0.1,0.1c0,0.1,0,0.3,0,0.4c-0.1,0.7-0.3,1.3-0.6,2c0,0,0,0,0,0.1c0-0.4-0.1-0.7-0.1-1c0,0,0,0,0,0
				c-0.2,0.3-0.2,0.6-0.3,0.8c-0.1-0.1-0.1-0.2-0.2-0.3c-0.1-0.1-0.2,0-0.4,0.1C69.7,15.6,70.1,14.3,70.5,13z"/>
		</g>
		<g>
			<path class="st0" d="M61.5,5.3c0.1-0.1,0.2-0.1,0.3-0.2c0-0.3,0.2-0.6,0.3-0.8c0.1-0.1,0.2-0.1,0.2,0c0.1,0.2,0.3,0.3,0.4,0.5
				c0,0.1,0,0.2,0,0.2c0,0.3,0.1,0.7,0.1,1c0,0,0,0.1,0,0.1C62.8,6,62.7,6,62.6,5.9c0,0-0.1,0-0.1,0c0,0-0.1,0-0.2,0
				c0,0.1,0,0.1,0,0.2c0.1,0.2,0.2,0.4,0.4,0.5c0,0,0.1,0.1,0.1,0.1c-0.2,0-0.3-0.1-0.4-0.2c-0.1-0.1-0.2-0.3-0.3-0.4
				c-0.1-0.1-0.2-0.3-0.3-0.4C61.8,5.5,61.7,5.4,61.5,5.3z M62.7,4.9c-0.1-0.1-0.2-0.2-0.2-0.3c0,0-0.1,0-0.2,0c0,0.1,0,0.1,0,0.2
				c0.1,0.1,0.1,0.3,0.2,0.4c0,0.1,0.1,0.1,0.1,0C62.7,5.1,62.7,5,62.7,4.9z M62.8,5.6c0-0.1-0.1-0.2-0.2-0.1c0,0-0.1,0-0.1,0
				c0,0-0.1,0-0.1,0c0,0,0,0.1,0,0.1c0,0.1,0.2,0.2,0.3,0.2C62.8,5.8,62.8,5.7,62.8,5.6z M62,5.4c0-0.1,0.1-0.1,0.1-0.2
				c0,0-0.1,0-0.1-0.1C62,5.2,62,5.2,62,5.4C62,5.3,62,5.3,62,5.4z"/>
		</g>
		<g>
			<path class="st0" d="M60.7,7.9c0,0.1-0.1,0.1-0.1,0.2c0,0,0.1,0.1,0.2,0.1c0,0,0.1,0,0.2,0c0,0-0.1,0-0.1,0.1
				c0,0-0.1,0.1-0.1,0.1c0.1,0,0.1,0.1,0.2,0.1c0.1,0,0.2,0,0.2-0.1c0.1-0.1,0.2-0.1,0.3-0.2c0,0,0.1,0.1,0.2,0.1
				c-0.3,0.2-0.5,0.4-0.8,0.6c0,0-0.1,0-0.2,0c0,0.1,0,0.1,0,0.2c-0.1,0-0.2,0-0.2-0.1c0-0.1-0.1-0.2-0.3-0.2c0-0.1-0.1-0.1-0.1-0.1
				c-0.1,0-0.2,0-0.3-0.2c-0.1-0.4,0.1-0.6,0.4-0.7C60.4,7.9,60.6,7.9,60.7,7.9z"/>
		</g>
		<g>
			<path class="st0" d="M61.7,7C61.5,7,61.4,7,61.3,7c-0.2,0.1-0.3,0.1-0.5,0.2c-0.3,0.1-0.4,0-0.4-0.4c0.1,0,0.1,0,0.2,0
				c0.3-0.1,0.3-0.2,0.1-0.5c0.1,0,0.2,0.1,0.3-0.1c0,0,0,0,0,0c0.1,0.1,0.2,0.1,0.2-0.1c0-0.2,0.1-0.3,0.1-0.5c0,0,0-0.1,0-0.1
				c0.2,0.3,0.3,0.5,0.5,0.8C62,6.4,62,6.5,62,6.7c-0.1-0.1-0.1-0.2-0.2-0.3c-0.1-0.1-0.2-0.2-0.2-0.2c0,0-0.1,0-0.1,0
				c0,0,0,0.1,0,0.1c0,0.1,0.1,0.2,0.1,0.3C61.6,6.6,61.6,6.8,61.7,7z"/>
		</g>
		<g>
			<path class="st0" d="M73.1,5.9c-0.2,0.7-0.5,1.3-0.9,1.9c0,0.1-0.1,0.1-0.1,0.2c0-0.3-0.2-0.5-0.4-0.6c0.1-0.5,0.3-1,0.4-1.4
				c0.1-0.2,0.2-0.5,0.4-0.6c0,0.1-0.1,0.2-0.1,0.2c-0.1,0.2-0.1,0.3-0.2,0.5c-0.1,0.2,0,0.3,0.2,0.3c0,0.2-0.1,0.4-0.1,0.5
				c0,0.1,0,0.1,0.1,0.2c0.1,0,0.1-0.1,0.2-0.1c0.1-0.2,0.2-0.4,0.3-0.6C72.9,6.2,73,6,73.1,5.9C73.1,5.9,73.1,5.9,73.1,5.9z"/>
		</g>
		<g>
			<path class="st0" d="M61.9,12.2c0.2-0.2,0.2-0.3,0-0.7c0.9-0.5,1.6-1.2,2.4-1.9c0,0.1,0,0.2-0.4,0.5c-0.2-0.1-0.3,0-0.2,0.2
				c0,0.2-0.1,0.3-0.3,0.3c-0.1,0-0.2,0.1-0.4,0.1c0,0-0.1,0-0.1,0.1c0,0,0,0,0,0c0.1,0,0.2,0.1,0.3,0.1c-0.1,0.1-0.1,0.1-0.1,0.2
				c-0.3,0.4-0.7,0.7-1.1,1.1C62.1,12.2,62,12.1,61.9,12.2z M62.3,11.7c0.1-0.1,0.2-0.1,0.2-0.2c0-0.1-0.1-0.1-0.2-0.1
				c-0.1,0-0.1,0.1-0.2,0.2C62.2,11.6,62.2,11.7,62.3,11.7z"/>
		</g>
		<g>
			<path class="st0" d="M67.3,5c0-0.1,0-0.2-0.1-0.2c-0.1-0.1-0.3-0.1-0.3,0c0,0.1-0.1,0.3-0.1,0.4c0,0-0.1,0-0.1,0
				c-0.1,0-0.1-0.1-0.1-0.2c0.1-0.2,0.1-0.4,0-0.6c0,0,0-0.1,0-0.1c0,0,0-0.1,0-0.1c0-0.1,0-0.2,0.1-0.4c0.2,0,0.2,0,0.1-0.2
				c-0.1-0.3,0-0.4,0.1-0.5c0,0,0,0,0,0c0,0,0,0.1,0,0.1c0,0.2,0,0.5,0,0.7c0,0,0,0.1,0.1,0.1c0,0,0.1,0,0.1-0.1
				c0.1-0.2,0.2-0.3,0.3-0.5C67.5,3.7,67.4,4.8,67.3,5z"/>
		</g>
		<g>
			<path class="st0" d="M73.5,7.4c-0.1,0.2-0.1,0.3-0.2,0.5c-0.2,0.3-0.4,0.6-0.7,0.9c0,0-0.1,0.1-0.1,0c0,0-0.1-0.1-0.1-0.1
				c0-0.1,0-0.2,0-0.3c0.2-0.3,0.3-0.6,0.5-0.9C73,7.3,73.1,7.1,73.3,7c0,0.1-0.1,0.3-0.1,0.4c0,0,0,0.1,0,0.1c0,0,0.1,0,0.1-0.1
				C73.4,7.5,73.4,7.4,73.5,7.4C73.4,7.4,73.5,7.4,73.5,7.4z"/>
		</g>
		<g>
			<path class="st0" d="M74.6,13.2c-0.1,0-0.1,0-0.2,0c-0.1-0.5-0.2-1-0.3-1.5c0.1,0,0.1,0,0.1,0.1c0,0,0.1,0.1,0.1,0.1
				c0.2,0.2,0.3,0.2,0.4-0.1c0,0.1,0.1,0.2,0.1,0.3c0,0.2-0.1,0.1-0.2,0.2C75,12.5,75,12.7,75,13C74.8,12.9,74.6,13,74.6,13.2z"/>
		</g>
		<g>
			<path class="st0" d="M73.6,5.5c0.1-0.2,0.1-0.4,0.2-0.6C73.9,5,73.9,5,74,5.1c0.1,0,0.1,0,0.2,0c-0.2,0.4-0.3,0.8-0.6,1.1
				c-0.1,0.1-0.1,0.2-0.1,0.2c0,0.1,0,0.2,0,0.3c-0.1,0-0.1,0-0.2,0c0-0.1,0-0.2,0.1-0.3c0.1-0.1,0.1-0.2,0.2-0.3
				c0.1-0.1,0.2-0.3,0.2-0.4C73.7,5.6,73.7,5.6,73.6,5.5z"/>
		</g>
		<g>
			<path class="st0" d="M65.5,12.9c-0.1-0.4-0.1-0.8,0-1.2c0.1-0.1,0.2-0.3,0.3-0.3c0,0.3,0,0.6,0,0.8
				C65.7,12.5,65.6,12.7,65.5,12.9z"/>
		</g>
		<g>
			<path class="st0" d="M72.8,4.4c-0.1,0.1-0.1,0.2-0.2,0.3c-0.1,0.1-0.1,0.2-0.2,0.4c0-0.1-0.1-0.1-0.1-0.1
				c0.1-0.1,0.1-0.2,0.1-0.3c0-0.1,0-0.1-0.1-0.2c-0.1,0-0.1,0.1-0.2,0.1c-0.1,0.1-0.1,0.3-0.2,0.4c0,0-0.1,0-0.1-0.1
				c0.1-0.1,0.2-0.3,0.3-0.4c0.1-0.1,0.2-0.1,0.4-0.1C72.7,4.5,72.8,4.4,72.8,4.4L72.8,4.4z"/>
		</g>
		<g>
			<path class="st0" d="M74.8,14.2c-0.1-0.1-0.1-0.2-0.1-0.2c0,0-0.1,0-0.2,0c0,0.1,0,0.2,0,0.3c0,0,0,0-0.1,0c0-0.2,0-0.4,0.1-0.5
				c0.1,0.1,0.2,0.2,0.4,0.2c0,0,0.1,0,0.1,0c0,0,0-0.1-0.1-0.1c-0.1,0-0.1-0.1-0.2-0.1c0.1,0,0.2,0,0.2-0.1c0.1,0,0.1-0.1,0.1-0.2
				C75.1,13.9,75,14.1,74.8,14.2z"/>
		</g>
		<g>
			<path class="st0" d="M78,11.3c0-0.2-0.1-0.3-0.3-0.3c0.3-0.1,0.5-0.2,0.8-0.2C78.3,11,78.1,11.2,78,11.3z"/>
		</g>
		<g>
			<path class="st0" d="M62.7,8.3c-0.2,0.2-0.3,0.4-0.5,0.5c0-0.1-0.1-0.1-0.1-0.2c0.1-0.1,0.3-0.2,0.4-0.3
				C62.6,8.2,62.7,8.2,62.7,8.3c0.1,0,0.1,0.1,0.1,0.1c0,0,0,0,0,0C62.8,8.3,62.8,8.3,62.7,8.3z"/>
		</g>
		<g>
			<path class="st0" d="M72,8.2c0,0.1,0,0.3-0.2,0.3c-0.1,0.1-0.2,0-0.3-0.1c0-0.1,0.1-0.1,0.1-0.2c0,0,0.1,0,0.1,0
				C71.9,8.2,71.9,8.2,72,8.2z"/>
		</g>
		<g>
			<path class="st0" d="M66.8,5.5C66.9,5.5,66.9,5.5,66.8,5.5c0.2,0,0.3-0.1,0.4-0.2c0,0.1,0.1,0.2,0.1,0.4
				C67.2,5.6,67,5.6,66.8,5.5C66.8,5.6,66.8,5.5,66.8,5.5z"/>
		</g>
		<g>
			<path class="st0" d="M68.8,6c-0.1-0.1-0.2-0.1-0.4,0c0,0,0,0,0,0c0,0,0-0.1,0-0.1c0.1,0,0.1-0.1,0.2-0.1
				C68.8,5.8,68.8,5.9,68.8,6z"/>
		</g>
		<g>
			<path class="st0" d="M62.7,7.1c0,0,0.1-0.1,0.1-0.1c0.1,0.2,0.1,0.4,0,0.4c0-0.1,0-0.1,0-0.2C62.8,7.2,62.7,7.2,62.7,7.1z"/>
		</g>
		<g>
			<path class="st0" d="M60.8,9.6c-0.1,0-0.2,0.1-0.2,0.1c0,0-0.1-0.1-0.1-0.2c0,0,0-0.1,0.1-0.1c0,0.1,0,0.1,0.1,0.2
				C60.7,9.6,60.8,9.6,60.8,9.6C60.8,9.6,60.8,9.6,60.8,9.6z"/>
		</g>
		<g>
			<path class="st0" d="M63.4,7.9c0,0-0.1,0-0.1,0c0,0,0,0,0,0C63.3,7.8,63.3,7.8,63.4,7.9C63.4,7.8,63.4,7.9,63.4,7.9
				c0.1,0,0.1,0.1,0,0.2c0,0,0,0,0,0C63.4,8,63.4,7.9,63.4,7.9z"/>
		</g>
		<g>
			<path class="st0" d="M66.1,10.9c0.1,0,0.2-0.1,0.3-0.1C66.4,10.9,66.3,10.9,66.1,10.9z"/>
		</g>
		<g>
			<path class="st0" d="M68.8,12c0.1,0,0.2,0,0.3,0c0,0,0,0,0,0.1C69,12.1,68.9,12.1,68.8,12C68.8,12,68.8,12,68.8,12z"/>
		</g>
		<g>
			<path class="st0" d="M62.3,7.2c-0.1-0.1-0.1-0.1-0.2-0.1C62.2,7,62.2,7,62.3,7.2z"/>
		</g>
		<g>
			<path class="st0" d="M72.8,4.4c0-0.1,0-0.1,0-0.2c0,0,0.1,0,0.1,0C72.9,4.3,72.8,4.4,72.8,4.4C72.8,4.4,72.8,4.4,72.8,4.4z"/>
		</g>
		<g>
			<path class="st0" d="M67.7,10.8c0,0-0.1,0.1-0.1,0.1c0,0,0,0,0,0C67.6,10.8,67.6,10.8,67.7,10.8C67.7,10.8,67.7,10.8,67.7,10.8z"
				/>
		</g>
		<g>
			<path class="st0" d="M67.3,3.2c-0.1,0-0.1,0-0.1-0.1c0,0,0.1-0.1,0.1-0.1C67.3,3,67.3,3.1,67.3,3.2z"/>
		</g>
		<g>
			<path class="st0" d="M77.1,6.7c0.1,0.1,0.1,0.2,0.2,0.3c-0.2,0.3-0.4,0.5-0.8,0.6C76.7,7.3,76.9,7,77.1,6.7z"/>
		</g>
	</g>
</g>
</svg>
