<?xml version="1.0" encoding="utf-8"?>
<!-- Generator: Adobe Illustrator 26.3.1, SVG Export Plug-In . SVG Version: 6.00 Build 0)  -->
<svg version="1.1" id="Lager_1" xmlns="http://www.w3.org/2000/svg" xmlns:xlink="http://www.w3.org/1999/xlink" x="0px" y="0px"
	 viewBox="0 0 86 56" style="enable-background:new 0 0 86 56;" xml:space="preserve">
<g>
	<path d="M8.2,21.1c-0.7,0-1.1-0.4-1.6-0.6c-0.1,0-0.1-0.2-0.1-0.5c0-0.5,0.3-1.7,0.8-3.8c1-4.1,1.6-6.2,1.7-6.4
		c0.2-0.8,0.6-1.2,1.2-1.2c0.6,0,1.4,0.2,2.5,0.5c0.1,0.1,0.2,0.1,0.2,0.3c0,0.4-0.2,1.5-0.3,3c-0.1,1.5-0.3,2.3-0.3,2.5
		c0,0.1,0,0.1,0.1,0.1c0.2,0,0.8-2.3,2.3-5.5C15.2,8.2,15,8,15.6,8c0.6,0,1.7,0.3,2.5,0.7c0.2,0.1,0.3,0.3,0.3,0.6
		c0,0.1-0.3,0.8-0.6,2.4c-0.3,1.4-0.7,3.4-1.4,6.1c-0.5,1.9-0.8,2.9-0.8,3c0,0.1-0.3,0.2-0.7,0.2c-0.8,0-1.7-0.3-1.7-0.6
		c0-0.1,0.4-1.2,0.9-3.3c0.9-3.4,1.5-5.1,1.5-5.2c0-0.1-0.1-0.1-0.1-0.1c-0.2,0-1,2.7-3.7,8c-0.2,0-0.3-0.1-0.5-0.1
		c-0.1,0-0.1,0-0.1,0c-0.2,0-0.3-0.1-0.6-0.2c-0.1,0-0.2-0.1-0.2-0.3v-0.6c0-0.5,0-1.1,0-1.7c0-2,0.3-3.6,0.3-4.6
		c0-0.1,0-0.2-0.1-0.2c-0.2,0-0.3,2-1,5.5c-0.4,1.7-0.6,2.7-0.6,3.2v0.1l-0.2,0.2C8.4,21.1,8.3,21.1,8.2,21.1z"/>
	<path d="M19.6,13.8c0.9-3.4,1.3-5.1,1.3-5.1c0-0.4,0-0.7,1.2-0.7c0.9,0,1.8,0.7,1.8,0.8c0,0.1-0.2,0.3-0.3,0.6c0,0.1-0.2,0.8-0.5,2
		c-0.4,1.6-0.7,3.2-1,4.6c-0.4,2.1-0.8,3.7-1.1,4.7c-0.1,0.5-0.4,0.5-1.1,0.5h-0.3c-1,0-1.5-0.6-1.5-0.7
		C18.1,20.3,18.5,18.1,19.6,13.8z"/>
	<path d="M25.8,14.6c-0.1-1.6-0.3-3-0.3-4.2c0-0.4,0-0.8,0.2-1.5l0.1-0.2h0.2c0.2,0,0.4,0,0.6,0c1,0,1.6,0.5,1.6,1.2
		c0,1.3-0.3,2.1-0.3,2.5c0,0.1,0,0.1,0,0.1c0.2,0,0.7-1.2,1.8-2.8c0.8-1.2,1.4-1.9,1.5-1.9c0.5,0,0.6,0.1,0.7,0.3
		c0.5,0.7,0.7,1.3,0.7,1.6c0,0.6-0.2,0.5-0.6,0.9c-0.3,0.4-1.4,1.9-3,4.3c0.4,3.1,0.6,4.8,0.6,5.1c0,0.5-0.4,0.8-0.9,0.8
		c-0.5,0-1.5-0.3-1.6-0.7C27,19.2,27,18.5,27,17.7v-0.5c0-0.1,0-0.2,0-0.2c-0.2,0-0.4,1.1-1.2,2.6c-0.8,1.3-1.1,1.9-1.3,1.9
		s-0.4-0.2-0.6-0.3c-0.2-0.2-0.5-0.2-0.7-0.4c-0.4-0.3-0.6-0.6-0.6-0.9C23.4,18.1,24.5,16.4,25.8,14.6z"/>
	<path d="M32,16.5c0-0.5,0.1-0.9,0.3-0.9c0.1,0,0.1,0.1,0.1,0.1c0.1,0,0.1-0.1,0.1-0.1c0.1,0,0.1,0,0.2,0c0.1,0,0.2-0.1,0.5-0.1
		c0.3,0,0.6,0,0.8,0c0.3,0,0.5,0,0.6,0c1.2,0,1.7,0.1,1.7,0.3c0,0.1-0.1,0.2-0.1,0.3c0,0.1,0.1,0.2,0.1,0.4c0,0.6-0.2,1-0.4,1
		c-0.1,0-0.1-0.1-0.2-0.1c-0.2,0-0.5,0.1-1,0.1c-0.3,0-0.6-0.1-0.9-0.1c-0.2,0-0.5,0.1-0.7,0.1c-0.2,0-0.3,0-0.4,0
		c-0.2,0-0.3,0-0.3,0C32.1,17.6,32,16.9,32,16.5z"/>
	<path d="M40.2,20.7c0,0.4-0.2,0.5-0.7,0.5c-0.4,0-0.8-0.2-1.4-0.4c-0.2-0.1-0.4-0.1-0.5-0.1c0,0-0.1-0.4-0.1-0.4c0-0.3,0.4-2,1.1-5
		c0.9-4.1,1.5-6.2,1.5-6.2c0.4-0.9,0.9-1,1.3-1c0.2,0,0.3,0,0.5,0c0.3,0,0.5,0,0.6,0c0.2,0,0.3,0,0.5,0S43.2,8,43.5,8
		c1.5,0,3.1,1.3,3.1,3.2c0,2.2-2.1,4.9-5.5,6C40.5,19.4,40.2,20.6,40.2,20.7z M43.7,11.4c0-0.7-0.4-1.1-0.9-1.1
		c-0.1,0-0.3,1.4-1.1,4.2C42.7,14.3,43.7,12.6,43.7,11.4z"/>
	<path d="M46.9,20.6c-0.4,0.9-0.2,1-0.7,1c-0.2,0-0.4,0-0.7,0c-0.1,0-0.4-0.2-1-0.6c-0.2-0.1-0.3-0.2-0.3-0.3
		c0-0.5,1.4-4.1,4.5-10.4c1-2,0.9-2.3,1.8-2.3c0.3,0,0.7,0.1,1.1,0.2c0.8,0.3,1.3,0.3,1.5,0.4c0.4,0.2,0.6,0.5,0.6,0.8
		c0,0.4-0.4,3.3-0.8,8.7c-0.1,1.4,0,2.2-0.2,2.3c-0.7,0.4-1,0.4-1.3,0.4H51c-0.7,0-0.8-0.3-0.8-0.7v-0.2c0-0.2,0-0.4,0-0.5
		c0-0.1-0.1-0.4-0.1-1c0-0.1,0-0.1-0.1-0.1c-1.2,0-1.9,0.1-2,0.1c-0.1,0-0.1,0-0.2,0C47.7,18.4,47.5,19.2,46.9,20.6z M49.3,15.8
		c0.8,0,0.9,0,1-0.3c0.1-0.2,0.1-0.6,0.1-1.2c0.3-2.2,0.6-3.3,0.6-3.5c0-0.1,0-0.1-0.1-0.1c-0.2,0-0.4,0.6-0.8,2
		c-0.6,1.9-1.2,2.8-1.2,3C48.9,15.8,49,15.8,49.3,15.8z"/>
	<path d="M62.3,19.1c0,0.3-0.4,0.7-0.5,0.8c-0.3,0.2-0.8,0.8-1,0.8c-0.7,0-1.5-1.3-2.1-4.1c-0.1-0.5-0.1-0.8-0.3-0.8
		c-0.2,0-0.2,0.9-0.8,3.1c-0.4,1.3-0.5,2.1-1,2.1c0,0-0.7-0.2-1.8-0.6c-0.3-0.1-0.4-0.4-0.4-0.6c0-0.1,0.2-0.5,0.4-1.4
		c0.1-0.2,0.4-1.9,1.2-5c0.7-2.9,1.1-4.5,1.1-4.6c0-0.1,0-0.1,0-0.2c0-0.1,0.3-0.4,0.3-0.4c0.1,0,0.3,0.1,0.6,0.1
		c0.5,0.1,1,0.1,1.3,0.1c0.4,0.1,0.6,0.3,0.6,0.5c0,0-0.1,0.9-0.4,1.9c-0.5,1.6-0.8,2.4-0.8,2.5c0,0,0,0.1,0.1,0.1
		c0.1,0,1-1.3,2.9-4.1c0.9-1.3,1.5-1.9,1.6-1.9c0.5,0,0.3,0.1,0.5,0.4c0.3,0.5,1,0.8,1,1.2c0,0.3-1.5,1.9-3.9,5.8
		C61.8,17.5,62.3,18.9,62.3,19.1z"/>
	<path d="M63.4,19.5c0-0.3,0.5-2.8,1.8-7.3c0.7-2.6,1-3.8,1.2-3.8c0.1,0,0.2,0,0.3,0c0.1,0,0.1-0.1,0.3-0.1c0.3,0,0.6,0.1,1,0.1
		c0.4,0,1-0.1,1.6-0.1c0.5,0,1.2,0.1,1.9,0.3C71.7,8.6,72,8.7,72,9.8c0,0.4-0.1,1-0.2,1c-0.2,0.2-1.3,0.2-3.5,0.5
		c-0.2,0.7-0.4,1.4-0.6,2.1c0.3,0,0.5,0,0.8,0c1,0,1.5,0.1,1.6,0.2c0.2,0.2,0.4,0.7,0.4,1.1c0,0.4-0.2,1.1-0.3,1.1
		c-0.2,0.2-1.4,0.3-3.4,0.6c-0.2,0.8-0.4,1.4-0.4,1.6c0,0.1,0,0.1,0,0.1C68,18,68.8,18,68.9,18c0.2,0,0.3,0.1,0.3,0.1v0.1
		c0,0.2,0.6,0.4,0.6,1.3c0,0.9-0.2,0.9-0.6,0.9h0c-0.6,0-1.3,0.3-2.1,0.4c-0.7,0.1-1.5,0.2-2.4,0.4C63.8,20.7,63.4,20.2,63.4,19.5z"
		/>
	<path d="M75.2,19.5c-0.2,0.7-0.1,1.6-1,1.6c-0.1,0-0.6-0.3-1.5-0.6c-0.3-0.1-0.5-0.1-0.5-0.4c0-0.1,0.8-3.2,2.1-9.3
		c-0.3,0-0.5-0.1-0.7-0.1c0,0-0.1,0-0.2,0c-0.2,0-0.4-0.1-0.6-0.1h-0.1c-0.1,0-0.2,0-0.2-0.2c0-0.1,0.1-0.3,0.1-0.4
		c0-0.1-0.1-0.3-0.1-0.4c0-0.5,0.1-1.1,0.3-1.2c0.6-0.3,1.7-0.4,3.2-0.5c0.9-0.1,1.7-0.1,2.5-0.1h0.8c0.3,0,0.5,0.8,0.5,1.7
		c0,0.6-0.5,0.8-2.4,1C76,16.2,75.3,19.1,75.2,19.5z"/>
</g>
<g>
	<path d="M6.5,36.5c0,0.6-0.3,1.1-0.9,1.5c-0.3,0.2-0.9,0.5-1.4,0.7c-0.5,0.2-0.9,0.2-1.1,0.2c-0.5,0-1.1-0.5-1.1-0.7
		c0-0.4,0.3-2,1-4.7c0.3-1,0.4-1.5,0.4-1.5c0.1-0.2,0.8-0.4,2-0.4c0.5,0,0.9,0.1,1.2,0.4c0.5,0.4,0.7,0.9,0.7,1.3
		c0,0.7-0.5,1.4-1.6,2C6.3,35.7,6.5,36,6.5,36.5z M3.7,37.2c0.4,0,1.4-0.5,1.4-0.9c0-0.1-0.4-0.4-1-0.4H4c-0.1,0-0.1,0-0.1,0.1
		c-0.2,0.7-0.3,1-0.3,1C3.5,37.2,3.6,37.2,3.7,37.2z M4.4,34.6c0.5,0,1.5-0.8,1.5-1.3c0-0.2-0.2-0.3-0.6-0.3c-0.3,0-0.5,0-0.6,0.1
		c0,0,0,0.2-0.1,0.5c-0.2,0.6-0.3,0.9-0.3,0.9C4.3,34.6,4.3,34.6,4.4,34.6z"/>
	<path d="M7.1,38.1c0,0,0.4-2.1,1.3-5.7c0.1-0.5,0.1-0.8,0.6-0.8c0.5,0,1,0.3,1,0.5c0,0.1-0.2,0.8-0.5,2.1c-0.4,1.7-0.7,2.6-0.7,2.7
		c0,0.2,0.2,0.1,0.8,0.3c0.4,0.1,0.6,0.2,0.6,0.4c0,0.1,0,0.2-0.1,0.3c0,0.1,0,0.2,0,0.3v0.1c0,0,0,0.1,0,0.1c0,0-0.1,0.1-0.1,0.1
		c-0.1,0.1-0.9,0.1-2.5,0.6C7.3,38.6,7.1,38.2,7.1,38.1z"/>
	<path d="M12,38.6c-0.2,0.5-0.1,0.5-0.4,0.5c-0.1,0-0.2,0-0.4,0c-0.1,0-0.2-0.1-0.5-0.3c-0.1-0.1-0.2-0.1-0.2-0.2
		c0-0.3,0.8-2.2,2.5-5.8c0.5-1.1,0.5-1.3,1-1.3c0.2,0,0.4,0,0.6,0.1c0.4,0.1,0.7,0.2,0.8,0.2c0.2,0.1,0.4,0.2,0.4,0.5
		c0,0.2-0.2,1.8-0.4,4.8c-0.1,0.8,0,1.2-0.1,1.3c-0.4,0.2-0.5,0.2-0.7,0.2h-0.2c-0.4,0-0.4-0.2-0.4-0.4v-0.1c0-0.1,0-0.2,0-0.3
		s0-0.2-0.1-0.5c0,0,0-0.1,0-0.1c-0.7,0-1,0.1-1.1,0.1c0,0-0.1,0-0.1,0C12.5,37.4,12.4,37.8,12,38.6z M13.4,36c0.5,0,0.5,0,0.5-0.2
		c0-0.1,0-0.3,0.1-0.6c0.2-1.2,0.3-1.9,0.3-2c0,0,0,0,0,0c-0.1,0-0.2,0.3-0.5,1.1c-0.3,1.1-0.6,1.6-0.6,1.6
		C13.2,35.9,13.2,36,13.4,36z"/>
	<path d="M18.4,34.7v-0.1c0,0,0-0.1,0-0.1c-0.1,0-0.1,0-0.1,0.1c0,0-0.1,1.4-0.6,3.7c-0.1,0.3-0.3,0.6-0.9,0.6
		c-0.1,0-0.3-0.1-0.5-0.1c-0.1,0-0.2,0-0.2-0.2c0-0.1,0.3-1.7,1.1-4.8c0.3-1,0.4-1.6,0.5-1.7c0.1-0.2,0.2-0.2,0.6-0.2
		c0.2,0,0.3,0.1,0.6,0.2c0.1,0,0.2,0,0.3,0.1c0.1,0.1,0.2,0,0.2,0.3c0,0,0,0.1,0,0.3c0,0,0,0.9,0.2,2.8c0,0.5,0,0.7,0.1,0.7
		c0.1,0,0.1-0.1,0.1-0.2c0-0.1,0-0.6,0.1-1.2c0.2-1.1,0.3-2,0.5-2.6c0.1-0.3,0.1-0.5,0.1-0.5c0.1-0.1,0.4-0.2,0.6-0.2
		c0.1,0,0.1,0,0.2,0h0.1c0.2,0,0.6,0.2,0.6,0.2c0,0-0.2,0.8-0.5,2.2c-0.2,1-0.4,2-0.7,3.1c-0.3,1.1-0.4,1.5-0.5,1.5
		c-0.1,0-0.2,0-0.3,0c0,0-0.3,0-0.9-0.2C18.6,37.2,18.4,35.9,18.4,34.7z"/>
	<path d="M22.2,38.6c-0.4-0.1-0.6-0.2-0.6-0.3c0-0.1,0.5-2,1.3-5.7c0.2-0.8,0.3-1,0.9-1h0.4c1.3,0,2.4,0.9,2.4,2.3
		c0,1.6-0.6,2.7-2,4c-0.7,0.7-1.3,1-1.5,1C23,38.9,22.7,38.7,22.2,38.6z M23.5,37.3c0,0,0.4-0.4,0.8-1.1c0.4-0.7,0.7-1.3,0.7-2.2
		c0-0.5-0.1-0.7-0.5-0.7c-0.1,0,0,0.1-0.2,0.5c0,0-0.2,0.6-0.4,1.6c-0.3,1.2-0.5,1.8-0.5,1.8C23.4,37.2,23.5,37.3,23.5,37.3z"/>
	<path d="M27.6,38.6c-0.2,0.5-0.1,0.5-0.4,0.5c-0.1,0-0.2,0-0.4,0c-0.1,0-0.2-0.1-0.5-0.3c-0.1-0.1-0.2-0.1-0.2-0.2
		c0-0.3,0.8-2.2,2.5-5.8c0.5-1.1,0.5-1.3,1-1.3c0.2,0,0.4,0,0.6,0.1c0.4,0.1,0.7,0.2,0.8,0.2c0.2,0.1,0.4,0.2,0.4,0.5
		c0,0.2-0.2,1.8-0.4,4.8c-0.1,0.8,0,1.2-0.1,1.3c-0.4,0.2-0.5,0.2-0.7,0.2h-0.2c-0.4,0-0.4-0.2-0.4-0.4v-0.1c0-0.1,0-0.2,0-0.3
		s0-0.2-0.1-0.5c0,0,0-0.1,0-0.1c-0.7,0-1,0.1-1.1,0.1c0,0-0.1,0-0.1,0C28,37.4,27.9,37.8,27.6,38.6z M28.9,36c0.5,0,0.5,0,0.5-0.2
		c0-0.1,0-0.3,0.1-0.6c0.2-1.2,0.3-1.9,0.3-2c0,0,0,0,0,0c-0.1,0-0.2,0.3-0.5,1.1c-0.3,1.1-0.6,1.6-0.6,1.6
		C28.7,35.9,28.7,36,28.9,36z"/>
	<path d="M32.3,38.6c-0.4-0.1-0.6-0.2-0.6-0.3c0-0.1,0.5-2,1.3-5.7c0.2-0.8,0.3-1,0.9-1h0.4c1.3,0,2.4,0.9,2.4,2.3
		c0,1.6-0.6,2.7-2,4c-0.7,0.7-1.3,1-1.5,1C33.1,38.9,32.8,38.7,32.3,38.6z M33.6,37.3c0,0,0.4-0.4,0.8-1.1c0.4-0.7,0.7-1.3,0.7-2.2
		c0-0.5-0.1-0.7-0.5-0.7c-0.1,0,0,0.1-0.2,0.5c0,0-0.2,0.6-0.4,1.6c-0.3,1.2-0.5,1.8-0.5,1.8C33.5,37.2,33.6,37.3,33.6,37.3z"/>
	<path d="M36.9,38c0-0.2,0.3-1.5,1-4.1c0.4-1.4,0.5-2.1,0.7-2.1c0.1,0,0.1,0,0.2,0c0,0,0.1,0,0.1,0c0.2,0,0.4,0.1,0.6,0.1
		c0.2,0,0.5-0.1,0.9-0.1c0.2,0,0.7,0.1,1,0.1c0.2,0,0.3,0.1,0.3,0.7c0,0.2-0.1,0.5-0.1,0.6c-0.1,0.1-0.7,0.1-2,0.2
		c-0.1,0.4-0.2,0.8-0.3,1.2c0.1,0,0.3,0,0.5,0c0.5,0,0.9,0,0.9,0.1c0.1,0.1,0.2,0.4,0.2,0.6c0,0.2-0.1,0.6-0.1,0.6
		C40.6,36,40,36,38.8,36.2c-0.1,0.5-0.2,0.8-0.2,0.9c0,0,0,0.1,0,0.1c0.8,0,1.2-0.1,1.2-0.1c0.1,0,0.1,0,0.1,0.1v0.1
		c0,0.1,0.3,0.2,0.3,0.7c0,0.5-0.1,0.5-0.3,0.5h0c-0.4,0-0.7,0.2-1.2,0.2c-0.4,0.1-0.8,0.1-1.3,0.2C37.1,38.7,36.9,38.4,36.9,38z"/>
	<path d="M47.2,38.1c-0.5,0.6-1.2,0.8-1.7,0.8c-0.9,0-1.8-0.7-1.8-1.9c0-0.7,0.2-1.6,0.7-2.7c0.5-1.1,1-1.9,1.5-2.4
		c0.4-0.4,0.7-0.4,1-0.4c0.4,0,0.7,0.2,1,0.4c0.4,0.3,0.7,0.4,0.7,1.2c0,0.6-0.2,1.1-0.2,1.3c-0.1,0.2-0.4,0.3-0.9,0.3
		c-0.3,0-0.4-0.1-0.4-0.4c0-0.7,0.1-1.1,0.1-1.2c0-0.1-0.1-0.2-0.1-0.2c-0.1,0-0.5,0.4-0.9,1.2c-0.6,1.1-0.9,2-0.9,2.7
		c0,0.4,0.1,0.6,0.3,0.6c0.4,0,0.9-0.7,0.9-1c0-0.1,0-0.1-0.1-0.1c0,0-0.1,0-0.1,0c-0.3,0-0.4-0.2-0.4-0.5c0-0.5,0.1-0.7,0.3-0.7
		c0.6,0,1.2-0.1,1.9-0.1h0.1c0.1,0,0.2,0.1,0.2,0.3C48.4,36.1,48,37.2,47.2,38.1z"/>
	<path d="M50.2,38.8C50.2,38.8,50.2,38.8,50.2,38.8l-0.2,0c-0.1,0-0.2,0-0.3,0c-0.7-0.3-1-1-1-2c0-0.9,0.5-2.5,1.3-3.7
		c0.6-0.8,0.9-1.4,1.6-1.4c0,0,0.1,0,0.3,0c0.2,0,0.4,0.1,0.7,0.2c0.8,0.3,1.2,0.9,1.2,2c0,0.8-0.2,1.7-0.5,2.5
		c-0.5,1-1.1,1.8-1.5,2.2c-0.3,0.2-0.7,0.4-1,0.4h-0.1C50.5,38.9,50.3,38.8,50.2,38.8z M50.6,37.5c0.2,0,0.5-0.3,0.9-1
		c0.4-0.8,0.7-1.6,0.7-2.6c0-0.6-0.1-0.8-0.3-0.8c-0.1,0-0.3,0.3-0.7,0.9c-0.7,1.2-0.9,2.5-0.9,2.9C50.3,37.3,50.4,37.5,50.6,37.5z"
		/>
	<path d="M54.4,38.6c-0.4-0.1-0.6-0.2-0.6-0.3c0-0.1,0.5-2,1.3-5.7c0.2-0.8,0.3-1,0.9-1h0.4c1.3,0,2.4,0.9,2.4,2.3
		c0,1.6-0.6,2.7-2,4c-0.7,0.7-1.3,1-1.5,1C55.2,38.9,54.9,38.7,54.4,38.6z M55.7,37.3c0,0,0.4-0.4,0.8-1.1c0.4-0.7,0.7-1.3,0.7-2.2
		c0-0.5-0.1-0.7-0.5-0.7c-0.1,0,0,0.1-0.2,0.5c0,0-0.2,0.6-0.4,1.6c-0.3,1.2-0.5,1.8-0.5,1.8C55.6,37.2,55.7,37.3,55.7,37.3z"/>
	<path d="M59.5,36.4c0.2,0,0.2,0,0.3,0.2c0.2,0.5,0.5,0.7,0.8,0.7c0.2,0,0.5-0.2,0.5-0.6c0-0.3-0.3-0.6-0.8-1.1
		c-0.4-0.4-0.5-0.9-0.5-1.3c0-0.9,0.5-1.7,1.4-2.4c0.4-0.3,0.8-0.4,0.9-0.4c0.3,0,0.5,0.2,0.8,0.3c0.4,0.2,0.8,0.3,0.8,1.2
		c0,0.9-0.3,1.4-0.7,1.4c-0.2,0-0.7-0.1-0.8-0.2c-0.2-0.1-0.2-0.2-0.2-0.3V34c0-0.3,0.1-0.6,0.1-0.7c0-0.1,0-0.1-0.1-0.1
		c-0.1,0-0.6,0.4-0.6,1c0,0.5,0.4,0.7,0.8,1.2c0.4,0.4,0.7,0.8,0.7,1.2c0,1.2-1.1,2.3-2.2,2.3c-0.9,0-1.9-0.8-1.9-1.7
		c0-0.1,0-0.2,0-0.3C59.1,36.6,59.3,36.4,59.5,36.4z"/>
	<path d="M64.2,38.6c-0.2,0.5-0.1,0.5-0.4,0.5c-0.1,0-0.2,0-0.4,0c-0.1,0-0.2-0.1-0.5-0.3c-0.1-0.1-0.2-0.1-0.2-0.2
		c0-0.3,0.8-2.2,2.5-5.8c0.5-1.1,0.5-1.3,1-1.3c0.2,0,0.4,0,0.6,0.1c0.4,0.1,0.7,0.2,0.8,0.2c0.2,0.1,0.4,0.2,0.4,0.5
		c0,0.2-0.2,1.8-0.4,4.8c-0.1,0.8,0,1.2-0.1,1.3c-0.4,0.2-0.5,0.2-0.7,0.2h-0.2c-0.4,0-0.4-0.2-0.4-0.4v-0.1c0-0.1,0-0.2,0-0.3
		s0-0.2-0.1-0.5c0,0,0-0.1,0-0.1c-0.7,0-1,0.1-1.1,0.1c0,0-0.1,0-0.1,0C64.6,37.4,64.6,37.8,64.2,38.6z M65.5,36
		c0.5,0,0.5,0,0.5-0.2c0-0.1,0-0.3,0.1-0.6c0.2-1.2,0.3-1.9,0.3-2c0,0,0,0,0,0c-0.1,0-0.2,0.3-0.5,1.1c-0.3,1.1-0.6,1.6-0.6,1.6
		C65.3,35.9,65.4,36,65.5,36z"/>
	<path d="M72.7,37.8c0,0.1-0.2,0.4-0.3,0.5c-0.2,0.1-0.4,0.5-0.6,0.5c-0.4,0-0.8-0.7-1.2-2.3c-0.1-0.3-0.1-0.4-0.1-0.4
		c-0.1,0-0.1,0.5-0.4,1.7c-0.2,0.7-0.3,1.2-0.5,1.2c0,0-0.4-0.1-1-0.4c-0.2-0.1-0.2-0.2-0.2-0.3c0,0,0.1-0.3,0.2-0.8
		c0-0.1,0.2-1,0.6-2.8c0.4-1.6,0.6-2.5,0.6-2.6c0,0,0-0.1,0-0.1c0-0.1,0.2-0.2,0.2-0.2c0.1,0,0.2,0.1,0.3,0.1
		c0.3,0.1,0.5,0.1,0.7,0.1c0.2,0,0.3,0.2,0.3,0.3c0,0-0.1,0.5-0.2,1c-0.2,0.9-0.4,1.3-0.4,1.4c0,0,0,0,0,0c0.1,0,0.5-0.7,1.6-2.3
		c0.5-0.7,0.8-1.1,0.9-1.1c0.2,0,0.2,0.1,0.3,0.2c0.2,0.3,0.6,0.5,0.6,0.7c0,0.1-0.8,1.1-2.2,3.2C72.5,36.9,72.7,37.7,72.7,37.8z"/>
	<path d="M73.4,38c0-0.2,0.3-1.5,1-4.1c0.4-1.4,0.5-2.1,0.7-2.1c0.1,0,0.1,0,0.2,0c0,0,0.1,0,0.1,0c0.2,0,0.3,0.1,0.6,0.1
		c0.2,0,0.5-0.1,0.9-0.1c0.2,0,0.7,0.1,1,0.1c0.2,0,0.3,0.1,0.3,0.7c0,0.2-0.1,0.5-0.1,0.6c-0.1,0.1-0.7,0.1-2,0.2
		c-0.1,0.4-0.2,0.8-0.3,1.2c0.1,0,0.3,0,0.5,0c0.5,0,0.9,0,0.9,0.1c0.1,0.1,0.2,0.4,0.2,0.6c0,0.2-0.1,0.6-0.1,0.6
		c-0.1,0.1-0.8,0.1-1.9,0.3c-0.1,0.5-0.2,0.8-0.2,0.9c0,0,0,0.1,0,0.1c0.8,0,1.2-0.1,1.2-0.1c0.1,0,0.2,0,0.2,0.1v0.1
		c0,0.1,0.3,0.2,0.3,0.7c0,0.5-0.1,0.5-0.3,0.5h0c-0.3,0-0.7,0.2-1.2,0.2c-0.4,0.1-0.8,0.1-1.3,0.2C73.6,38.7,73.4,38.4,73.4,38z"/>
	<path d="M82.2,38.1L82.2,38.1c0,0.1-0.5,0.8-0.7,0.8c-0.3,0-0.6-0.4-1.1-1.2c-0.4-0.6-0.5-1-0.6-1c-0.2,0-0.2,0.7-0.5,1.9
		c-0.1,0.3-0.1,0.4-0.6,0.4c0,0-0.4-0.2-0.7-0.4c-0.1-0.1-0.2-0.2-0.2-0.3c0-0.1,0.4-2.1,1.3-5.7c0.1-0.3,0.2-0.5,0.2-0.6
		s0.3-0.1,0.6-0.2c0.7-0.2,1.2-0.2,1.3-0.2c0.3,0,1.1,0.1,1.4,0.4c0.1,0.1,0.2,0.2,0.2,0.3c0.3,0.6,0.4,1.1,0.4,1.3
		c0,0.8-0.7,1.5-1.8,2.4C81.7,36.9,82.2,37.5,82.2,38.1z M80.1,35.1c0,0,0.5-0.3,1-0.8c0.5-0.4,0.6-0.8,0.6-1.1
		c0-0.2-0.2-0.3-0.5-0.3c-0.5,0-0.7,0.1-0.7,0.2c0,0.1-0.1,0.3-0.3,0.9C80.1,34.7,80,35,80.1,35.1C80,35.1,80.1,35.1,80.1,35.1z"/>
	<path d="M18.1,50.4c0-0.3,0.4-2.2,1.2-5.4c0.3-1.1,0.1-1.2,1-1.2c0.3,0,0.5,0,0.6,0c0.4,0,0.7,0,0.9,0c0.2,0,0.3,0,0.3,0
		c0.1,0,0.1-0.1,0.1-0.1c0.2,0,0.5,0.4,0.5,0.9c0,0.3,0,0.5-0.1,0.6c0,0-0.6,0.1-0.9,0.1c-0.1,0-0.2,0-0.3,0c-0.1,0-0.3,0-0.6,0.1
		c-0.1,0.5-0.2,0.8-0.3,1.1c0.9,0,1.3,0.1,1.4,0.1c0,0,0.2,0.5,0.2,0.6c0,0.5-0.2,0.6-0.3,0.6c-0.1,0-0.6,0.2-1.6,0.2
		c-0.3,1.1-0.4,1.8-0.5,2.2c-0.1,0.3-0.2,0.5-0.7,0.5c-0.2,0-0.4-0.2-0.9-0.3C18.1,50.6,18.1,50.5,18.1,50.4z"/>
	<path d="M26.7,50.1L26.7,50.1c0,0.1-0.5,0.8-0.7,0.8c-0.3,0-0.6-0.4-1.1-1.2c-0.4-0.6-0.5-1-0.6-1c-0.2,0-0.2,0.7-0.5,1.9
		c-0.1,0.3-0.1,0.4-0.6,0.4c0,0-0.4-0.2-0.7-0.4c-0.1-0.1-0.1-0.2-0.1-0.3c0-0.1,0.4-2.1,1.3-5.7c0.1-0.3,0.2-0.5,0.2-0.6
		c0.1,0,0.3-0.1,0.6-0.2c0.7-0.2,1.2-0.2,1.3-0.2c0.3,0,1.1,0.1,1.4,0.4c0.1,0.1,0.2,0.2,0.2,0.3c0.3,0.6,0.4,1.1,0.4,1.3
		c0,0.8-0.7,1.5-1.8,2.4C26.2,48.9,26.7,49.5,26.7,50.1z M24.6,47.1c0,0,0.5-0.3,1-0.8c0.5-0.4,0.6-0.8,0.6-1.1
		c0-0.2-0.2-0.3-0.5-0.3c-0.5,0-0.7,0.1-0.7,0.2c0,0.1-0.1,0.3-0.3,0.9C24.7,46.7,24.6,47,24.6,47.1C24.6,47.1,24.6,47.1,24.6,47.1z
		"/>
	<path d="M28.4,50.6c-0.2,0.5-0.1,0.5-0.4,0.5c-0.1,0-0.2,0-0.4,0c-0.1,0-0.2-0.1-0.5-0.3c-0.1-0.1-0.2-0.1-0.2-0.2
		c0-0.3,0.8-2.2,2.5-5.8c0.5-1.1,0.5-1.3,1-1.3c0.2,0,0.4,0,0.6,0.1c0.4,0.1,0.7,0.2,0.8,0.2c0.2,0.1,0.4,0.2,0.4,0.5
		c0,0.2-0.2,1.8-0.4,4.8c-0.1,0.8,0,1.2-0.1,1.3c-0.4,0.2-0.5,0.2-0.7,0.2h-0.2c-0.4,0-0.4-0.2-0.4-0.4v-0.1c0-0.1,0-0.2,0-0.3
		s0-0.2-0.1-0.5c0,0,0-0.1,0-0.1c-0.7,0-1,0.1-1.1,0.1c0,0-0.1,0-0.1,0C28.8,49.4,28.8,49.8,28.4,50.6z M29.7,48
		c0.5,0,0.5,0,0.5-0.2c0-0.1,0-0.3,0.1-0.6c0.2-1.2,0.3-1.9,0.3-2c0,0,0,0,0,0c-0.1,0-0.2,0.3-0.5,1.1c-0.3,1.1-0.6,1.6-0.6,1.6
		C29.5,47.9,29.6,48,29.7,48z M30.8,41.6c0.3-0.3,0.5-0.5,0.6-0.5c0.8,0,1.2,0.3,1.2,0.8c0,0.6-0.9,1.5-1.4,1.5
		c-0.8,0-1.1-0.3-1.1-0.8C30.3,42.3,30.4,41.9,30.8,41.6z M31.1,42.5c0,0.2,0.1,0.4,0.2,0.4c0.1,0,0.6-0.4,0.6-0.9
		c0-0.2-0.1-0.3-0.2-0.3C31.5,41.7,31.1,42.1,31.1,42.5z"/>
	<path d="M34.7,46.7v-0.1c0,0,0-0.1,0-0.1c-0.1,0-0.1,0-0.1,0.1c0,0-0.1,1.4-0.6,3.7C34,50.7,33.7,51,33.2,51
		c-0.1,0-0.3-0.1-0.5-0.1c-0.1,0-0.2,0-0.2-0.2c0-0.1,0.3-1.7,1.1-4.8c0.3-1,0.4-1.6,0.5-1.7c0.1-0.2,0.2-0.2,0.6-0.2
		c0.1,0,0.3,0.1,0.6,0.2c0.1,0,0.2,0,0.3,0.1c0.1,0.1,0.2,0,0.2,0.3c0,0,0,0.1,0,0.3c0,0,0,0.9,0.2,2.8c0,0.5,0,0.7,0.1,0.7
		c0.1,0,0.1-0.1,0.1-0.2c0-0.1,0-0.6,0.1-1.2c0.2-1.1,0.3-2,0.5-2.6c0.1-0.3,0.1-0.5,0.1-0.5c0.1-0.1,0.4-0.2,0.6-0.2
		c0.1,0,0.1,0,0.2,0h0.1c0.2,0,0.6,0.2,0.6,0.2c0,0-0.2,0.8-0.5,2.2c-0.2,1-0.4,2-0.7,3.1c-0.3,1.1-0.4,1.5-0.5,1.5
		c-0.1,0-0.2,0-0.3,0c0,0-0.3,0-0.9-0.2C35,49.2,34.7,47.9,34.7,46.7z"/>
	<path d="M41.7,50.8c-0.7,0-1.1-0.3-1.1-0.6v-0.1c0-1.1,0.5-2.2,0.7-3.3c0-0.2,0.1-0.7,0.3-1.5c0.2-0.8,0.3-1,0.3-1.1c0,0,0,0,0-0.1
		c0,0,0.1-0.1,0.1-0.4l0.2-0.1c0.2,0,0.3-0.1,0.4-0.1c0.4,0,0.6,0.2,0.7,0.2h0.1c0.1,0,0.1,0.1,0.2,0.1l-0.1,0.4
		c-0.3,1.3-0.4,2-0.4,2.1c0,0,0.1,0.1,0.2,0.1c0.4,0,0.7-0.1,0.7-0.2c0,0,0.1-0.5,0.3-1.3c0.2-1,0.3-1.5,0.3-1.6
		c0.1-0.2,0.2-0.2,0.8-0.2c0.4,0,0.4,0.1,0.5,0.2c0.1,0.1,0.3,0.1,0.3,0.2v0c0,0,0,0.1,0,0.1c0,0.1,0,0.1-0.1,0.2
		c0,0-0.2,0.6-0.4,1.8c0,0.2-0.4,1.8-1.1,4.7c-0.2,0-0.4,0.1-0.5,0.1c-0.4,0-0.8-0.2-0.8-0.5c0-1.1,0.4-2,0.4-2.2
		c0,0-0.1-0.1-0.2-0.1c-0.8,0-0.6,0.1-0.8,0.6c0,0.1-0.2,0.8-0.5,2.2C42,50.8,41.9,50.8,41.7,50.8z"/>
	<path d="M46.7,50.6c-0.2,0.5-0.1,0.5-0.4,0.5c-0.1,0-0.2,0-0.4,0c-0.1,0-0.2-0.1-0.5-0.3c-0.1-0.1-0.2-0.1-0.2-0.2
		c0-0.3,0.8-2.2,2.5-5.8c0.5-1.1,0.5-1.3,1-1.3c0.2,0,0.4,0,0.6,0.1c0.4,0.1,0.7,0.2,0.8,0.2c0.2,0.1,0.4,0.2,0.4,0.5
		c0,0.2-0.2,1.8-0.4,4.8c-0.1,0.8,0,1.2-0.1,1.3c-0.4,0.2-0.5,0.2-0.7,0.2H49c-0.4,0-0.4-0.2-0.4-0.4v-0.1c0-0.1,0-0.2,0-0.3
		s0-0.2-0.1-0.5c0,0,0-0.1,0-0.1c-0.7,0-1,0.1-1.1,0.1c0,0-0.1,0-0.1,0C47.2,49.4,47.1,49.8,46.7,50.6z M48.1,48
		c0.5,0,0.5,0,0.5-0.2c0-0.1,0-0.3,0.1-0.6c0.2-1.2,0.3-1.9,0.3-2c0,0,0,0,0,0c-0.1,0-0.2,0.3-0.5,1.1c-0.3,1.1-0.6,1.6-0.6,1.6
		C47.9,47.9,47.9,48,48.1,48z"/>
	<path d="M51.6,50c0-0.2,0-0.5,0-0.7V49c0,0,0-1.3,0.2-3.7c0.1-1.3,0-1.4,0.7-1.4c0.2,0,0.5,0.1,0.8,0.1c0.2,0,0.2,0.1,0.2,0.8
		c0,2.1-0.5,3.5-0.5,3.8c0,0,0,0.1,0,0.1c0.1,0,0.5-1.4,1.6-4.1c0.4-0.9,0.5-1.2,0.6-1.2c0,0,0.1,0,0.1,0c0.1,0,0.2,0,0.2,0
		c0.2,0,0.3,0.1,0.4,0.1H56c0.1,0,0.5,0.3,0.5,0.4c0,0.1-0.6,1.2-1.5,3.1c0,0-0.5,1-1.4,2.9c-0.4,0.8-0.4,0.9-0.5,0.9
		c-0.3,0-0.5-0.1-0.6-0.2c-0.2-0.2-0.4-0.1-0.5-0.2c-0.3-0.1-0.4-0.2-0.5-0.3C51.6,50.2,51.6,50.1,51.6,50z"/>
	<path d="M55.8,50c0-0.2,0.3-1.5,1-4.1c0.4-1.4,0.5-2.1,0.7-2.1c0.1,0,0.1,0,0.2,0c0,0,0.1,0,0.1,0c0.2,0,0.4,0.1,0.6,0.1
		c0.2,0,0.5-0.1,0.9-0.1c0.2,0,0.7,0.1,1,0.1c0.2,0,0.3,0.1,0.3,0.7c0,0.2-0.1,0.5-0.1,0.6c-0.1,0.1-0.7,0.1-2,0.2
		c-0.1,0.4-0.2,0.8-0.3,1.2c0.1,0,0.3,0,0.5,0c0.5,0,0.9,0,0.9,0.1c0.1,0.1,0.2,0.4,0.2,0.6c0,0.2-0.1,0.6-0.1,0.6
		c-0.1,0.1-0.8,0.1-1.9,0.3c-0.1,0.5-0.2,0.8-0.2,0.9c0,0,0,0.1,0,0.1c0.8,0,1.2-0.1,1.2-0.1c0.1,0,0.1,0,0.1,0.1v0.1
		c0,0.1,0.3,0.2,0.3,0.7c0,0.5-0.1,0.5-0.3,0.5h0c-0.4,0-0.7,0.2-1.2,0.2c-0.4,0.1-0.8,0.1-1.3,0.2C56,50.7,55.8,50.4,55.8,50z"/>
	<path d="M62.3,50c-0.1,0.4-0.1,0.9-0.5,0.9c-0.1,0-0.3-0.2-0.8-0.3c-0.1,0-0.3,0-0.3-0.2c0-0.1,0.4-1.8,1.2-5.1c-0.1,0-0.3,0-0.4,0
		c0,0-0.1,0-0.1,0c-0.1,0-0.2,0-0.3,0h0c-0.1,0-0.1,0-0.1-0.1c0-0.1,0-0.1,0-0.2s0-0.2,0-0.2c0-0.3,0.1-0.6,0.2-0.6
		c0.4-0.2,1-0.2,1.8-0.3c0.5,0,1,0,1.4,0h0.4c0.1,0,0.2,0.4,0.2,1c0,0.3-0.3,0.4-1.3,0.6C62.7,48.2,62.4,49.8,62.3,50z"/>
	<path d="M63.8,50.2c0-0.6,0.6-1.2,1-1.2c0.5,0,0.8,0.2,0.8,0.6c0,0.5-0.5,1.3-1.1,1.3C64.1,50.9,63.8,50.5,63.8,50.2z M67,44.5
		c0,0.1-0.1,0.3-0.3,0.9c-0.6,1.5-0.8,2.4-0.9,2.6c-0.2,0.6-0.2,0.8-0.5,0.8c-0.3,0-0.7-0.1-0.7-0.3c0,0,0.1-1.1,0.6-2.9
		c0.4-1.5,0.5-2.2,1-2.2c0.4,0,1.1,0.6,1.1,0.8C67.2,44.2,67,44.3,67,44.5z"/>
</g>
<g>
	<path d="M81,25.8H6c-0.3,0-0.5-0.2-0.5-0.5s0.2-0.5,0.5-0.5h75c0.3,0,0.5,0.2,0.5,0.5S81.3,25.8,81,25.8z"/>
</g>
</svg>
