<?xml version="1.0" encoding="utf-8"?>
<!-- Generator: Adobe Illustrator 26.3.1, SVG Export Plug-In . SVG Version: 6.00 Build 0)  -->
<svg version="1.1" id="Lager_1" xmlns="http://www.w3.org/2000/svg" xmlns:xlink="http://www.w3.org/1999/xlink" x="0px" y="0px"
	 viewBox="0 0 86 56" style="enable-background:new 0 0 86 56;" xml:space="preserve">
<g>
	<path d="M35.1,19.7L35.1,19.7c0,0.3-0.9,1.4-1.3,1.4c-0.5,0-1.1-0.7-2.1-2.2c-0.7-1-1-1.8-1.2-1.8c-0.4,0-0.3,1.3-0.9,3.3
		c-0.1,0.6-0.1,0.8-1,0.8c-0.1,0-0.8-0.3-1.3-0.6c-0.2-0.1-0.3-0.3-0.3-0.6c0-0.3,0.7-3.7,2.3-10.3c0.2-0.6,0.3-1,0.5-1
		c0.1-0.1,0.5-0.2,1.1-0.3c1.3-0.4,2.2-0.4,2.4-0.4c0.6,0,1.9,0.3,2.4,0.6c0.2,0.1,0.3,0.3,0.4,0.5c0.5,1.1,0.7,1.9,0.7,2.3
		c0,1.5-1.2,2.7-3.3,4.3C34.1,17.5,35.1,18.6,35.1,19.7z M31.3,14.3c0.1,0,1-0.5,1.9-1.4c0.8-0.8,1.2-1.5,1.2-2
		c0-0.3-0.3-0.5-0.9-0.5c-0.9,0-1.2,0.1-1.3,0.4c0,0.1-0.2,0.6-0.5,1.6c-0.3,1.1-0.5,1.7-0.5,1.7C31.2,14.2,31.3,14.3,31.3,14.3z"/>
	<path d="M39.4,20.9c0,0-0.1,0-0.1,0H39c-0.1,0-0.3,0-0.5-0.1c-1.2-0.5-1.8-1.7-1.8-3.7c0-1.6,0.8-4.4,2.4-6.7
		C40.2,8.9,40.8,8,41.9,8c0.1,0,0.3,0,0.5,0c0.4,0,0.8,0.2,1.4,0.4c1.5,0.5,2.2,1.7,2.2,3.7c0,1.5-0.3,3-1,4.5
		c-0.8,1.8-1.9,3.2-2.7,3.9c-0.6,0.4-1.3,0.8-1.7,0.8h-0.2C39.9,21.2,39.6,21,39.4,20.9z M40.1,18.6c0.4,0,0.9-0.6,1.5-1.9
		c0.8-1.5,1.3-2.9,1.3-4.7c0-1-0.2-1.5-0.5-1.5c-0.1,0-0.6,0.5-1.2,1.7c-1.2,2.2-1.7,4.4-1.7,5.2C39.5,18.2,39.7,18.6,40.1,18.6z"/>
	<path d="M47.7,21.1c-0.7,0-1.1-0.4-1.6-0.6c-0.1,0-0.1-0.2-0.1-0.5c0-0.5,0.3-1.7,0.8-3.8c1-4.1,1.6-6.2,1.7-6.4
		c0.2-0.8,0.6-1.2,1.2-1.2c0.6,0,1.4,0.2,2.5,0.5c0.1,0.1,0.2,0.1,0.2,0.3c0,0.4-0.2,1.5-0.3,3c-0.1,1.5-0.3,2.3-0.3,2.5
		c0,0.1,0,0.1,0.1,0.1c0.2,0,0.8-2.3,2.3-5.5C54.7,8.2,54.5,8,55.1,8c0.6,0,1.7,0.3,2.5,0.7c0.2,0.1,0.3,0.3,0.3,0.6
		c0,0.1-0.3,0.8-0.6,2.4c-0.3,1.4-0.7,3.4-1.4,6.1c-0.5,1.9-0.8,2.9-0.8,3c0,0.1-0.3,0.2-0.7,0.2c-0.8,0-1.7-0.3-1.7-0.6
		c0-0.1,0.4-1.2,0.9-3.3c0.9-3.4,1.5-5.1,1.5-5.2c0-0.1-0.1-0.1-0.1-0.1c-0.2,0-1,2.7-3.7,8c-0.2,0-0.3-0.1-0.5-0.1
		c-0.1,0-0.1,0-0.1,0c-0.2,0-0.3-0.1-0.6-0.2c-0.1,0-0.2-0.1-0.2-0.3v-0.6c0-0.5,0-1.1,0-1.7c0-2,0.3-3.6,0.3-4.6
		c0-0.1,0-0.2-0.1-0.2c-0.2,0-0.3,2-1,5.5c-0.4,1.7-0.6,2.7-0.6,3.2v0.1l-0.2,0.2C47.9,21.1,47.8,21.1,47.7,21.1z"/>
</g>
<g>
	<path d="M10.9,38.4c0-0.3,0.4-2.2,1.2-5.4c0.3-1.1,0.1-1.2,1-1.2c0.3,0,0.5,0,0.6,0c0.4,0,0.7,0,0.9,0c0.2,0,0.3,0,0.3,0
		c0.1,0,0.1-0.1,0.1-0.1c0.2,0,0.5,0.4,0.5,0.9c0,0.3,0,0.5-0.1,0.6c0,0-0.6,0.1-0.9,0.1c-0.1,0-0.2,0-0.3,0c-0.1,0-0.3,0-0.6,0.1
		c-0.1,0.5-0.2,0.8-0.3,1.1c0.9,0,1.3,0.1,1.4,0.1c0,0,0.2,0.5,0.2,0.6c0,0.5-0.2,0.6-0.3,0.6c-0.1,0-0.6,0.2-1.6,0.2
		c-0.3,1.1-0.4,1.8-0.5,2.2c-0.1,0.3-0.2,0.5-0.7,0.5c-0.2,0-0.4-0.2-0.9-0.3C10.9,38.6,10.9,38.5,10.9,38.4z"/>
	<path d="M19.5,38.1L19.5,38.1c0,0.1-0.5,0.8-0.7,0.8c-0.3,0-0.6-0.4-1.1-1.2c-0.4-0.6-0.5-1-0.6-1c-0.2,0-0.2,0.7-0.5,1.9
		c-0.1,0.3-0.1,0.4-0.6,0.4c0,0-0.4-0.2-0.7-0.4c-0.1-0.1-0.1-0.2-0.1-0.3c0-0.1,0.4-2.1,1.3-5.7c0.1-0.3,0.2-0.5,0.2-0.6
		c0.1,0,0.3-0.1,0.6-0.2c0.7-0.2,1.2-0.2,1.3-0.2c0.3,0,1.1,0.1,1.4,0.4c0.1,0.1,0.2,0.2,0.2,0.3c0.3,0.6,0.4,1.1,0.4,1.3
		c0,0.8-0.7,1.5-1.8,2.4C19,36.9,19.5,37.5,19.5,38.1z M17.4,35.1c0,0,0.5-0.3,1-0.8c0.5-0.4,0.6-0.8,0.6-1.1c0-0.2-0.2-0.3-0.5-0.3
		c-0.5,0-0.7,0.1-0.7,0.2c0,0.1-0.1,0.3-0.3,0.9C17.5,34.7,17.4,35,17.4,35.1C17.4,35.1,17.4,35.1,17.4,35.1z"/>
	<path d="M21.2,38.6c-0.2,0.5-0.1,0.5-0.4,0.5c-0.1,0-0.2,0-0.4,0c-0.1,0-0.2-0.1-0.5-0.3c-0.1-0.1-0.2-0.1-0.2-0.2
		c0-0.3,0.8-2.2,2.5-5.8c0.5-1.1,0.5-1.3,1-1.3c0.2,0,0.4,0,0.6,0.1c0.4,0.1,0.7,0.2,0.8,0.2c0.2,0.1,0.4,0.2,0.4,0.5
		c0,0.2-0.2,1.8-0.4,4.8c-0.1,0.8,0,1.2-0.1,1.3c-0.4,0.2-0.5,0.2-0.7,0.2h-0.2c-0.4,0-0.4-0.2-0.4-0.4v-0.1c0-0.1,0-0.2,0-0.3
		s0-0.2-0.1-0.5c0,0,0-0.1,0-0.1c-0.7,0-1,0.1-1.1,0.1c0,0-0.1,0-0.1,0C21.6,37.4,21.6,37.8,21.2,38.6z M22.5,36
		c0.5,0,0.5,0,0.5-0.2c0-0.1,0-0.3,0.1-0.6c0.2-1.2,0.3-1.9,0.3-2c0,0,0,0,0,0c-0.1,0-0.2,0.3-0.5,1.1c-0.3,1.1-0.6,1.6-0.6,1.6
		C22.3,35.9,22.4,36,22.5,36z M23.6,29.6c0.3-0.3,0.5-0.5,0.6-0.5c0.8,0,1.2,0.3,1.2,0.8c0,0.6-0.9,1.5-1.4,1.5
		c-0.8,0-1.1-0.3-1.1-0.8C23.1,30.3,23.2,29.9,23.6,29.6z M23.9,30.5c0,0.2,0.1,0.4,0.2,0.4c0.1,0,0.6-0.4,0.6-0.9
		c0-0.2-0.1-0.3-0.2-0.3C24.3,29.7,23.9,30.1,23.9,30.5z"/>
	<path d="M27.5,34.7v-0.1c0,0,0-0.1,0-0.1c-0.1,0-0.1,0-0.1,0.1c0,0-0.1,1.4-0.6,3.7C26.8,38.7,26.5,39,26,39
		c-0.1,0-0.3-0.1-0.5-0.1c-0.1,0-0.2,0-0.2-0.2c0-0.1,0.3-1.7,1.1-4.8c0.3-1,0.4-1.6,0.5-1.7c0.1-0.2,0.2-0.2,0.6-0.2
		c0.1,0,0.3,0.1,0.6,0.2c0.1,0,0.2,0,0.3,0.1c0.1,0.1,0.2,0,0.2,0.3c0,0,0,0.1,0,0.3c0,0,0,0.9,0.2,2.8c0,0.5,0,0.7,0.1,0.7
		c0.1,0,0.1-0.1,0.1-0.2c0-0.1,0-0.6,0.1-1.2c0.2-1.1,0.3-2,0.5-2.6c0.1-0.3,0.1-0.5,0.1-0.5c0.1-0.1,0.4-0.2,0.6-0.2
		c0.1,0,0.1,0,0.2,0h0.1c0.2,0,0.6,0.2,0.6,0.2c0,0-0.2,0.8-0.5,2.2c-0.2,1-0.4,2-0.7,3.1c-0.3,1.1-0.4,1.5-0.5,1.5
		c-0.1,0-0.2,0-0.3,0c0,0-0.3,0-0.9-0.2C27.8,37.2,27.5,35.9,27.5,34.7z"/>
	<path d="M34,38c0-0.2,0-0.5,0-0.7V37c0,0,0-1.3,0.2-3.7c0.1-1.3,0-1.4,0.7-1.4c0.2,0,0.5,0.1,0.8,0.1c0.2,0,0.2,0.1,0.2,0.8
		c0,2.1-0.4,3.5-0.4,3.8c0,0,0,0.1,0,0.1c0.1,0,0.5-1.4,1.6-4.1c0.4-0.9,0.5-1.2,0.6-1.2c0,0,0.1,0,0.1,0c0.1,0,0.2,0,0.2,0
		c0.2,0,0.3,0.1,0.4,0.1h0.1c0.1,0,0.5,0.3,0.5,0.4c0,0.1-0.6,1.2-1.5,3.1c0,0-0.5,1-1.4,2.9c-0.4,0.8-0.4,0.9-0.5,0.9
		c-0.3,0-0.4-0.1-0.6-0.2c-0.2-0.2-0.4-0.1-0.5-0.2c-0.3-0.1-0.4-0.2-0.5-0.3C34,38.2,34,38.1,34,38z"/>
	<path d="M38.9,38.6c-0.2,0.5-0.1,0.5-0.4,0.5c-0.1,0-0.2,0-0.4,0c-0.1,0-0.2-0.1-0.5-0.3c-0.1-0.1-0.2-0.1-0.2-0.2
		c0-0.3,0.8-2.2,2.5-5.8c0.5-1.1,0.5-1.3,1-1.3c0.2,0,0.4,0,0.6,0.1c0.4,0.1,0.7,0.2,0.8,0.2c0.2,0.1,0.4,0.2,0.4,0.5
		c0,0.2-0.2,1.8-0.4,4.8c-0.1,0.8,0,1.2-0.1,1.3c-0.4,0.2-0.5,0.2-0.7,0.2h-0.2c-0.4,0-0.4-0.2-0.4-0.4v-0.1c0-0.1,0-0.2,0-0.3
		s0-0.2-0.1-0.5c0,0,0-0.1,0-0.1c-0.7,0-1,0.1-1.1,0.1c0,0-0.1,0-0.1,0C39.3,37.4,39.3,37.8,38.9,38.6z M40.2,36
		c0.5,0,0.5,0,0.5-0.2c0-0.1,0-0.3,0.1-0.6c0.2-1.2,0.3-1.9,0.3-2c0,0,0,0,0,0c-0.1,0-0.2,0.3-0.5,1.1c-0.3,1.1-0.6,1.6-0.6,1.6
		C40,35.9,40.1,36,40.2,36z M40.4,30.1c0.2-0.3,0.3-0.4,0.7-0.4c0.3,0,0.5,0.6,0.5,0.6c0,0.2-0.4,0.7-0.7,0.7
		c-0.3,0-0.7-0.2-0.7-0.5C40.2,30.6,40.3,30.2,40.4,30.1z M42.1,30.1c0.2-0.3,0.3-0.4,0.7-0.4c0.3,0,0.5,0.6,0.5,0.6
		c0,0.2-0.4,0.7-0.7,0.7c-0.3,0-0.7-0.2-0.7-0.5C41.9,30.6,42,30.2,42.1,30.1z"/>
	<path d="M47.5,38.1L47.5,38.1c0,0.1-0.5,0.8-0.7,0.8c-0.3,0-0.6-0.4-1.1-1.2c-0.4-0.6-0.5-1-0.6-1c-0.2,0-0.2,0.7-0.5,1.9
		c-0.1,0.3-0.1,0.4-0.6,0.4c0,0-0.4-0.2-0.7-0.4c-0.1-0.1-0.1-0.2-0.1-0.3c0-0.1,0.4-2.1,1.3-5.7c0.1-0.3,0.2-0.5,0.2-0.6
		s0.3-0.1,0.6-0.2c0.7-0.2,1.2-0.2,1.3-0.2c0.3,0,1.1,0.1,1.4,0.4c0.1,0.1,0.2,0.2,0.2,0.3c0.3,0.6,0.4,1.1,0.4,1.3
		c0,0.8-0.7,1.5-1.8,2.4C47,36.9,47.5,37.5,47.5,38.1z M45.4,35.1c0,0,0.5-0.3,1.1-0.8c0.5-0.4,0.6-0.8,0.6-1.1
		c0-0.2-0.2-0.3-0.5-0.3c-0.5,0-0.7,0.1-0.7,0.2c0,0.1-0.1,0.3-0.3,0.9C45.5,34.7,45.4,35,45.4,35.1C45.4,35.1,45.4,35.1,45.4,35.1z
		"/>
	<path d="M48.4,38.1c0,0,0.4-2.1,1.3-5.7c0.1-0.5,0.1-0.8,0.7-0.8c0.5,0,1,0.3,1,0.5c0,0.1-0.2,0.8-0.5,2.1
		c-0.4,1.7-0.7,2.6-0.7,2.7c0,0.2,0.2,0.1,0.8,0.3c0.4,0.1,0.6,0.2,0.6,0.4c0,0.1,0,0.2,0,0.3c0,0.1,0,0.2,0,0.3v0.1
		c0,0,0,0.1,0,0.1c0,0-0.1,0.1-0.1,0.1c-0.1,0.1-0.9,0.1-2.5,0.6C48.6,38.6,48.4,38.2,48.4,38.1z"/>
	<path d="M52.8,38.6c-0.4-0.1-0.6-0.2-0.6-0.3c0-0.1,0.5-2,1.3-5.7c0.2-0.8,0.3-1,0.9-1h0.4c1.3,0,2.4,0.9,2.4,2.3
		c0,1.6-0.6,2.7-2,4c-0.7,0.7-1.3,1-1.5,1C53.5,38.9,53.2,38.7,52.8,38.6z M54.1,37.3c0,0,0.4-0.4,0.8-1.1c0.4-0.7,0.7-1.3,0.7-2.2
		c0-0.5-0.1-0.7-0.5-0.7c-0.1,0,0,0.1-0.2,0.5c0,0-0.2,0.6-0.4,1.6c-0.3,1.2-0.5,1.8-0.5,1.8C54,37.2,54,37.3,54.1,37.3z"/>
	<path d="M57.3,38c0-0.2,0.3-1.5,1-4.1c0.4-1.4,0.5-2.1,0.7-2.1c0.1,0,0.1,0,0.2,0c0,0,0.1,0,0.1,0c0.2,0,0.4,0.1,0.6,0.1
		c0.2,0,0.5-0.1,0.9-0.1c0.2,0,0.7,0.1,1,0.1c0.2,0,0.3,0.1,0.3,0.7c0,0.2-0.1,0.5-0.1,0.6c-0.1,0.1-0.7,0.1-2,0.2
		c-0.1,0.4-0.2,0.8-0.3,1.2c0.1,0,0.3,0,0.5,0c0.6,0,0.9,0,0.9,0.1c0.1,0.1,0.2,0.4,0.2,0.6c0,0.2-0.1,0.6-0.1,0.6
		c-0.1,0.1-0.8,0.1-1.9,0.3c-0.1,0.5-0.2,0.8-0.2,0.9c0,0,0,0.1,0,0.1c0.8,0,1.2-0.1,1.2-0.1c0.1,0,0.2,0,0.2,0.1v0.1
		c0,0.1,0.3,0.2,0.3,0.7c0,0.5-0.1,0.5-0.3,0.5h0c-0.3,0-0.7,0.2-1.2,0.2c-0.4,0.1-0.8,0.1-1.3,0.2C57.5,38.7,57.3,38.4,57.3,38z"/>
	<path d="M63.8,34.7v-0.1c0,0,0-0.1,0-0.1C63.8,34.5,63.7,34.6,63.8,34.7c-0.1,0-0.2,1.3-0.7,3.7c-0.1,0.3-0.3,0.6-0.9,0.6
		c-0.1,0-0.3-0.1-0.5-0.1c-0.1,0-0.2,0-0.2-0.2c0-0.1,0.3-1.7,1.1-4.8c0.3-1,0.4-1.6,0.5-1.7c0.1-0.2,0.2-0.2,0.6-0.2
		c0.1,0,0.3,0.1,0.6,0.2c0.1,0,0.2,0,0.3,0.1c0.1,0.1,0.2,0,0.2,0.3c0,0,0,0.1,0,0.3c0,0,0.1,0.9,0.2,2.8c0,0.5,0,0.7,0.1,0.7
		c0.1,0,0.1-0.1,0.1-0.2c0-0.1,0-0.6,0.1-1.2c0.2-1.1,0.3-2,0.5-2.6c0.1-0.3,0.1-0.5,0.2-0.5c0.1-0.1,0.4-0.2,0.6-0.2
		c0.1,0,0.1,0,0.2,0h0.1c0.2,0,0.6,0.2,0.6,0.2c0,0-0.2,0.8-0.5,2.2c-0.2,1-0.4,2-0.7,3.1c-0.3,1.1-0.4,1.5-0.5,1.5
		c-0.1,0-0.2,0-0.3,0c0,0-0.3,0-0.9-0.2C64.1,37.2,63.8,35.9,63.8,34.7z"/>
	<path d="M67.7,36.4c0.2,0,0.2,0,0.3,0.2c0.2,0.5,0.5,0.7,0.8,0.7c0.2,0,0.5-0.2,0.5-0.6c0-0.3-0.3-0.6-0.8-1.1
		c-0.4-0.4-0.5-0.9-0.5-1.3c0-0.9,0.5-1.7,1.4-2.4c0.4-0.3,0.8-0.4,0.9-0.4c0.3,0,0.5,0.2,0.8,0.3c0.4,0.2,0.8,0.3,0.8,1.2
		c0,0.9-0.3,1.4-0.7,1.4c-0.2,0-0.7-0.1-0.8-0.2c-0.2-0.1-0.2-0.2-0.2-0.3V34c0-0.3,0.1-0.6,0.1-0.7c0-0.1,0-0.1-0.1-0.1
		c-0.1,0-0.6,0.4-0.6,1c0,0.5,0.4,0.7,0.8,1.2c0.4,0.4,0.7,0.8,0.7,1.2c0,1.2-1.1,2.3-2.2,2.3c-0.9,0-1.9-0.8-1.9-1.7
		c0-0.1,0-0.2,0-0.3C67.4,36.6,67.6,36.4,67.7,36.4z"/>
	<path d="M22.4,50.6c-0.2,0.5-0.1,0.5-0.4,0.5c-0.1,0-0.2,0-0.4,0c-0.1,0-0.2-0.1-0.5-0.3c-0.1-0.1-0.2-0.1-0.2-0.2
		c0-0.3,0.8-2.2,2.5-5.8c0.5-1.1,0.5-1.3,1-1.3c0.2,0,0.4,0,0.6,0.1c0.4,0.1,0.7,0.2,0.8,0.2c0.2,0.1,0.4,0.2,0.4,0.5
		c0,0.2-0.2,1.8-0.4,4.8c-0.1,0.8,0,1.2-0.1,1.3c-0.4,0.2-0.5,0.2-0.7,0.2h-0.2c-0.4,0-0.4-0.2-0.4-0.4v-0.1c0-0.1,0-0.2,0-0.3
		s0-0.2-0.1-0.5c0,0,0-0.1,0-0.1c-0.7,0-1,0.1-1.1,0.1c0,0-0.1,0-0.1,0C22.8,49.4,22.8,49.8,22.4,50.6z M23.7,48
		c0.5,0,0.5,0,0.5-0.2c0-0.1,0-0.3,0.1-0.6c0.2-1.2,0.3-1.9,0.3-2c0,0,0,0,0,0c-0.1,0-0.2,0.3-0.5,1.1c-0.3,1.1-0.6,1.6-0.6,1.6
		C23.5,47.9,23.6,48,23.7,48z"/>
	<path d="M26.7,50.1c0,0,0.4-2.1,1.3-5.7c0.1-0.5,0.1-0.8,0.6-0.8c0.5,0,1,0.3,1,0.5c0,0.1-0.2,0.8-0.5,2.1
		c-0.4,1.7-0.7,2.6-0.7,2.7c0,0.2,0.2,0.1,0.8,0.3c0.4,0.1,0.6,0.2,0.6,0.4c0,0.1,0,0.2-0.1,0.3c0,0.1,0,0.2,0,0.3v0.1
		c0,0,0,0.1,0,0.1c0,0-0.1,0.1-0.1,0.1c-0.1,0.1-0.9,0.1-2.5,0.6C26.9,50.6,26.7,50.2,26.7,50.1z"/>
	<path d="M30.5,50.1c0,0,0.4-2.1,1.3-5.7c0.1-0.5,0.1-0.8,0.6-0.8c0.5,0,1,0.3,1,0.5c0,0.1-0.2,0.8-0.5,2.1
		c-0.4,1.7-0.7,2.6-0.7,2.7c0,0.2,0.2,0.1,0.8,0.3c0.4,0.1,0.6,0.2,0.6,0.4c0,0.1,0,0.2-0.1,0.3c0,0.1,0,0.2,0,0.3v0.1
		c0,0,0,0.1,0,0.1c0,0-0.1,0.1-0.1,0.1c-0.1,0.1-0.9,0.1-2.5,0.6C30.7,50.6,30.5,50.2,30.5,50.1z"/>
	<path d="M35.4,50.6c-0.2,0.5-0.1,0.5-0.4,0.5c-0.1,0-0.2,0-0.4,0c-0.1,0-0.2-0.1-0.5-0.3C34,50.8,34,50.8,34,50.7
		c0-0.3,0.8-2.2,2.5-5.8c0.5-1.1,0.5-1.3,1-1.3c0.2,0,0.4,0,0.6,0.1c0.4,0.1,0.7,0.2,0.8,0.2c0.2,0.1,0.4,0.2,0.4,0.5
		c0,0.2-0.2,1.8-0.4,4.8c-0.1,0.8,0,1.2-0.1,1.3c-0.4,0.2-0.5,0.2-0.7,0.2h-0.2c-0.4,0-0.4-0.2-0.4-0.4v-0.1c0-0.1,0-0.2,0-0.3
		s0-0.2-0.1-0.5c0,0,0-0.1,0-0.1c-0.7,0-1,0.1-1.1,0.1c0,0-0.1,0-0.1,0C35.9,49.4,35.8,49.8,35.4,50.6z M36.8,48
		c0.5,0,0.5,0,0.5-0.2c0-0.1,0-0.3,0.1-0.6c0.2-1.2,0.3-1.9,0.3-2c0,0,0,0,0,0c-0.1,0-0.2,0.3-0.5,1.1c-0.3,1.1-0.6,1.6-0.6,1.6
		C36.6,47.9,36.6,48,36.8,48z"/>
	<path d="M43.2,50.8c-0.7,0-1.1-0.3-1.1-0.6v-0.1c0-1.1,0.5-2.2,0.7-3.3c0-0.2,0.1-0.7,0.3-1.5c0.2-0.8,0.3-1,0.3-1.1c0,0,0,0,0-0.1
		c0,0,0.1-0.1,0.1-0.4l0.2-0.1c0.2,0,0.3-0.1,0.4-0.1c0.4,0,0.6,0.2,0.7,0.2h0.1c0.1,0,0.1,0.1,0.2,0.1L45,44.4
		c-0.3,1.3-0.4,2-0.4,2.1c0,0,0.1,0.1,0.2,0.1c0.4,0,0.7-0.1,0.7-0.2c0,0,0.1-0.5,0.3-1.3c0.2-1,0.3-1.5,0.3-1.6
		c0.1-0.2,0.2-0.2,0.8-0.2c0.4,0,0.4,0.1,0.5,0.2c0.1,0.1,0.3,0.1,0.3,0.2v0c0,0,0,0.1,0,0.1c0,0.1,0,0.1-0.1,0.2
		c0,0-0.1,0.6-0.4,1.8c0,0.2-0.4,1.8-1.1,4.7c-0.2,0-0.4,0.1-0.5,0.1c-0.4,0-0.8-0.2-0.8-0.5c0-1.1,0.4-2,0.4-2.2
		c0,0-0.1-0.1-0.2-0.1c-0.8,0-0.7,0.1-0.8,0.6c0,0.1-0.2,0.8-0.5,2.2C43.6,50.8,43.5,50.8,43.2,50.8z"/>
	<path d="M49,50.8C49,50.8,49,50.8,49,50.8l-0.2,0c-0.1,0-0.2,0-0.3,0c-0.7-0.3-1-1-1-2c0-0.9,0.5-2.5,1.3-3.7
		c0.6-0.8,0.9-1.4,1.6-1.4c0.1,0,0.1,0,0.3,0c0.2,0,0.4,0.1,0.8,0.2c0.8,0.3,1.2,0.9,1.2,2c0,0.8-0.2,1.7-0.5,2.5
		c-0.4,1-1.1,1.8-1.5,2.2c-0.3,0.2-0.7,0.4-1,0.4h-0.1C49.3,50.9,49.1,50.8,49,50.8z M49.4,49.5c0.2,0,0.5-0.3,0.9-1
		c0.4-0.8,0.7-1.6,0.7-2.6c0-0.6-0.1-0.8-0.3-0.8c-0.1,0-0.3,0.3-0.7,0.9c-0.7,1.2-0.9,2.5-0.9,2.9C49.1,49.3,49.2,49.5,49.4,49.5z
		 M49.9,42.1c0.2-0.3,0.3-0.4,0.7-0.4c0.3,0,0.5,0.6,0.5,0.6c0,0.2-0.5,0.7-0.7,0.7c-0.3,0-0.7-0.2-0.7-0.5
		C49.7,42.6,49.8,42.2,49.9,42.1z M51.6,42.1c0.2-0.3,0.3-0.4,0.7-0.4c0.3,0,0.5,0.6,0.5,0.6c0,0.2-0.4,0.7-0.7,0.7
		c-0.3,0-0.7-0.2-0.7-0.5C51.4,42.6,51.5,42.2,51.6,42.1z"/>
	<path d="M57.1,50.1L57.1,50.1c0,0.1-0.5,0.8-0.7,0.8c-0.3,0-0.6-0.4-1.1-1.2c-0.4-0.6-0.5-1-0.6-1c-0.2,0-0.2,0.7-0.5,1.9
		c-0.1,0.3-0.1,0.4-0.6,0.4c0,0-0.4-0.2-0.7-0.4c-0.1-0.1-0.1-0.2-0.1-0.3c0-0.1,0.4-2.1,1.3-5.7c0.1-0.3,0.2-0.5,0.2-0.6
		s0.3-0.1,0.6-0.2c0.7-0.2,1.2-0.2,1.3-0.2c0.3,0,1.1,0.1,1.4,0.4c0.1,0.1,0.2,0.2,0.2,0.3c0.3,0.6,0.4,1.1,0.4,1.3
		c0,0.8-0.7,1.5-1.8,2.4C56.5,48.9,57.1,49.5,57.1,50.1z M55,47.1c0,0,0.5-0.3,1-0.8c0.5-0.4,0.6-0.8,0.6-1.1c0-0.2-0.2-0.3-0.5-0.3
		c-0.5,0-0.7,0.1-0.7,0.2c0,0.1-0.1,0.3-0.3,0.9C55,46.7,54.9,47,55,47.1C54.9,47.1,55,47.1,55,47.1z"/>
	<path d="M60,46.7v-0.1c0,0,0-0.1,0-0.1C59.9,46.5,59.9,46.6,60,46.7c-0.1,0-0.2,1.3-0.7,3.7C59.3,50.7,59,51,58.5,51
		c-0.1,0-0.3-0.1-0.5-0.1c-0.1,0-0.2,0-0.2-0.2c0-0.1,0.3-1.7,1.1-4.8c0.3-1,0.4-1.6,0.5-1.7c0.1-0.2,0.2-0.2,0.6-0.2
		c0.2,0,0.3,0.1,0.6,0.2c0.1,0,0.2,0,0.3,0.1c0.1,0.1,0.2,0,0.2,0.3c0,0,0,0.1,0,0.3c0,0,0,0.9,0.2,2.8c0,0.5,0,0.7,0.1,0.7
		c0.1,0,0.1-0.1,0.1-0.2c0-0.1,0-0.6,0.1-1.2c0.2-1.1,0.3-2,0.5-2.6c0.1-0.3,0.1-0.5,0.1-0.5c0.1-0.1,0.4-0.2,0.6-0.2
		c0.1,0,0.1,0,0.2,0h0.1c0.2,0,0.6,0.2,0.6,0.2c0,0-0.2,0.8-0.5,2.2c-0.2,1-0.4,2-0.7,3.1c-0.3,1.1-0.3,1.5-0.5,1.5
		c-0.1,0-0.2,0-0.3,0c0,0-0.3,0-0.9-0.2C60.3,49.2,60,47.9,60,46.7z"/>
</g>
<g>
	<path d="M81,25.8H6c-0.3,0-0.5-0.2-0.5-0.5s0.2-0.5,0.5-0.5h75c0.3,0,0.5,0.2,0.5,0.5S81.3,25.8,81,25.8z"/>
</g>
</svg>
