<?xml version="1.0" encoding="utf-8"?>
<!-- Generator: Adobe Illustrator 28.0.0, SVG Export Plug-In . SVG Version: 6.00 Build 0)  -->
<svg version="1.1" id="Lager_1" xmlns="http://www.w3.org/2000/svg" xmlns:xlink="http://www.w3.org/1999/xlink" x="0px" y="0px"
	 viewBox="0 0 86 56" style="enable-background:new 0 0 86 56;" xml:space="preserve">
<style type="text/css">
	.st0{fill:#CB5252;}
</style>
<g>
	<path d="M5.9,20.4c0-0.3,0-0.6,0-1V19c0-0.1,0.1-1.8,0.3-5.2c0.1-1.9,0-2,0.9-2c0.3,0,0.7,0.1,1.1,0.2c0.2,0,0.2,0.2,0.2,1.1
		c0,3-0.6,4.9-0.6,5.4c0,0.1,0,0.1,0.1,0.1c0.2,0,0.6-2,2.3-5.7c0.5-1.3,0.6-1.7,0.9-1.7c0.1,0,0.1,0,0.1,0c0.2,0,0.3,0,0.3,0
		c0.3,0,0.4,0.1,0.5,0.1h0.1c0.2,0,0.8,0.5,0.8,0.6c0,0.2-0.8,1.6-2.1,4.4c0,0.1-0.7,1.4-1.9,4.1c-0.5,1.1-0.5,1.3-0.8,1.3
		c-0.5,0-0.6-0.2-0.8-0.3c-0.3-0.2-0.6-0.2-0.7-0.2C6.2,21.1,6,21,5.8,20.8C5.9,20.7,5.9,20.6,5.9,20.4z"/>
	<path d="M12.7,15.9c0.7-2.6,1-4,1-4c0-0.3,0-0.6,1-0.6c0.7,0,1.4,0.5,1.4,0.6c0,0.1-0.1,0.2-0.2,0.5c0,0.1-0.2,0.6-0.4,1.6
		c-0.3,1.3-0.5,2.5-0.8,3.6c-0.3,1.6-0.6,2.9-0.9,3.6c-0.1,0.4-0.3,0.4-0.8,0.4h-0.2c-0.8,0-1.2-0.5-1.2-0.6
		C11.5,21,11.9,19.2,12.7,15.9z"/>
	<path d="M39.6,20.6c0,0,0.5-3,1.9-8c0.2-0.6,0.1-1.2,0.9-1.2c0.7,0,1.4,0.4,1.4,0.6c0,0.1-0.2,1.1-0.6,2.9
		c-0.6,2.4-0.9,3.7-0.9,3.8c0,0.3,0.3,0.2,1.2,0.4c0.5,0.1,0.8,0.2,0.8,0.5c0,0.1,0,0.2-0.1,0.4c0,0.2,0,0.3,0,0.4v0.1
		c0,0.1,0,0.1,0,0.1c0,0.1-0.1,0.1-0.2,0.2c-0.1,0.1-1.3,0.1-3.5,0.8C39.8,21.3,39.6,20.6,39.6,20.6z"/>
	<path d="M47.2,21.5c0,0-0.1,0-0.1,0h-0.2c-0.1,0-0.3,0-0.4-0.1c-1-0.4-1.4-1.4-1.4-2.9c0-1.3,0.6-3.5,1.9-5.2
		c0.8-1.2,1.3-1.9,2.2-1.9c0.1,0,0.2,0,0.4,0c0.3,0,0.6,0.1,1.1,0.3c1.1,0.4,1.7,1.3,1.7,2.9c0,1.1-0.3,2.4-0.7,3.5
		c-0.6,1.4-1.5,2.5-2.1,3c-0.4,0.4-1,0.6-1.4,0.6h-0.1C47.5,21.7,47.3,21.5,47.2,21.5z M47.7,19.7c0.3,0,0.7-0.5,1.2-1.4
		c0.6-1.2,1-2.3,1-3.7c0-0.8-0.2-1.2-0.4-1.2c-0.1,0-0.5,0.4-0.9,1.3c-1,1.7-1.3,3.5-1.3,4.1C47.3,19.4,47.4,19.7,47.7,19.7z
		 M48.4,9.2c0.3-0.4,0.5-0.5,1-0.5c0.4,0,0.7,0.8,0.7,0.9c0,0.3-0.6,0.9-1,0.9c-0.5,0-0.9-0.3-0.9-0.6C48.1,9.9,48.3,9.4,48.4,9.2z
		 M50.9,9.2c0.3-0.4,0.5-0.5,0.9-0.5c0.4,0,0.7,0.8,0.7,0.9c0,0.3-0.6,0.9-1,0.9c-0.5,0-0.9-0.3-0.9-0.6C50.5,9.9,50.7,9.4,50.9,9.2
		z"/>
	<path d="M53.5,21.7c0,0-0.5-0.2-0.9-0.4c-0.5-0.3-0.9-0.9-0.9-1.6c0-0.7,0.2-1.4,0.4-1.6c0.2-0.3,0.4-0.3,1.1-0.3
		c0.2,0,0.7,0.2,0.7,0.6c0,0.1,0,0.3,0,0.5c0,0.5-0.2,0.9-0.2,1c0,0.1,0.1,0.2,0.1,0.2c0.4,0,0.8-1.7,1.5-5c0.5-2,0.7-3.1,0.7-3.2
		c0-0.1-0.1-0.1-0.1-0.2c0-0.2,0.6-0.3,1.1-0.3c0.5,0,0.8,0.2,1.1,0.3c0.2,0.1,0.3,0,0.3,0.1c0,0.1-0.3,0.6-0.6,1.8
		c-0.6,2.3-0.8,4.1-1.2,5.1c-0.8,2.1-2.3,3-2.6,3c-0.1,0-0.1,0-0.3,0C53.8,21.7,53.6,21.7,53.5,21.7z"/>
	<path d="M64.3,20.5L64.3,20.5c0,0.2-0.7,1.1-1,1.1c-0.4,0-0.8-0.5-1.6-1.7c-0.6-0.8-0.8-1.4-0.9-1.4c-0.3,0-0.3,1-0.7,2.6
		c-0.1,0.4-0.1,0.6-0.8,0.6c0,0-0.6-0.2-1-0.5c-0.2-0.1-0.2-0.3-0.2-0.4c0-0.2,0.5-2.9,1.8-8.1c0.1-0.5,0.2-0.7,0.4-0.8
		c0.1,0,0.4-0.1,0.9-0.3c1-0.3,1.7-0.3,1.9-0.3c0.5,0,1.5,0.2,1.9,0.5c0.2,0.1,0.3,0.2,0.3,0.4c0.4,0.9,0.6,1.5,0.6,1.8
		c0,1.2-1,2.1-2.6,3.4C63.5,18.8,64.3,19.7,64.3,20.5z M61.4,16.3c0,0,0.7-0.4,1.5-1.1c0.6-0.6,0.9-1.2,0.9-1.6
		c0-0.3-0.2-0.4-0.7-0.4c-0.7,0-0.9,0.1-1,0.3c0,0.1-0.2,0.5-0.4,1.3C61.4,15.7,61.3,16.1,61.4,16.3C61.3,16.3,61.3,16.3,61.4,16.3z
		"/>
	<path d="M67.7,21.5c0,0-0.1,0-0.1,0h-0.2c-0.1,0-0.3,0-0.4-0.1c-1-0.4-1.4-1.4-1.4-2.9c0-1.3,0.6-3.5,1.9-5.2
		c0.8-1.2,1.3-1.9,2.2-1.9c0.1,0,0.2,0,0.4,0c0.3,0,0.6,0.1,1.1,0.3c1.1,0.4,1.7,1.3,1.7,2.9c0,1.1-0.3,2.4-0.7,3.5
		c-0.6,1.4-1.5,2.5-2.1,3c-0.4,0.4-1,0.6-1.4,0.6h-0.1C68,21.7,67.8,21.5,67.7,21.5z M68.2,19.7c0.3,0,0.7-0.5,1.2-1.4
		c0.6-1.2,1-2.3,1-3.7c0-0.8-0.2-1.2-0.4-1.2c-0.1,0-0.5,0.4-0.9,1.3c-1,1.7-1.3,3.5-1.3,4.1C67.8,19.4,67.9,19.7,68.2,19.7z"/>
	<path d="M74.2,21.6c-0.5,0-0.8-0.3-1.3-0.5c-0.1,0-0.1-0.2-0.1-0.4c0-0.4,0.2-1.4,0.6-3c0.8-3.2,1.3-4.8,1.3-5
		c0.1-0.6,0.5-0.9,1-0.9c0.5,0,1.1,0.2,1.9,0.4c0.1,0,0.1,0.1,0.1,0.2c0,0.3-0.2,1.1-0.3,2.3c-0.1,1.1-0.2,1.8-0.2,2
		c0,0,0,0.1,0.1,0.1c0.2,0,0.6-1.8,1.8-4.3c0.5-1.1,0.4-1.2,0.8-1.2c0.5,0,1.3,0.2,2,0.6c0.2,0.1,0.3,0.2,0.3,0.5
		c0,0.1-0.3,0.7-0.5,1.9c-0.2,1.1-0.5,2.7-1.1,4.7c-0.4,1.5-0.6,2.3-0.6,2.4c0,0.1-0.2,0.2-0.6,0.2c-0.6,0-1.4-0.3-1.4-0.5
		c0-0.1,0.3-0.9,0.7-2.6c0.7-2.7,1.1-4,1.1-4.1c0-0.1,0-0.1-0.1-0.1c-0.2,0-0.8,2.1-2.9,6.2c-0.1,0-0.3-0.1-0.4-0.1c0,0-0.1,0-0.1,0
		c-0.2,0-0.3-0.1-0.5-0.2c-0.1,0-0.2,0-0.2-0.3v-0.4c0-0.4,0-0.8,0-1.4c0-1.5,0.2-2.8,0.2-3.6c0-0.1,0-0.1-0.1-0.1
		c-0.1,0-0.2,1.6-0.8,4.3c-0.3,1.3-0.5,2.1-0.5,2.5v0.1l-0.1,0.2C74.3,21.6,74.2,21.6,74.2,21.6z"/>
</g>
<g>
	<path d="M4.5,38c0-0.2,0-0.5,0-0.7V37c0,0,0-1.3,0.2-3.7c0.1-1.3,0-1.4,0.7-1.4c0.2,0,0.5,0.1,0.8,0.1c0.2,0,0.2,0.1,0.2,0.8
		c0,2.1-0.4,3.5-0.4,3.8c0,0,0,0.1,0,0.1c0.1,0,0.5-1.4,1.6-4.1c0.4-0.9,0.5-1.2,0.6-1.2c0,0,0.1,0,0.1,0c0.1,0,0.2,0,0.2,0
		c0.2,0,0.3,0.1,0.4,0.1H9c0.1,0,0.5,0.3,0.5,0.4c0,0.1-0.6,1.2-1.5,3.1c0,0-0.5,1-1.4,2.9c-0.4,0.8-0.4,0.9-0.5,0.9
		c-0.3,0-0.4-0.1-0.6-0.2c-0.2-0.2-0.4-0.1-0.5-0.2c-0.3-0.1-0.4-0.2-0.5-0.3C4.5,38.2,4.5,38.1,4.5,38z"/>
	<path d="M9.3,38.6c-0.2,0.5-0.1,0.5-0.4,0.5c-0.1,0-0.2,0-0.4,0c-0.1,0-0.2-0.1-0.5-0.3c-0.1-0.1-0.2-0.1-0.2-0.2
		c0-0.3,0.8-2.2,2.5-5.8c0.5-1.1,0.5-1.3,1-1.3c0.2,0,0.4,0,0.6,0.1c0.4,0.1,0.7,0.2,0.8,0.2c0.2,0.1,0.4,0.2,0.4,0.5
		c0,0.2-0.2,1.8-0.4,4.8c-0.1,0.8,0,1.2-0.1,1.3c-0.4,0.2-0.5,0.2-0.7,0.2h-0.2c-0.4,0-0.4-0.2-0.4-0.4v-0.1c0-0.1,0-0.2,0-0.3
		s0-0.2-0.1-0.5c0,0,0-0.1,0-0.1c-0.7,0-1,0.1-1.1,0.1c0,0-0.1,0-0.1,0C9.7,37.4,9.7,37.8,9.3,38.6z M10.6,36c0.5,0,0.5,0,0.5-0.2
		c0-0.1,0-0.3,0.1-0.6c0.2-1.2,0.3-1.9,0.3-2c0,0,0,0,0,0c-0.1,0-0.2,0.3-0.5,1.1c-0.3,1.1-0.6,1.6-0.6,1.6
		C10.4,35.9,10.5,36,10.6,36z M11.7,29.6c0.3-0.3,0.5-0.5,0.6-0.5c0.8,0,1.2,0.3,1.2,0.8c0,0.6-0.9,1.5-1.4,1.5
		c-0.8,0-1.1-0.3-1.1-0.8C11.1,30.3,11.3,29.9,11.7,29.6z M11.9,30.5c0,0.2,0.1,0.4,0.2,0.4c0.1,0,0.6-0.4,0.6-0.9
		c0-0.2-0.1-0.3-0.2-0.3C12.4,29.7,11.9,30.1,11.9,30.5z"/>
	<path d="M17.9,38.1L17.9,38.1c0,0.1-0.5,0.8-0.7,0.8c-0.3,0-0.6-0.4-1.1-1.2c-0.4-0.6-0.5-1-0.6-1c-0.2,0-0.2,0.7-0.5,1.9
		c-0.1,0.3-0.1,0.4-0.6,0.4c0,0-0.4-0.2-0.7-0.4c-0.1-0.1-0.1-0.2-0.1-0.3c0-0.1,0.4-2.1,1.3-5.7C14.9,32.2,15,32,15,32
		c0.1,0,0.3-0.1,0.6-0.2c0.7-0.2,1.2-0.2,1.3-0.2c0.3,0,1.1,0.1,1.4,0.4c0.1,0.1,0.2,0.2,0.2,0.3c0.3,0.6,0.4,1.1,0.4,1.3
		c0,0.8-0.7,1.5-1.8,2.4C17.4,36.9,17.9,37.5,17.9,38.1z M15.8,35.1c0,0,0.5-0.3,1-0.8c0.5-0.4,0.6-0.8,0.6-1.1
		c0-0.2-0.2-0.3-0.5-0.3c-0.5,0-0.7,0.1-0.7,0.2c0,0.1-0.1,0.3-0.3,0.9C15.9,34.7,15.8,35,15.8,35.1C15.8,35.1,15.8,35.1,15.8,35.1z
		"/>
	<path d="M20.9,38c-0.1,0.4-0.1,0.9-0.5,0.9c-0.1,0-0.3-0.2-0.8-0.3c-0.1,0-0.3,0-0.3-0.2c0-0.1,0.4-1.8,1.2-5.1c-0.1,0-0.3,0-0.4,0
		c0,0-0.1,0-0.1,0c-0.1,0-0.2,0-0.3,0h0c-0.1,0-0.1,0-0.1-0.1c0-0.1,0-0.1,0-0.2s0-0.2,0-0.2c0-0.3,0.1-0.6,0.1-0.6
		c0.4-0.2,1-0.2,1.8-0.3c0.5,0,1,0,1.4,0h0.4c0.1,0,0.2,0.4,0.2,1c0,0.3-0.3,0.4-1.3,0.6C21.3,36.2,20.9,37.8,20.9,38z"/>
	<path d="M27.2,34.7v-0.1c0,0,0-0.1,0-0.1c-0.1,0-0.1,0-0.1,0.1c0,0-0.1,1.4-0.6,3.7c-0.1,0.3-0.3,0.6-0.9,0.6
		c-0.1,0-0.3-0.1-0.5-0.1c-0.1,0-0.2,0-0.2-0.2c0-0.1,0.3-1.7,1.1-4.8c0.3-1,0.4-1.6,0.5-1.7c0.1-0.2,0.2-0.2,0.6-0.2
		c0.2,0,0.3,0.1,0.6,0.2c0.1,0,0.2,0,0.3,0.1c0.1,0.1,0.2,0,0.2,0.3c0,0,0,0.1,0,0.3c0,0,0,0.9,0.2,2.8c0,0.5,0,0.7,0.1,0.7
		c0.1,0,0.1-0.1,0.1-0.2c0-0.1,0-0.6,0.1-1.2c0.2-1.1,0.3-2,0.5-2.6c0.1-0.3,0.1-0.5,0.1-0.5c0.1-0.1,0.4-0.2,0.6-0.2
		c0.1,0,0.1,0,0.2,0h0.1c0.2,0,0.6,0.2,0.6,0.2c0,0-0.2,0.8-0.5,2.2c-0.2,1-0.4,2-0.7,3.1c-0.3,1.1-0.4,1.5-0.5,1.5
		c-0.1,0-0.2,0-0.3,0c0,0-0.3,0-0.9-0.2C27.4,37.2,27.2,35.9,27.2,34.7z"/>
	<path d="M32,38.8C32,38.8,32,38.8,32,38.8l-0.2,0c-0.1,0-0.2,0-0.3,0c-0.7-0.3-1-1-1-2c0-0.9,0.5-2.5,1.3-3.7
		c0.6-0.8,0.9-1.4,1.6-1.4c0.1,0,0.1,0,0.3,0c0.2,0,0.4,0.1,0.7,0.2c0.8,0.3,1.2,0.9,1.2,2c0,0.8-0.2,1.7-0.5,2.5
		c-0.4,1-1.1,1.8-1.5,2.2c-0.3,0.2-0.7,0.4-1,0.4h-0.1C32.3,38.9,32.1,38.8,32,38.8z M32.4,37.5c0.2,0,0.5-0.3,0.9-1
		c0.4-0.8,0.7-1.6,0.7-2.6c0-0.6-0.1-0.8-0.3-0.8c-0.1,0-0.3,0.3-0.7,0.9c-0.7,1.2-0.9,2.5-0.9,2.9C32.1,37.3,32.2,37.5,32.4,37.5z"
		/>
	<path d="M39.2,38.1c-0.5,0.6-1.1,0.8-1.7,0.8c-0.9,0-1.8-0.7-1.8-1.9c0-0.7,0.2-1.6,0.7-2.7c0.5-1.1,1-1.9,1.5-2.4
		c0.4-0.4,0.7-0.4,1-0.4c0.4,0,0.7,0.2,1,0.4c0.4,0.3,0.7,0.4,0.7,1.2c0,0.6-0.1,1.1-0.2,1.3c-0.1,0.2-0.4,0.3-0.9,0.3
		c-0.3,0-0.4-0.1-0.4-0.4c0-0.7,0-1.1,0-1.2c0-0.1-0.1-0.2-0.1-0.2c-0.1,0-0.5,0.4-0.9,1.2c-0.6,1.1-0.9,2-0.9,2.7
		c0,0.4,0.1,0.6,0.3,0.6c0.4,0,0.9-0.7,0.9-1c0-0.1,0-0.1-0.1-0.1s-0.1,0-0.1,0c-0.3,0-0.4-0.2-0.4-0.5c0-0.5,0.1-0.7,0.4-0.7
		c0.6,0,1.2-0.1,1.9-0.1h0.1c0.1,0,0.2,0.1,0.2,0.3C40.4,36.1,40,37.2,39.2,38.1z"/>
	<path d="M41.5,38.6c-0.2,0.5-0.1,0.5-0.4,0.5c-0.1,0-0.2,0-0.4,0c-0.1,0-0.2-0.1-0.5-0.3c-0.1-0.1-0.2-0.1-0.2-0.2
		c0-0.3,0.8-2.2,2.5-5.8c0.5-1.1,0.5-1.3,1-1.3c0.2,0,0.4,0,0.6,0.1c0.4,0.1,0.7,0.2,0.8,0.2c0.2,0.1,0.4,0.2,0.4,0.5
		c0,0.2-0.2,1.8-0.4,4.8c-0.1,0.8,0,1.2-0.1,1.3c-0.4,0.2-0.5,0.2-0.7,0.2h-0.2c-0.4,0-0.4-0.2-0.4-0.4v-0.1c0-0.1,0-0.2,0-0.3
		s0-0.2-0.1-0.5c0,0,0-0.1,0-0.1c-0.7,0-1,0.1-1.1,0.1c0,0-0.1,0-0.1,0C42,37.4,41.9,37.8,41.5,38.6z M42.9,36c0.5,0,0.5,0,0.5-0.2
		c0-0.1,0-0.3,0.1-0.6c0.2-1.2,0.3-1.9,0.3-2c0,0,0,0,0,0c-0.1,0-0.2,0.3-0.5,1.1c-0.3,1.1-0.6,1.6-0.6,1.6
		C42.7,35.9,42.7,36,42.9,36z"/>
	<path d="M49.9,38.8c-0.1,0-0.5-0.2-1.1-0.8c-0.3-0.2-0.4-0.4-0.4-1c0-0.4,0.1-1.1,0.4-2.2c0.5-1.8,0.8-2.8,0.8-2.8
		c0.1-0.1,0.3-0.3,0.6-0.3c0.3,0,1,0.3,1,0.6c0,0-0.1,0.2-0.5,1.5C50.3,35.5,50,36.6,50,37c0,0.2,0.1,0.3,0.3,0.3
		c0.7,0,0.9-1.4,1.6-4c0.2-0.9,0.2-1.4,0.3-1.5c0.1-0.1,0.3-0.2,0.6-0.2c0.6,0,1.1,0.5,1.1,0.6c0,0.1-0.2,0.5-0.4,1.4
		c-0.1,0.5-0.3,1.5-0.7,3c-0.4,1.4-1.7,2.3-2.3,2.3C50.2,38.9,50,38.8,49.9,38.8z"/>
	<path d="M55.7,38c-0.1,0.4-0.1,0.9-0.5,0.9c-0.1,0-0.3-0.2-0.8-0.3c-0.1,0-0.3,0-0.3-0.2c0-0.1,0.4-1.8,1.2-5.1c-0.1,0-0.3,0-0.4,0
		c0,0-0.1,0-0.1,0c-0.1,0-0.2,0-0.3,0h0c-0.1,0-0.1,0-0.1-0.1c0-0.1,0-0.1,0-0.2s0-0.2,0-0.2c0-0.3,0.1-0.6,0.2-0.6
		c0.4-0.2,1-0.2,1.8-0.3c0.5,0,1,0,1.4,0H58c0.2,0,0.2,0.4,0.2,1c0,0.3-0.3,0.4-1.3,0.6C56.1,36.2,55.7,37.8,55.7,38z"/>
	<path d="M58.1,38c0-0.2,0-0.5,0-0.7V37c0,0,0-1.3,0.2-3.7c0.1-1.3,0-1.4,0.7-1.4c0.2,0,0.5,0.1,0.8,0.1c0.2,0,0.2,0.1,0.2,0.8
		c0,2.1-0.4,3.5-0.4,3.8c0,0,0,0.1,0,0.1c0.1,0,0.5-1.4,1.6-4.1c0.4-0.9,0.5-1.2,0.6-1.2c0,0,0.1,0,0.1,0c0.1,0,0.2,0,0.2,0
		c0.2,0,0.3,0.1,0.4,0.1h0.1c0.1,0,0.5,0.3,0.5,0.4c0,0.1-0.6,1.2-1.5,3.1c0,0-0.5,1-1.4,2.9c-0.4,0.8-0.4,0.9-0.5,0.9
		c-0.3,0-0.5-0.1-0.6-0.2c-0.2-0.2-0.4-0.1-0.5-0.2c-0.3-0.1-0.4-0.2-0.5-0.3C58.1,38.2,58.1,38.1,58.1,38z"/>
	<path d="M62.9,38.6c-0.2,0.5-0.1,0.5-0.4,0.5c-0.1,0-0.2,0-0.4,0c-0.1,0-0.2-0.1-0.5-0.3c-0.1-0.1-0.2-0.1-0.2-0.2
		c0-0.3,0.8-2.2,2.5-5.8c0.5-1.1,0.5-1.3,1-1.3c0.2,0,0.4,0,0.6,0.1c0.4,0.1,0.7,0.2,0.8,0.2c0.2,0.1,0.4,0.2,0.4,0.5
		c0,0.2-0.2,1.8-0.4,4.8c-0.1,0.8,0,1.2-0.1,1.3c-0.4,0.2-0.5,0.2-0.7,0.2h-0.2c-0.4,0-0.4-0.2-0.4-0.4v-0.1c0-0.1,0-0.2,0-0.3
		s0-0.2-0.1-0.5c0,0,0-0.1,0-0.1c-0.7,0-1,0.1-1.1,0.1c0,0-0.1,0-0.1,0C63.3,37.4,63.2,37.8,62.9,38.6z M64.2,36
		c0.5,0,0.5,0,0.5-0.2c0-0.1,0-0.3,0.1-0.6c0.2-1.2,0.3-1.9,0.3-2c0,0,0,0,0,0c-0.1,0-0.2,0.3-0.4,1.1c-0.3,1.1-0.7,1.6-0.7,1.6
		C64,35.9,64,36,64.2,36z"/>
	<path d="M67.1,38.1c0,0,0.4-2.1,1.3-5.7c0.1-0.5,0.1-0.8,0.7-0.8c0.5,0,1,0.3,1,0.5c0,0.1-0.2,0.8-0.5,2.1
		c-0.4,1.7-0.7,2.6-0.7,2.7c0,0.2,0.2,0.1,0.8,0.3c0.4,0.1,0.6,0.2,0.6,0.4c0,0.1,0,0.2,0,0.3c0,0.1,0,0.2,0,0.3v0.1
		c0,0,0,0.1,0,0.1c0,0-0.1,0.1-0.1,0.1c-0.1,0.1-0.9,0.1-2.5,0.6C67.3,38.6,67.1,38.2,67.1,38.1z"/>
	<path d="M71.5,38.6c-0.4-0.1-0.6-0.2-0.6-0.3c0-0.1,0.5-2,1.3-5.7c0.2-0.8,0.3-1,0.9-1h0.4c1.3,0,2.4,0.9,2.4,2.3
		c0,1.6-0.6,2.7-2,4c-0.7,0.7-1.3,1-1.5,1C72.2,38.9,71.9,38.7,71.5,38.6z M72.8,37.3c0,0,0.4-0.4,0.8-1.1c0.4-0.7,0.7-1.3,0.7-2.2
		c0-0.5-0.1-0.7-0.5-0.7c-0.1,0,0,0.1-0.2,0.5c0,0-0.2,0.6-0.4,1.6c-0.3,1.2-0.5,1.8-0.5,1.8C72.7,37.2,72.7,37.3,72.8,37.3z"/>
	<path d="M76.8,38.6c-0.2,0.5-0.1,0.5-0.4,0.5c-0.1,0-0.2,0-0.4,0c-0.1,0-0.2-0.1-0.5-0.3c-0.1-0.1-0.2-0.1-0.2-0.2
		c0-0.3,0.8-2.2,2.5-5.8c0.5-1.1,0.5-1.3,1-1.3c0.2,0,0.4,0,0.6,0.1c0.4,0.1,0.7,0.2,0.8,0.2c0.2,0.1,0.4,0.2,0.4,0.5
		c0,0.2-0.2,1.8-0.4,4.8c-0.1,0.8,0,1.2-0.1,1.3c-0.4,0.2-0.5,0.2-0.7,0.2h-0.2c-0.4,0-0.4-0.2-0.4-0.4v-0.1c0-0.1,0-0.2,0-0.3
		s0-0.2,0-0.5c0,0,0-0.1,0-0.1c-0.7,0-1,0.1-1.1,0.1c0,0-0.1,0-0.1,0C77.2,37.4,77.2,37.8,76.8,38.6z M78.1,36c0.5,0,0.5,0,0.5-0.2
		c0-0.1,0-0.3,0.1-0.6c0.2-1.2,0.3-1.9,0.3-2c0,0,0,0,0,0c-0.1,0-0.2,0.3-0.5,1.1c-0.3,1.1-0.6,1.6-0.6,1.6C77.9,35.9,78,36,78.1,36
		z"/>
	<path d="M4.2,50.1c0,0,0.4-2.1,1.3-5.7c0.1-0.5,0.1-0.8,0.6-0.8c0.5,0,1,0.3,1,0.5c0,0.1-0.2,0.8-0.5,2.1c-0.4,1.7-0.7,2.6-0.7,2.7
		C6.1,49,6.3,49,7,49.1c0.4,0.1,0.6,0.2,0.6,0.4c0,0.1,0,0.2-0.1,0.3c0,0.1,0,0.2,0,0.3v0.1c0,0,0,0.1,0,0.1c0,0-0.1,0.1-0.1,0.1
		c-0.1,0.1-0.9,0.1-2.5,0.6C4.4,50.6,4.2,50.2,4.2,50.1z"/>
	<path d="M9.6,50.8C9.6,50.8,9.6,50.8,9.6,50.8l-0.2,0c-0.1,0-0.2,0-0.3,0c-0.7-0.3-1-1-1-2c0-0.9,0.5-2.5,1.3-3.7
		c0.6-0.8,0.9-1.4,1.6-1.4c0.1,0,0.1,0,0.3,0c0.2,0,0.4,0.1,0.7,0.2c0.8,0.3,1.2,0.9,1.2,2c0,0.8-0.2,1.7-0.5,2.5
		c-0.4,1-1.1,1.8-1.5,2.2c-0.3,0.2-0.7,0.4-1,0.4h-0.1C9.9,50.9,9.7,50.8,9.6,50.8z M10,49.5c0.2,0,0.5-0.3,0.9-1
		c0.4-0.8,0.7-1.6,0.7-2.6c0-0.6-0.1-0.8-0.3-0.8c-0.1,0-0.3,0.3-0.7,0.9c-0.7,1.2-0.9,2.5-0.9,2.9C9.7,49.3,9.8,49.5,10,49.5z
		 M10.5,42.1c0.2-0.3,0.3-0.4,0.7-0.4c0.3,0,0.5,0.6,0.5,0.6c0,0.2-0.4,0.7-0.7,0.7c-0.3,0-0.7-0.2-0.7-0.5
		C10.3,42.6,10.4,42.2,10.5,42.1z M12.2,42.1c0.2-0.3,0.3-0.4,0.7-0.4c0.3,0,0.5,0.6,0.5,0.6c0,0.2-0.4,0.7-0.7,0.7
		c-0.3,0-0.7-0.2-0.7-0.5C12,42.6,12.1,42.2,12.2,42.1z"/>
	<path d="M14.1,50.9c0,0-0.4-0.1-0.6-0.3c-0.4-0.2-0.7-0.7-0.7-1.1c0-0.5,0.2-1,0.2-1.1c0.1-0.2,0.3-0.2,0.8-0.2
		c0.1,0,0.5,0.2,0.5,0.4c0,0.1,0,0.2,0,0.4c0,0.4-0.1,0.6-0.1,0.7c0,0.1,0,0.1,0.1,0.1c0.3,0,0.6-1.2,1.1-3.6
		c0.3-1.4,0.5-2.2,0.5-2.3c0,0-0.1-0.1-0.1-0.1c0-0.1,0.4-0.2,0.8-0.2c0.4,0,0.6,0.2,0.8,0.2c0.1,0,0.2,0,0.2,0.1
		c0,0.1-0.2,0.4-0.4,1.3c-0.4,1.7-0.6,2.9-0.8,3.6c-0.5,1.5-1.7,2.1-1.8,2.1c0,0-0.1,0-0.2,0C14.3,50.9,14.2,50.9,14.1,50.9z"/>
	<path d="M21.8,50.1L21.8,50.1c0,0.1-0.5,0.8-0.7,0.8c-0.3,0-0.6-0.4-1.1-1.2c-0.4-0.6-0.5-1-0.6-1c-0.2,0-0.2,0.7-0.5,1.9
		c-0.1,0.3-0.1,0.4-0.6,0.4c0,0-0.4-0.2-0.7-0.4c-0.1-0.1-0.1-0.2-0.1-0.3c0-0.1,0.4-2.1,1.3-5.7c0.1-0.3,0.2-0.5,0.2-0.6
		c0.1,0,0.3-0.1,0.6-0.2c0.7-0.2,1.2-0.2,1.3-0.2c0.3,0,1.1,0.1,1.4,0.4c0.1,0.1,0.2,0.2,0.2,0.3c0.3,0.6,0.4,1.1,0.4,1.3
		c0,0.8-0.7,1.5-1.8,2.4C21.2,48.9,21.8,49.5,21.8,50.1z M19.7,47.1c0,0,0.5-0.3,1-0.8c0.5-0.4,0.6-0.8,0.6-1.1
		c0-0.2-0.2-0.3-0.5-0.3c-0.5,0-0.7,0.1-0.7,0.2c0,0.1-0.1,0.3-0.3,0.9C19.7,46.7,19.6,47,19.7,47.1C19.6,47.1,19.7,47.1,19.7,47.1z
		"/>
	<path d="M24.2,50.8C24.2,50.8,24.1,50.8,24.2,50.8l-0.2,0c-0.1,0-0.2,0-0.3,0c-0.7-0.3-1-1-1-2c0-0.9,0.5-2.5,1.3-3.7
		c0.6-0.8,0.9-1.4,1.6-1.4c0.1,0,0.1,0,0.3,0c0.2,0,0.4,0.1,0.7,0.2c0.8,0.3,1.2,0.9,1.2,2c0,0.8-0.2,1.7-0.5,2.5
		c-0.4,1-1.1,1.8-1.5,2.2c-0.3,0.2-0.7,0.4-1,0.4h-0.1C24.5,50.9,24.3,50.8,24.2,50.8z M24.6,49.5c0.2,0,0.5-0.3,0.9-1
		c0.4-0.8,0.7-1.6,0.7-2.6c0-0.6-0.1-0.8-0.3-0.8c-0.1,0-0.3,0.3-0.7,0.9c-0.7,1.2-0.9,2.5-0.9,2.9C24.3,49.3,24.4,49.5,24.6,49.5z"
		/>
	<path d="M28.8,50.9c-0.4,0-0.6-0.2-0.9-0.3c0,0-0.1-0.1-0.1-0.3c0-0.2,0.2-1,0.4-2.1c0.6-2.3,0.9-3.4,0.9-3.6
		c0.1-0.4,0.3-0.6,0.7-0.6c0.3,0,0.8,0.1,1.4,0.3c0.1,0,0.1,0.1,0.1,0.2c0,0.2-0.1,0.8-0.2,1.6c0,0.8-0.1,1.3-0.1,1.4c0,0,0,0,0.1,0
		c0.1,0,0.4-1.3,1.2-3c0.4-0.8,0.3-0.9,0.6-0.9c0.3,0,0.9,0.2,1.4,0.4c0.1,0.1,0.2,0.2,0.2,0.3c0,0.1-0.2,0.5-0.3,1.3
		c-0.1,0.8-0.4,1.9-0.8,3.4c-0.3,1.1-0.4,1.6-0.4,1.7c0,0.1-0.2,0.1-0.4,0.1c-0.5,0-1-0.2-1-0.3c0-0.1,0.2-0.6,0.5-1.8
		c0.5-1.9,0.8-2.8,0.8-2.9c0,0,0-0.1,0-0.1c-0.1,0-0.6,1.5-2,4.4c-0.1,0-0.2-0.1-0.3-0.1c0,0,0,0-0.1,0c-0.1,0-0.2-0.1-0.3-0.1
		C30,50,30,50,30,49.8v-0.3c0-0.3,0-0.6,0-1c0-1.1,0.1-2,0.1-2.5c0-0.1,0-0.1-0.1-0.1c-0.1,0-0.1,1.1-0.6,3
		c-0.2,0.9-0.4,1.5-0.4,1.8v0.1L29,50.9C28.9,50.9,28.8,50.9,28.8,50.9z"/>
	<path d="M34.9,48.4c0.2,0,0.2,0,0.3,0.2c0.2,0.5,0.4,0.7,0.8,0.7c0.2,0,0.5-0.2,0.5-0.6c0-0.3-0.3-0.6-0.8-1.1
		c-0.4-0.4-0.5-0.9-0.5-1.3c0-0.9,0.5-1.7,1.4-2.4c0.4-0.3,0.8-0.4,0.9-0.4c0.3,0,0.5,0.2,0.8,0.3c0.4,0.2,0.8,0.3,0.8,1.2
		c0,0.9-0.3,1.4-0.7,1.4c-0.2,0-0.7-0.1-0.8-0.2c-0.1-0.1-0.2-0.2-0.2-0.3V46c0-0.3,0.1-0.6,0.1-0.7c0-0.1,0-0.1-0.1-0.1
		c-0.1,0-0.6,0.4-0.6,1c0,0.5,0.4,0.7,0.8,1.2c0.4,0.4,0.7,0.8,0.7,1.2c0,1.2-1.1,2.3-2.2,2.3c-0.9,0-1.9-0.8-1.9-1.7
		c0-0.1,0-0.2,0-0.3C34.5,48.6,34.8,48.4,34.9,48.4z"/>
	<path d="M39.4,48.4c0.2,0,0.2,0,0.3,0.2c0.2,0.5,0.4,0.7,0.8,0.7c0.2,0,0.5-0.2,0.5-0.6c0-0.3-0.3-0.6-0.8-1.1
		c-0.4-0.4-0.5-0.9-0.5-1.3c0-0.9,0.5-1.7,1.4-2.4c0.4-0.3,0.8-0.4,0.9-0.4c0.3,0,0.5,0.2,0.8,0.3c0.4,0.2,0.8,0.3,0.8,1.2
		c0,0.9-0.3,1.4-0.7,1.4c-0.2,0-0.7-0.1-0.8-0.2c-0.1-0.1-0.2-0.2-0.2-0.3V46c0-0.3,0.1-0.6,0.1-0.7c0-0.1,0-0.1-0.1-0.1
		c-0.1,0-0.6,0.4-0.6,1c0,0.5,0.4,0.7,0.8,1.2c0.4,0.4,0.7,0.8,0.7,1.2c0,1.2-1.1,2.3-2.2,2.3c-0.9,0-1.9-0.8-1.9-1.7
		c0-0.1,0-0.2,0-0.3C39,48.6,39.2,48.4,39.4,48.4z"/>
	<path d="M44.8,50.8C44.8,50.8,44.7,50.8,44.8,50.8l-0.2,0c-0.1,0-0.2,0-0.3,0c-0.7-0.3-1-1-1-2c0-0.9,0.5-2.5,1.3-3.7
		c0.6-0.8,0.9-1.4,1.6-1.4c0,0,0.1,0,0.3,0c0.2,0,0.4,0.1,0.8,0.2c0.8,0.3,1.2,0.9,1.2,2c0,0.8-0.2,1.7-0.5,2.5
		c-0.5,1-1.1,1.8-1.5,2.2c-0.3,0.2-0.7,0.4-1,0.4h-0.1C45,50.9,44.9,50.8,44.8,50.8z M45.2,49.5c0.2,0,0.5-0.3,0.9-1
		c0.4-0.8,0.7-1.6,0.7-2.6c0-0.6-0.1-0.8-0.3-0.8c-0.1,0-0.3,0.3-0.7,0.9c-0.7,1.2-0.9,2.5-0.9,2.9C44.9,49.3,45,49.5,45.2,49.5z"/>
	<path d="M52.9,50.1L52.9,50.1c0,0.1-0.5,0.8-0.7,0.8c-0.3,0-0.6-0.4-1.1-1.2c-0.4-0.6-0.5-1-0.6-1c-0.2,0-0.2,0.7-0.5,1.9
		c-0.1,0.3-0.1,0.4-0.6,0.4c0,0-0.4-0.2-0.7-0.4c-0.1-0.1-0.1-0.2-0.1-0.3c0-0.1,0.4-2.1,1.3-5.7c0.1-0.3,0.2-0.5,0.2-0.6
		c0.1,0,0.3-0.1,0.6-0.2c0.7-0.2,1.2-0.2,1.3-0.2c0.3,0,1.1,0.1,1.4,0.4c0.1,0.1,0.2,0.2,0.2,0.3c0.3,0.6,0.4,1.1,0.4,1.3
		c0,0.8-0.7,1.5-1.8,2.4C52.3,48.9,52.9,49.5,52.9,50.1z M50.8,47.1c0,0,0.5-0.3,1-0.8c0.5-0.4,0.7-0.8,0.7-1.1
		c0-0.2-0.2-0.3-0.5-0.3c-0.5,0-0.7,0.1-0.7,0.2c0,0.1-0.1,0.3-0.3,0.9C50.8,46.7,50.7,47,50.8,47.1C50.7,47.1,50.7,47.1,50.8,47.1z
		"/>
	<path d="M55.8,50c-0.1,0.4-0.1,0.9-0.5,0.9c-0.1,0-0.3-0.2-0.8-0.3c-0.1,0-0.3,0-0.3-0.2c0-0.1,0.4-1.8,1.2-5.1c-0.2,0-0.3,0-0.4,0
		c0,0-0.1,0-0.1,0c-0.1,0-0.2,0-0.3,0h0c-0.1,0-0.1,0-0.1-0.1c0-0.1,0-0.1,0-0.2s0-0.2,0-0.2c0-0.3,0.1-0.6,0.1-0.6
		c0.4-0.2,1-0.2,1.8-0.3c0.5,0,1,0,1.4,0h0.4c0.2,0,0.2,0.4,0.2,1c0,0.3-0.3,0.4-1.3,0.6C56.2,48.2,55.9,49.8,55.8,50z"/>
	<path d="M58.3,46.8C58.8,45,59,44,59,44c0-0.2,0-0.4,0.7-0.4c0.5,0,1,0.4,1,0.5c0,0.1-0.1,0.2-0.2,0.3c0,0.1-0.1,0.4-0.3,1.1
		c-0.2,0.9-0.4,1.8-0.6,2.6c-0.2,1.2-0.5,2-0.6,2.6c-0.1,0.3-0.2,0.3-0.6,0.3h-0.2c-0.5,0-0.8-0.3-0.8-0.4
		C57.5,50.5,57.7,49.2,58.3,46.8z"/>
	<path d="M61.4,50.9c-0.4,0-0.6-0.2-0.9-0.3c0,0-0.1-0.1-0.1-0.3c0-0.2,0.2-1,0.5-2.1c0.6-2.3,0.9-3.4,0.9-3.6
		c0.1-0.4,0.3-0.6,0.7-0.6c0.3,0,0.8,0.1,1.4,0.3c0.1,0,0.1,0.1,0.1,0.2c0,0.2-0.1,0.8-0.2,1.6c0,0.8-0.1,1.3-0.1,1.4c0,0,0,0,0.1,0
		c0.1,0,0.4-1.3,1.2-3c0.4-0.8,0.3-0.9,0.6-0.9c0.3,0,0.9,0.2,1.4,0.4c0.1,0.1,0.2,0.2,0.2,0.3c0,0.1-0.2,0.5-0.3,1.3
		c-0.1,0.8-0.4,1.9-0.8,3.4c-0.3,1.1-0.4,1.6-0.4,1.7c0,0.1-0.2,0.1-0.4,0.1c-0.5,0-1-0.2-1-0.3c0-0.1,0.2-0.6,0.5-1.8
		c0.5-1.9,0.8-2.8,0.8-2.9c0,0,0-0.1,0-0.1c-0.1,0-0.6,1.5-2,4.4c-0.1,0-0.2-0.1-0.3-0.1c0,0-0.1,0-0.1,0c-0.1,0-0.2-0.1-0.3-0.1
		c-0.1,0-0.1,0-0.1-0.2v-0.3c0-0.3,0-0.6,0-1c0-1.1,0.1-2,0.1-2.5c0-0.1,0-0.1-0.1-0.1c-0.1,0-0.1,1.1-0.6,3
		c-0.2,0.9-0.4,1.5-0.4,1.8v0.1l-0.1,0.1C61.5,50.9,61.4,50.9,61.4,50.9z"/>
	<path d="M67,50c0-0.2,0.3-1.5,1-4.1c0.4-1.4,0.5-2.1,0.7-2.1c0.1,0,0.1,0,0.2,0c0,0,0.1,0,0.1,0c0.2,0,0.4,0.1,0.6,0.1
		c0.2,0,0.5-0.1,0.9-0.1c0.2,0,0.7,0.1,1,0.1c0.2,0,0.3,0.1,0.3,0.7c0,0.2-0.1,0.5-0.1,0.6c-0.1,0.1-0.7,0.1-2,0.2
		c-0.1,0.4-0.2,0.8-0.3,1.2c0.1,0,0.3,0,0.5,0c0.5,0,0.9,0,0.9,0.1c0.1,0.1,0.2,0.4,0.2,0.6c0,0.2-0.1,0.6-0.1,0.6
		C70.7,48,70.1,48,69,48.2c-0.1,0.5-0.2,0.8-0.2,0.9c0,0,0,0.1,0,0.1c0.8,0,1.2-0.1,1.2-0.1c0.1,0,0.1,0,0.1,0.1v0.1
		c0,0.1,0.3,0.2,0.3,0.7c0,0.5-0.1,0.5-0.3,0.5h0c-0.4,0-0.7,0.2-1.2,0.2c-0.4,0.1-0.8,0.1-1.3,0.2C67.2,50.7,67,50.4,67,50z"/>
	<path d="M73.5,46.7v-0.1c0,0,0-0.1,0-0.1c0,0-0.1,0-0.1,0.1c0,0-0.1,1.4-0.6,3.7C72.8,50.7,72.5,51,72,51c-0.1,0-0.3-0.1-0.5-0.1
		c-0.1,0-0.2,0-0.2-0.2c0-0.1,0.3-1.7,1.1-4.8c0.3-1,0.4-1.6,0.5-1.7c0.1-0.2,0.2-0.2,0.6-0.2c0.2,0,0.3,0.1,0.6,0.2
		c0.1,0,0.2,0,0.3,0.1c0.1,0.1,0.2,0,0.2,0.3c0,0,0,0.1,0,0.3c0,0,0,0.9,0.2,2.8c0,0.5,0,0.7,0.1,0.7c0.1,0,0.1-0.1,0.1-0.2
		c0-0.1,0-0.6,0.1-1.2c0.2-1.1,0.3-2,0.5-2.6c0.1-0.3,0.1-0.5,0.1-0.5c0.1-0.1,0.4-0.2,0.6-0.2c0.1,0,0.1,0,0.2,0h0.1
		c0.2,0,0.6,0.2,0.6,0.2c0,0-0.2,0.8-0.5,2.2c-0.2,1-0.4,2-0.7,3.1c-0.3,1.1-0.3,1.5-0.5,1.5c-0.1,0-0.2,0-0.3,0c0,0-0.3,0-0.9-0.2
		C73.8,49.2,73.5,47.9,73.5,46.7z"/>
	<path d="M79,50c-0.1,0.4-0.1,0.9-0.5,0.9c-0.1,0-0.3-0.2-0.8-0.3c-0.1,0-0.3,0-0.3-0.2c0-0.1,0.4-1.8,1.2-5.1c-0.2,0-0.3,0-0.4,0
		c0,0-0.1,0-0.1,0c-0.1,0-0.2,0-0.3,0h0c-0.1,0-0.1,0-0.1-0.1c0-0.1,0-0.1,0-0.2s0-0.2,0-0.2c0-0.3,0.1-0.6,0.2-0.6
		c0.4-0.2,1-0.2,1.8-0.3c0.5,0,1,0,1.4,0h0.4c0.2,0,0.2,0.4,0.2,1c0,0.3-0.3,0.4-1.3,0.6C79.4,48.2,79,49.8,79,50z"/>
</g>
<g>
	<path class="st0" d="M27.6,7.7c-2.2-2.2-5.9-2.2-8.1,0s-2.2,5.9,0,8.1l8.1,8.1l8.1-8.1c2.2-2.2,2.2-5.9,0-8.1
		C33.4,5.4,29.8,5.4,27.6,7.7z"/>
</g>
<g>
	<path d="M21.1,25.8H5.6c-0.3,0-0.5-0.2-0.5-0.5s0.2-0.5,0.5-0.5h15.4c0.3,0,0.5,0.2,0.5,0.5S21.4,25.8,21.1,25.8z"/>
</g>
<g>
	<path d="M81,25.8H34.6c-0.3,0-0.5-0.2-0.5-0.5s0.2-0.5,0.5-0.5H81c0.3,0,0.5,0.2,0.5,0.5S81.3,25.8,81,25.8z"/>
</g>
</svg>
