<?xml version="1.0" encoding="utf-8"?>
<!-- Generator: Adobe Illustrator 26.3.1, SVG Export Plug-In . SVG Version: 6.00 Build 0)  -->
<svg version="1.1" id="Lager_1" xmlns="http://www.w3.org/2000/svg" xmlns:xlink="http://www.w3.org/1999/xlink" x="0px" y="0px"
	 viewBox="0 0 86 56" style="enable-background:new 0 0 86 56;" xml:space="preserve">
<g>
	<path d="M35.1,19.7L35.1,19.7c0,0.3-0.9,1.4-1.3,1.4c-0.5,0-1.1-0.7-2.1-2.2c-0.7-1-1-1.8-1.2-1.8c-0.4,0-0.3,1.3-0.9,3.3
		c-0.1,0.6-0.1,0.8-1,0.8c-0.1,0-0.8-0.3-1.3-0.6c-0.2-0.1-0.3-0.3-0.3-0.6c0-0.3,0.7-3.7,2.3-10.3c0.2-0.6,0.3-1,0.5-1
		c0.1-0.1,0.5-0.2,1.1-0.3c1.3-0.4,2.2-0.4,2.4-0.4c0.6,0,1.9,0.3,2.4,0.6c0.2,0.1,0.3,0.3,0.4,0.5c0.5,1.1,0.7,1.9,0.7,2.3
		c0,1.5-1.2,2.7-3.3,4.3C34.1,17.5,35.1,18.6,35.1,19.7z M31.3,14.3c0.1,0,1-0.5,1.9-1.4c0.8-0.8,1.2-1.5,1.2-2
		c0-0.3-0.3-0.5-0.9-0.5c-0.9,0-1.2,0.1-1.3,0.4c0,0.1-0.2,0.6-0.5,1.6c-0.3,1.1-0.5,1.7-0.5,1.7C31.2,14.2,31.3,14.3,31.3,14.3z"/>
	<path d="M39.4,20.9c0,0-0.1,0-0.1,0H39c-0.1,0-0.3,0-0.5-0.1c-1.2-0.5-1.8-1.7-1.8-3.7c0-1.6,0.8-4.4,2.4-6.7
		C40.2,8.9,40.8,8,41.9,8c0.1,0,0.3,0,0.5,0c0.4,0,0.8,0.2,1.4,0.4c1.5,0.5,2.2,1.7,2.2,3.7c0,1.5-0.3,3-1,4.5
		c-0.8,1.8-1.9,3.2-2.7,3.9c-0.6,0.4-1.3,0.8-1.7,0.8h-0.2C39.9,21.2,39.6,21,39.4,20.9z M40.1,18.6c0.4,0,0.9-0.6,1.5-1.9
		c0.8-1.5,1.3-2.9,1.3-4.7c0-1-0.2-1.5-0.5-1.5c-0.1,0-0.6,0.5-1.2,1.7c-1.2,2.2-1.7,4.4-1.7,5.2C39.5,18.2,39.7,18.6,40.1,18.6z"/>
	<path d="M47.7,21.1c-0.7,0-1.1-0.4-1.6-0.6c-0.1,0-0.1-0.2-0.1-0.5c0-0.5,0.3-1.7,0.8-3.8c1-4.1,1.6-6.2,1.7-6.4
		c0.2-0.8,0.6-1.2,1.2-1.2c0.6,0,1.4,0.2,2.5,0.5c0.1,0.1,0.2,0.1,0.2,0.3c0,0.4-0.2,1.5-0.3,3c-0.1,1.5-0.3,2.3-0.3,2.5
		c0,0.1,0,0.1,0.1,0.1c0.2,0,0.8-2.3,2.3-5.5C54.7,8.2,54.5,8,55.1,8c0.6,0,1.7,0.3,2.5,0.7c0.2,0.1,0.3,0.3,0.3,0.6
		c0,0.1-0.3,0.8-0.6,2.4c-0.3,1.4-0.7,3.4-1.4,6.1c-0.5,1.9-0.8,2.9-0.8,3c0,0.1-0.3,0.2-0.7,0.2c-0.8,0-1.7-0.3-1.7-0.6
		c0-0.1,0.4-1.2,0.9-3.3c0.9-3.4,1.5-5.1,1.5-5.2c0-0.1-0.1-0.1-0.1-0.1c-0.2,0-1,2.7-3.7,8c-0.2,0-0.3-0.1-0.5-0.1
		c-0.1,0-0.1,0-0.1,0c-0.2,0-0.3-0.1-0.6-0.2c-0.1,0-0.2-0.1-0.2-0.3v-0.6c0-0.5,0-1.1,0-1.7c0-2,0.3-3.6,0.3-4.6
		c0-0.1,0-0.2-0.1-0.2c-0.2,0-0.3,2-1,5.5c-0.4,1.7-0.6,2.7-0.6,3.2v0.1l-0.2,0.2C47.9,21.1,47.8,21.1,47.7,21.1z"/>
</g>
<g>
	<path d="M16.7,38.1c0,0,0.4-2.1,1.3-5.7c0.1-0.5,0.1-0.8,0.6-0.8c0.5,0,1,0.3,1,0.5c0,0.1-0.2,0.8-0.5,2.1
		c-0.4,1.7-0.7,2.6-0.7,2.7c0,0.2,0.2,0.1,0.8,0.3c0.4,0.1,0.6,0.2,0.6,0.4c0,0.1,0,0.2-0.1,0.3c0,0.1,0,0.2,0,0.3v0.1
		c0,0,0,0.1,0,0.1c0,0-0.1,0.1-0.1,0.1c-0.1,0.1-0.9,0.1-2.5,0.6C16.9,38.6,16.7,38.2,16.7,38.1z"/>
	<path d="M22.1,38.8C22.1,38.8,22,38.8,22.1,38.8l-0.2,0c-0.1,0-0.2,0-0.3,0c-0.7-0.3-1-1-1-2c0-0.9,0.5-2.5,1.3-3.7
		c0.6-0.8,0.9-1.4,1.6-1.4c0.1,0,0.1,0,0.3,0c0.2,0,0.4,0.1,0.7,0.2c0.8,0.3,1.2,0.9,1.2,2c0,0.8-0.2,1.7-0.5,2.5
		c-0.4,1-1.1,1.8-1.5,2.2c-0.3,0.2-0.7,0.4-1,0.4h-0.1C22.4,38.9,22.2,38.8,22.1,38.8z M22.5,37.5c0.2,0,0.5-0.3,0.9-1
		c0.4-0.8,0.7-1.6,0.7-2.6c0-0.6-0.1-0.8-0.3-0.8c-0.1,0-0.3,0.3-0.7,0.9c-0.7,1.2-0.9,2.5-0.9,2.9C22.2,37.3,22.3,37.5,22.5,37.5z"
		/>
	<path d="M30.2,38.1L30.2,38.1c0,0.1-0.5,0.8-0.7,0.8c-0.3,0-0.6-0.4-1.1-1.2c-0.4-0.6-0.5-1-0.6-1c-0.2,0-0.2,0.7-0.5,1.9
		c-0.1,0.3-0.1,0.4-0.6,0.4c0,0-0.4-0.2-0.7-0.4c-0.1-0.1-0.1-0.2-0.1-0.3c0-0.1,0.4-2.1,1.3-5.7c0.1-0.3,0.2-0.5,0.2-0.6
		c0.1,0,0.3-0.1,0.6-0.2c0.7-0.2,1.2-0.2,1.3-0.2c0.3,0,1.1,0.1,1.4,0.4c0.1,0.1,0.2,0.2,0.2,0.3c0.3,0.6,0.4,1.1,0.4,1.3
		c0,0.8-0.7,1.5-1.8,2.4C29.6,36.9,30.2,37.5,30.2,38.1z M28.1,35.1c0,0,0.5-0.3,1-0.8c0.5-0.4,0.6-0.8,0.6-1.1
		c0-0.2-0.2-0.3-0.5-0.3c-0.5,0-0.7,0.1-0.7,0.2c0,0.1-0.1,0.3-0.3,0.9C28.1,34.7,28,35,28.1,35.1C28,35.1,28,35.1,28.1,35.1z"/>
	<path d="M31.1,38c0-0.2,0.3-1.5,1-4.1c0.4-1.4,0.5-2.1,0.7-2.1c0.1,0,0.1,0,0.2,0c0,0,0.1,0,0.1,0c0.2,0,0.4,0.1,0.6,0.1
		c0.2,0,0.5-0.1,0.9-0.1c0.2,0,0.7,0.1,1,0.1c0.2,0,0.3,0.1,0.3,0.7c0,0.2-0.1,0.5-0.1,0.6c-0.1,0.1-0.7,0.1-2,0.2
		c-0.1,0.4-0.2,0.8-0.3,1.2c0.1,0,0.3,0,0.5,0c0.5,0,0.9,0,0.9,0.1c0.1,0.1,0.2,0.4,0.2,0.6c0,0.2-0.1,0.6-0.1,0.6
		C34.8,36,34.2,36,33,36.2c-0.1,0.5-0.2,0.8-0.2,0.9c0,0,0,0.1,0,0.1c0.8,0,1.2-0.1,1.2-0.1c0.1,0,0.1,0,0.1,0.1v0.1
		c0,0.1,0.3,0.2,0.3,0.7c0,0.5-0.1,0.5-0.3,0.5h0c-0.4,0-0.7,0.2-1.2,0.2c-0.4,0.1-0.8,0.1-1.3,0.2C31.3,38.7,31.1,38.4,31.1,38z"/>
	<path d="M36.4,38.9c-0.4,0-0.6-0.2-0.9-0.3c0,0-0.1-0.1-0.1-0.3c0-0.2,0.2-1,0.4-2.1c0.6-2.3,0.9-3.4,0.9-3.6
		c0.1-0.4,0.3-0.6,0.7-0.6c0.3,0,0.8,0.1,1.4,0.3c0.1,0,0.1,0.1,0.1,0.2c0,0.2-0.1,0.8-0.2,1.6c0,0.8-0.1,1.3-0.1,1.4c0,0,0,0,0.1,0
		c0.1,0,0.4-1.3,1.2-3c0.4-0.8,0.3-0.9,0.6-0.9c0.3,0,0.9,0.2,1.4,0.4c0.1,0.1,0.2,0.2,0.2,0.3c0,0.1-0.2,0.5-0.3,1.3
		c-0.1,0.8-0.4,1.9-0.8,3.4c-0.3,1.1-0.4,1.6-0.4,1.7c0,0.1-0.2,0.1-0.4,0.1c-0.5,0-1-0.2-1-0.3c0-0.1,0.2-0.6,0.5-1.8
		c0.5-1.9,0.8-2.8,0.8-2.9c0,0,0-0.1,0-0.1c-0.1,0-0.6,1.5-2,4.4c-0.1,0-0.2-0.1-0.3-0.1c0,0,0,0-0.1,0c-0.1,0-0.2-0.1-0.3-0.1
		c-0.1,0-0.1,0-0.1-0.2v-0.3c0-0.3,0-0.6,0-1c0-1.1,0.1-2,0.1-2.5c0-0.1,0-0.1-0.1-0.1c-0.1,0-0.1,1.1-0.6,3
		c-0.2,0.9-0.4,1.5-0.4,1.8v0.1l-0.1,0.1C36.5,38.9,36.5,38.9,36.4,38.9z"/>
	<path d="M45.2,34.8c0.5-1.9,0.7-2.8,0.7-2.8c0-0.2,0-0.4,0.7-0.4c0.5,0,1,0.4,1,0.5c0,0.1-0.1,0.2-0.2,0.3c0,0.1-0.1,0.4-0.3,1.1
		c-0.2,0.9-0.4,1.8-0.5,2.6c-0.2,1.2-0.5,2-0.6,2.6c-0.1,0.3-0.2,0.3-0.6,0.3h-0.2c-0.5,0-0.8-0.3-0.8-0.4
		C44.3,38.5,44.6,37.2,45.2,34.8z"/>
	<path d="M48.7,38.7c0,0.2-0.1,0.3-0.4,0.3c-0.2,0-0.5-0.1-0.8-0.2c-0.1,0-0.2,0-0.3-0.1c0,0,0-0.2,0-0.2c0-0.2,0.2-1.1,0.6-2.8
		c0.5-2.3,0.8-3.4,0.8-3.4c0.2-0.5,0.5-0.6,0.7-0.6c0.1,0,0.2,0,0.3,0c0.2,0,0.3,0,0.3,0c0.1,0,0.2,0,0.3,0c0.1,0,0.2,0,0.3,0
		c0.8,0,1.7,0.7,1.7,1.8c0,1.2-1.2,2.7-3.1,3.3C48.9,37.9,48.7,38.6,48.7,38.7z M50.7,33.5c0-0.4-0.2-0.6-0.5-0.6
		c-0.1,0-0.2,0.8-0.6,2.3C50.1,35.1,50.7,34.2,50.7,33.5z"/>
	<path d="M52.5,36.4c0.2,0,0.2,0,0.3,0.2c0.2,0.5,0.4,0.7,0.8,0.7c0.2,0,0.5-0.2,0.5-0.6c0-0.3-0.3-0.6-0.8-1.1
		c-0.4-0.4-0.5-0.9-0.5-1.3c0-0.9,0.5-1.7,1.4-2.4c0.4-0.3,0.8-0.4,0.9-0.4c0.3,0,0.5,0.2,0.8,0.3c0.4,0.2,0.8,0.3,0.8,1.2
		c0,0.9-0.3,1.4-0.7,1.4c-0.2,0-0.7-0.1-0.8-0.2c-0.1-0.1-0.2-0.2-0.2-0.3V34c0-0.3,0.1-0.6,0.1-0.7c0-0.1,0-0.1-0.1-0.1
		c-0.1,0-0.6,0.4-0.6,1c0,0.5,0.4,0.7,0.8,1.2c0.4,0.4,0.7,0.8,0.7,1.2c0,1.2-1.1,2.3-2.2,2.3c-1,0-1.9-0.8-1.9-1.7
		c0-0.1,0-0.2,0-0.3C52.1,36.6,52.4,36.4,52.5,36.4z"/>
	<path d="M58.1,38.8c-0.1,0-0.5-0.2-1.1-0.8c-0.3-0.2-0.4-0.4-0.4-1c0-0.4,0.1-1.1,0.4-2.2c0.5-1.8,0.8-2.8,0.8-2.8
		c0.1-0.1,0.3-0.3,0.6-0.3c0.3,0,1,0.3,1,0.6c0,0-0.1,0.2-0.5,1.5c-0.4,1.6-0.7,2.6-0.7,3.1c0,0.2,0.1,0.3,0.3,0.3
		c0.7,0,0.9-1.4,1.6-4c0.2-0.9,0.2-1.4,0.3-1.5c0.1-0.1,0.3-0.2,0.6-0.2c0.6,0,1.1,0.5,1.1,0.6c0,0.1-0.2,0.5-0.4,1.4
		c-0.1,0.5-0.3,1.5-0.7,3c-0.4,1.4-1.7,2.3-2.3,2.3C58.4,38.9,58.2,38.8,58.1,38.8z"/>
	<path d="M62.7,38.9c-0.4,0-0.6-0.2-0.9-0.3c0,0-0.1-0.1-0.1-0.3c0-0.2,0.2-1,0.5-2.1c0.6-2.3,0.9-3.4,0.9-3.6
		c0.1-0.4,0.3-0.6,0.7-0.6c0.3,0,0.8,0.1,1.4,0.3c0.1,0,0.1,0.1,0.1,0.2c0,0.2-0.1,0.8-0.2,1.6c0,0.8-0.1,1.3-0.1,1.4c0,0,0,0,0.1,0
		c0.1,0,0.4-1.3,1.2-3c0.4-0.8,0.3-0.9,0.6-0.9c0.3,0,0.9,0.2,1.4,0.4c0.1,0.1,0.2,0.2,0.2,0.3c0,0.1-0.2,0.5-0.4,1.3
		c-0.1,0.8-0.4,1.9-0.8,3.4c-0.3,1.1-0.4,1.6-0.4,1.7c0,0.1-0.2,0.1-0.4,0.1c-0.5,0-1-0.2-1-0.3c0-0.1,0.2-0.6,0.5-1.8
		c0.5-1.9,0.8-2.8,0.8-2.9c0,0,0-0.1-0.1-0.1c-0.1,0-0.6,1.5-2,4.4c-0.1,0-0.2-0.1-0.3-0.1c0,0,0,0-0.1,0c-0.1,0-0.2-0.1-0.3-0.1
		c-0.1,0-0.1,0-0.1-0.2v-0.3c0-0.3,0-0.6,0-1c0-1.1,0.1-2,0.1-2.5c0-0.1,0-0.1-0.1-0.1c-0.1,0-0.1,1.1-0.6,3
		c-0.2,0.9-0.4,1.5-0.4,1.8v0.1l-0.1,0.1C62.8,38.9,62.8,38.9,62.7,38.9z"/>
</g>
<g>
	<path d="M81,25.8H6c-0.3,0-0.5-0.2-0.5-0.5s0.2-0.5,0.5-0.5h75c0.3,0,0.5,0.2,0.5,0.5S81.3,25.8,81,25.8z"/>
</g>
</svg>
