<?xml version="1.0" encoding="utf-8"?>
<!-- Generator: Adobe Illustrator 26.3.1, SVG Export Plug-In . SVG Version: 6.00 Build 0)  -->
<svg version="1.1" id="Lager_1" xmlns="http://www.w3.org/2000/svg" xmlns:xlink="http://www.w3.org/1999/xlink" x="0px" y="0px"
	 viewBox="0 0 86 56" style="enable-background:new 0 0 86 56;" xml:space="preserve">
<style type="text/css">
	.st0{fill:#CB5252;}
</style>
<g>
	<path d="M9.2,21.7c0.4,0,0.4,0,0.5,0.4c0.3,0.8,0.8,1.3,1.4,1.3c0.5,0,0.9-0.4,0.9-1c0-0.5-0.6-1-1.5-2c-0.6-0.7-1-1.5-1-2.3
		c0-1.6,0.9-3.1,2.5-4.4c0.7-0.5,1.5-0.8,1.7-0.8c0.6,0,0.9,0.4,1.4,0.6c0.7,0.4,1.4,0.5,1.4,2.2c0,1.5-0.6,2.6-1.3,2.6
		c-0.4,0-1.3-0.2-1.5-0.3c-0.3-0.1-0.3-0.3-0.3-0.6v-0.3c0-0.6,0.1-1.1,0.1-1.3c0-0.1-0.1-0.2-0.2-0.2c-0.2,0-1.1,0.8-1.1,1.8
		c0,0.8,0.7,1.4,1.5,2.2c0.8,0.8,1.2,1.4,1.2,2.2c0,2.1-2,4.2-4.1,4.2c-1.7,0-3.3-1.4-3.3-3.2c0-0.1,0-0.3,0-0.5
		C8.5,22,8.9,21.7,9.2,21.7z"/>
	<path d="M23.9,24.1c0,0.3-0.4,0.7-0.5,0.8c-0.3,0.2-0.8,0.8-1,0.8c-0.7,0-1.5-1.3-2.1-4.1c-0.1-0.5-0.1-0.8-0.3-0.8
		c-0.2,0-0.2,0.9-0.8,3.1c-0.4,1.3-0.5,2.1-1,2.1c0,0-0.7-0.2-1.8-0.6c-0.3-0.1-0.5-0.4-0.5-0.6c0-0.1,0.2-0.5,0.4-1.4
		c0.1-0.2,0.4-1.9,1.2-5c0.7-2.9,1.1-4.5,1.1-4.6c0-0.1,0-0.1,0-0.2c0-0.1,0.3-0.4,0.3-0.4c0.1,0,0.3,0.1,0.6,0.1
		c0.5,0.1,1,0.1,1.3,0.1c0.4,0.1,0.6,0.3,0.6,0.5c0,0-0.1,0.9-0.4,1.9c-0.5,1.6-0.8,2.4-0.8,2.5c0,0,0,0.1,0.1,0.1
		c0.1,0,1-1.3,2.9-4.1c0.9-1.3,1.5-1.9,1.6-1.9c0.5,0,0.3,0.1,0.5,0.4c0.3,0.5,1,0.8,1,1.2c0,0.3-1.5,1.9-3.9,5.8
		C23.5,22.5,23.9,23.9,23.9,24.1z"/>
	<path d="M26.5,25.6c-0.4,0.9-0.2,1-0.7,1c-0.2,0-0.4,0-0.7,0c-0.1,0-0.5-0.2-1-0.6c-0.2-0.1-0.3-0.2-0.3-0.3
		c0-0.5,1.4-4.1,4.5-10.4c1-2,0.9-2.3,1.8-2.3c0.3,0,0.7,0.1,1.1,0.2c0.8,0.3,1.3,0.3,1.5,0.4c0.4,0.2,0.6,0.5,0.6,0.8
		c0,0.4-0.4,3.3-0.8,8.7c-0.1,1.4,0,2.2-0.2,2.3c-0.7,0.4-1,0.4-1.3,0.4h-0.4c-0.7,0-0.8-0.3-0.8-0.7v-0.2c0-0.2,0-0.4,0-0.5
		c0-0.1-0.1-0.4-0.1-1c0-0.1,0-0.1-0.1-0.1c-1.2,0-1.9,0.1-2,0.1c-0.1,0-0.1,0-0.2,0C27.3,23.4,27.2,24.2,26.5,25.6z M28.9,20.8
		c0.8,0,0.9,0,1-0.3c0.1-0.2,0.1-0.6,0.1-1.2c0.3-2.2,0.6-3.3,0.6-3.5c0-0.1,0-0.1-0.1-0.1c-0.2,0-0.4,0.6-0.8,2
		c-0.6,1.9-1.2,2.8-1.2,3C28.5,20.8,28.6,20.8,28.9,20.8z"/>
	<path d="M34.2,24.7c0-0.1,0.7-3.8,2.4-10.3c0.2-0.8,0.1-1.5,1.2-1.5c0.8,0,1.9,0.5,1.9,0.8c0,0.2-0.3,1.4-0.8,3.7
		c-0.7,3.1-1.2,4.7-1.2,4.9c0,0.4,0.4,0.3,1.5,0.5c0.7,0.2,1,0.3,1,0.6c0,0.1-0.1,0.3-0.1,0.5c0,0.2,0,0.4,0,0.5v0.1
		c0,0.1,0,0.1,0,0.2c0,0.1-0.1,0.2-0.2,0.3c-0.1,0.1-1.6,0.1-4.5,1C34.5,25.7,34.2,24.8,34.2,24.7z"/>
	<path d="M42.1,25.6c-0.7-0.2-1.1-0.3-1.1-0.5c0-0.2,0.8-3.6,2.4-10.3c0.3-1.4,0.5-1.8,1.6-1.8h0.8c2.4,0,4.3,1.5,4.3,4.2
		c0,2.9-1.2,4.9-3.6,7.1c-1.3,1.2-2.4,1.8-2.6,1.8C43.4,26.1,42.9,25.8,42.1,25.6z M44.4,23.2c0,0,0.8-0.7,1.5-1.9
		c0.7-1.2,1.2-2.3,1.2-3.9c0-0.9-0.2-1.3-1-1.3c-0.1,0-0.1,0.1-0.3,0.9c0,0.1-0.3,1-0.7,2.8c-0.5,2.2-0.8,3.2-0.8,3.3
		C44.2,23.1,44.3,23.2,44.4,23.2z"/>
	<path d="M51.6,26.2c0,0-0.7-0.3-1.1-0.5c-0.7-0.4-1.2-1.2-1.2-2s0.3-1.9,0.5-2.1c0.2-0.3,0.6-0.3,1.4-0.3c0.3,0,1,0.3,1,0.8
		c0,0.2,0,0.4,0,0.6c0,0.7-0.2,1.1-0.2,1.3c0,0.1,0.1,0.2,0.2,0.2c0.5,0,1-2.2,1.9-6.4c0.6-2.6,1-3.9,1-4.1c0-0.1-0.1-0.1-0.1-0.3
		c0-0.3,0.7-0.4,1.5-0.4c0.7,0,1.1,0.3,1.5,0.4c0.3,0.1,0.4,0,0.4,0.2c0,0.1-0.3,0.7-0.7,2.3c-0.8,3-1.1,5.2-1.5,6.5
		c-1,2.7-3,3.8-3.3,3.8c-0.1,0-0.2,0-0.3,0C52,26.2,51.8,26.2,51.6,26.2z"/>
	<path d="M60.7,25.9c-0.1,0-0.8-0.5-2.1-1.5C58.2,24,58,23.8,58,22.7c0-0.7,0.2-2,0.7-3.9c0.8-3.3,1.4-5,1.4-5
		c0.2-0.2,0.5-0.5,1.1-0.5c0.5,0,1.7,0.6,1.7,1.1c0,0.1-0.2,0.4-0.8,2.8c-0.7,2.9-1.3,4.8-1.3,5.5c0,0.3,0.2,0.5,0.5,0.5
		c1.2,0,1.7-2.5,2.8-7.3c0.4-1.7,0.4-2.4,0.6-2.6c0.2-0.2,0.6-0.3,1-0.3c1.1,0,1.9,1,1.9,1.1c0,0.1-0.3,0.9-0.7,2.6
		c-0.2,0.9-0.5,2.7-1.3,5.3c-0.7,2.6-3,4.1-4.2,4.1C61.2,26.1,60.9,25.9,60.7,25.9z"/>
	<path d="M75.2,24.7L75.2,24.7c0,0.3-0.9,1.4-1.3,1.4c-0.5,0-1.1-0.7-2.1-2.2c-0.7-1-1-1.8-1.2-1.8c-0.4,0-0.3,1.3-0.9,3.3
		c-0.1,0.6-0.1,0.8-1,0.8c-0.1,0-0.8-0.3-1.3-0.6c-0.2-0.1-0.3-0.3-0.3-0.6c0-0.3,0.7-3.7,2.3-10.3c0.2-0.6,0.3-1,0.5-1
		c0.1-0.1,0.5-0.2,1.1-0.3c1.3-0.4,2.2-0.4,2.4-0.4c0.6,0,1.9,0.3,2.4,0.6c0.2,0.1,0.3,0.3,0.4,0.5c0.5,1.1,0.7,1.9,0.7,2.3
		c0,1.5-1.2,2.7-3.3,4.3C74.2,22.5,75.2,23.6,75.2,24.7z M71.4,19.3c0.1,0,1-0.5,1.9-1.4c0.8-0.8,1.2-1.5,1.2-2
		c0-0.3-0.3-0.5-0.9-0.5c-0.9,0-1.2,0.1-1.3,0.4c0,0.1-0.2,0.6-0.5,1.6c-0.3,1.1-0.5,1.7-0.5,1.7C71.3,19.2,71.3,19.3,71.4,19.3z"/>
</g>
<g>
	<path d="M6.7,43.6c-0.2,0.4-0.1,0.4-0.3,0.4c-0.1,0-0.2,0-0.3,0c-0.1,0-0.2-0.1-0.4-0.3c-0.1-0.1-0.1-0.1-0.1-0.2
		c0-0.2,0.6-1.8,2-4.6c0.4-0.9,0.4-1,0.8-1c0.1,0,0.3,0,0.5,0.1c0.3,0.1,0.6,0.1,0.7,0.2c0.2,0.1,0.3,0.2,0.3,0.4
		c0,0.2-0.2,1.5-0.3,3.8c0,0.6,0,1-0.1,1c-0.3,0.2-0.4,0.2-0.6,0.2H8.5c-0.3,0-0.4-0.1-0.4-0.3v-0.1c0-0.1,0-0.2,0-0.2
		c0-0.1,0-0.2,0-0.4c0,0,0,0,0,0c-0.5,0-0.8,0-0.9,0c0,0-0.1,0-0.1,0C7.1,42.6,7,43,6.7,43.6z M7.8,41.5c0.4,0,0.4,0,0.4-0.2
		c0-0.1,0-0.3,0.1-0.5c0.1-1,0.2-1.5,0.2-1.6c0,0,0,0,0,0c-0.1,0-0.2,0.3-0.4,0.9c-0.3,0.8-0.5,1.3-0.5,1.3
		C7.6,41.5,7.7,41.5,7.8,41.5z"/>
	<path d="M10.1,43.2c0,0,0.3-1.7,1.1-4.6c0.1-0.4,0.1-0.7,0.5-0.7c0.4,0,0.8,0.2,0.8,0.4c0,0.1-0.1,0.6-0.4,1.6
		c-0.3,1.4-0.5,2.1-0.5,2.2c0,0.2,0.2,0.1,0.7,0.2c0.3,0.1,0.5,0.1,0.5,0.3c0,0,0,0.1,0,0.2c0,0.1,0,0.2,0,0.2v0.1c0,0,0,0.1,0,0.1
		c0,0,0,0.1-0.1,0.1c-0.1,0-0.7,0.1-2,0.5C10.3,43.6,10.1,43.3,10.1,43.2z"/>
	<path d="M13.2,43.2c0,0,0.3-1.7,1.1-4.6c0.1-0.4,0.1-0.7,0.5-0.7c0.4,0,0.8,0.2,0.8,0.4c0,0.1-0.1,0.6-0.4,1.6
		c-0.3,1.4-0.5,2.1-0.5,2.2c0,0.2,0.2,0.1,0.7,0.2c0.3,0.1,0.5,0.1,0.5,0.3c0,0,0,0.1,0,0.2c0,0.1,0,0.2,0,0.2v0.1c0,0,0,0.1,0,0.1
		c0,0,0,0.1-0.1,0.1c-0.1,0-0.7,0.1-2,0.5C13.4,43.6,13.2,43.3,13.2,43.2z"/>
	<path d="M17.5,43.1c-0.1,0.3-0.1,0.7-0.4,0.7c-0.1,0-0.3-0.1-0.7-0.2c-0.1,0-0.2,0-0.2-0.2c0-0.1,0.3-1.4,0.9-4.1
		c-0.1,0-0.2,0-0.3,0c0,0,0,0-0.1,0c-0.1,0-0.2,0-0.3,0h0c0,0-0.1,0-0.1-0.1c0,0,0-0.1,0-0.2c0-0.1,0-0.1,0-0.2c0-0.2,0-0.5,0.1-0.5
		c0.3-0.1,0.8-0.2,1.4-0.2c0.4,0,0.8,0,1.1,0h0.3c0.1,0,0.2,0.3,0.2,0.8c0,0.3-0.2,0.3-1.1,0.5C17.9,41.7,17.6,43,17.5,43.1z"/>
	<path d="M19.6,40.6c0.4-1.5,0.6-2.3,0.6-2.3c0-0.2,0-0.3,0.6-0.3c0.4,0,0.8,0.3,0.8,0.4c0,0.1-0.1,0.1-0.1,0.3
		c0,0.1-0.1,0.4-0.2,0.9c-0.2,0.7-0.3,1.4-0.4,2c-0.2,0.9-0.4,1.6-0.5,2.1c-0.1,0.2-0.2,0.2-0.5,0.2h-0.1c-0.4,0-0.7-0.3-0.7-0.3
		C18.9,43.5,19.1,42.5,19.6,40.6z"/>
	<path d="M21.7,43.6c-0.3-0.1-0.5-0.1-0.5-0.2c0-0.1,0.4-1.6,1.1-4.6c0.1-0.6,0.2-0.8,0.7-0.8h0.3c1.1,0,1.9,0.7,1.9,1.8
		c0,1.3-0.5,2.2-1.6,3.2c-0.6,0.5-1.1,0.8-1.2,0.8C22.3,43.8,22,43.7,21.7,43.6z M22.7,42.5c0,0,0.3-0.3,0.7-0.9
		c0.3-0.5,0.5-1,0.5-1.7c0-0.4-0.1-0.6-0.4-0.6c-0.1,0,0,0-0.1,0.4c0,0-0.1,0.5-0.3,1.3C22.8,42,22.6,42.4,22.7,42.5
		C22.6,42.5,22.7,42.5,22.7,42.5z"/>
	<path d="M28.1,43.8c-0.5,0-0.8-0.2-0.8-0.5v-0.1c0-0.9,0.4-1.8,0.5-2.7c0-0.1,0.1-0.5,0.3-1.2c0.1-0.6,0.2-0.8,0.2-0.9
		c0,0,0,0,0-0.1c0,0,0.1-0.1,0.1-0.3l0.1-0.1c0.1,0,0.2-0.1,0.3-0.1c0.3,0,0.5,0.2,0.6,0.2h0.1c0.1,0,0.1,0,0.1,0.1l-0.1,0.3
		c-0.2,1.1-0.4,1.6-0.4,1.7c0,0,0.1,0,0.2,0c0.3,0,0.5,0,0.6-0.1c0,0,0.1-0.4,0.2-1.1c0.2-0.8,0.3-1.2,0.3-1.3
		c0-0.2,0.1-0.2,0.6-0.2c0.3,0,0.3,0.1,0.4,0.2c0.1,0.1,0.2,0.1,0.2,0.2v0c0,0,0,0.1,0,0.1c0,0,0,0.1-0.1,0.2c0,0-0.1,0.5-0.3,1.5
		c0,0.2-0.3,1.4-0.9,3.7c-0.2,0-0.3,0.1-0.4,0.1c-0.3,0-0.7-0.1-0.7-0.4c0-0.9,0.3-1.6,0.3-1.8c0,0,0,0-0.1,0c-0.6,0-0.5,0-0.6,0.5
		c0,0.1-0.2,0.7-0.4,1.7C28.4,43.8,28.3,43.8,28.1,43.8z"/>
	<path d="M32.8,43.8C32.7,43.8,32.7,43.8,32.8,43.8l-0.2,0c-0.1,0-0.1,0-0.2,0c-0.6-0.2-0.8-0.8-0.8-1.6c0-0.7,0.4-2,1.1-3
		c0.5-0.7,0.7-1.1,1.2-1.1c0,0,0.1,0,0.2,0c0.2,0,0.4,0.1,0.6,0.2c0.6,0.2,1,0.8,1,1.6c0,0.6-0.1,1.4-0.4,2
		c-0.4,0.8-0.8,1.4-1.2,1.7c-0.2,0.2-0.6,0.4-0.8,0.4h-0.1C33,43.9,32.8,43.8,32.8,43.8z M33.1,42.7c0.2,0,0.4-0.3,0.7-0.8
		c0.3-0.7,0.6-1.3,0.6-2.1c0-0.4-0.1-0.7-0.2-0.7c-0.1,0-0.3,0.2-0.5,0.7c-0.5,1-0.7,2-0.7,2.3C32.8,42.6,32.9,42.7,33.1,42.7z
		 M33.5,36.8c0.1-0.2,0.3-0.3,0.5-0.3c0.2,0,0.4,0.5,0.4,0.5c0,0.2-0.4,0.5-0.6,0.5c-0.3,0-0.5-0.2-0.5-0.4
		C33.3,37.2,33.4,36.9,33.5,36.8z M34.9,36.8c0.1-0.2,0.3-0.3,0.5-0.3c0.2,0,0.4,0.5,0.4,0.5c0,0.2-0.4,0.5-0.6,0.5
		c-0.3,0-0.5-0.2-0.5-0.4C34.7,37.2,34.8,36.9,34.9,36.8z"/>
	<path d="M38.5,43.2c-0.4,0.5-0.9,0.7-1.3,0.7c-0.8,0-1.4-0.6-1.4-1.5c0-0.6,0.2-1.3,0.6-2.1c0.4-0.9,0.8-1.5,1.2-1.9
		c0.3-0.3,0.5-0.3,0.8-0.3c0.3,0,0.5,0.2,0.8,0.3c0.3,0.2,0.5,0.3,0.5,1c0,0.5-0.1,0.9-0.2,1.1c-0.1,0.1-0.4,0.2-0.7,0.2
		c-0.2,0-0.3-0.1-0.3-0.3c0-0.6,0-0.9,0-0.9c0-0.1,0-0.1-0.1-0.1c-0.1,0-0.4,0.3-0.7,1c-0.5,0.9-0.7,1.6-0.7,2.2
		c0,0.3,0.1,0.5,0.3,0.5c0.3,0,0.7-0.6,0.7-0.8c0-0.1,0-0.1,0-0.1s-0.1,0-0.1,0c-0.2,0-0.3-0.1-0.3-0.4c0-0.4,0.1-0.5,0.3-0.5
		c0.5,0,1-0.1,1.5-0.1h0.1c0.1,0,0.1,0.1,0.1,0.3C39.4,41.6,39.1,42.5,38.5,43.2z"/>
	<path d="M40.1,41.9c0.2,0,0.2,0,0.2,0.2c0.1,0.4,0.4,0.6,0.6,0.6c0.2,0,0.4-0.2,0.4-0.4c0-0.2-0.3-0.4-0.7-0.9
		c-0.3-0.3-0.4-0.7-0.4-1c0-0.7,0.4-1.4,1.1-1.9c0.3-0.2,0.6-0.4,0.8-0.4c0.2,0,0.4,0.2,0.6,0.3c0.3,0.2,0.6,0.2,0.6,1
		c0,0.7-0.3,1.2-0.6,1.2c-0.2,0-0.6-0.1-0.7-0.1c-0.1,0-0.1-0.1-0.1-0.3v-0.1c0-0.3,0.1-0.5,0.1-0.6c0,0,0-0.1-0.1-0.1
		c-0.1,0-0.5,0.4-0.5,0.8c0,0.4,0.3,0.6,0.7,1c0.4,0.3,0.5,0.6,0.5,1c0,0.9-0.9,1.9-1.8,1.9c-0.8,0-1.5-0.6-1.5-1.4
		c0-0.1,0-0.1,0-0.2C39.8,42,40,41.9,40.1,41.9z"/>
	<path d="M44.9,43.1c-0.1,0.3-0.1,0.7-0.4,0.7c-0.1,0-0.3-0.1-0.7-0.2c-0.1,0-0.2,0-0.2-0.2c0-0.1,0.3-1.4,0.9-4.1
		c-0.1,0-0.2,0-0.3,0c0,0,0,0-0.1,0c-0.1,0-0.2,0-0.3,0h0c0,0-0.1,0-0.1-0.1c0,0,0-0.1,0-0.2c0-0.1,0-0.1,0-0.2c0-0.2,0-0.5,0.1-0.5
		c0.3-0.1,0.8-0.2,1.4-0.2c0.4,0,0.8,0,1.1,0h0.3c0.1,0,0.2,0.3,0.2,0.8c0,0.3-0.2,0.3-1.1,0.5C45.3,41.7,45,43,44.9,43.1z"/>
	<path d="M46.8,43.6c-0.2,0.4-0.1,0.4-0.3,0.4c-0.1,0-0.2,0-0.3,0c-0.1,0-0.2-0.1-0.4-0.3c-0.1-0.1-0.1-0.1-0.1-0.2
		c0-0.2,0.6-1.8,2-4.6c0.4-0.9,0.4-1,0.8-1c0.1,0,0.3,0,0.5,0.1c0.3,0.1,0.6,0.1,0.7,0.2c0.2,0.1,0.3,0.2,0.3,0.4
		c0,0.2-0.2,1.5-0.3,3.8c0,0.6,0,1-0.1,1c-0.3,0.2-0.4,0.2-0.6,0.2h-0.2c-0.3,0-0.4-0.1-0.4-0.3v-0.1c0-0.1,0-0.2,0-0.2
		c0-0.1,0-0.2,0-0.4c0,0,0,0,0,0c-0.5,0-0.8,0-0.9,0c0,0-0.1,0-0.1,0C47.1,42.6,47.1,43,46.8,43.6z M47.8,41.5c0.4,0,0.4,0,0.4-0.2
		c0-0.1,0-0.3,0.1-0.5c0.1-1,0.2-1.5,0.2-1.6c0,0,0,0,0,0c-0.1,0-0.2,0.3-0.4,0.9c-0.3,0.8-0.5,1.3-0.5,1.3
		C47.7,41.5,47.7,41.5,47.8,41.5z"/>
	<path d="M55.5,42.9c0,0.1-0.2,0.3-0.2,0.4c-0.1,0.1-0.3,0.4-0.4,0.4c-0.3,0-0.7-0.6-1-1.8c-0.1-0.2,0-0.4-0.1-0.4
		c-0.1,0-0.1,0.4-0.3,1.4c-0.2,0.6-0.2,0.9-0.4,0.9c0,0-0.3-0.1-0.8-0.3c-0.1-0.1-0.2-0.2-0.2-0.2c0,0,0.1-0.2,0.2-0.6
		c0-0.1,0.2-0.8,0.5-2.2c0.3-1.3,0.5-2,0.5-2c0,0,0-0.1,0-0.1c0-0.1,0.1-0.2,0.1-0.2c0,0,0.1,0,0.3,0.1c0.2,0,0.4,0,0.6,0.1
		c0.2,0,0.3,0.1,0.3,0.2c0,0-0.1,0.4-0.2,0.8c-0.2,0.7-0.3,1.1-0.3,1.1c0,0,0,0,0,0c0.1,0,0.4-0.6,1.3-1.8c0.4-0.6,0.7-0.9,0.7-0.9
		c0.2,0,0.2,0.1,0.2,0.2c0.1,0.2,0.5,0.4,0.5,0.5c0,0.1-0.7,0.8-1.7,2.6C55.3,42.3,55.5,42.9,55.5,42.9z"/>
	<path d="M56.5,43.2c0-0.2,0-0.4,0-0.5v-0.3c0,0,0-1,0.2-3c0.1-1.1,0-1.1,0.5-1.1c0.2,0,0.4,0.1,0.6,0.1c0.1,0,0.1,0.1,0.1,0.6
		c0,1.7-0.4,2.8-0.4,3.1c0,0,0,0.1,0,0.1c0.1,0,0.4-1.1,1.3-3.3c0.3-0.7,0.4-1,0.5-1c0,0,0.1,0,0.1,0c0.1,0,0.2,0,0.2,0
		c0.1,0,0.2,0,0.3,0h0.1c0.1,0,0.4,0.3,0.4,0.3c0,0.1-0.5,0.9-1.2,2.5c0,0-0.4,0.8-1.1,2.3c-0.3,0.6-0.3,0.8-0.4,0.8
		c-0.3,0-0.4-0.1-0.4-0.1c-0.2-0.1-0.3-0.1-0.4-0.1c-0.2-0.1-0.3-0.1-0.4-0.2C56.5,43.3,56.5,43.2,56.5,43.2z"/>
	<path d="M60.4,43.6c-0.2,0.4-0.1,0.4-0.3,0.4c-0.1,0-0.2,0-0.3,0c-0.1,0-0.2-0.1-0.4-0.3c-0.1-0.1-0.1-0.1-0.1-0.2
		c0-0.2,0.6-1.8,2-4.6c0.4-0.9,0.4-1,0.8-1c0.1,0,0.3,0,0.5,0.1c0.3,0.1,0.6,0.1,0.7,0.2c0.2,0.1,0.3,0.2,0.3,0.4
		c0,0.2-0.2,1.5-0.3,3.8c0,0.6,0,1-0.1,1c-0.3,0.2-0.4,0.2-0.6,0.2h-0.2c-0.3,0-0.4-0.1-0.4-0.3v-0.1c0-0.1,0-0.2,0-0.2
		c0-0.1,0-0.2,0-0.4c0,0,0,0,0,0c-0.5,0-0.8,0-0.9,0c0,0-0.1,0-0.1,0C60.7,42.6,60.6,43,60.4,43.6z M61.4,41.5c0.4,0,0.4,0,0.4-0.2
		c0-0.1,0-0.3,0.1-0.5c0.1-1,0.2-1.5,0.2-1.6c0,0,0,0,0,0c-0.1,0-0.2,0.3-0.4,0.9c-0.3,0.8-0.5,1.3-0.5,1.3
		C61.2,41.5,61.3,41.5,61.4,41.5z"/>
	<path d="M63.7,43.2c0,0,0.3-1.7,1.1-4.6c0.1-0.4,0.1-0.7,0.5-0.7c0.4,0,0.8,0.2,0.8,0.4c0,0.1-0.1,0.6-0.4,1.6
		c-0.3,1.4-0.5,2.1-0.5,2.2c0,0.2,0.2,0.1,0.7,0.2c0.3,0.1,0.5,0.1,0.5,0.3c0,0,0,0.1,0,0.2c0,0.1,0,0.2,0,0.2v0.1c0,0,0,0.1,0,0.1
		c0,0,0,0.1-0.1,0.1c-0.1,0-0.7,0.1-2,0.5C63.9,43.6,63.7,43.3,63.7,43.2z"/>
	<path d="M67.5,40.6c0.4-1.5,0.6-2.3,0.6-2.3c0-0.2,0-0.3,0.6-0.3c0.4,0,0.8,0.3,0.8,0.4c0,0.1-0.1,0.1-0.1,0.3
		c0,0.1-0.1,0.4-0.2,0.9c-0.2,0.7-0.3,1.4-0.4,2c-0.2,0.9-0.4,1.6-0.5,2.1c-0.1,0.2-0.2,0.2-0.5,0.2h-0.1c-0.4,0-0.7-0.3-0.7-0.3
		C66.8,43.5,67,42.5,67.5,40.6z"/>
	<path d="M70.8,43.1c-0.1,0.3-0.1,0.7-0.4,0.7c-0.1,0-0.3-0.1-0.7-0.2c-0.1,0-0.2,0-0.2-0.2c0-0.1,0.3-1.4,0.9-4.1
		c-0.1,0-0.2,0-0.3,0c0,0,0,0-0.1,0c-0.1,0-0.2,0-0.3,0h0c0,0-0.1,0-0.1-0.1c0,0,0-0.1,0-0.2c0-0.1,0-0.1,0-0.2c0-0.2,0-0.5,0.1-0.5
		c0.3-0.1,0.8-0.2,1.4-0.2c0.4,0,0.8,0,1.1,0h0.3c0.1,0,0.2,0.3,0.2,0.8c0,0.3-0.2,0.3-1.1,0.5C71.2,41.7,70.9,43,70.8,43.1z"/>
	<path d="M72.3,43.1c0-0.1,0.2-1.2,0.8-3.3c0.3-1.2,0.4-1.7,0.5-1.7c0,0,0.1,0,0.1,0c0,0,0.1,0,0.1,0c0.1,0,0.3,0,0.4,0
		c0.2,0,0.4,0,0.7,0c0.2,0,0.6,0,0.8,0.1c0.1,0,0.3,0.1,0.3,0.5c0,0.2-0.1,0.4-0.1,0.4c-0.1,0.1-0.6,0.1-1.6,0.2
		c-0.1,0.3-0.2,0.6-0.2,0.9c0.1,0,0.2,0,0.4,0c0.4,0,0.7,0,0.7,0.1c0.1,0.1,0.2,0.3,0.2,0.5c0,0.2-0.1,0.5-0.1,0.5
		c-0.1,0.1-0.6,0.1-1.5,0.3c-0.1,0.4-0.2,0.6-0.2,0.7c0,0,0,0,0,0.1c0.6,0,0.9,0,1,0c0.1,0,0.1,0,0.1,0v0.1c0,0.1,0.3,0.2,0.3,0.6
		c0,0.4-0.1,0.4-0.2,0.4h0c-0.3,0-0.6,0.1-0.9,0.2c-0.3,0-0.7,0.1-1,0.2C72.5,43.7,72.3,43.5,72.3,43.1z"/>
	<path d="M77.5,43.1c-0.1,0.3-0.1,0.7-0.4,0.7c-0.1,0-0.3-0.1-0.7-0.2c-0.1,0-0.2,0-0.2-0.2c0-0.1,0.3-1.4,0.9-4.1
		c-0.1,0-0.2,0-0.3,0c0,0,0,0-0.1,0c-0.1,0-0.2,0-0.3,0h0c0,0-0.1,0-0.1-0.1c0,0,0-0.1,0-0.2c0-0.1,0-0.1,0-0.2c0-0.2,0-0.5,0.1-0.5
		c0.3-0.1,0.8-0.2,1.4-0.2c0.4,0,0.8,0,1.1,0h0.3c0.1,0,0.2,0.3,0.2,0.8c0,0.3-0.2,0.3-1.1,0.5C77.9,41.7,77.6,43,77.5,43.1z"/>
</g>
<g>
	<path d="M81,30.8H6c-0.3,0-0.5-0.2-0.5-0.5s0.2-0.5,0.5-0.5h75c0.3,0,0.5,0.2,0.5,0.5S81.3,30.8,81,30.8z"/>
</g>
<g id="wmheRJ_00000018950743586684493960000009220617005744085903_">
	<g>
		<g>
			<path class="st0" d="M63.7,4.5c0,0.1-0.1,0.1-0.1,0.2c0,0.3,0,0.5,0,0.8c0,0,0,0.1,0,0.2c-0.3-0.5-0.4-1-0.7-1.4c0,0,0,0-0.1,0
				c0,0.2,0.1,0.4,0.1,0.6c0,0,0,0,0,0c-0.1-0.3-0.1-0.6-0.2-0.8c0.1-0.1,0.2-0.2,0.3-0.3c0-0.1,0.1-0.1,0.2-0.1c0,0,0.1,0,0.1-0.1
				c0.1-0.1,0.3-0.2,0.4-0.3c0.1,0.2,0.1,0.4,0.2,0.6C64,3.6,63.9,3.4,64,3.2c0.1,0,0.2-0.1,0.4-0.1c0.1,0,0.1,0,0.2,0
				c0,0,0.1,0,0.1,0c0,0,0-0.1,0.1-0.2c0,0,0.1-0.1,0.1-0.1c0.1,0,0.1-0.1,0.2-0.2c0,0.1,0,0.2,0,0.2c0,0.2,0,0.5,0,0.7
				c0,0.1,0.1,0.2,0.1,0.3c0,0,0.1,0.1,0.1,0.1c0,0,0.1-0.1,0.1-0.1c0-0.2,0-0.4,0-0.5c0-0.3-0.1-0.5-0.1-0.8c0,0,0-0.1,0-0.1
				c0,0,0.1,0,0.1,0c0.1,0.1,0.1,0.2,0.2,0.3c0,0.1,0.1,0.1,0.1,0.2c0.1-0.2,0.1-0.4,0.1-0.6c0.5-0.2,0.9-0.3,1.4-0.5
				c0.9-0.3,1.7-0.6,2.6-0.7c0.3,0,0.6,0,0.9,0c0.3,0,0.6,0.2,0.8,0.5c0.1,0.2,0.2,0.4,0.3,0.6c0.1,0.2,0.3,0.3,0.4,0.5
				C72.3,3,72.4,3,72.5,3c0.4-0.2,0.9-0.4,1.4-0.4c0.7-0.1,1.4,0.1,2,0.5c0.4,0.3,0.7,0.6,1,0.9c0.5,0.5,0.9,1,1.5,1.3
				c0,0,0.1,0.1,0.1,0.1c0.2,0.3,0.4,0.6,0.6,0.8c0.2,0.2,0.3,0.4,0.6,0.4c0,0.2,0.1,0.2,0.2,0.2c0.1,0.5,0.4,0.9,0.7,1.3
				c0.3,0.3,0.5,0.7,0.6,1.1c0.1,0.4,0.3,0.7,0.4,1.1c0,0.1,0.1,0.2,0,0.3c-0.1,0.7-0.1,1.5-0.1,2.2c0,0.2,0,0.2,0.2,0.2
				c0,0,0.1,0,0.1,0.1c0,0-0.1,0.1-0.1,0.1c-0.1,0-0.1,0.1-0.2,0.1c-0.1,0.1-0.2,0.1-0.1,0.3c-0.2,0-0.3-0.1-0.5-0.1
				c0.1-0.1,0.2-0.2,0.3-0.2c0,0,0,0,0,0c-0.1,0-0.1,0-0.2,0c-0.2,0-0.3,0-0.5,0c-0.1,0-0.2,0-0.3-0.1c0.1-0.1,0.1-0.1,0.2-0.2
				c0,0,0-0.1,0-0.1c0,0-0.1,0-0.1,0c-0.1,0-0.1,0-0.2,0c-0.2,0-0.3,0.1-0.5,0.1c-0.1,0-0.1,0-0.2,0c0,0,0,0,0,0
				c0.1-0.1,0.1-0.1,0.2-0.2c0.3-0.2,0.6-0.4,0.9-0.7c0.1-0.1,0.2-0.1,0.3-0.2c0,0,0.1-0.1,0.1-0.1c0,0,0,0,0,0c-0.1,0-0.1,0-0.2,0
				c-0.4,0.1-0.8,0.3-1.1,0.6c-0.1,0.1-0.3,0.2-0.4,0.2c-0.1,0-0.2,0.1-0.3-0.1c0.1-0.1,0.2-0.1,0.2-0.2c0.1-0.1,0.2-0.2,0.3-0.3
				c0.1-0.1,0.1-0.2,0-0.2c0.2-0.2,0.4-0.3,0.5-0.5c0.1-0.1,0.1-0.2,0.1-0.2c-0.1,0-0.2,0-0.3,0c-0.1,0-0.1,0.1-0.2,0.1
				c-0.1,0.1-0.3,0.1-0.4,0.1c-0.2,0-0.3,0.1-0.5,0.2c0,0-0.1,0.1-0.1,0.1c0,0,0.1,0.1,0.1,0.1c0.1,0,0.3,0.1,0.4,0.1
				c-0.2,0.2-0.4,0.4-0.7,0.5c-0.1-0.2-0.1-0.4-0.2-0.5c0,0,0-0.1,0.1-0.1c0.4-0.3,0.7-0.5,1.1-0.8c0.2-0.1,0.4-0.3,0.5-0.4
				c0,0,0.1-0.1,0.1-0.1c0,0,0,0,0,0c-0.1,0-0.1,0-0.2,0c-0.3,0.1-0.6,0.3-0.9,0.4c-0.1,0-0.2,0.1-0.3,0.1c0,0-0.1,0-0.1,0
				c0-0.1,0-0.1,0.1-0.1c0.1,0,0.2-0.1,0.3-0.1c0.1,0,0.1-0.1,0.1-0.2c-0.1,0-0.1-0.1-0.2-0.1c-0.2,0-0.3,0.1-0.5,0.1
				c-0.1-0.2-0.1-0.2-0.3-0.1c-0.2,0.1-0.4,0.3-0.6,0.4c-0.2,0.1-0.4,0.3-0.6,0.3c0.2-0.1,0.4-0.3,0.6-0.4c0,0,0,0,0,0
				c0.1,0,0.1,0,0.1-0.1c0.2-0.2,0.4-0.4,0.6-0.6c0.3-0.3,0.5-0.6,0.8-0.9c0.1-0.1,0.1-0.2,0.1-0.2c0,0,0,0,0,0
				c-0.1,0-0.2,0.1-0.2,0.1c-0.3,0.3-0.6,0.5-0.9,0.8c-0.3,0.3-0.7,0.7-1,1.1c0,0-0.1,0.1-0.1,0.1c0,0-0.1,0-0.1-0.1
				c0,0-0.1-0.1-0.1,0c0,0-0.1,0.1-0.1,0.1c0,0.1,0.1,0.3,0.1,0.4c0,0-0.1,0-0.1,0c0,0,0,0.1,0,0.1c0,0.3,0,0.6,0,0.8
				c0.2,0.1,0.4,0.3,0.6,0.4c0.1,0,0.2,0.1,0.2,0.1c0.1,0.1,0.1,0,0.1-0.1c-0.1,0-0.1,0-0.2-0.1c-0.1-0.2-0.2-0.5-0.3-0.7
				c0.5,0.3,0.9,0.5,1,1.1c0,0.1,0,0.1,0,0.2c-0.2,0.6-0.2,1.3,0,1.9c0,0.1,0,0.1,0.1,0.2c0.2-0.3,0.1-0.6,0.2-0.9
				c0,0.1,0,0.2,0,0.3c0.1,0.2,0.1,0.4,0.2,0.6c0,0.1,0.1,0.2,0.2,0.1c0,0,0-0.1,0-0.2c0,0,0-0.1,0-0.1c0.1,0,0.1,0.1,0.2,0.2
				c0-0.1,0-0.1,0-0.2c0-0.2-0.1-0.4-0.1-0.6c-0.1-0.5-0.2-0.9-0.3-1.4c0-0.1,0-0.1,0-0.2c0.1,0.1,0.2,0.2,0.3,0.3
				c0.1,0.3,0.2,0.6,0.2,0.9c0.1,0.2,0.1,0.4,0.2,0.6c0.1,0.2,0.2,0.2,0.3,0.1c0,0,0.1-0.1,0.1-0.1c0,0-0.1-0.1-0.2-0.1
				c0-0.1,0-0.3,0-0.4c0.2,0.3,0.4,0.6,0.6,0.8c0-0.2-0.1-0.4-0.1-0.6c0.1,0.1,0.2,0.2,0.3,0.3c0.2,0.3,0.3,0.6,0.5,0.9
				c-0.1,0-0.1,0-0.1,0c0,0-0.1,0-0.1-0.1c-0.2-0.1-0.2,0-0.2,0.2c-0.2,0-0.2,0-0.2,0.3c-0.1,0-0.1-0.1-0.2-0.1
				c-0.1,0-0.2,0-0.2,0.1c0,0.1,0,0.2-0.1,0.3c0,0,0,0.1-0.1,0.2c0-0.1-0.1-0.1-0.1-0.2c-0.1-0.1-0.2-0.2-0.3,0
				c-0.1,0.1-0.1,0.1-0.2,0.1c0,0,0,0.1,0,0.1c0,0,0,0,0.1,0c0,0,0,0,0.1,0c0,0,0,0,0,0c0,0-0.1,0-0.1,0c-0.1-0.1-0.2,0-0.3,0.1
				c0,0,0,0.1,0,0.1c-0.1,0-0.2,0-0.3,0c-0.3,0.1-0.6,0.3-0.9,0.6c0,0,0,0.1-0.1,0.2c0,0.2-0.1,0.2-0.2,0.1
				c-0.1-0.1-0.2-0.1-0.3-0.2c-0.1,0-0.1,0-0.1,0.1c0,0.1,0,0.1,0,0.2c-0.2,0-0.3,0-0.5,0.1c-0.3,0-0.5,0.1-0.8,0.1c0,0-0.1,0-0.1,0
				c-0.2-0.1-0.3-0.1-0.4,0.2c-0.4-0.1-0.4-0.1-0.5,0.3c-0.1-0.1-0.2-0.1-0.3,0c-0.2,0.2-0.3,0.3-0.5,0.3c0,0-0.1,0-0.2,0
				c-0.2-0.1-0.2-0.1-0.3,0.1c-0.1-0.2-0.3-0.2-0.5-0.1c-0.2,0.1-0.5,0.1-0.8,0c0-0.1,0-0.1,0-0.1c0-0.1,0-0.1-0.1-0.1
				c-0.1,0-0.1,0-0.2,0c0-0.1,0-0.2,0-0.2c0.2-0.5,0.2-1,0.3-1.5c0-0.4,0.1-0.8,0.2-1.1c0-0.1,0.1-0.2,0.1-0.3
				c0,0.4-0.1,0.8,0.1,1.2c0,0,0,0,0.1,0c0-0.1,0.1-0.1,0.1-0.2c0.1-0.3,0.1-0.6,0.2-0.9c0,0,0-0.1,0-0.1c0,0,0.1,0,0.1,0
				c0-0.3,0-0.6,0-0.8c0.1,0,0.1-0.1,0.2-0.1c-0.1-0.1-0.1-0.1-0.1-0.1c0-0.1,0-0.2,0-0.3c0,0,0,0,0,0c0.1,0,0.1,0.1,0.2,0.1
				c0.1,0.1,0.3,0.3,0.4,0.5c0.2,0.2,0.4,0.4,0.5,0.7c-0.1,0-0.1,0.1-0.2,0.2c0,0,0,0,0,0c-0.2-0.2-0.3-0.2-0.3,0.1
				c-0.1,0.3-0.1,0.7-0.1,1c0,0.2-0.1,0.5-0.1,0.7c0,0,0,0.1,0,0.1c0.1,0,0.1,0,0.2,0c0.1,0,0.1-0.1,0.1-0.2
				c0.1-0.2,0.1-0.4,0.2-0.7c0-0.3,0.1-0.6,0.1-0.8c0,0,0,0,0,0c0.1,0.3,0.2,0.3,0.3,0c0.1-0.1,0.2-0.2,0.4-0.3
				c0,0.1-0.1,0.2-0.1,0.3c-0.2,0.3-0.3,0.6-0.5,1c-0.1,0.2-0.2,0.3-0.2,0.5c0,0.1,0,0.1,0,0.2c0.1,0,0.1,0,0.2-0.1
				c0.6-0.6,1-1.3,1.2-2c0.3-0.8,0.3-1.6-0.1-2.4c0,0,0.1,0,0.2,0c-0.1-0.1-0.2-0.2-0.2-0.4c0.1,0,0.2,0.2,0.3,0c0-0.1,0-0.2,0-0.2
				c0,0-0.1,0-0.2,0c-0.3-0.3-0.4-0.3-0.5,0c0,0,0,0,0,0c-0.2-0.2-0.3-0.2-0.6,0c-0.1,0.1-0.2,0.1-0.3-0.1c0-0.1,0-0.1-0.1-0.2
				c-0.1-0.1-0.1-0.2-0.3-0.2c-0.1,0-0.2,0-0.2,0.1c0,0,0,0.1,0,0.2c0,0.1,0.1,0.1,0.1,0.1c0,0.1-0.1,0.1-0.1,0.2
				c0,0.1,0.1,0.2,0.1,0.2c0.1,0.1,0.2,0.2,0.4,0.3c-0.1,0.2-0.1,0.4-0.1,0.6c0,0.2,0.1,0.5,0.1,0.8c-0.1-0.1-0.2-0.1-0.2-0.2
				c0,0-0.1-0.1-0.1-0.1c0,0-0.1,0-0.1-0.1c0-0.1-0.1-0.2-0.2-0.2c-0.1,0-0.1,0.1-0.2,0.1c-0.1-0.4,0-0.8-0.2-1.2c0,0,0,0-0.1,0
				c0,0.1-0.1,0.1-0.1,0.2c0,0.4-0.1,0.7-0.1,1.1c0,0,0,0.1,0,0.1c-0.2,0-0.2,0-0.2,0.2c0,0.1,0.1,0.2,0.3,0.2
				c0,0.3-0.1,0.6-0.1,0.9c-0.1,0-0.1,0-0.1-0.1c-0.2-0.1-0.3,0-0.4,0.2c-0.1,0.1-0.1,0.3-0.1,0.4c0,0.5-0.1,1-0.1,1.4
				c0,0.3-0.1,0.7-0.3,1c0,0.1-0.1,0.1-0.2,0.2c-0.1,0.1-0.2,0.1-0.3-0.1c0-0.1-0.1-0.3-0.1-0.4c0-0.4,0.1-0.8,0.2-1.2
				c0.1-0.5,0.2-0.9,0.3-1.4c0-0.1,0-0.2,0-0.3c-0.1,0.1-0.1,0.1-0.2,0.2c-0.1,0.1-0.1,0.2-0.2,0.2c0,0,0,0,0,0c0,0,0-0.1,0-0.1
				c0-0.5,0.2-1.1,0.3-1.6c0,0.4,0.3,0.6,0.7,0.6c0,0,0,0.1,0,0.1c0,0.1,0,0.2,0.1,0.2c0.1,0,0.2,0,0.2,0c0.2-0.1,0.3-0.3,0.1-0.5
				c0.1-0.1,0.1-0.2,0.2-0.2c0-0.1,0-0.2-0.1-0.3c0,0-0.1-0.1-0.2-0.1c0,0-0.1,0.1-0.1,0.1c0,0.1-0.1,0.3-0.1,0.4c0-0.1,0-0.2,0-0.3
				c0,0-0.1-0.1-0.1-0.1c-0.4-0.2-0.5-0.4-0.5-0.8c0-0.1,0.1-0.2,0.1-0.3c0-0.1,0-0.1,0-0.2c-0.3,0.1-0.4,0.3-0.6,0.4
				c0,0,0.1,0.1,0.1,0.1c0.1,0.2,0.1,0.4-0.1,0.6c-0.1,0.1-0.2,0.1-0.3-0.1c0-0.1,0-0.2,0-0.3c0.1-0.3,0.1-0.6,0.2-0.9
				c0.1,0.2,0.2,0.3,0.4,0.2c0.3,0,0.3-0.3,0.4-0.5c0.3-0.1,0.6-0.1,0.9-0.2c0,0,0.1,0,0.1,0c0.1,0,0.1,0.1,0.2,0
				c0,0,0.1-0.1,0.1-0.1c0,0,0.1,0.1,0.2,0.2c0.1-0.1,0.1-0.2,0.1-0.3c0,0,0-0.1-0.1-0.2c0.2-0.2,0.4-0.2,0.7-0.3
				c0.5,0,1,0.1,1.5,0.3c0.3,0.1,0.6,0.2,0.8,0.3c0,0,0,0,0,0c-0.3,0-0.6-0.1-1-0.1c0,0,0,0.1,0.1,0.1c0.8,0.8,1.2,1.7,1.5,2.7
				c0,0.1,0.1,0.2,0.1,0.3c0,0,0.1,0.1,0,0.1c0,0,0,0,0,0.1c0.1,0.5,0.1,1.1,0.1,1.6c0,0,0,0,0,0c0,0,0,0.1,0,0.1c0,0,0.1,0,0.1-0.1
				c0.1-0.1,0.1-0.2,0.1-0.3c0.2-0.4,0.2-0.8,0.2-1.3c0.1,0.1,0.1,0.2,0.1,0.3c0,0,0,0.1,0,0.1c-0.1,0.2,0,0.4,0,0.6
				c0,0.1,0.1,0.1,0.1,0.1c0-0.1,0.1-0.1,0.1-0.2c0.1-0.2,0-0.4-0.1-0.5c0,0-0.1-0.1-0.1-0.1c0.2-0.1,0.2-0.3,0.2-0.5
				c0-0.5-0.2-1-0.4-1.5c0-0.1-0.1-0.1-0.1-0.2c0,0,0,0,0,0c0,0.1,0,0.1,0,0.2c0,0.3,0.1,0.6,0.1,0.9c0,0.1,0,0.3,0,0.4
				c-0.2-0.5-0.3-1-0.5-1.5c-0.2-0.5-0.5-0.9-0.8-1.4c0.3,0,0.5-0.2,0.4-0.4c0-0.1-0.1-0.2-0.2-0.2c-0.1,0-0.2,0-0.3-0.1
				c-0.1,0-0.2-0.1-0.2-0.2C75.5,10,75.3,9.9,75,9.7c-0.2-0.1-0.5-0.2-0.7-0.3c-0.3-0.1-0.6-0.2-0.8-0.3c-0.1,0-0.2-0.1-0.3-0.2
				c-0.1-0.1-0.1-0.2,0-0.3c0.1-0.1,0.3-0.2,0.4-0.2c0,0,0.1,0,0.2,0c0.1,0,0.1,0,0.2,0c0-0.1,0-0.1,0-0.2c-0.2-0.2-0.1-0.4-0.1-0.7
				c0-0.3,0.1-0.6,0.1-0.9c0-0.1,0-0.2,0.1-0.3c0.1-0.2,0.2-0.5,0.3-0.7c0,0,0.1-0.1,0.1-0.1c0.1-0.1-0.1-0.3,0.1-0.4c0,0,0,0,0,0
				c0,0.1,0.1,0.1,0.1,0.2c0.1-0.1,0.1-0.1,0.2-0.2c0.2-0.4,0.3-0.8,0.4-1.2c0,0,0-0.1,0-0.2c-0.2,0.3-0.3,0.6-0.5,0.9
				c0-0.2,0.1-0.4,0.1-0.6c0-0.1,0-0.2,0-0.2c0,0,0-0.1-0.1-0.1c0,0-0.1,0-0.1,0C74.7,4,74.6,4,74.5,4.1c-0.1,0.2-0.2,0.4-0.3,0.6
				c-0.1,0-0.2,0-0.4,0.1c0-0.1,0-0.1,0-0.2c0,0,0-0.1,0-0.1c0,0-0.1,0-0.1,0c0,0-0.1,0-0.1,0.1c-0.2,0.2-0.3,0.4-0.4,0.7
				c0,0.1,0,0.2,0,0.4c-0.1,0.1-0.1,0.2-0.2,0.3c0,0,0,0,0,0c0-0.1,0-0.2,0-0.3c0-0.1-0.1-0.1-0.1-0.2c-0.1,0-0.1,0.1-0.2,0.1
				c-0.1,0.1-0.1,0.2-0.2,0.3c0.1-0.2,0.1-0.5,0.2-0.7c0.2,0.1,0.2,0.1,0.4,0C73.3,5,73.3,5,73.4,4.9c0-0.1,0-0.1,0-0.2
				c-0.1,0-0.1,0-0.2,0c0,0-0.1,0.1-0.1,0.1c0,0-0.1,0.1-0.1,0.1c0.2-0.4,0.4-0.8,0.5-1.2C73.2,3.8,73.1,4,73,4.1
				c-0.1,0-0.3,0-0.4,0c0,0-0.1,0-0.1-0.1c-0.1-0.1-0.1-0.2-0.3-0.1c-0.2,0.2-0.4,0.5-0.5,0.8c0,0.1,0,0.1-0.1,0.1c0,0,0,0,0,0
				c-0.1,0-0.2,0.1-0.2,0.2c0,0.1,0.1,0.1,0.2,0.1c0.1,0,0.2,0,0.3,0c-0.2,0.7-0.5,1.3-0.7,2c-0.1,0-0.1,0-0.2-0.1
				c0,0.2,0,0.3,0,0.4C71,7.4,71,7.4,70.7,7.4c0.3-1.3,0.7-2.5,0.9-3.8c0,0,0,0,0,0c0,0,0,0,0,0c-0.1,0.2-0.2,0.5-0.3,0.7
				c0,0-0.1,0-0.1,0c-0.1,0.9-0.3,1.7-0.6,2.5c-0.2,0-0.3,0-0.2,0.2C70.2,7,70.1,7,70.1,7.1c-0.1,0.1-0.1,0.2,0,0.3
				c0.1,0.1,0.1,0.1,0,0.3c0,0,0,0,0,0C70,7.6,70,7.5,70,7.5c-0.1,0-0.1,0.1-0.2,0.1c0,0.1-0.1,0.1-0.2,0.1c-0.1,0-0.3,0-0.4-0.1
				c-0.2,0-0.3-0.1-0.3-0.4c0-0.2,0.1-0.4,0.1-0.7c0.1-0.3,0.1-0.7,0.2-1C69.3,5.8,69.3,6,69.5,6c-0.1,0.4-0.1,0.9,0,1.3
				c0,0,0,0,0.1,0c0,0,0.1-0.1,0.1-0.1c0.3-0.7,0.4-1.4,0.5-2.1c0-0.1,0-0.2,0-0.3c0,0,0,0,0,0c0,0.1,0,0.1,0.1,0.2
				c0,0,0.1,0.1,0.2,0.1c-0.1,0.2-0.1,0.3-0.2,0.5c0,0.1-0.1,0.3-0.1,0.4c0,0,0,0.1,0,0.1c0,0,0.1,0,0.1,0c0.1-0.1,0.1-0.1,0.2-0.2
				c0.1-0.3,0.3-0.6,0.4-0.9c0-0.1,0.1-0.2,0.1-0.4c0-0.1,0-0.1-0.1-0.1c-0.1,0-0.2,0.1-0.3,0.2c0-0.3,0-0.6,0-0.9
				c-0.2,0.2-0.2,0.4-0.3,0.7c-0.1-0.1-0.2-0.1-0.3,0c-0.1,0.2,0,0.3,0.1,0.4c-0.1,0.3-0.3,0.6-0.4,0.9c0,0,0,0,0,0
				c0-0.1,0-0.3,0.1-0.4c0.1-0.4,0.2-0.7,0.2-1.1c0-0.1,0-0.2,0-0.3c0,0,0-0.1,0-0.1c0,0-0.1,0-0.1,0c-0.1,0-0.2,0.1-0.2,0.1
				c0,0-0.1,0.1-0.1,0.1c0,0.1,0,0.1,0,0.2c0,0.1,0,0.2-0.2,0.2c0-0.4,0-0.7-0.1-1.1c-0.2,0.2-0.2,0.5-0.3,0.7
				c-0.1,0-0.1-0.1-0.2-0.1c0,0.1,0,0.1,0,0.2c0,0.2,0.1,0.4,0.1,0.6c0,0.2,0,0.3,0,0.4c-0.2,0-0.3,0.1-0.4,0.1
				c0.1-0.5,0.1-1.1,0-1.6c0,0,0,0-0.1,0c0,0.1-0.1,0.1-0.1,0.2c-0.1,0.4-0.1,0.7-0.2,1.1c0,0,0,0.1,0,0.2c-0.1-0.3-0.3-0.6-0.4-1
				c0-0.2-0.1-0.3-0.1-0.5c0-0.2,0.1-0.4,0.3-0.6c0.1,0,0.1-0.1,0.2,0c0,0,0.1,0,0.1-0.1c0-0.1,0-0.2,0-0.3c0,0,0-0.1-0.1-0.1
				c0,0-0.1,0-0.1,0c0,0.1-0.1,0.2-0.1,0.3c-0.1,0-0.2,0.1-0.2,0.1c0,0,0.1-0.1,0.1-0.1C68,3,68,2.9,68.1,2.9c0-0.1,0-0.3,0-0.4
				c0-0.1-0.1-0.2-0.2-0.1c-0.1,0-0.2,0.1-0.3,0.1c-0.2,0.1-0.3,0.1-0.4-0.1c0,0,0,0-0.1,0c-0.1,0.2-0.1,0.4-0.2,0.6c0,0,0,0,0,0
				c0,0,0-0.1,0-0.1c0,0-0.1-0.1-0.1-0.1c0,0-0.1,0.1-0.1,0.1c-0.1,0.1-0.1,0.3-0.2,0.4c0,0.1,0,0.1-0.1,0.2c0,0-0.1,0-0.1,0
				c0-0.1,0-0.1,0-0.2c0.1,0,0.1,0,0.1,0c0-0.1,0-0.1-0.1-0.2c-0.1,0-0.2,0-0.2,0c-0.1,0-0.1,0.1-0.1,0.2c0,0.2,0,0.3-0.1,0.5
				c0,0.1,0,0.2,0,0.3C66,4,66,4,66,4c0,0.1,0.1,0.1,0.1,0.2c0-0.1,0.1-0.1,0.1-0.2c0-0.1,0-0.3,0.1-0.4c0,0,0-0.1,0-0.1
				c0,0,0,0,0,0c0,0.1,0,0.1,0,0.2c0,0.2,0,0.4,0,0.6c0,0,0,0,0,0c-0.2,0.2-0.1,0.4-0.1,0.5c0,0,0,0,0,0C66.1,4.9,66,4.7,66,4.5
				c0-0.4-0.1-0.7-0.1-1.1c0-0.1-0.1-0.1-0.1-0.2c0,0.1-0.1,0.1-0.1,0.2c0,0.1,0,0.1-0.1,0.1c0,0,0,0.1,0,0.1c0,0.5,0,1,0.2,1.5
				c0,0.1,0.1,0.1,0.2,0.2c0,0.1-0.1,0.1-0.1,0.2c0,0,0,0.1-0.1,0.2c0.1,0,0.1,0,0.2,0c0,0.1,0,0.2-0.1,0.3c0,0,0,0.1,0,0.1
				c0,0.1,0.1,0.1,0.1,0.2c0,0,0,0.1,0,0.2c0,0.1,0,0.1,0.1,0.2c0.1,0,0.1,0.1,0.2,0.1c0,0,0-0.1,0-0.1c0-0.1-0.1-0.1-0.1-0.2
				c0.2,0,0.3,0,0.3,0.2c0,0.1,0.1,0.3,0.2,0.4c0,0,0.1,0.1,0.1,0.1c0.1,0,0.2,0,0.3,0c0-0.1,0-0.2-0.1-0.2c0-0.1-0.1-0.1-0.1-0.2
				c0-0.1,0-0.2,0.1-0.3c0.1,0,0.2,0,0.4-0.1c0,0.2,0,0.4,0.1,0.5c0,0.1,0,0.2,0.1,0.3c0,0,0.1,0.1,0.1,0.1c0,0,0.1-0.1,0.1-0.1
				c0-0.1,0.1-0.3,0.1-0.5c0.1-0.5,0-1,0-1.5c0.1,0.2,0.2,0.3,0.4,0.4c0,0,0.1,0.1,0.1,0.2c0,0.3,0,0.5-0.1,0.8c0,0,0,0.1,0,0.1
				c0,0,0.1,0,0.1,0c0.2-0.1,0.3-0.2,0.5-0.3c0,0.3-0.1,0.6-0.1,0.9c0,0.1-0.1,0.2-0.2,0.3c0,0,0,0,0,0.1c0,0.1-0.1,0.2-0.1,0.2
				c-0.2,0-0.4,0.1-0.6,0.1c-1.2,0.1-2.3,0-3.4-0.3c-0.1,0-0.1,0-0.2,0c-0.1,0-0.1-0.1-0.2-0.2c-0.1-0.1-0.2-0.2-0.3-0.3
				c-0.4-0.4-0.5-0.9-0.5-1.5c0.1,0.2,0.2,0.4,0.3,0.5c0.1,0.1,0.1,0.2,0.2,0.2c0.1,0,0.1-0.2,0.2-0.3c0,0,0-0.1,0.1-0.2
				c0,0,0,0.1,0,0.1C64,6.1,64,6.4,64,6.6c0,0.2,0.2,0.3,0.2,0.4c0,0,0,0.1,0.1,0.1c0,0,0,0,0,0c0-0.1,0-0.2,0-0.2
				c0-0.5-0.1-0.9-0.1-1.4c0-0.3-0.1-0.6-0.2-0.9c0-0.1-0.1-0.2-0.1-0.2c-0.1,0.2-0.1,0.4-0.1,0.6C63.8,4.8,63.8,4.6,63.7,4.5
				c0,0,0.1-0.1,0.1-0.1c0-0.3,0-0.5-0.1-0.7c0,0-0.1-0.1-0.1-0.1c0,0-0.1,0.1-0.1,0.1C63.3,4,63.5,4.2,63.7,4.5z M75.2,6.1
				C75.2,6.1,75.2,6.1,75.2,6.1c0.1,0.1,0.3,0.1,0.4,0.1c0,0.2-0.1,0.4-0.2,0.6c-0.2,0.2-0.3,0.5-0.5,0.7c-0.2,0.3-0.5,0.6-0.7,0.8
				C74.1,8.3,74,8.5,74,8.6c-0.1,0.1,0,0.2,0.1,0.2c0.1,0,0.3,0,0.4-0.1c0.1-0.1,0.2-0.2,0.3-0.3c0.6-0.6,1.1-1.3,1.2-2.2
				C76,6.1,76,6,76.1,5.9c0,0,0,0,0.1,0c0.1,0,0.3-0.2,0.3-0.3c0-0.1-0.1-0.1-0.2-0.1c0,0,0,0,0,0c0-0.1,0-0.2,0-0.3
				c0,0,0-0.1-0.1-0.1c0,0-0.1,0-0.2,0.1c0,0-0.1,0.1-0.1,0.1c0,0,0,0,0,0c-0.1,0-0.2,0-0.3,0c0,0,0,0,0-0.1c0-0.2,0-0.4,0-0.6
				c0,0,0-0.1-0.1-0.1c0,0-0.1,0-0.1,0.1c-0.1,0.1-0.1,0.2-0.2,0.3c-0.4,0.9-0.9,1.7-1.3,2.6c0,0,0,0,0,0.1c0,0,0.1,0,0.1,0
				c0.3-0.1,0.5-0.4,0.7-0.7c0.1-0.2,0.2-0.5,0.4-0.7c0.1-0.1,0.2-0.2,0.3-0.3c0.1-0.1,0.3-0.2,0.5-0.1C75.6,5.7,75.4,5.9,75.2,6.1z
				 M76.7,6.6C76.4,7,76.2,7.3,76,7.7c0,0,0,0.1-0.1,0.1c-0.1,0-0.2,0.1-0.2,0.2c-0.2,0.2-0.3,0.4-0.5,0.6c-0.1,0.1-0.1,0.2-0.2,0.3
				c0,0.1,0,0.2,0,0.2c0.1,0,0.2,0,0.2-0.1c0.2-0.2,0.4-0.3,0.5-0.5c0.2-0.2,0.4-0.5,0.5-0.7C76.5,8,76.6,8,76.8,7.9
				c0.1,0,0.1,0,0.2,0c0.1,0,0.2,0,0.2,0c0,0,0.1,0,0.2,0c0,0,0-0.1,0.1-0.2c0,0,0-0.1,0-0.1c0.1,0,0.1,0,0.2,0c0,0,0,0,0,0
				c-0.1,0-0.1-0.1-0.1-0.1c0.1-0.1,0.2-0.2,0.2-0.4c0.1-0.1,0.1-0.3,0.2-0.4c0-0.1,0-0.2,0-0.3c-0.1,0-0.2,0.1-0.2,0.1
				c-0.1,0.1-0.2,0.2-0.2,0.2c0-0.2,0-0.2-0.3-0.2c0.1-0.1,0.1-0.2,0.2-0.4c0,0,0-0.1,0-0.2c-0.1,0-0.1,0-0.2,0.1
				c-0.1,0.1-0.2,0.2-0.3,0.3c0-0.1,0-0.2-0.1-0.2c-0.1,0-0.1,0-0.2,0.1c0.1-0.2,0.2-0.3,0.2-0.4c0,0,0-0.1,0-0.1c0,0-0.1,0-0.1,0
				c-0.2,0.1-0.4,0.3-0.4,0.5c0,0.2,0,0.4-0.2,0.5C76,6.8,76,6.9,75.9,7c0.1,0,0.2,0,0.3,0c0,0,0,0,0.1,0c0.1-0.1,0.1-0.2,0.2-0.3
				C76.6,6.7,76.6,6.6,76.7,6.6z M76,9.8c-0.1,0.1-0.1,0.1,0,0.2c0.1,0.1,0.6,0.2,0.7,0c0.2-0.2,0.5-0.5,0.7-0.7
				c0.2-0.2,0.4-0.5,0.6-0.7c0,0.1,0,0.1-0.1,0.2C77.9,9,77.9,9,78,9c0,0,0.1,0,0.1,0c0.4-0.2,0.7-0.5,0.9-0.9c0,0,0.1-0.1,0.1-0.1
				c0,0,0-0.1,0-0.1c0,0-0.1,0-0.1,0c-0.1,0-0.1,0.1-0.2,0.1c-0.2,0.2-0.4,0.4-0.6,0.5c0,0-0.1,0-0.1,0.1c0,0,0,0,0,0
				c0,0,0.1-0.1,0.1-0.1c0.1-0.2,0.3-0.5,0.4-0.7c0-0.1,0-0.1,0-0.2c0-0.1-0.1-0.1-0.1-0.1c-0.1,0.1-0.2,0.2-0.3,0.2
				c-0.4,0.4-0.8,0.9-1.2,1.3c-0.2,0.2-0.5,0.5-0.7,0.7c-0.1-0.1-0.1-0.2-0.1-0.2C76.1,9.4,76,9.3,76,9.3c0,0-0.1,0-0.2-0.1
				c-0.1,0-0.2,0-0.3,0.1c0,0.1,0,0.2,0.1,0.2C75.8,9.6,75.9,9.7,76,9.8z M75.4,15.2C75.4,15.2,75.4,15.3,75.4,15.2
				C75.4,15.3,75.4,15.3,75.4,15.2c0.2,0.1,0.1,0.2,0.1,0.3c0,0.1-0.1,0.3-0.1,0.4c0,0,0,0.1,0,0.1c0,0,0.1,0,0.1,0c0,0,0,0,0.1-0.1
				c0.4-0.5,0.6-1,0.8-1.6c0-0.1,0-0.1,0-0.2c0-0.1,0-0.1,0-0.2c0-0.3,0.1-0.7,0.1-1c0-0.2-0.1-0.3-0.3-0.2c-0.1,0-0.1-0.1-0.1-0.1
				c0,0.1-0.1,0.1-0.1,0.2c0,0,0,0.1,0,0.1c0,0.3-0.1,0.5-0.1,0.8c-0.1,0.4-0.1,0.9-0.3,1.3c0,0.1-0.1,0.1-0.2,0.1
				C75.4,15.2,75.4,15.2,75.4,15.2z M65.1,7.1C65.1,7.1,65.1,7.1,65.1,7.1c0.1-0.1,0.1-0.2,0.1-0.3c0-0.3-0.1-0.6-0.2-0.9
				c-0.1-0.3-0.2-0.6-0.3-0.9c0-0.1-0.1-0.1-0.2-0.2c-0.1,0.2-0.1,0.3-0.1,0.5c0,0.2,0.1,0.4,0.1,0.5c0.1,0.4,0.3,0.8,0.4,1.2
				C65,7,65,7,65.1,7.1z M77.8,7.8C77.8,7.8,77.9,7.8,77.8,7.8c0.4-0.2,0.6-0.5,0.7-0.9c0,0,0-0.1,0-0.1c0,0-0.1,0-0.1,0
				c-0.1,0-0.1,0.1-0.2,0.1c-0.2,0.2-0.3,0.4-0.4,0.6C77.7,7.6,77.7,7.7,77.8,7.8C77.7,7.8,77.8,7.8,77.8,7.8z M72.4,12.5
				C72.4,12.4,72.4,12.4,72.4,12.5c0-0.1-0.1-0.1-0.1-0.1c-0.1-0.1-0.2-0.1-0.2-0.2C72,12,71.9,11.9,72,11.8c0-0.1,0-0.1,0-0.2
				c0,0,0,0,0,0c-0.1,0.1-0.2,0.2-0.2,0.3c-0.1,0.1-0.1,0.2-0.2,0.2c-0.1,0-0.1,0.1-0.2,0.1c0,0,0,0,0,0.1c0,0,0.1,0,0.1,0
				c0.2,0.1,0.5,0.2,0.7,0.3C72.3,12.5,72.4,12.5,72.4,12.5z M76.2,9.3c0.2-0.1,0.3-0.2,0.4-0.3c0.1-0.2,0.1-0.3-0.1-0.3
				c-0.1,0-0.2,0.1-0.3,0.1c-0.2,0.1-0.2,0.1-0.2,0.3C76,9.3,76,9.3,76.2,9.3z M72.8,16.3C72.8,16.4,72.8,16.4,72.8,16.3
				c0.1,0.1,0.1,0.2,0.2,0.2c0-0.1,0.1-0.1,0.1-0.2c0-0.2,0-0.4,0-0.6c0,0-0.1-0.1-0.1-0.1c0,0-0.1,0-0.1,0
				C72.8,15.9,72.7,16.1,72.8,16.3z M68.7,2.7c0,0,0-0.1,0-0.2c0-0.1,0-0.2-0.1-0.2c-0.1,0-0.1,0.1-0.2,0.1c0,0.1,0,0.2,0,0.3
				c0.1,0.1,0.2,0.3,0.3,0.4c0,0,0.1,0,0.1,0c0-0.1,0.1-0.2,0.1-0.3C68.9,2.8,68.8,2.8,68.7,2.7z M70.9,4.1c0,0-0.1,0-0.1,0.1
				c0,0.1-0.1,0.1-0.1,0.2c0,0.1,0.1,0.1,0.1,0.1c0,0,0.1-0.1,0.2-0.1c0.1-0.1,0.1-0.1,0.1-0.2c0,0,0.1-0.1,0.1-0.1
				c0-0.1-0.1-0.2-0.1-0.3c0,0-0.1-0.1-0.1-0.1c0,0-0.1,0.1-0.1,0.1C70.9,3.8,70.9,3.9,70.9,4.1z M75.9,5.1C76,5,76,5,76.1,5
				c0,0,0.1-0.1,0-0.1C76.1,4.8,76,4.7,76,4.7c0-0.1,0.1-0.2,0.1-0.3c0-0.1-0.1-0.2-0.2-0.1c-0.1,0.1-0.1,0.3,0,0.4
				c-0.1,0-0.3,0-0.2,0.2C75.7,5,75.8,5.1,75.9,5.1z M74.2,3.8C74.2,3.8,74.2,3.7,74.2,3.8c0-0.1,0-0.1,0-0.2c0,0-0.1,0-0.1,0
				c-0.1,0.1-0.2,0.2-0.2,0.3C73.7,4,73.7,4,73.9,4.1c0.1,0,0.1,0,0.2,0c0,0,0.1,0,0.1,0.1c0,0.1,0.1,0.1,0.2,0.1
				c0.1,0,0.1-0.1,0-0.2C74.3,4,74.2,3.9,74.2,3.8z M76.5,14.7c-0.1,0.2-0.2,0.4-0.2,0.5c0,0.1,0,0.2,0.1,0.3c0,0,0.1,0,0.1,0
				C76.6,15.4,76.7,15,76.5,14.7z M72.6,11C72.6,11,72.6,11,72.6,11c-0.2,0.1-0.3,0.2-0.3,0.3c0,0,0,0.1,0,0.1
				c0.1,0.1,0.1,0.2,0.2,0.2c0.1,0,0.2,0,0.2-0.1c0.1-0.1,0.1-0.2,0.2-0.3c0,0,0-0.1,0-0.2C72.8,11,72.7,11,72.6,11z M73.3,11.5
				C73.3,11.5,73.3,11.5,73.3,11.5c-0.1,0.1-0.1,0.2-0.2,0.3c0,0,0,0,0,0c0,0.1,0.1,0.3,0.1,0.3c0.1,0.1,0.2,0,0.2-0.1
				C73.4,11.9,73.4,11.7,73.3,11.5z M65,3.8C65,3.8,65,3.8,65,3.8c-0.1-0.1-0.1-0.2-0.2-0.1c0,0-0.1,0.1-0.1,0.1c0,0.1,0,0.2,0,0.3
				c0,0,0,0.1,0.1,0.1c0,0,0.1,0,0.1-0.1C65,4.1,65,3.9,65,3.8z M76.6,5.2C76.6,5.2,76.6,5.2,76.6,5.2c0-0.1-0.1-0.1-0.1-0.2
				c0-0.1,0-0.1-0.1-0.1c0,0-0.1,0-0.2,0c0,0,0,0.1,0,0.2c0,0,0,0.1,0,0.1c0,0.1,0,0.1,0.1,0.2c0,0,0.1,0,0.1,0
				C76.6,5.4,76.6,5.3,76.6,5.2z M69.2,2.6c-0.2,0-0.3,0-0.3,0.2C69,2.9,69,3,69,3.1c0,0,0.1,0.1,0.1,0c0,0,0.1-0.1,0.1-0.1
				C69.2,2.9,69.2,2.7,69.2,2.6z M75,6.5c-0.1,0-0.1,0.1-0.1,0.2c0,0.1,0.2,0.2,0.3,0.2c0.1,0,0.1-0.2,0.1-0.3
				C75.2,6.5,75.1,6.4,75,6.5z M70,3.9c0,0.1,0.1,0.2,0.2,0.2c0.1,0,0.2-0.1,0.1-0.2c0-0.1-0.2-0.2-0.2-0.2C70,3.6,70,3.8,70,3.9z
				 M77.9,5.8c0-0.1,0-0.1-0.1-0.1c0,0-0.1,0-0.1,0c-0.1,0.1-0.1,0.2-0.1,0.2c-0.1,0.1,0,0.2,0,0.2c0.1,0,0.2,0,0.2-0.1
				C77.9,5.9,77.9,5.8,77.9,5.8z M75,10.6c0-0.1-0.1-0.1-0.1-0.1c-0.1,0-0.2,0.1-0.3,0.1c0,0,0,0.1-0.1,0.1c0,0,0.1,0.1,0.1,0.1
				c0.1,0,0.2,0,0.3,0C75,10.8,75.1,10.7,75,10.6z M77.5,5.5c0.1,0.1,0.1,0.1,0.2,0.1c0.1-0.1,0.1-0.1,0.2-0.2c0,0,0-0.2,0-0.2
				c-0.1,0-0.2,0-0.2,0C77.6,5.3,77.5,5.4,77.5,5.5z M77.3,8c-0.1,0-0.1,0.1-0.1,0.2c0,0.1,0.1,0.2,0.2,0.2c0.1,0,0.2-0.2,0.1-0.3
				C77.5,8.1,77.4,8.1,77.3,8z M69.4,3.2c-0.1-0.1-0.1-0.1-0.2-0.2c-0.1,0.1-0.1,0.1-0.2,0.2c0,0.1,0,0.2,0.1,0.2c0,0,0.1,0,0.1,0
				C69.4,3.4,69.4,3.3,69.4,3.2z M77,4.6c-0.1-0.1-0.1-0.1-0.1-0.1c0,0-0.1,0-0.1,0.1c0,0.1-0.1,0.1-0.1,0.2c0,0,0,0.1,0.1,0.1
				c0,0,0.1,0,0.1,0C76.9,4.9,76.9,4.8,77,4.6z M76.3,16c-0.1-0.1-0.2-0.2-0.3-0.2c-0.1,0-0.1,0.1-0.1,0.1c0,0.1,0.2,0.3,0.2,0.2
				C76.2,16.2,76.2,16.1,76.3,16z M68.7,3.3C68.7,3.3,68.6,3.3,68.7,3.3c-0.1,0.1-0.1,0.2-0.1,0.2c0,0,0,0.1,0,0.1c0,0,0.1,0,0.2,0
				c0,0,0.1-0.1,0.1-0.1C68.8,3.5,68.7,3.4,68.7,3.3z M73.7,12.4c-0.1-0.1-0.2-0.1-0.3-0.2c0,0.1-0.1,0.1-0.1,0.2
				c0,0.1,0.2,0.2,0.3,0.1C73.7,12.5,73.7,12.4,73.7,12.4z M75.5,12.2c0.1,0.1,0.2,0.2,0.2,0.2c0.1,0,0.1-0.1,0.1-0.2
				c0-0.1-0.1-0.2-0.2-0.1C75.6,12,75.6,12.1,75.5,12.2z M66.4,2.8C66.4,2.8,66.4,2.9,66.4,2.8c0.1,0.1,0.1,0.1,0.1,0.2
				c0,0,0.1-0.1,0.1-0.1c0,0,0,0,0-0.1c0-0.1-0.1-0.2-0.2-0.2C66.3,2.6,66.4,2.7,66.4,2.8C66.4,2.8,66.4,2.8,66.4,2.8z M76.5,4.2
				c-0.2,0-0.2,0.1-0.2,0.2c0,0.1,0.1,0.1,0.1,0.1C76.5,4.5,76.6,4.4,76.5,4.2C76.6,4.3,76.5,4.3,76.5,4.2z M72.9,3.7
				c0,0-0.1-0.1-0.1-0.1c-0.1,0-0.1,0.2-0.1,0.2c0,0,0.1,0.1,0.1,0.1C72.8,4,72.9,3.8,72.9,3.7z M68.7,2.6c0.1,0,0.1,0.1,0.1,0.1
				C68.9,2.6,69,2.5,69,2.4c-0.1,0-0.1-0.1-0.2-0.1C68.8,2.4,68.8,2.5,68.7,2.6z M70.8,3.2C70.7,3.2,70.7,3.2,70.8,3.2
				c0,0.1,0,0.1,0,0.2c0,0,0.1,0,0.1,0c0,0,0,0,0,0C70.9,3.2,70.8,3.2,70.8,3.2z M77.6,9.8c0-0.1,0.1-0.1,0.1-0.1c0,0-0.1,0-0.1-0.1
				c0,0,0,0.1,0,0.1C77.5,9.7,77.6,9.7,77.6,9.8z M71.8,11.4C71.8,11.4,71.8,11.4,71.8,11.4c0.1,0,0.1,0,0.2,0c0,0-0.1-0.1-0.1-0.1
				C71.8,11.3,71.8,11.3,71.8,11.4z M65.4,4.3C65.3,4.3,65.3,4.3,65.4,4.3c-0.1,0-0.1,0.1-0.1,0.1c0,0,0.1,0,0.1,0
				C65.3,4.4,65.4,4.4,65.4,4.3z"/>
		</g>
		<g>
			<path class="st0" d="M66.6,11.6c0.3,0,0.4,0.2,0.4,0.5c0,0.2-0.1,0.3-0.2,0.5c-0.1,0.2-0.2,0.3-0.3,0.5c-0.1-0.1-0.1-0.2-0.2-0.3
				c0,0-0.1,0-0.1-0.1c0,0.1,0,0.1,0,0.2c0,0.1,0.1,0.2,0.2,0.3c0,0,0,0,0,0c0,0-0.1-0.1-0.1-0.1c-0.1,0.1-0.1,0.5,0.1,0.6
				c0.1,0,0.2,0,0.2,0c0.1-0.1,0.2-0.2,0.3-0.4c0,0,0-0.1,0.1-0.1c0,0.1,0,0.2,0,0.2c-0.1,0.5-0.3,1-0.4,1.4
				c-0.1,0.3-0.2,0.6-0.3,0.8c0,0.1,0,0.1,0,0.2c0,0,0,0,0,0c0,0,0.1-0.1,0.1-0.1c0.1-0.1,0.2-0.3,0.3-0.4c0.4-0.5,0.5-1.1,0.6-1.7
				c0-0.2,0-0.3,0-0.5c0-0.1-0.1-0.2-0.3-0.2c0.1-0.1,0.1-0.2,0.2-0.4c0.1,0.1,0.2,0.1,0.2,0c0.1-0.2,0.4-0.2,0.6-0.2
				c0,0.1,0,0.2,0,0.2c0.1,0.1,0.2,0,0.3-0.1c0,0.1,0.1,0.2,0.1,0.2c0.1,0,0.2,0,0.3-0.1c0,0.1,0,0.1,0,0.2
				c-0.1,0.4-0.1,0.7-0.2,1.1c-0.2,0.8-0.5,1.6-0.9,2.3c-0.1,0.1-0.2,0.3-0.2,0.4c-0.1,0.1-0.2,0.1-0.3,0.1c-0.1,0-0.2-0.1-0.2-0.2
				c0-0.1,0-0.2,0-0.2c0,0,0,0,0,0c-0.1,0.1-0.2,0.3-0.4,0.4c-0.3-0.4-0.9-0.4-1.3-0.5c0-0.2,0-0.2-0.2-0.3c-0.3,0-0.5-0.1-0.8-0.1
				c0,0-0.1,0-0.1,0c-0.2-0.2-0.4-0.3-0.6-0.5c-0.2-0.2-0.3-0.4-0.5-0.6c0,0,0-0.1-0.1-0.1c0-0.1-0.1-0.2-0.1-0.2c0,0-0.1,0-0.2,0.1
				c0,0,0,0-0.1,0.1c0-0.2,0.1-0.3,0.1-0.5c0,0,0-0.1,0-0.1c0-0.1,0-0.2-0.1-0.3c-0.1-0.1-0.2,0-0.3,0c0,0-0.1,0-0.1,0
				c-0.1-0.2-0.3-0.4-0.5-0.4c-0.1-0.1-0.1-0.2-0.1-0.2c-0.1-0.1-0.2-0.2-0.3-0.4c-0.1-0.1,0-0.2,0.1-0.2c0.2,0,0.3,0,0.5,0
				c0,0,0,0,0,0c0.1,0.2,0.2,0.1,0.4,0.1c0-0.1,0-0.1,0-0.1c0.1,0,0.1-0.1,0.1-0.1c0,0,0,0.1,0.1,0.1c0-0.1,0.1-0.1,0.1-0.1
				c0.1-0.1,0.2-0.3,0.3-0.5c0.2-0.3,0.4-0.5,0.7-0.6c0,0,0,0,0,0c0.2-0.1,0.2-0.1,0-0.3c0.1-0.1,0.3-0.2,0.4-0.3
				c0.2-0.1,0.4-0.3,0.5-0.5c0.2-0.2,0.3-0.3,0.3-0.6c0,0,0-0.1,0.1-0.2c-0.2,0-0.3,0-0.5,0c0.1-0.1,0.1-0.1,0.2-0.1
				c0.1,0,0.2,0,0.3-0.1c0.1,0,0.1,0,0.2-0.1c0.2-0.1,0.3-0.4,0.1-0.6c0,0-0.1,0-0.2,0c-0.2,0-0.4,0-0.6,0c0-0.1,0-0.1,0-0.1
				c0-0.2,0-0.2-0.2-0.2c-0.1,0-0.2,0-0.4,0c0,0,0,0,0,0c0.1,0,0.1,0,0.2,0c0.9,0,1.8,0,2.7,0.2c0.2,0,0.3,0.1,0.5,0.2
				c0.1,0,0.2,0.1,0.2,0.1c0,0.1-0.1,0.2-0.1,0.2c0.1,0,0.1,0.1,0.2,0.1c0.2,0,0.3,0,0.4,0.2c0.3,0.3,0.6,0.5,0.9,0.8
				c0.3,0.3,0.6,0.6,0.7,0.9c0,0,0,0,0.1-0.1c0.1-0.1,0.3-0.1,0.4,0c0.1,0.1,0.1,0.2,0.1,0.3c0,0.5-0.1,0.9-0.3,1.4c0,0,0,0,0,0
				c0-0.1,0-0.1,0-0.2c0-0.1,0.1-0.3,0.1-0.4c0-0.2-0.1-0.2-0.2-0.1c-0.1,0.1-0.2,0.1-0.2,0.2c0,0-0.1,0.1-0.1,0.1
				c0,0-0.1-0.1-0.1-0.1c0-0.1,0.1-0.3,0.2-0.3c0,0,0.1,0,0.1-0.1c0-0.1,0-0.2-0.1-0.2c-0.1,0-0.2,0-0.2,0.1
				c-0.1,0.1-0.1,0.3-0.2,0.4c0,0,0,0.1,0,0.1c-0.2,0-0.3-0.1-0.2-0.3c0-0.1,0-0.2-0.1-0.2c-0.2,0-0.3,0-0.5,0c-0.1,0-0.1,0-0.2,0
				c-0.1-0.1-0.2-0.1-0.2,0c-0.1-0.1,0-0.2,0.1-0.2c0.1,0,0.2,0,0.3,0c0.3,0,0.4,0,0.5-0.2c0.1,0,0.1,0.1,0.2,0.1c0,0,0,0,0.1,0
				c0,0,0.1,0.1,0.1,0c0.1-0.1,0.1-0.1,0.2-0.2c0,0-0.1-0.1-0.1-0.1c-0.1,0-0.1,0-0.2-0.1c0-0.1,0-0.1,0.1-0.2c0-0.1,0-0.2,0-0.2
				c0,0,0,0,0,0c0,0-0.1,0.1-0.1,0.1c-0.1,0.2-0.3,0.3-0.4,0.5c0,0-0.1,0.1-0.2,0.1c-0.1,0-0.1-0.1-0.1-0.2c0-0.1,0-0.2,0-0.3
				c0-0.1,0-0.1-0.1-0.1c-0.1,0.1-0.2,0.1-0.2,0.2c-0.1,0.1-0.1,0.1-0.2,0c0-0.1-0.1-0.1-0.1,0c0,0,0,0,0,0c-0.1,0-0.2,0.1-0.2,0.2
				c0,0.1-0.1,0.3-0.1,0.4c0,0.1,0,0.2,0.1,0.2c0,0,0.1,0,0.2-0.1c-0.1,0.3-0.3,0.3-0.6,0c0,0,0.1-0.1,0.1-0.1
				c0.2-0.2,0.2-0.4,0-0.6c-0.1-0.1-0.3-0.2-0.4-0.3c0,0,0-0.1,0-0.1c0-0.1,0-0.2-0.1-0.2c0,0-0.1,0-0.2,0c-0.3,0.3-0.6,0.6-0.9,0.9
				c0,0-0.1,0-0.1,0.1c0,0-0.1,0.1-0.1,0.1c-0.1,0.1-0.2,0.2-0.2,0.4c-0.4,0.7-0.6,1.5-0.9,2.3c0,0.1,0,0.2-0.1,0.4c0,0,0.1,0,0.1,0
				c0.1-0.2,0.3-0.3,0.4-0.6c0.1-0.4,0.3-0.8,0.5-1.2c0,0,0.1-0.1,0.1-0.1c0,0.1,0.1,0.2,0.1,0.3c0,0.2,0,0.5,0.1,0.7
				c0,0.2,0,0.4,0,0.7c0,0.1,0,0.2,0.1,0.3c0,0,0.1,0.1,0.1,0.1c0,0,0-0.1,0.1-0.1c0-0.1,0.1-0.2,0.1-0.3c0.1-0.1,0.1-0.2,0.2-0.2
				c0.1-0.1,0.1-0.2-0.1-0.2c0,0,0,0-0.1-0.1c0.2,0,0.3-0.2,0.2-0.4c0-0.1,0-0.1,0-0.2c0.1-0.2,0.2-0.4,0.2-0.5c0,0,0,0,0,0
				c0.1,0,0.1-0.1,0.2-0.2C66.5,11.9,66.6,11.8,66.6,11.6z M63.7,12.9C63.7,12.9,63.7,12.9,63.7,12.9c0.1-0.1,0.2-0.2,0.3-0.3
				c0.3-0.6,0.6-1.3,1.1-1.9c0.2-0.3,0.5-0.6,0.9-0.8c0.3-0.2,0.7-0.2,1,0c0,0,0.1,0,0.1,0c0.2-0.1,0.2-0.3,0-0.5
				c-0.1,0-0.2-0.1-0.2-0.1c-0.1-0.1-0.1,0-0.1,0c0,0-0.1,0-0.1,0.1c0-0.1,0-0.2,0-0.2c-0.1,0-0.2,0-0.2,0c0-0.1,0-0.2-0.1-0.3
				c-0.1,0-0.2,0-0.2,0.1c-0.2,0-0.3,0-0.3,0.1c0,0.2,0.2,0.2,0.3,0.2c-0.7,0.7-1.3,1.4-2,2c-0.1,0-0.2,0-0.2,0
				c-0.1,0.1-0.1,0.2-0.2,0.3c-0.2,0.4-0.3,0.8-0.5,1.2c-0.1,0.2-0.1,0.4-0.2,0.6c0,0,0,0.1,0,0.2c0,0,0.1,0,0.1-0.1
				c0.2-0.1,0.3-0.2,0.3-0.4c0-0.3,0.1-0.6,0.4-0.8C63.7,12.4,63.6,12.6,63.7,12.9z M67.5,14.4c-0.1-0.1-0.1-0.1-0.2-0.1
				c-0.1,0-0.1,0-0.2,0.1c-0.1,0.1,0,0.2,0,0.2c0,0,0.1,0.1,0.1,0.1c0,0,0,0,0,0.1c0,0.1,0.1,0.3,0.1,0.4c0,0.1,0.1,0.1,0.2,0
				c0,0,0-0.1,0.1-0.1c0.2-0.6,0.4-1.3,0.6-1.9c0-0.1,0.1-0.3,0.1-0.5c0,0,0-0.1,0-0.1c0,0-0.1,0-0.1,0.1c-0.1,0-0.1,0.1-0.2,0.1
				c0,0,0,0,0,0C67.8,13.3,67.8,13.9,67.5,14.4z M65.3,15.7C65.3,15.7,65.3,15.8,65.3,15.7c0.5-0.3,0.7-0.9,0.9-1.3
				c0.1,0,0.1,0,0.2,0c0-0.1-0.1-0.1-0.1-0.2c0,0,0,0,0-0.1c0.1-0.1,0.1-0.3,0-0.5c0,0-0.1-0.1-0.1-0.1c0,0-0.1,0.1-0.1,0.1
				c0,0.1,0,0.1-0.1,0.2c-0.1,0.2-0.3,0.5-0.4,0.7c-0.1,0.3-0.2,0.5-0.3,0.8C65.3,15.5,65.3,15.6,65.3,15.7z M62.5,12.5
				c-0.3,0.1-0.6,0.4-0.6,0.6C62.1,13.1,62.5,12.7,62.5,12.5z M67.6,9.6c-0.1,0-0.2,0.1-0.2,0.2c0,0.1,0.2,0.2,0.2,0.2
				c0.1,0,0.2-0.2,0.1-0.3C67.7,9.6,67.6,9.5,67.6,9.6z M63.8,13.1c-0.1,0-0.1-0.1-0.2-0.1c-0.1,0-0.2,0.2-0.2,0.2
				c0,0.1,0,0.2,0.1,0.2C63.7,13.4,63.8,13.3,63.8,13.1z M63.4,14.4C63.4,14.4,63.4,14.4,63.4,14.4c0,0.1,0.1,0.1,0.1,0.1
				c0,0,0.1-0.1,0.1-0.1c0,0,0,0,0-0.1c0-0.1,0-0.2,0-0.2c-0.1,0-0.1-0.1-0.2-0.1C63.4,14.2,63.4,14.3,63.4,14.4
				C63.4,14.4,63.4,14.4,63.4,14.4z M68.5,10.2c0-0.1,0.1-0.1,0.1-0.2c0-0.1-0.1-0.1-0.1-0.2c-0.1,0-0.1,0.1-0.2,0.1c0,0,0,0,0,0
				c0,0.1-0.1,0.1,0,0.2C68.4,10.2,68.5,10.2,68.5,10.2z M67.3,9.1C67.2,9.1,67.2,9.1,67.3,9.1c-0.1,0.1,0,0.1,0,0.2
				c0,0,0.1,0,0.1-0.1C67.3,9.2,67.3,9.1,67.3,9.1z"/>
		</g>
		<g>
			<path class="st0" d="M60.9,11.2c0.1-0.1,0.2-0.2,0.3-0.3c0,0,0,0,0-0.1c-0.1,0-0.2,0-0.4,0c0,0,0-0.1,0-0.1c0,0-0.1,0-0.1-0.1
				c0.1-0.1,0.2-0.2,0.3-0.3c0,0,0,0,0,0c0-0.1,0.1-0.1,0.1-0.2c-0.1,0-0.1-0.1-0.2-0.1c0,0,0,0-0.1,0c0-0.1,0.1-0.1,0.1-0.2
				c0.1,0.2,0.2,0.2,0.3,0.1c0.1-0.1,0.2-0.1,0.2-0.2c0,0,0-0.1,0-0.1c0,0-0.1,0-0.1,0c-0.1,0-0.2,0-0.3,0.1
				c0.1-0.1,0.2-0.2,0.1-0.3c0,0,0.1-0.1,0.1-0.1c0-0.1,0-0.2-0.1-0.2c0.3-0.3,0.6-0.4,0.9-0.1C62,9,61.9,9.2,61.8,9.3
				c0,0-0.1,0.1-0.1,0.1c0,0.1,0,0.1-0.1,0.2c0.1,0,0.1,0,0.2,0c0,0,0.1,0,0.1,0c-0.1,0.1-0.1,0.1-0.1,0.2c0,0.1,0,0.1,0.1,0.1
				c0.3,0,0.5-0.1,0.7-0.3c0.1-0.1,0-0.1,0-0.2c-0.1,0-0.1,0-0.2-0.1c0.2-0.2,0.4-0.4,0.6-0.5c0.3-0.2,0.9-0.2,1.2,0
				c0.1,0.1,0.2,0.2,0,0.4c-0.2,0.2-0.3,0.4-0.5,0.5c-0.7,0.6-1.3,1.2-2,1.7c-0.1,0.1-0.1,0.1-0.2,0.1c-0.1,0-0.2,0-0.2,0.1
				c0,0.1,0,0.2,0,0.2c0,0.1,0.1,0.1,0.2,0.1c0.1,0,0.2-0.1,0.4-0.1c-0.1,0.1-0.2,0.2-0.3,0.4c-0.1-0.1-0.3-0.1-0.4-0.2
				c-0.1-0.1-0.1-0.2,0-0.3c0,0,0.1-0.1,0.1-0.1c0,0,0.1-0.1,0.1-0.1c0,0,0,0,0,0C61.1,11.2,61,11.2,60.9,11.2z M61.9,10.7
				c0.3,0,0.5-0.2,0.6-0.4c0.2,0.1,0.3,0.1,0.4-0.1C63,10.1,63,10,63,9.9c0,0,0-0.1,0.1-0.1c0.2-0.1,0.3-0.3,0.4-0.4
				c0-0.1,0-0.1,0-0.2c-0.1,0-0.1,0-0.2,0c-0.2,0.1-0.5,0.3-0.7,0.5c-0.3,0.2-0.5,0.6-0.7,0.9C61.9,10.6,61.9,10.6,61.9,10.7
				c-0.1-0.1-0.2-0.1-0.2,0c0,0.1-0.1,0.1-0.1,0.2C61.8,11,61.9,10.9,61.9,10.7z M61.1,10.5c0,0,0.1,0.1,0.2,0.1
				c0.1,0,0.2-0.2,0.2-0.3c0-0.1-0.1-0.1-0.2-0.1C61.1,10.2,61,10.4,61.1,10.5z M61.4,10.5C61.4,10.5,61.4,10.5,61.4,10.5
				c-0.1,0-0.1,0.1-0.1,0.2c0,0,0.1,0,0.1,0C61.4,10.7,61.4,10.6,61.4,10.5z"/>
		</g>
		<g>
			<path class="st0" d="M70,12.7c-0.1,0.6-0.2,1.2-0.4,1.8c-0.1,0.7-0.4,1.3-0.7,1.9c-0.1,0.1-0.1,0.2-0.1,0.3c-0.2-0.2-0.3,0-0.5,0
				c0-0.2-0.2-0.2-0.4-0.2c0.2-0.4,0.3-0.8,0.5-1.1c0.2-0.1,0.3-0.4,0.3-0.6c0-0.1,0.1-0.3,0.1-0.5c0.1-0.4,0.2-0.8,0.3-1.3
				c0-0.1,0.1-0.1,0.2-0.1C69.6,13,69.8,13,70,12.7z M69.4,14.9C69.4,14.9,69.4,14.9,69.4,14.9c0.1-0.2,0.2-0.4,0.3-0.6
				c0.1-0.2,0.1-0.4,0.1-0.6c0-0.1,0-0.2-0.1-0.2c0,0,0,0-0.1,0c-0.2,0.4-0.4,0.8-0.4,1.2C69.3,14.8,69.3,14.9,69.4,14.9z M69,15.4
				c0.1,0.1,0.1,0.1,0.2,0.2c0,0,0.1-0.1,0.1-0.2c0-0.1,0-0.2,0.1-0.3c0-0.1,0-0.1-0.1-0.2c-0.1,0-0.2,0-0.2,0.1
				C69.1,15.2,69,15.3,69,15.4z"/>
		</g>
		<g>
			<path class="st0" d="M70.5,13c0,0,0.1,0.1,0.2,0.1c-0.2,0.7-0.4,2.3-0.2,2.5c0.1-0.1,0.1-0.3,0.2-0.4c0-0.2,0.1-0.3,0.1-0.5
				c0.1,0,0.1,0.1,0.1,0.1c0,0.1,0,0.3,0,0.4c-0.1,0.7-0.3,1.3-0.6,2c0,0,0,0,0,0.1c0-0.4-0.1-0.7-0.1-1c0,0,0,0,0,0
				c-0.2,0.3-0.2,0.6-0.3,0.8c-0.1-0.1-0.1-0.2-0.2-0.3c-0.1-0.1-0.2,0-0.4,0.1C69.7,15.6,70.1,14.3,70.5,13z"/>
		</g>
		<g>
			<path class="st0" d="M61.5,5.3c0.1-0.1,0.2-0.1,0.3-0.2c0-0.3,0.2-0.6,0.3-0.8c0.1-0.1,0.2-0.1,0.2,0c0.1,0.2,0.3,0.3,0.4,0.5
				c0,0.1,0,0.2,0,0.2c0,0.3,0.1,0.7,0.1,1c0,0,0,0.1,0,0.1C62.8,6,62.7,6,62.6,5.9c0,0-0.1,0-0.1,0c0,0-0.1,0-0.2,0
				c0,0.1,0,0.1,0,0.2c0.1,0.2,0.2,0.4,0.4,0.5c0,0,0.1,0.1,0.1,0.1c-0.2,0-0.3-0.1-0.4-0.2c-0.1-0.1-0.2-0.3-0.3-0.4
				c-0.1-0.1-0.2-0.3-0.3-0.4C61.8,5.5,61.7,5.4,61.5,5.3z M62.7,4.9c-0.1-0.1-0.2-0.2-0.2-0.3c0,0-0.1,0-0.2,0c0,0.1,0,0.1,0,0.2
				c0.1,0.1,0.1,0.3,0.2,0.4c0,0.1,0.1,0.1,0.1,0C62.7,5.1,62.7,5,62.7,4.9z M62.8,5.6c0-0.1-0.1-0.2-0.2-0.1c0,0-0.1,0-0.1,0
				c0,0-0.1,0-0.1,0c0,0,0,0.1,0,0.1c0,0.1,0.2,0.2,0.3,0.2C62.8,5.8,62.8,5.7,62.8,5.6z M62,5.4c0-0.1,0.1-0.1,0.1-0.2
				c0,0-0.1,0-0.1-0.1C62,5.2,62,5.2,62,5.4C62,5.3,62,5.3,62,5.4z"/>
		</g>
		<g>
			<path class="st0" d="M60.7,7.9c0,0.1-0.1,0.1-0.1,0.2c0,0,0.1,0.1,0.2,0.1c0,0,0.1,0,0.2,0c0,0-0.1,0-0.1,0.1
				c0,0-0.1,0.1-0.1,0.1c0.1,0,0.1,0.1,0.2,0.1c0.1,0,0.2,0,0.2-0.1c0.1-0.1,0.2-0.1,0.3-0.2c0,0,0.1,0.1,0.2,0.1
				c-0.3,0.2-0.5,0.4-0.8,0.6c0,0-0.1,0-0.2,0c0,0.1,0,0.1,0,0.2c-0.1,0-0.2,0-0.2-0.1c0-0.1-0.1-0.2-0.3-0.2c0-0.1-0.1-0.1-0.1-0.1
				c-0.1,0-0.2,0-0.3-0.2c-0.1-0.4,0.1-0.6,0.4-0.7C60.4,7.9,60.6,7.9,60.7,7.9z"/>
		</g>
		<g>
			<path class="st0" d="M61.7,7C61.5,7,61.4,7,61.3,7c-0.2,0.1-0.3,0.1-0.5,0.2c-0.3,0.1-0.4,0-0.4-0.4c0.1,0,0.1,0,0.2,0
				c0.3-0.1,0.3-0.2,0.1-0.5c0.1,0,0.2,0.1,0.3-0.1c0,0,0,0,0,0c0.1,0.1,0.2,0.1,0.2-0.1c0-0.2,0.1-0.3,0.1-0.5c0,0,0-0.1,0-0.1
				c0.2,0.3,0.3,0.5,0.5,0.8C62,6.4,62,6.5,62,6.7c-0.1-0.1-0.1-0.2-0.2-0.3c-0.1-0.1-0.2-0.2-0.2-0.2c0,0-0.1,0-0.1,0
				c0,0,0,0.1,0,0.1c0,0.1,0.1,0.2,0.1,0.3C61.6,6.6,61.6,6.8,61.7,7z"/>
		</g>
		<g>
			<path class="st0" d="M73.1,5.9c-0.2,0.7-0.5,1.3-0.9,1.9c0,0.1-0.1,0.1-0.1,0.2c0-0.3-0.2-0.5-0.4-0.6c0.1-0.5,0.3-1,0.4-1.4
				c0.1-0.2,0.2-0.5,0.4-0.6c0,0.1-0.1,0.2-0.1,0.2c-0.1,0.2-0.1,0.3-0.2,0.5c-0.1,0.2,0,0.3,0.2,0.3c0,0.2-0.1,0.4-0.1,0.5
				c0,0.1,0,0.1,0.1,0.2c0.1,0,0.1-0.1,0.2-0.1c0.1-0.2,0.2-0.4,0.3-0.6C72.9,6.2,73,6,73.1,5.9C73.1,5.9,73.1,5.9,73.1,5.9z"/>
		</g>
		<g>
			<path class="st0" d="M61.9,12.2c0.2-0.2,0.2-0.3,0-0.7c0.9-0.5,1.6-1.2,2.4-1.9c0,0.1,0,0.2-0.4,0.5c-0.2-0.1-0.3,0-0.2,0.2
				c0,0.2-0.1,0.3-0.3,0.3c-0.1,0-0.2,0.1-0.4,0.1c0,0-0.1,0-0.1,0.1c0,0,0,0,0,0c0.1,0,0.2,0.1,0.3,0.1c-0.1,0.1-0.1,0.1-0.1,0.2
				c-0.3,0.4-0.7,0.7-1.1,1.1C62.1,12.2,62,12.1,61.9,12.2z M62.3,11.7c0.1-0.1,0.2-0.1,0.2-0.2c0-0.1-0.1-0.1-0.2-0.1
				c-0.1,0-0.1,0.1-0.2,0.2C62.2,11.6,62.2,11.7,62.3,11.7z"/>
		</g>
		<g>
			<path class="st0" d="M67.3,5c0-0.1,0-0.2-0.1-0.2c-0.1-0.1-0.3-0.1-0.3,0c0,0.1-0.1,0.3-0.1,0.4c0,0-0.1,0-0.1,0
				c-0.1,0-0.1-0.1-0.1-0.2c0.1-0.2,0.1-0.4,0-0.6c0,0,0-0.1,0-0.1c0,0,0-0.1,0-0.1c0-0.1,0-0.2,0.1-0.4c0.2,0,0.2,0,0.1-0.2
				c-0.1-0.3,0-0.4,0.1-0.5c0,0,0,0,0,0c0,0,0,0.1,0,0.1c0,0.2,0,0.5,0,0.7c0,0,0,0.1,0.1,0.1c0,0,0.1,0,0.1-0.1
				c0.1-0.2,0.2-0.3,0.3-0.5C67.5,3.7,67.4,4.8,67.3,5z"/>
		</g>
		<g>
			<path class="st0" d="M73.5,7.4c-0.1,0.2-0.1,0.3-0.2,0.5c-0.2,0.3-0.4,0.6-0.7,0.9c0,0-0.1,0.1-0.1,0c0,0-0.1-0.1-0.1-0.1
				c0-0.1,0-0.2,0-0.3c0.2-0.3,0.3-0.6,0.5-0.9C73,7.3,73.1,7.1,73.3,7c0,0.1-0.1,0.3-0.1,0.4c0,0,0,0.1,0,0.1c0,0,0.1,0,0.1-0.1
				C73.4,7.5,73.4,7.4,73.5,7.4C73.4,7.4,73.5,7.4,73.5,7.4z"/>
		</g>
		<g>
			<path class="st0" d="M74.6,13.2c-0.1,0-0.1,0-0.2,0c-0.1-0.5-0.2-1-0.3-1.5c0.1,0,0.1,0,0.1,0.1c0,0,0.1,0.1,0.1,0.1
				c0.2,0.2,0.3,0.2,0.4-0.1c0,0.1,0.1,0.2,0.1,0.3c0,0.2-0.1,0.1-0.2,0.2C75,12.5,75,12.7,75,13C74.8,12.9,74.6,13,74.6,13.2z"/>
		</g>
		<g>
			<path class="st0" d="M73.6,5.5c0.1-0.2,0.1-0.4,0.2-0.6C73.9,5,73.9,5,74,5.1c0.1,0,0.1,0,0.2,0c-0.2,0.4-0.3,0.8-0.6,1.1
				c-0.1,0.1-0.1,0.2-0.1,0.2c0,0.1,0,0.2,0,0.3c-0.1,0-0.1,0-0.2,0c0-0.1,0-0.2,0.1-0.3c0.1-0.1,0.1-0.2,0.2-0.3
				c0.1-0.1,0.2-0.3,0.2-0.4C73.7,5.6,73.7,5.6,73.6,5.5z"/>
		</g>
		<g>
			<path class="st0" d="M65.5,12.9c-0.1-0.4-0.1-0.8,0-1.2c0.1-0.1,0.2-0.3,0.3-0.3c0,0.3,0,0.6,0,0.8
				C65.7,12.5,65.6,12.7,65.5,12.9z"/>
		</g>
		<g>
			<path class="st0" d="M72.8,4.4c-0.1,0.1-0.1,0.2-0.2,0.3c-0.1,0.1-0.1,0.2-0.2,0.4c0-0.1-0.1-0.1-0.1-0.1
				c0.1-0.1,0.1-0.2,0.1-0.3c0-0.1,0-0.1-0.1-0.2c-0.1,0-0.1,0.1-0.2,0.1c-0.1,0.1-0.1,0.3-0.2,0.4c0,0-0.1,0-0.1-0.1
				c0.1-0.1,0.2-0.3,0.3-0.4c0.1-0.1,0.2-0.1,0.4-0.1C72.7,4.5,72.8,4.4,72.8,4.4L72.8,4.4z"/>
		</g>
		<g>
			<path class="st0" d="M74.8,14.2c-0.1-0.1-0.1-0.2-0.1-0.2c0,0-0.1,0-0.2,0c0,0.1,0,0.2,0,0.3c0,0,0,0-0.1,0c0-0.2,0-0.4,0.1-0.5
				c0.1,0.1,0.2,0.2,0.4,0.2c0,0,0.1,0,0.1,0c0,0,0-0.1-0.1-0.1c-0.1,0-0.1-0.1-0.2-0.1c0.1,0,0.2,0,0.2-0.1c0.1,0,0.1-0.1,0.1-0.2
				C75.1,13.9,75,14.1,74.8,14.2z"/>
		</g>
		<g>
			<path class="st0" d="M78,11.3c0-0.2-0.1-0.3-0.3-0.3c0.3-0.1,0.5-0.2,0.8-0.2C78.3,11,78.1,11.2,78,11.3z"/>
		</g>
		<g>
			<path class="st0" d="M62.7,8.3c-0.2,0.2-0.3,0.4-0.5,0.5c0-0.1-0.1-0.1-0.1-0.2c0.1-0.1,0.3-0.2,0.4-0.3
				C62.6,8.2,62.7,8.2,62.7,8.3c0.1,0,0.1,0.1,0.1,0.1c0,0,0,0,0,0C62.8,8.3,62.8,8.3,62.7,8.3z"/>
		</g>
		<g>
			<path class="st0" d="M72,8.2c0,0.1,0,0.3-0.2,0.3c-0.1,0.1-0.2,0-0.3-0.1c0-0.1,0.1-0.1,0.1-0.2c0,0,0.1,0,0.1,0
				C71.9,8.2,71.9,8.2,72,8.2z"/>
		</g>
		<g>
			<path class="st0" d="M66.8,5.5C66.9,5.5,66.9,5.5,66.8,5.5c0.2,0,0.3-0.1,0.4-0.2c0,0.1,0.1,0.2,0.1,0.4
				C67.2,5.6,67,5.6,66.8,5.5C66.8,5.6,66.8,5.5,66.8,5.5z"/>
		</g>
		<g>
			<path class="st0" d="M68.8,6c-0.1-0.1-0.2-0.1-0.4,0c0,0,0,0,0,0c0,0,0-0.1,0-0.1c0.1,0,0.1-0.1,0.2-0.1
				C68.8,5.8,68.8,5.9,68.8,6z"/>
		</g>
		<g>
			<path class="st0" d="M62.7,7.1c0,0,0.1-0.1,0.1-0.1c0.1,0.2,0.1,0.4,0,0.4c0-0.1,0-0.1,0-0.2C62.8,7.2,62.7,7.2,62.7,7.1z"/>
		</g>
		<g>
			<path class="st0" d="M60.8,9.6c-0.1,0-0.2,0.1-0.2,0.1c0,0-0.1-0.1-0.1-0.2c0,0,0-0.1,0.1-0.1c0,0.1,0,0.1,0.1,0.2
				C60.7,9.6,60.8,9.6,60.8,9.6C60.8,9.6,60.8,9.6,60.8,9.6z"/>
		</g>
		<g>
			<path class="st0" d="M63.4,7.9c0,0-0.1,0-0.1,0c0,0,0,0,0,0C63.3,7.8,63.3,7.8,63.4,7.9C63.4,7.8,63.4,7.9,63.4,7.9
				c0.1,0,0.1,0.1,0,0.2c0,0,0,0,0,0C63.4,8,63.4,7.9,63.4,7.9z"/>
		</g>
		<g>
			<path class="st0" d="M66.1,10.9c0.1,0,0.2-0.1,0.3-0.1C66.4,10.9,66.3,10.9,66.1,10.9z"/>
		</g>
		<g>
			<path class="st0" d="M68.8,12c0.1,0,0.2,0,0.3,0c0,0,0,0,0,0.1C69,12.1,68.9,12.1,68.8,12C68.8,12,68.8,12,68.8,12z"/>
		</g>
		<g>
			<path class="st0" d="M62.3,7.2c-0.1-0.1-0.1-0.1-0.2-0.1C62.2,7,62.2,7,62.3,7.2z"/>
		</g>
		<g>
			<path class="st0" d="M72.8,4.4c0-0.1,0-0.1,0-0.2c0,0,0.1,0,0.1,0C72.9,4.3,72.8,4.4,72.8,4.4C72.8,4.4,72.8,4.4,72.8,4.4z"/>
		</g>
		<g>
			<path class="st0" d="M67.7,10.8c0,0-0.1,0.1-0.1,0.1c0,0,0,0,0,0C67.6,10.8,67.6,10.8,67.7,10.8C67.7,10.8,67.7,10.8,67.7,10.8z"
				/>
		</g>
		<g>
			<path class="st0" d="M67.3,3.2c-0.1,0-0.1,0-0.1-0.1c0,0,0.1-0.1,0.1-0.1C67.3,3,67.3,3.1,67.3,3.2z"/>
		</g>
		<g>
			<path class="st0" d="M77.1,6.7c0.1,0.1,0.1,0.2,0.2,0.3c-0.2,0.3-0.4,0.5-0.8,0.6C76.7,7.3,76.9,7,77.1,6.7z"/>
		</g>
	</g>
</g>
</svg>
