<?xml version="1.0" encoding="utf-8"?>
<!-- Generator: Adobe Illustrator 28.0.0, SVG Export Plug-In . SVG Version: 6.00 Build 0)  -->
<svg version="1.1" id="Layer_1" xmlns="http://www.w3.org/2000/svg" xmlns:xlink="http://www.w3.org/1999/xlink" x="0px" y="0px"
	 viewBox="0 0 398.3 254.2" style="enable-background:new 0 0 398.3 254.2;" xml:space="preserve">
<style type="text/css">
	.st0{fill-rule:evenodd;clip-rule:evenodd;fill:#F1F1F1;}
	.st1{fill:#F1F1F1;}
	.st2{enable-background:new    ;}
</style>
<g>
	<polygon class="st0" points="210.2,50.4 208.6,49.5 208.5,49.4 208.4,49.2 208.3,49 208.2,48.9 208.2,48.7 208.1,48.5 208.1,48.3 
		208.1,48.2 208.1,48 208.1,47.7 208.2,47.5 208.3,47.2 208.4,46.9 208.5,46.6 208.6,46.3 208.9,45.9 209.1,45.5 209.3,45.2 
		209.6,44.8 209.9,44.4 210.2,44.1 210.5,43.7 210.8,43.4 211.1,43.1 211.5,42.8 211.8,42.5 212.2,42.3 212.6,42.1 213,41.9 
		213.3,41.7 213.7,41.6 214.1,41.5 214.5,41.4 214.9,41.3 215.2,41.2 215.5,41.2 215.9,41.2 216.1,41.2 216.4,41.2 216.6,41.2 
		216.9,41.3 217.1,41.3 217.1,41.4 217.2,41.4 217.3,41.5 217.3,41.5 217.3,41.5 217.3,41.6 217.2,41.6 217.2,41.7 217.1,41.7 
		217.1,41.8 216.8,41.9 216.5,42.1 215.5,42.4 214.9,42.7 214.3,43 214,43.1 213.6,43.3 213.3,43.6 213,43.8 212.7,44 212.4,44.2 
		212.2,44.4 212,44.7 211.8,44.9 211.6,45.1 211.5,45.4 211.3,45.6 211.2,45.9 211.1,46.1 211,46.4 210.9,46.7 210.9,47 210.9,47.3 
		210.8,47.9 210.9,48.4 210.9,49.3 210.9,49.7 210.8,50.1 	"/>
	<polygon class="st0" points="300.2,40.6 300.1,40.7 300.1,40.8 300,40.8 299.7,41 299.4,41.1 298.9,41.3 298.5,41.5 298.1,41.6 
		297.7,41.8 297.3,42 296.8,42.2 296.5,42.4 296.2,42.6 295.9,42.8 295.3,43.3 294.8,43.8 294,44.5 293.6,44.8 293.2,45.1 
		292.9,45.4 292.5,45.6 292.3,45.7 292.1,45.8 292,45.8 291.9,45.8 291.8,45.8 291.7,45.8 291.6,45.7 291.5,45.6 291.5,45.5 
		291.4,45.4 291.4,45.3 291.4,45.1 291.3,44.8 291.3,44.5 291.3,44.3 291.4,44.1 291.4,43.9 291.5,43.8 291.5,43.6 291.6,43.5 
		291.7,43.3 291.9,43.1 292.1,42.9 292.3,42.7 292.6,42.5 292.8,42.2 293.1,42 293.5,41.7 293.8,41.4 294.2,41.2 294.6,41 295,40.7 
		295.4,40.5 295.7,40.4 296,40.2 296.4,40.1 296.7,40 296.9,39.9 297.2,39.8 297.5,39.7 297.7,39.7 298,39.7 298.3,39.7 298.7,39.7 
		299,39.7 299.3,39.8 299.5,39.8 299.8,39.9 299.9,40 300.1,40.1 300.2,40.2 300.3,40.3 300.3,40.3 300.3,40.4 300.3,40.5 	"/>
	<polygon class="st0" points="261.1,39.9 260.6,40.1 260.2,40.3 259.8,40.5 259.4,40.7 259,40.9 258.7,41.2 258.4,41.4 258.2,41.5 
		258,41.7 257.9,42 257.7,42.2 257.5,42.4 257.4,42.7 257.3,42.9 257.2,43.2 257.1,43.4 257,43.7 257,43.9 257,44.1 257,44.3 
		257,44.6 257.1,44.8 257.1,45.1 257.2,45.5 257.3,45.8 257.4,46.1 257.5,46.3 257.5,46.6 257.5,46.8 257.5,46.9 257.5,47.1 
		257.4,47.2 257.4,47.3 257.3,47.4 257.2,47.5 257.1,47.6 257,47.6 256.9,47.7 256.7,47.7 256.5,47.7 256.4,47.7 256.1,47.7 
		255.9,47.6 255.7,47.5 255.5,47.4 255.4,47.3 255.2,47.2 255,47 254.8,46.9 254.6,46.7 254.5,46.6 254.4,46.4 254.3,46.2 
		254.2,46.1 254.1,45.9 254,45.8 254,45.6 254,45.4 253.9,45.2 253.9,45 254,44.8 254,44.6 254,44.3 254.1,44.1 254.2,43.8 
		254.4,43.5 254.5,43.2 254.7,42.9 254.9,42.5 255.1,42.2 255.4,41.8 255.7,41.4 256,41.1 256.3,40.7 256.7,40.4 257,40.1 
		257.4,39.7 257.8,39.4 258.1,39.2 258.5,39 258.8,38.9 259.1,38.7 259.5,38.6 259.8,38.4 260.1,38.3 260.5,38.2 260.8,38.2 
		261.1,38.1 261.3,38 261.6,38 261.9,38 262.2,38 262.4,38 262.5,38.1 262.6,38.1 262.7,38.2 262.7,38.2 262.7,38.3 262.8,38.3 
		262.8,38.4 262.8,38.5 262.7,38.5 262.7,38.6 262.6,38.7 262.5,38.8 262.4,38.9 262.3,39.1 262.1,39.3 261.9,39.4 261.6,39.6 
		261.4,39.7 	"/>
	<polygon class="st0" points="231.9,41.1 231.9,41.4 231.8,41.6 231.8,41.8 231.8,42.3 231.9,42.7 231.9,43.2 231.9,43.7 
		231.9,44.2 231.9,44.4 231.8,44.6 231.8,44.8 231.8,45 231.7,45.1 231.6,45.2 231.5,45.3 231.4,45.4 231.3,45.4 231.2,45.5 
		231.1,45.5 230.9,45.5 230.8,45.4 230.6,45.4 230.4,45.3 230.2,45.2 230,45 229.7,44.8 229.6,44.7 229.5,44.5 229.4,44.4 
		229.3,44.2 229.3,44.1 229.2,43.9 229.2,43.7 229.1,43.5 229.1,43.4 229.1,43.1 229.1,42.9 229.1,42.7 229.2,42.5 229.3,42.2 
		229.4,42 229.5,41.6 229.6,41.3 229.8,41 230.1,40.6 230.3,40.2 230.6,39.8 230.9,39.3 231.2,38.9 231.5,38.5 231.8,38.1 
		232.2,37.8 232.5,37.4 232.8,37.2 233,37 233.3,36.7 233.6,36.5 233.9,36.4 234.2,36.2 234.5,36.1 234.8,35.9 235,35.9 235.2,35.8 
		235.5,35.7 235.9,35.7 236.3,35.7 236.7,35.7 237.1,35.7 237.3,35.7 237.6,35.8 237.7,35.8 237.8,35.9 237.9,35.9 237.9,36 
		237.9,36 237.9,36.1 237.9,36.1 237.8,36.2 237.8,36.3 237.7,36.3 237.4,36.5 237.1,36.7 235.9,37.3 235.5,37.6 235.1,37.8 
		234.6,38.1 234.1,38.5 233.8,38.7 233.5,38.9 233.2,39.2 233,39.4 232.8,39.6 232.6,39.9 232.4,40.1 232.3,40.3 232.2,40.5 
		232.1,40.7 232,40.9 	"/>
	<polygon class="st0" points="279.6,40.2 279.5,40.4 279.4,40.5 279.4,40.7 279.3,41 279.3,41.2 279.3,41.5 279.3,42 279.4,42.5 
		279.4,43.1 279.4,43.5 279.4,43.9 279.4,44.1 279.4,44.3 279.3,44.4 279.3,44.5 279.2,44.6 279.2,44.7 279.1,44.7 279,44.8 
		278.9,44.8 278.8,44.8 278.6,44.8 278.5,44.7 278.2,44.6 278,44.5 277.7,44.3 277.4,44.1 277.2,43.9 277,43.6 276.8,43.5 
		276.8,43.4 276.7,43.2 276.6,43.1 276.6,43 276.5,42.8 276.5,42.6 276.5,42.5 276.5,42.3 276.5,42.1 276.6,41.9 276.6,41.7 
		276.7,41.4 276.8,41.2 277,40.9 277.2,40.5 277.5,40 277.8,39.6 278.1,39.2 278.4,38.8 278.7,38.4 279,38.1 279.3,37.7 279.6,37.4 
		279.9,37.1 280.2,36.9 280.5,36.6 280.9,36.4 281.2,36.2 281.6,36 281.9,35.8 282.2,35.7 282.5,35.6 282.8,35.5 283.1,35.5 
		283.3,35.4 283.6,35.4 284,35.3 284.4,35.3 284.7,35.3 285,35.3 285.2,35.4 285.4,35.4 285.5,35.5 285.6,35.5 285.6,35.6 
		285.6,35.7 285.6,35.7 285.5,35.8 285.5,35.9 285.4,35.9 285.3,36 285.1,36.1 284.6,36.4 284.1,36.6 283.4,37 282.9,37.3 
		282.4,37.5 282.1,37.8 281.7,38 281.4,38.2 281.1,38.5 280.8,38.7 280.5,39 280.3,39.2 280.1,39.4 279.9,39.6 279.8,39.8 279.7,40 
			"/>
	<polygon class="st0" points="306.7,36.2 306.9,36.6 307,37 307.1,37.4 307.5,39.3 307.9,41.2 308.3,43.3 307.6,42.6 307,41.8 
		306.3,41 305.7,40.2 305.1,39.4 304.5,38.7 304,37.9 303.4,37.1 302.9,36.3 302.3,35.4 301.8,34.6 301.5,33.9 301.2,33.3 
		300.9,32.7 300.7,32.3 300.6,32 300.5,31.6 300.4,31.4 300.4,31.2 300.4,31 300.4,30.9 300.4,30.8 300.5,30.7 300.5,30.6 
		300.6,30.6 300.7,30.5 300.8,30.5 300.9,30.5 301,30.5 301.1,30.5 301.3,30.5 301.5,30.5 301.7,30.6 302,30.7 302.2,30.8 302.5,31 
		302.8,31.2 303.1,31.4 303.3,31.6 303.5,31.8 303.8,32 304,32.2 304.4,32.7 304.8,33.1 305.2,33.6 305.5,34.1 305.9,34.6 
		306.2,35.1 306.4,35.4 306.6,35.8 	"/>
	<polygon class="st0" points="200.8,36 200.7,36.2 200.6,36.4 200.6,36.6 200.5,36.8 200.5,37 200.5,37.2 200.5,37.6 200.5,38 
		200.5,38.3 200.5,38.6 200.5,39 200.4,39.3 200.4,39.5 200.4,39.7 200.3,39.8 200.2,39.9 200.2,40 200.1,40.1 200,40.1 200,40.1 
		199.8,40.1 199.7,40.1 199.6,40 199.4,40 199.3,39.8 199.1,39.7 199,39.6 198.8,39.4 198.7,39.2 198.5,39 198.4,38.8 198.2,38.5 
		198.1,38.3 198,38.1 198,37.9 197.9,37.7 197.9,37.6 197.9,37.4 197.9,37.2 197.9,37 198,36.8 198.1,36.6 198.2,36.3 198.3,36 
		198.4,35.7 198.6,35.4 198.9,35 199.1,34.6 199.4,34.2 199.8,33.8 200.1,33.3 200.5,32.9 200.9,32.5 201.3,32.1 201.6,31.8 
		202,31.5 202.3,31.2 202.7,31 203,30.8 203.3,30.6 203.6,30.4 203.9,30.3 204.2,30.1 204.5,30 204.8,29.9 205.1,29.9 205.4,29.8 
		205.6,29.7 205.9,29.7 206.3,29.7 206.6,29.7 206.8,29.7 207.1,29.8 207.2,29.8 207.3,29.9 207.4,29.9 207.4,30 207.4,30 
		207.4,30.1 207.4,30.1 207.4,30.2 207.4,30.3 207.3,30.4 207.2,30.4 207,30.6 206.8,30.8 206.6,30.9 206,31.3 205.5,31.7 205,32 
		204.6,32.3 203.9,32.8 203.3,33.3 202.9,33.6 202.4,34 202.1,34.3 201.8,34.6 201.5,34.9 201.3,35.3 201.1,35.5 200.9,35.7 	"/>
	<polygon class="st0" points="247.3,33.1 247.2,33.3 247.2,33.5 247.2,33.6 247.2,33.9 247.2,34.2 247.3,34.8 247.4,35.2 
		247.4,35.6 247.5,35.9 247.5,36.1 247.5,36.3 247.4,36.5 247.4,36.6 247.4,36.7 247.3,36.8 247.3,36.9 247.2,37 247.1,37 247,37 
		246.9,37 246.7,37 246.6,36.9 246.3,36.8 246.1,36.7 245.8,36.4 245.5,36.2 245.2,35.9 245,35.7 244.9,35.5 244.8,35.4 244.7,35.2 
		244.6,35 244.6,34.9 244.5,34.7 244.5,34.6 244.5,34.4 244.5,34.3 244.5,34 244.5,33.8 244.6,33.6 244.7,33.4 244.7,33.1 
		244.8,32.9 245,32.6 245.1,32.3 245.3,32 245.5,31.7 245.7,31.4 245.9,31.1 246.1,30.8 246.4,30.5 246.6,30.3 246.8,30 247.1,29.8 
		247.4,29.6 247.7,29.4 248,29.2 248.2,29.1 248.4,29 248.7,28.9 249.1,28.7 249.5,28.6 249.9,28.6 250.3,28.5 250.6,28.5 251,28.5 
		251.3,28.5 251.6,28.5 251.8,28.6 252,28.6 252.1,28.7 252.1,28.8 252.2,28.8 252.2,28.9 252.2,29 252.1,29 252,29.2 251.9,29.2 
		251.8,29.3 251.4,29.6 251,29.8 250.3,30.2 249.9,30.5 249.5,30.7 249.2,31 248.9,31.2 248.6,31.4 248.4,31.6 248.2,31.9 
		247.9,32.1 247.8,32.3 247.6,32.5 247.5,32.7 247.4,32.8 247.3,33 	"/>
	<polygon class="st0" points="219.9,31 219.8,31.2 219.7,31.3 219.7,31.5 219.6,31.8 219.6,32.1 219.6,32.4 219.6,33 219.7,33.6 
		219.7,34.2 219.8,34.6 219.8,34.9 219.7,35.1 219.7,35.2 219.7,35.4 219.6,35.5 219.6,35.6 219.5,35.6 219.5,35.7 219.4,35.8 
		219.3,35.8 219.1,35.8 219,35.8 218.8,35.8 218.6,35.8 218.4,35.7 218.1,35.6 217.9,35.4 217.7,35.3 217.5,35.1 217.4,35 
		217.3,34.9 217.2,34.7 217.1,34.6 217.1,34.4 217,34.3 217,34.1 217,33.9 217,33.7 217,33.4 217,33.2 217,32.9 217.1,32.6 
		217.1,32.3 217.2,31.9 217.3,31.6 217.4,31.3 217.6,31 217.7,30.7 217.9,30.3 218,30.1 218.2,29.8 218.4,29.5 218.6,29.3 218.8,29 
		219,28.8 219.2,28.6 219.5,28.4 219.7,28.2 220,28 220.3,27.8 220.6,27.6 220.9,27.4 221.3,27.3 221.7,27.1 222.1,26.9 222.4,26.8 
		222.8,26.7 223.2,26.6 223.6,26.5 224,26.4 224.3,26.3 224.5,26.3 224.6,26.3 224.7,26.4 224.8,26.4 224.8,26.5 224.8,26.5 
		224.8,26.6 224.8,26.6 224.7,26.7 224.6,26.8 224.5,26.9 224.2,27.2 223.9,27.5 223.3,27.9 222.8,28.3 222.2,28.7 221.6,29.1 
		221.3,29.3 221,29.6 220.7,29.8 220.5,30 220.4,30.2 220.2,30.4 220.1,30.6 220,30.8 	"/>
	<polygon class="st0" points="293.7,30.9 294,31.4 294.3,31.9 294.5,32.4 294.8,32.9 294.9,33.2 295,33.5 295.1,33.8 295.2,34.1 
		295.2,34.4 295.2,34.7 295.2,35 295.2,35.3 295.1,35.6 295,35.9 294.9,36.1 294.8,36.4 294.6,36.6 294,36 293.4,35.5 292.9,34.9 
		292.3,34.3 291.5,33.4 290.7,32.5 290,31.6 289.4,30.8 288.8,30 288.2,29.2 287.9,28.7 287.6,28.2 287.3,27.7 287.1,27.4 287,27.1 
		286.9,26.8 286.9,26.6 286.8,26.5 286.9,26.3 286.9,26.2 286.9,26.1 287,26.1 287,26 287.1,26 287.2,25.9 287.3,25.9 287.4,25.9 
		287.6,25.9 287.8,25.9 288,25.9 288.2,26 288.5,26.1 288.8,26.2 289.1,26.4 289.5,26.6 289.8,26.8 290.2,27 290.6,27.3 290.9,27.6 
		291.3,27.9 291.7,28.3 292,28.7 292.4,29.1 292.8,29.7 293.3,30.3 	"/>
	<polygon class="st0" points="278.4,22.5 278.8,22.9 279.1,23.3 279.5,23.6 279.8,24.1 280.2,24.6 280.5,25 280.8,25.6 281.1,26.1 
		281.4,26.7 281.7,27.2 281.9,27.7 282.1,28.3 282.3,28.7 282.4,29.2 282.5,29.6 282.5,29.9 282.6,30.3 282.6,30.6 282.6,30.9 
		282.6,31.1 282.5,31.4 282.4,31.6 282.3,31.8 282.3,31.9 282.2,32.1 282,32.2 281.9,32.4 281.8,32.5 281.6,32.6 281.5,32.7 
		281.3,32.7 281.2,32.8 281,32.8 280.8,32.8 280.7,32.8 280.6,32.7 280.4,32.7 280.3,32.6 280.2,32.5 280.1,32.4 279.9,32.3 
		279.8,32.1 279.6,31.8 279.5,31.6 279.2,31 278.9,30.5 278.7,29.9 278.4,29.3 278.2,28.8 277.9,28.4 277.7,27.9 277.3,27.4 
		276.9,26.9 276.6,26.4 275.7,25.4 275.4,25 275,24.6 274.7,24.1 274.4,23.7 274.1,23.2 273.9,22.8 273.7,22.4 273.5,22 273.4,21.6 
		273.3,21.4 273.2,21.2 273.2,20.9 273.2,20.8 273.2,20.7 273.2,20.6 273.3,20.5 273.3,20.4 273.4,20.4 273.5,20.3 273.6,20.3 
		273.7,20.3 273.9,20.3 274,20.3 274.2,20.3 274.5,20.4 274.7,20.4 275,20.5 275.5,20.7 275.9,20.9 276.4,21.1 276.8,21.4 
		277.3,21.7 277.6,21.9 278,22.2 	"/>
	<polygon class="st0" points="290.9,19.6 293,20.4 295.1,21.2 297.2,22 298.5,22.5 299.7,23.1 301,23.7 302.2,24.3 303.6,24.9 
		304.9,25.6 306.2,26.3 307.5,27 309.6,28.2 311.7,29.5 313.8,30.7 316,32.1 318.2,33.6 320.4,35.1 322.3,36.3 324.1,37.6 326,39 
		326.9,39.7 327.8,40.4 328.8,41.2 329.7,42 330.4,42.6 331.2,43.3 331.9,44 332.6,44.7 333.4,45.6 334.2,46.4 335,47.3 335.3,47.7 
		335.7,48.1 336,48.6 336.3,49 336.5,49.3 336.7,49.7 336.8,50 336.9,50.2 336.9,50.3 337,50.5 336.9,50.6 336.9,50.8 336.8,50.9 
		336.8,51 336.7,51 336.6,51.1 336.4,51.2 336.2,51.2 336,51.2 335.7,51.3 335.4,51.3 335,51.3 334.7,51.3 334.4,51.2 334,51.2 
		333.7,51.1 333.4,51 333.1,50.9 332.7,50.7 332.3,50.4 331.9,50.2 331.6,49.9 331.2,49.6 330.6,49.2 330.1,48.7 328.5,47.3 
		327,45.8 325.6,44.5 324.2,43.2 322.3,41.5 320.3,39.8 319.6,39.3 318.9,38.7 318.2,38.2 317.5,37.7 317.2,37.4 316.8,37.2 
		316.6,37.1 316.4,37 316.3,36.9 316.2,36.9 316.1,36.9 316,36.9 316,36.9 315.9,36.9 315.9,36.9 315.9,37 315.9,37.1 316,37.2 
		316,37.3 316.1,37.5 316.3,37.8 316.5,38.1 316.8,38.5 317.4,39.4 318.1,40.4 318.8,41.2 321.3,44.4 322.3,45.5 323.2,46.7 
		323.5,47.1 323.8,47.6 324.1,48.1 324.3,48.3 324.4,48.6 324.4,48.9 324.5,49 324.5,49.1 324.4,49.3 324.4,49.4 324.3,49.5 
		324.3,49.6 324.2,49.7 324,49.7 323.9,49.8 323.7,49.8 323.6,49.8 323.4,49.8 323.1,49.8 322.9,49.8 322.6,49.7 322.4,49.6 
		322.1,49.5 321.9,49.4 321.7,49.2 321.6,49.1 321.4,48.9 320.9,48.3 320.4,47.7 320.1,47.3 319.8,46.9 319.4,46.5 318.4,45.4 
		317.3,44.3 316,42.9 315.4,42.2 314.8,41.6 314.2,40.9 313.9,40.6 313.7,40.2 313.4,39.9 313.1,39.5 313,39.2 312.9,39 312.8,38.7 
		312.7,38.5 312.6,38.2 312.5,37.9 312.5,37.7 312.5,37.5 312.5,37.2 312.6,37 312.6,36.8 312.7,36.6 312.8,36.3 312.9,36 
		313.1,35.7 313.1,35.6 313.2,35.5 313.2,35.3 313.2,35.2 313.2,35.1 313.1,35 313.1,34.9 312.9,34.7 312.7,34.5 312.5,34.3 
		312.1,34 311.6,33.6 311.2,33.3 310.5,32.9 309.8,32.5 309.1,32.1 308.3,31.7 306.7,30.8 305,29.9 303.3,29.1 301,28 298.7,27 
		296.4,26 294,24.9 291.6,24 289.2,23 286.8,22.1 284.4,21.3 282,20.5 276.9,18.8 276,18.5 275,18.2 274.1,17.9 273.5,17.6 
		272.8,17.3 272.1,17.1 271.7,16.9 271.3,16.6 271,16.4 270.8,16.2 270.6,16.1 270.4,15.9 270.3,15.7 270.2,15.6 270.1,15.4 
		270.1,15.3 270.1,15.2 270.1,15.1 270.2,14.9 270.2,14.8 270.3,14.7 270.4,14.6 270.6,14.6 270.7,14.5 270.9,14.4 271.1,14.4 
		271.4,14.3 271.7,14.3 272.1,14.3 272.4,14.3 273,14.3 273.6,14.4 274.1,14.4 274.9,14.6 275.6,14.7 276.3,14.9 277.1,15.1 
		278.2,15.4 279.3,15.7 280.9,16.2 282.4,16.7 286.7,18.1 	"/>
	<polygon class="st0" points="257.7,1.9 261.4,2.6 265.1,3.3 268.8,4.1 272.5,5 275.5,5.8 278.4,6.6 281.4,7.4 284.4,8.3 287.3,9.3 
		289.6,10 291.8,10.8 294,11.7 296.2,12.5 298.3,13.4 300.4,14.3 301.9,15 303.5,15.7 305.1,16.5 306.6,17.3 308.8,18.4 310.9,19.6 
		313,20.8 315.4,22.1 317.7,23.5 320,24.9 322.5,26.5 324.9,28.1 327.3,29.7 330.6,32 333.9,34.4 337.2,36.7 340.4,39.2 341.3,39.9 
		342.2,40.6 343,41.3 343.9,42 344.4,42.4 344.8,42.8 345.2,43.2 345.7,43.7 345.9,43.9 346.1,44.2 346.3,44.4 346.5,44.7 
		346.5,44.9 346.6,45 346.7,45.2 346.7,45.4 346.7,45.5 346.7,45.6 346.7,45.8 346.7,45.9 346.6,46 346.5,46.1 346.4,46.2 
		346.2,46.3 346.1,46.4 345.9,46.4 345.6,46.5 345.4,46.6 345.1,46.6 344.8,46.6 344.4,46.6 344,46.6 343.6,46.5 343.1,46.5 
		342.7,46.4 342.1,46.3 341.6,46.1 341.1,46 340.6,45.8 340.1,45.6 339.6,45.4 339.1,45.1 338.5,44.8 337.9,44.5 337.3,44.1 
		336.7,43.8 336,43.3 335.2,42.8 334.5,42.3 333.8,41.8 332,40.4 330.2,39 326.6,36.2 325.1,35 323.6,33.8 322.5,33 321.4,32.2 
		320.3,31.4 318.8,30.3 317.3,29.3 315.7,28.3 314.2,27.3 312.6,26.4 311,25.4 309.7,24.7 308.3,23.9 306.9,23.2 305.5,22.5 
		303.4,21.4 301.3,20.5 299.2,19.5 296.7,18.5 294.2,17.4 291.7,16.5 287.5,14.9 283.3,13.3 279,11.9 274.7,10.5 270.3,9.1 266,7.8 
		263.9,7.2 261.8,6.7 259.7,6.2 258.5,5.9 257.4,5.6 256.2,5.4 255.1,5.2 254.2,5 253.2,4.9 252.3,4.8 251.4,4.7 250.6,4.7 
		249.8,4.6 249,4.6 248.2,4.6 249.1,5 249.9,5.4 250.8,5.8 251.6,6.2 252.4,6.6 253.2,7.1 254,7.5 254.8,8 255.5,8.5 256.2,9 
		256.9,9.5 257.7,10 258.3,10.5 258.9,11 259.5,11.5 260.1,12.1 260.7,12.6 261.2,13.2 261.7,13.7 262.2,14.3 262.7,14.8 
		263.1,15.4 263.6,16 264,16.6 264.3,17.2 264.7,17.8 265,18.4 265.4,19.1 265.7,19.7 266,20.3 266.2,21 266.5,21.6 266.7,22.3 
		266.9,22.9 267.1,23.6 267.2,24.2 267.4,24.9 267.5,25.6 267.6,26.2 267.6,26.9 267.6,27.6 267.6,28 267.6,28.5 267.6,28.9 
		267.6,29.2 267.5,29.6 267.4,29.9 267.3,30.2 267.2,30.4 267.1,30.7 267,30.9 266.9,31.1 266.7,31.3 266.5,31.5 266.4,31.6 
		266.2,31.8 266,31.9 265.7,32 265.5,32.1 265.3,32.2 265,32.2 264.8,32.3 264.5,32.3 264.2,32.3 263.9,32.3 263.6,32.2 263.3,32.2 
		263.1,32.1 262.9,32 262.7,31.9 262.5,31.8 262.4,31.6 262.3,31.5 262.2,31.4 262.1,31.2 262,31.1 261.9,30.9 261.9,30.7 
		261.9,30.4 261.9,30.2 261.9,30 261.9,29.6 261.9,29.3 261.9,28.9 261.9,28.5 261.9,28.2 261.9,27.6 261.9,27.1 261.8,26.6 
		261.7,26 261.6,25.7 261.6,25.4 261.5,25.1 261.4,24.9 261.2,24.6 261.1,24.4 261,24.2 260.8,24 260.6,23.9 260.4,23.7 260.2,23.6 
		260,23.4 259.6,23.3 259.3,23.1 259,23 258.5,22.9 258,22.7 257.5,22.6 256.8,22.4 256,22.2 255.3,22.1 254.2,21.9 253.2,21.7 
		252.1,21.6 250.7,21.4 249.3,21.3 247.9,21.2 245.1,21 242.3,20.8 237.5,20.6 232.8,20.5 228,20.4 225.3,20.4 222.6,20.5 220,20.6 
		217.3,20.7 214.6,20.9 211.5,21.1 208.4,21.4 205.3,21.8 202.2,22.2 199.1,22.6 196.1,23.1 193.1,23.7 190,24.3 187.7,24.8 
		185.4,25.3 183.1,25.9 180.7,26.5 178.4,27.1 176.4,27.8 174.3,28.4 172.2,29.1 170.2,29.8 168.1,30.5 166.4,31.2 164.7,31.8 
		163,32.5 161.3,33.3 159.7,34 158.6,34.5 157.5,35.1 156.4,35.6 155.5,36.1 154.6,36.6 153.8,37.2 153.1,37.6 152.4,38.1 
		151.7,38.6 151,39.1 150.4,39.6 149.7,40.1 149,40.8 148.4,41.4 147.7,42.1 147,42.7 146.3,43.5 146,43.8 145.7,44.1 145.3,44.4 
		144.9,44.7 144.6,45 144.2,45.2 143.9,45.4 143.6,45.5 143.3,45.6 143.1,45.7 142.8,45.7 142.5,45.7 142.2,45.8 142.1,45.7 
		141.9,45.7 141.8,45.7 141.6,45.6 141.5,45.6 141.4,45.5 141.3,45.4 141.2,45.3 141.1,45.1 141.1,45 141.1,44.9 141.1,44.7 
		141.1,44.6 141.1,44.4 141.1,44.2 141.2,44 141.3,43.8 141.4,43.5 141.6,43.2 141.7,42.9 142,42.5 142.2,42.1 142.5,41.8 
		142.9,41.3 143.3,40.9 143.7,40.4 144.3,39.7 145,39.1 145.7,38.4 146.4,37.8 147.2,37.2 147.9,36.6 148.7,36 149.5,35.5 
		150.3,34.9 151.2,34.4 152,33.9 153.1,33.2 154.1,32.7 155.2,32.1 156.3,31.5 157.4,31 158.5,30.5 160.2,29.7 161.9,29 163.6,28.3 
		165.3,27.6 167.1,26.9 169.2,26.2 171.3,25.5 173.4,24.8 175.5,24.2 177.7,23.6 180.8,22.7 183.9,21.9 187.1,21.2 190.2,20.5 
		193.5,19.9 196.8,19.2 200.1,18.7 203.5,18.1 205.9,17.8 208.3,17.5 210.7,17.2 213.1,17 215.5,16.8 217.7,16.6 219.9,16.5 
		222.1,16.4 224.3,16.4 226.5,16.4 228.7,16.4 230.8,16.5 233,16.5 235.2,16.7 237.3,16.8 239.5,17 241.7,17.2 243.9,17.5 
		246.1,17.8 248.3,18.1 250.5,18.5 252.7,18.9 254.9,19.3 257.1,19.8 259.3,20.2 259.1,19.8 259,19.3 258.8,18.9 258.6,18.4 
		258.4,18 258.2,17.6 257.9,17.1 257.6,16.7 257.4,16.3 257.1,15.9 256.7,15.5 256.4,15 256,14.6 255.6,14.3 255.2,13.9 254.7,13.4 
		254.2,13 253.7,12.6 253.1,12.1 252.6,11.7 251.8,11.2 250.9,10.7 250.1,10.2 249.3,9.7 248.4,9.2 246.5,8.2 244.6,7.2 242.7,6.3 
		238.9,4.5 238,4.1 237.1,3.7 236.2,3.2 235.8,3 235.4,2.7 235.1,2.5 234.9,2.4 234.8,2.2 234.7,2.1 234.6,2 234.6,1.8 234.6,1.7 
		234.6,1.6 234.6,1.5 234.7,1.4 234.7,1.3 234.8,1.2 235,1 235.2,0.9 235.4,0.8 235.7,0.7 236,0.6 236.3,0.5 236.8,0.3 237.3,0.2 
		237.8,0.2 238.3,0.1 239,0 239.7,0 240.3,0 240.9,0 241.6,0 242.9,0.1 244.1,0.2 245.9,0.3 247.6,0.5 250.1,0.8 252.7,1.1 
		255.2,1.5 	"/>
</g>
<g>
	<path class="st1" d="M308.7,130l0.1,0.6l0.2,0.6l0.2,0.6l0.2,0.6l0.2,0.6l0.2,0.6l0.3,0.6l0.3,0.6l0.3,0.6l0.3,0.6l0.5,0.6l0.4,0.5
		l0.4,0.5l0.4,0.5l0.4,0.5l0.5,0.5l0.5,0.5l0.5,0.5l0.5,0.5l0.6,0.6l0.7,0.5l0.7,0.5l0.7,0.5l0.7,0.5l0.7,0.5l0.7,0.5l0.8,0.5
		l0.8,0.5l0.9,0.5l0.9,0.4l0.9,0.4l0.9,0.4l0.6,0.2l0.6,0.2l0.6,0.2l0.6,0.2l0.6,0.1l0.6,0.1l0.5,0.1l0.5,0.1h0.5h0.5h0.5h0.5
		l0.5-0.1l0.6-0.1l0.6-0.1l0.6-0.1l0.5-0.1l0.6-0.2l0.8-0.3l0.8-0.3l0.8-0.3l0.8-0.4l0.8-0.4l0.8-0.4l0.8-0.4l0.8-0.5l0.8-0.5
		l0.8-0.5l0.8-0.5l0.8-0.5l0.7-0.6l0.7-0.6l0.7-0.6l0.7-0.6l0.6-0.5l0.5-0.6l0.5-0.6l0.5-0.6l0.5-0.6l0.4-0.6l0.4-0.6l0.4-0.6
		l0.3-0.6l0.3-0.6l0.3-0.5l0.2-0.5l0.2-0.5l0.2-0.5l0.2-0.5l0.1-0.5l0.1-0.5l0.1-0.5l0.1-0.6l-0.3-0.6v-0.6v-0.6v-0.6l-0.1-0.6
		l-0.1-0.6l-0.1-0.6l-0.2-0.6l-0.2-0.6l-0.2-0.6l-0.2-0.6l-0.2-0.6l-0.3-0.6l-0.3-0.7l-0.4-0.7l-0.4-0.7l-0.3-0.6l-0.4-0.6l-0.4-0.6
		l-0.4-0.5l-0.4-0.5l-0.4-0.5l-0.4-0.5l-0.5-0.5l-0.5-0.5l-0.5-0.5l-0.5-0.4l-0.6-0.5l-0.6-0.5l-0.7-0.5l-0.7-0.4l-0.7-0.4l-0.7-0.4
		l-0.7-0.4l-0.7-0.4l-0.5-0.3l-0.5-0.3l-0.5-0.3l-0.6-0.3l-0.6-0.2l-0.6-0.2l-0.5-0.2l-0.5-0.1l-0.5-0.1l-0.5-0.1l-0.5-0.1H334h-0.5
		H333l-0.7,0.1l-0.7,0.1l-0.7,0.1l-0.7,0.1l-0.7,0.2l-0.7,0.2l-0.9,0.3l-0.9,0.3l-0.9,0.3l-0.9,0.4l-0.9,0.4l-0.8,0.4l-0.8,0.4
		l-0.8,0.4l-0.8,0.4l-0.9,0.5l-0.9,0.5l-0.9,0.5l-0.9,0.6l-0.7,0.5l-0.7,0.5l-0.7,0.5l-0.7,0.5l-0.6,0.5l-0.5,0.4l-0.5,0.4l-0.5,0.5
		l-0.5,0.5l-0.4,0.5l-0.4,0.5l-0.4,0.5l-0.4,0.5l-0.3,0.5l-0.3,0.5l-0.2,0.5l-0.2,0.5l-0.2,0.5l-0.2,0.5l-0.2,0.5l-0.1,0.5l-0.1,0.5
		l-0.1,0.6l-0.1,0.6v0.6v0.6v0.6v0.6l0.1,0.6L308.7,130z M338.7,124.8v0.2v0.2l-0.1,0.2l-0.1,0.2l-0.1,0.2l-0.1,0.2l-0.2,0.2
		l-0.2,0.2l-0.2,0.1l-0.2,0.1l-0.2,0.1l-0.2,0.1l-0.2,0.1h-0.2h-0.3h-0.2h-0.4l-0.3-0.1l-0.3-0.1l-0.3-0.1l-0.3-0.1l-0.3-0.1
		l-0.3-0.1l-0.2-0.1l-0.2-0.1l-0.2-0.2l-0.2-0.2l-0.1-0.2l-0.1-0.2l-0.1-0.2l-0.1-0.1v-0.2v-0.2v-0.2v-0.1l0.1-0.2l0.1-0.1l0.1-0.1
		l0.1-0.1l-0.1-0.2l0.2-0.1l0.2-0.1l0.2-0.1l0.3-0.1l0.3-0.1l0.3-0.1l0.3-0.1l0.3-0.1h0.3h0.3h0.3h0.3l0.3,0.1l0.3,0.1l0.3,0.1
		l0.2,0.1l0.2,0.1l0.2,0.1l0.2,0.2l0.2,0.2l0.1,0.2l0.1,0.2l0.1,0.2l0.1,0.2L338.7,124.8L338.7,124.8z M311.3,129.7v-0.5v-0.5v-0.5
		v-0.5l0.1-0.5l0.1-0.5l0.1-0.5l0.2-0.5l0.2-0.7l0.3-0.7l0.3-0.7l0.3-0.7l0.3-0.6l0.3-0.7l0.4-0.6l0.4-0.6l0.4-0.6l0.4-0.6l0.4-0.5
		l0.5-0.5l0.5-0.5l0.5-0.5l0.5-0.5l0.5-0.5l0.6-0.4l0.5-0.4l0.5-0.4l0.5-0.3l0.6-0.3l0.6-0.3l0.6-0.3l0.6-0.3l0.7-0.7l0.8-0.3
		l0.8-0.3l0.8-0.3l0.8-0.3l0.8-0.2l0.8-0.2l0.8-0.2l0.6-0.1l0.6-0.1l0.6-0.1l0.6-0.1h0.6h0.6h0.6h0.6h0.6l0.6,0.1l0.6,0.1l0.6,0.1
		l0.6,0.2l0.6,0.2l0.6,0.2l0.6,0.2l0.6,0.3l0.6,0.3l0.6,0.3l0.6,0.3l0.6,0.4l0.6,0.4l0.6,0.4l0.5,0.4l0.5,0.4l0.5,0.5l0.5,0.5
		l0.5,0.5l0.4,0.5H345h-0.5H344h-0.5h-0.6l-0.6,0.1l-0.6,0.1l-0.6,0.1l-1.1,0.2l-1.1,0.2l-1.1,0.2l-2,0.4l-1.9,0.5l-1,0.3l-1,0.3
		l-0.7,0.2l-0.7,0.2l-0.7,0.2l-0.6,0.3l-0.6,0.3l-0.6,0.3l-0.6,0.3l-0.6,0.4l-0.6,0.4l-0.6,0.4l-0.6,0.4l-0.7,0.5l-0.7,0.6l-0.7,0.6
		l-0.7,0.6l-0.9,0.8l-0.9,0.8l-0.9,0.9l-0.9,0.9l-0.9,0.9l-0.9,1l-0.9,1l-0.9,1l-0.9,1l-0.8,1.1l-0.3-0.3l-0.3-0.3l-0.2-0.4
		l-0.2-0.4l-0.2-0.4l-0.2-0.4l-0.2-0.4l-0.1-0.4l-0.1-0.4l-0.1-0.4l-0.1-0.4L311.3,129.7L311.3,129.7z"/>
	<polygon class="st1" points="239,162.3 237.7,162.3 235.8,162.3 233.9,162.3 230.3,162.3 226.7,162.2 223.1,162.1 216.3,161.8 
		209.6,161.4 216,161 222.4,160.6 224.7,160.4 227,160.2 228.1,160.1 229.2,159.9 230.3,159.7 231.4,159.5 232.1,159.3 232.8,159.1 
		233.5,158.9 234.2,158.7 235.2,159.3 236,159 236.8,158.7 237.5,158.4 238.1,158.2 238.7,157.9 239.3,157.6 239.9,157.3 
		240.2,157.1 240.5,156.9 240.8,156.7 240.9,156.6 241,156.5 241.1,156.4 241.1,156.3 241.1,156.2 241,156.2 240.9,156.2 
		240.6,156.2 240.3,156.2 239.9,156.2 239.5,156.3 238.4,156.5 237.3,156.7 234.2,157.3 231.1,157.9 229.4,158.2 227.7,158.5 
		226,158.7 224.7,158.9 223.4,159 222.1,159.1 220.8,159.2 219.2,159.3 217.6,159.4 216,159.5 213.3,159.6 210.6,159.6 207.9,159.6 
		204.9,159.6 204.2,159.6 203.5,159.6 202.8,159.6 202.5,159.6 202.2,159.6 201.9,159.6 201.7,159.6 201.5,159.7 201.3,159.8 
		201.1,159.9 201,160 200.9,160.1 200.8,160.2 200.7,160.3 200.7,160.4 200.7,160.5 200.7,160.6 200.7,160.7 200.7,160.8 
		200.7,160.9 200.8,161.1 200.9,161.3 201,161.4 201.2,161.6 201.4,161.8 201.6,161.9 201.8,162 202.1,162.2 202.4,162.3 
		202.7,162.4 203.3,162.6 203.9,162.8 204.8,163 205.7,163.2 206.6,163.4 207.7,163.6 208.8,163.8 211.3,164.2 213.8,164.6 
		215.2,164.8 216.6,165 218,165.1 219.4,165.2 221.1,165.3 222.8,165.4 224.5,165.5 226.2,165.5 227.9,165.5 229.6,165.5 
		231.3,165.5 233.4,165.4 235.5,165.3 237.6,165.1 239.7,164.9 241.8,164.7 242.6,164.6 243.4,164.5 244.2,164.4 245,164.2 
		245.5,164.1 246,164 246.5,163.9 246.9,163.7 247.3,163.5 247.6,163.3 247.9,163.1 248.2,162.9 248.4,162.7 248.6,162.5 
		248.8,162.3 248.9,162.2 249,162.1 249.1,162 249.1,161.9 249.1,161.8 249.1,161.7 249.1,161.6 249,161.6 248.9,161.5 248.8,161.5 
		248.6,161.5 248.4,161.5 248,161.5 247.6,161.5 247.2,161.5 246.2,161.6 245.2,161.7 244.2,161.8 242.9,162 241.6,162.1 
		240.3,162.2 	"/>
	<path class="st1" d="M398,124.2l-0.1-0.4l-0.1-0.4l-0.1-0.4l-0.1-0.4l-0.2-0.6l-0.2-0.6l-0.2-0.5l-0.4-0.8l-0.4-0.8l-0.6-1.1
		l-0.6-1.1l-0.6-1.1l-0.5-1l-0.6-0.9l-0.6-0.9l-0.6-0.9l-0.4-0.6l-0.4-0.6l-0.4-0.6l-0.4-0.5l-0.4-0.5l-0.4-0.4l-0.4-0.4l-0.5-0.4
		l-0.5-0.4l-0.5-0.4l-0.5-0.3l-0.5-0.3l-0.5-0.3l-0.5-0.3l-0.6-0.2l-0.6-0.3l-0.6-0.2l-0.6-0.2l0.3-0.1l-1-0.3l-1-0.3l-1-0.3
		l-0.7-0.2l-0.6-0.3l-0.6-0.3l-0.6-0.3l-0.6-0.3l-0.6-0.4l-0.6-0.4l-0.7-0.5l-0.7-0.5l-0.7-0.5l-0.7-0.5l-1.4-1.1l-1.3-1.1l-1.7-1.4
		l-0.7-0.5l-0.7-0.5l-0.7-0.5l-0.4-0.3l-0.4-0.3l-0.4-0.2l-0.3-0.2l-0.3-0.1l-0.3-0.1l-0.3-0.1l-0.3-0.1h-0.3h-0.3h-0.3l-0.5,0.1
		l-0.5,0.1l-0.4,0.1l-0.4,0.1l-0.2,0.1l-0.2,0.1l-0.2,0.1l-0.1,0.1l-0.1,0.1l-0.1,0.1l-0.1,0.1v0.1V95v0.1v0.2v0.1l0.1,0.1l0.1,0.2
		l0.1,0.2l0.1,0.2l0.2,0.3l0.2,0.3l0.3,0.3l0.6,0.6l0.6,0.6l1.6,1.6l1,1l1,1l1,1l1,1.1l0.8,0.9l0.8,0.9l0.7,0.9l0.7,0.9l0.7,0.9
		l0.7,0.9l0.7,1l0.6,1l0.6,1l0.6,1l0.6,1.1l0.6,1.2l0.6,1.2l0.5,1.2l0.5,1.2l0.7,1.6l0.6,1.6l0.6,1.6l0.6,1.6l0.7,2.1l0.7,2.1
		l1.7,5.5l2,6.4l0.6,1.8l0.6,1.8l0.7,1.8l0.7,1.8l0.7,1.8l0.4,0.9l0.4,0.9l0.3,0.7l0.2,0.7l0.2,0.7l0.2,0.6l0.1,0.6l0.1,0.6l0.1,0.6
		v0.6v0.5v0.5v0.5v0.5l-0.1,0.5l-0.1,0.4l-0.1,0.4l-0.1,0.4l-0.1,0.4l-0.1,0.3l-0.1,0.3l-0.2,0.3l-0.2,0.3l-0.2,0.3l-0.2,0.3
		l-0.2,0.3l-0.3,0.2l-0.3,0.2l-0.7,0.6l-0.7,0.6l-0.4,0.3l-0.4,0.3l-0.4,0.3l-0.4,0.2l-0.5,0.2l-0.5,0.2l-0.5,0.2l-0.6,0.2l-0.6,0.2
		l-0.6,0.1l-1,0.2l-1,0.2l-2.1,0.4l-2.1,0.4l-1.1,0.2l-1.1,0.2l-0.6,0.1l-0.6,0.1l-0.6,0.2l-0.3,0.1l-0.3,0.1l-0.3,0.1l-0.3,0.1
		l-0.3,0.1l-0.2,0.1l-0.2,0.2l-0.1,0.1l-0.1,0.1l-0.1,0.2l-0.1,0.2l-0.1,0.2v0.2v0.2v0.2l0.1,0.2l0.1,0.1l0.1,0.2l0.1,0.2l0.2,0.1
		l0.2,0.1l0.2,0.1l0.2,0.1l0.3,0.1l0.3,0.1l0.3,0.1h0.3h0.4h0.4h0.4h0.7l0.7-0.1l0.7-0.1l0.7-0.1l1-0.2l1-0.2l1.3-0.2l1.3-0.3
		l1.3-0.3l0.8-0.2l0.8-0.2l0.7-0.2l0.7-0.2l0.7-0.3l0.7-0.3l0.7-0.3l0.7-0.3l0.6-0.3l0.6-0.2l0.6-0.2l0.3-0.1l0.3-0.1l0.3-0.1h0.3
		h0.3h0.2l0.2,0.1l0.2,0.1l0.2,0.1l0.1,0.1l0.1,0.1l0.1,0.1l0.1,0.1v0.1v0.2v0.2v0.2v0.2l-0.1,0.2l-0.1,0.2l-0.1,0.2l-0.1,0.2
		l-0.2,0.2l-0.2,0.2l-0.2,0.2l-0.2,0.2l-0.3,0.2l-0.3,0.2l-0.3,0.2l-0.3,0.2l-0.3,0.2l-0.7,0.3l-0.7,0.3l-0.7,0.3l-0.7,0.3l-0.8,0.3
		l-0.8,0.3l-0.8,0.3l-1.2,0.4l-1.2,0.4l-1.2,0.4l-1.9,0.5l-1.9,0.5l-1.9,0.5l-1.9,0.4l-1.9,0.4l-1.9,0.4l-1.9,0.3l-1.3,0.2l-1.4,0.2
		l-1.4,0.2l-1,0.1l-1,0.1h-1h-1h-1h-0.8h-0.8l-0.8-0.1l-0.8-0.1l-0.8-0.1l-0.8-0.1l-0.8-0.1l-0.7-0.1l-3.2-0.7l-0.8-0.2l-0.8-0.1
		l-0.8-0.1l-0.8-0.1h-0.5H345h-0.5H344h-0.4h-0.4l-0.4,0.1l-0.4,0.1l-0.3,0.1l-0.3,0.1l-0.3,0.1l-0.3,0.2L341,179l-0.2,0.1l-0.2,0.2
		l-0.1,0.1l-0.1,0.1v0.1v0.1v0.1v0.1l0.1,0.1l0.1,0.1l0.1,0.1l0.1,0.1l0.1,0.1l0.1,0.1l0.3,0.2l0.3,0.1l0.4,0.2l0.4,0.2l0.4,0.1
		l0.4,0.1l0.8,0.2l0.8,0.2l0.8,0.2l0.8,0.1l0.8,0.1l1.3,0.2l1.3,0.2l1.3,0.1l1.4,0.1l1.4,0.1l1.4,0.1l1.4,0.1l1.4,0.1h1.4h1.4h1.4
		h1.4l1.4-0.1l1.1-0.1l1.1-0.1l1.1-0.1l1.1-0.1l0.9-0.1l0.9-0.2l0.9-0.2l0.9-0.2l0.9-0.2l1-0.3l1-0.3l1-0.3l1-0.3l1.2-0.4l1.2-0.4
		l1.5-0.5l1.5-0.5l1.1-0.3l1.1-0.3l1.1-0.3l0.7-0.2l0.7-0.1l0.7-0.1l0.7-0.1h0.3h0.3h0.3h0.3h0.2h0.2l0.2,0.1l0.1,0.1l0.1,0.1
		l0.1,0.1l0.1,0.1l0.1,0.1l0.1,0.1v0.1v0.1v0.1v0.2l-0.1,0.2l-0.1,0.2l-0.1,0.2l-0.2,0.3l-0.2,0.3l-0.2,0.3l-0.2,0.3l-0.2,0.3
		l-0.3,0.3l-0.3,0.3l-0.3,0.3l-0.3,0.3l-0.4,0.4l-0.4,0.3l-0.5,0.3l-0.5,0.3l-0.5,0.3l-0.5,0.3l-0.5,0.3l-0.5,0.3l-0.5,0.3l-0.8,0.3
		l-0.8,0.3l-0.8,0.3l-0.9,0.3l-0.9,0.3l-0.9,0.3l-0.9,0.2l-0.9,0.2l-0.9,0.2l-0.9,0.2l-1,0.2l-1,0.1l-1,0.1l-1.2,0.1l-1.2,0.1
		l-1.2,0.1l-1.2,0.1h-1.2h-1.2H365h-1.4l-1.4-0.1l-1.4-0.1l-1.4-0.1l-1.4-0.1l-1.4-0.2l-1.3-0.2l-1.3-0.2l-1.3-0.2l-1.3-0.3
		l-1.3-0.3l-1.2-0.3l-1.2-0.3l-1.2-0.3l-1.2-0.3l-1.2-0.4l-1.2-0.4l-1.9-0.6l-1.8-0.7l-1.8-0.7l-2.8-1.1l-2.7-1.1l-2.7-1.2l-2.1-0.9
		l-2.1-1l-2-1l-2-1l-1.2-0.6l-1.2-0.6l-1.2-0.7l-1.2-0.7l-0.8-0.5l-0.8-0.5l-0.7-0.5l-0.7-0.5l-0.7-0.5l-0.7-0.5l-0.6-0.5l-0.5-0.4
		l-0.5-0.4l-0.5-0.4l-0.4-0.5l-0.4-0.4l-0.4-0.4l-0.4-0.5l-0.3-0.5l-0.3-0.5l-0.3-0.5l-0.4-0.7l-0.4-0.8l-0.2-0.5l-0.3-0.4l-0.3-0.4
		l-0.2-0.2l-0.2-0.2L305,161l-0.2-0.2l-0.2-0.1l-0.2-0.1l-0.2-0.1h-0.1H304h-0.1h-0.1h-0.1l-0.1,0.1l-0.1,0.1l-0.1,0.1l-0.1,0.1
		l-0.1,0.1l-0.1,0.1l-0.1,0.3l-0.1,0.3l-0.1,0.3l-0.1,0.3l-0.1,0.3v0.3v0.3v0.4v0.4l0.1,0.4l0.1,0.4l0.1,0.4l0.1,0.4l0.1,0.4
		l0.1,0.4l0.2,0.4l0.2,0.5l0.2,0.4l0.2,0.4l0.3,0.4l0.3,0.4l0.4,0.5l0.4,0.5l0.4,0.5l0.5,0.6l0.5,0.6l0.6,0.5l0.6,0.5l0.7,0.6
		l0.7,0.6l0.7,0.6l0.8,0.6l0.8,0.6l0.8,0.6l1.2,0.8l1.2,0.7l1.2,0.7l1.2,0.7l1.2,0.7l1.5,0.8l1.5,0.8l1.5,0.8l2,1l2,0.9l2,0.9l2,0.8
		l2.1,0.8l2.1,0.8l2.2,0.8l2.2,0.7l2.2,0.7l2.2,0.7l-1,0.3l-1,0.3l-1,0.3l-1,0.3l-1,0.2l-1,0.2l-1,0.2l-1,0.2l-1,0.1l-1,0.1l-1,0.1
		l-1,0.1h-1h-1h-1h-1h-1l-1-0.1l-1-0.1l-1-0.1l-1-0.1l-1-0.1l-1-0.2l-1-0.2l-1-0.2l-1-0.2l-1-0.3l-1-0.3l-1.2-0.4l-1.1-0.4l-1.1-0.4
		l-1.1-0.4l-3.1-1.2l-0.9-0.3l-0.9-0.3l-0.9-0.3l-0.5-0.1l-0.5-0.1l-0.5-0.1h-0.3h-0.3h-0.3h-0.2h-0.3l-0.3,0.1l-0.2,0.1l-0.2,0.1
		l-0.1,0.1l-0.1,0.1l-0.1,0.1v0.1v0.1v0.1v0.1v0.1l0.1,0.2l0.1,0.2l0.1,0.1l0.3,0.3l0.3,0.3l0.5,0.4l0.5,0.4l0.5,0.4l1.2,0.8
		l0.6,0.4l0.6,0.4l0.3,0.3l0.3,0.3l0.3,0.3l0.1,0.1l0.1,0.1l0.1,0.2v0.1v0.1v0.1v0.1h-0.1h-0.1h-0.1h-0.3h-0.3l-0.4-0.1l-0.4-0.1
		l-0.8-0.2l-0.8-0.2l-0.8-0.2l-2.3-0.6l-2.3-0.6l-2.2-0.7l-3.9-1.2l-3.9-1.3l-3.6-1.2l-3.6-1.3l-1.3-0.5l-1.4-0.5l-1.3-0.5l-1.3-0.6
		l-1.1-0.5l-1-0.5l-1-0.5l-1-0.5l-0.8-0.5l-0.9-0.5l-0.8-0.5l-0.5-0.3l-0.5-0.3l-0.5-0.4l-0.5-0.4l-0.3-0.3l-0.3-0.3l-0.3-0.3
		l-0.2-0.2l-0.2-0.2l-0.1-0.2l-0.1-0.2l-0.1-0.2v-0.2v-0.2v-0.2v-0.2l0.1-0.2l0.1-0.2l0.1-0.2l0.1-0.2l0.2-0.3l0.4-0.1l0.3-0.3
		l0.3-0.3l0.3-0.3l0.3-0.3l0.3-0.3l0.3-0.3l0.2-0.3l0.2-0.3l0.1-0.3l0.1-0.3l0.1-0.2v-0.2v-0.2v-0.2v-0.2v-0.2v-0.2l-0.1-0.1
		l-0.1-0.1l-0.1-0.1l-0.1-0.1l-0.1-0.1l-0.1-0.1h-0.2h-0.2h-0.2h-0.2h-0.2h-0.2l-0.4,0.1l-0.4,0.1l-0.4,0.1l-0.4,0.1l-0.6,0.2
		l-0.6,0.3l-2.1,1l-0.8,0.4l-0.8,0.3l-0.8,0.3l-0.8,0.3l-1.1,0.4l-1.1,0.4l-1.1,0.3l-1.4,0.4l-1.4,0.4l-1.4,0.4L250,176l-2.5,0.6
		l-2.2,0.5l-2.2,0.4l-2.2,0.4l-2.2,0.4l-2.2,0.3l-1.3,0.2l-1.3,0.2l-1.3,0.1l-1.3,0.1l-1.3,0.1l-1.3,0.1h-1.1h-1.1h-1.1h-1.1
		l-1.1-0.1l-1.1-0.1l-1.1-0.1l-1.2-0.1l-1.2-0.2l-1.2-0.2l-1.2-0.2l-1.2-0.2l-1.7-0.3l-1.6-0.4l-1.6-0.4l-1.7-0.4l-1.7-0.5l-1.7-0.5
		l-2.6-0.8l-2.6-0.8l-2.6-0.8l-2.6-0.9l-2-0.7l-2-0.8l-2-0.8l-1.2-0.5l-1.2-0.5l-1.2-0.6l-1.2-0.6l-1-0.5l-1-0.5l-1-0.5l-0.9-0.5
		l-0.9-0.5l-0.9-0.6l-0.9-0.6l-0.9-0.6l-0.9-0.6l-0.9-0.7l-0.7-0.6l-0.7-0.6l-0.7-0.6l-0.7-0.6l-0.6-0.7l-0.6-0.6l-0.6-0.7l-0.6-0.7
		l-0.5-0.7l-0.4-0.5l-0.4-0.5l-0.4-0.5l-0.2-0.3l-0.2-0.3L167,154l-0.2-0.4l-0.1-0.2l-0.1-0.2l-0.1-0.3v-0.2v-0.2v-0.1l0.1-0.1
		l0.1-0.1l0.1-0.1l0.2-0.1l0,0h0.2h0.2h0.2h0.4h0.4h0.6h0.6l0.9,0.1l0.9,0.1l0.6,0.1l0.6,0.1l0.6,0.1l0.3,0.1l0.3,0.1l0.3,0.1
		l0.2,0.1l0.2,0.1l0.1,0.1l0.1,0.1l0.1,0.1l0.1,0.1l0.1,0.1v0.1v0.1v0.1v0.1v0.2v0.1l-0.1,0.1l-0.2,0.3l-0.2,0.3l-0.2,0.2l-0.1,0.2
		l-0.1,0.2l-0.1,0.2v0.2v0.2v0.1v0.1v0.1l0.1,0.2l0.1,0.2l0.2,0.2l0.2,0.2l0.2,0.2l0.2,0.2l0.3,0.3l0.4,0.3l0.5,0.4l0.5,0.3l0.5,0.3
		l0.5,0.3l0.5,0.3l0.6,0.3l0.6,0.3l0.7,0.3l0.7,0.3l0.7,0.3l2,0.8l2,0.8l2,0.8l3.5,1.3l2.9,1.4l2.2,0.8l2.3,0.7l2.3,0.7l1.5,0.4
		l1.5,0.4l1.5,0.4l1.5,0.3l1.5,0.3l1.8,0.3l1.8,0.3l1.8,0.3l1.8,0.3l1.8,0.2l1.9,0.2l1.9,0.2l1.9,0.2l1.9,0.1l1.9,0.1l1.6,0.1h1.6
		h1.6h1.6h1.6l1.6-0.1l1.6-0.1l1.6-0.1l1.6-0.2l1.6-0.2l1.3-0.2l1.3-0.2l1.3-0.2l1.3-0.3l1.3-0.3l1.3-0.3l1.3-0.3l0.6-0.2l0.6-0.2
		l0.6-0.2l0.4-0.1l0.4-0.2l0.4-0.2l0.2-0.1l0.2-0.1l0.2-0.1l0.2-0.2l0.2-0.2l0.1-0.1l0.1-0.1l0.1-0.2v-0.1v-0.1v-0.1v-0.1l-0.1-0.1
		l-0.1-0.1l-0.1-0.1l-0.1-0.1l-0.2-0.1l-0.3-0.1h-0.3h-0.5h-0.5h-0.5l-0.8,0.1l-0.8,0.1l-0.8,0.1l-2.8,0.3l-2.8,0.4l-3.1,0.4
		l-3.1,0.4l-1.4,0.1l-1.4,0.1l-1.4,0.1l-1.4,0.1l-1.3,0.1H231h-1.3h-1.3h-1.3h-1.3l-1.3-0.1l-1.3-0.1l-1.3-0.1l-1.3-0.1l-1.3-0.2
		l-1.3-0.2l-1.3-0.2l-1.3-0.2l-1.7-0.3l-1.7-0.3l-1.7-0.4l-1.8-0.4l-1.8-0.4l-1.8-0.5l-2.1-0.6l-2.1-0.6l-2.1-0.7l-2.1-0.7l-2.1-0.7
		l-1.6-0.6l-1.6-0.6l-1.6-0.6l-1.6-0.6l-1.6-0.7l-1.6-0.7l-1.5-0.7l-1.5-0.7l-1.4-0.7l-1.4-0.7l-1.4-0.8l-1.4-0.8l0.8,0.2l0.8,0.2
		l0.8,0.2l0.8,0.1l1,0.2l1,0.1l1,0.1l1.1,0.1l1.9,0.2l1.9,0.1l3.8,0.2l3.8,0.2l3.9,0.1l3.8,0.1h2.5h2.5h1.3l1.3-0.1l1.3-0.1l1.3-0.1
		l1.3-0.1l1.3-0.1l1.4-0.2l1.4-0.2l1.4-0.2l1.4-0.3l2.5-0.5l2.5-0.5l1.3-0.4l1.4-0.3l1.4-0.3l0.8-0.2l0.8-0.2l0.8-0.2l0.8-0.3
		l0.7-0.2l0.7-0.3l0.6-0.3l0.7-0.3l0.9-1.6l0.7-0.4l0.4-0.2l0.3-0.2l0.3-0.2l0.1-0.1l0.1-0.1l0.1-0.1h-0.1h-0.1h-0.2h-0.2H238h-0.3
		l-0.9,0.2l-0.9,0.2l-2.6,0.6l-2.6,0.6l-3.2,0.8l-3.2,0.8l-1.4,0.3l-1.4,0.3l-1.5,0.3l-1.5,0.2l-1.5,0.2l-1.6,0.2l-1.6,0.2l-1.6,0.2
		l-1.6,0.1l-1.6,0.1l-2.6,0.1l-2.6,0.1h-2.6h-2.9h-2.9l-2.9-0.1l-2.9-0.1l-1.2-0.1l-1.2-0.1l-1.2-0.1l-0.5-0.1l-0.5-0.1l-0.5-0.1
		l-0.5-0.1l-0.5-0.1l-0.4-0.1l-0.4-0.1l-0.4-0.1l-0.3-0.1l-0.3-0.1l-0.3-0.2l-0.1-0.1l-0.1-0.1l-0.1-0.1v-0.1v-0.1v-0.1v-0.1
		l0.1-0.1l0.1-0.1l0.1-0.1h0.1l0.3-0.1h0.3h0.4h0.4h0.7h0.7h0.7h2.9l2.9,0.1l3.3,0.1h1.8h1.8h1.3l1.3-0.1l1.3-0.1l1.3-0.1l1.3-0.1
		l1.3-0.2l1.7-0.3l1.7-0.3l1.7-0.3l1.7-0.3l3.4-0.7l3.4-0.7l4.1-0.9l2.5-0.5l2.5-0.5l2-0.4l2-0.4l0.8-0.2l0.7-0.2l0.7-0.2l0.8-0.2
		l0.7-0.2l0.7-0.3l0.5-0.2l0.5-0.2l0.5-0.2l0.5-0.2l0.4-0.2l0.3-0.2l0.3-0.2l0.3-0.2l0.3-0.2l0.3-0.2l0.2-0.2l0.2-0.2l0.2-0.2
		l0.1-0.2l0.1-0.2l0.1-0.2l0.1-0.2v-0.2V140v-0.2v-0.2v-0.1l-0.1-0.1l-0.1-0.1l-0.1-0.1l-0.1-0.1L241,139l-0.1-0.1l-0.2-0.1
		l-0.2-0.1h-0.2h-0.2h-0.2h-0.4h-0.3l-0.4,0.1l-0.4,0.1L238,139l-0.4,0.1l-0.7,0.2l-0.7,0.2l-1,0.3l-1,0.3l-4.5,1.6l-1.1,0.4
		l-1.1,0.4l-1.1,0.3l-1.1,0.3l-0.7,0.2l-0.7,0.2l-0.7,0.2l-0.7,0.1l-0.6,0.1l-0.6,0.1l-0.6,0.1h-0.6h-0.4h-0.4h-0.4h-0.3l-0.3-0.1
		l-0.3-0.1l-0.3-0.1l-0.2-0.1l-0.2-0.1l-0.2-0.1l-0.2-0.2l-0.2-0.2l-0.2-0.2l-0.5-0.4l-0.5-0.5l-0.4-0.4l-2.1-0.2l-2.7,0.9l-0.3,1.6
		l0.2,0.2l0.3,0.3l0.3,0.3l0.3,0.3l0.3,0.3l0.2,0.2l0.2,0.2l0.1,0.2l0.1,0.1l-0.3,0.5v0.2v0.2v0.1l-0.1,0.1l-0.1,0.1l-0.1,0.1
		l-0.1,0.1l-0.1,0.1l-0.2,0.2l-0.3,0.1l-0.3,0.1l-0.3,0.1l-0.4,0.1l-0.4,0.1l-0.5,0.1l-0.5,0.1l-0.5,0.1l-0.7,0.1l-0.7,0.1l-0.7,0.1
		l-1,0.1l-1,0.1l-1.9,0.1l-1.9,0.1l-1.9,0.1l-3.7,0.1l-3.7,0.1h-3.9h-3.9l-2.4-0.1l-2.4-0.1l-2.4-0.1l-1.2-0.1l-1.2-0.1l-1.2-0.1
		l-1.2-0.1l-1.2-0.2l-0.9-0.1l-0.9-0.2l-0.9-0.2l-0.9-0.2l-0.9-0.2l-0.8-0.2l-0.8-0.2l-0.8-0.3l-0.6-0.2l-0.6-0.2l-0.6-0.2l-0.3-0.1
		l-0.3-0.1H160h-0.2h-0.2h-0.2l-0.2,0.1l-0.1,0.1l-0.1,0.1l-0.1,0.1l-0.1,0.2l-0.1,0.2l-0.1,0.2l-0.1,0.2l-0.1,0.2v0.2v0.2v0.3v0.3
		v0.3v0.4l0.1,0.4l0.1,0.4l0.1,0.4l0.1,0.4l0.1,0.4l0.2,0.3l0.2,0.4l0.2,0.4l0.2,0.4l0.4,0.7l0.5,0.7l0.5,0.7l0.8,1l0.8,1l0.8,1
		l0.8,1l0.8,0.9l0.8,0.9l0.8,0.9l0.8,0.9l0.8,0.9l0.7,0.7l0.7,0.7l0.7,0.7l0.7,0.6l0.6,0.5l0.7,0.5l0.7,0.5l0.7,0.5l0.7,0.5l0.7,0.4
		l0.7,0.4l0.7,0.4l0.7,0.4l0.8,0.4l0.8,0.4l0.8,0.4l1.2,0.5l1.3,0.5l1.3,0.5l3,1.1l3,1.1l3,1l3,1l3.1,0.9l1.8,0.5l1.8,0.5l1.9,0.5
		l1.8,0.4l1.8,0.4l1.8,0.4l1.8,0.3l1.8,0.3l1.8,0.3l1.7,0.2l1.7,0.2l1.7,0.2l1.7,0.1l1.7,0.1l1.7,0.1l2,0.1h2h1.9h2l2-0.1l1.7-0.1
		l1.7-0.1l1.7-0.1l1.7-0.2l1.7-0.2l1.4-0.2l1.4-0.2l1.4-0.2l1.4-0.3l1.4-0.3l1.3-0.3l1.3-0.3l1.3-0.3l1.3-0.4l2.2-0.7l0.9-0.3
		l0.9-0.3l0.5-0.1l0.5-0.1h0.3h0.3h0.3h0.3h0.3l0.3,0.1l0.3,0.1l0.3,0.1l0.2,0.1l0.3,0.2l0.3,0.2l0.3,0.2l0.3,0.2l0.7,0.7l0.4,0.3
		l0.4,0.3l0.4,0.3l0.6,0.4l0.9,0.7l0.6,0.4l1,0.6l1,0.6l2.3,1.3l2.4,1.3l2.4,1.2l2.4,1.2l1.1,0.5l1.1,0.5l1.1,0.5l1,0.4l1,0.4l1,0.4
		l1,0.4l1,0.3l1,0.3l1.1,0.3l1,0.3l1.3,0.3l1.3,0.3l5.2,1.2l2.4,0.5l2.4,0.5l1,0.2l1,0.2l0.6,0.1l0.6,0.1l0.6,0.1h0.7h0.7h0.7h0.7
		l0.7-0.1l0.8-0.1l0.8-0.1l0.8-0.2l2.5-0.5l0.5-0.1l0.5-0.1l0.5-0.1h0.6h0.6h0.6h0.6h0.8l0.8,0.1l0.8,0.1l1.8,0.2l1.1,0.1l1.1,0.1
		h1.1h1.1h0.9h0.9h0.9h0.9l0.9-0.1l0.8-0.1l0.8-0.1l0.8-0.1l0.8-0.1l0.9-0.2l0.9-0.2l0.9-0.2l1.6-0.3l2.3-0.4l0.7-0.1l0.7-0.2
		l0.7-0.2l0.4-0.1l0.4-0.1l0.4-0.1l0.6-0.2l0.6-0.3l0.6-0.3l1.5-0.8l0.5-0.2l0.5-0.2l0.4-0.1l0.4-0.1l0.4-0.1l0.4-0.1l0.4-0.1h0.4
		h0.4h0.4h0.4h0.4l0.7,0.1l0.7,0.1l1.7,0.2l1.2,0.1l1.2,0.1l1.2,0.1l1.2,0.1l1.3,0.1h1.3h1.3h1.3h1.2h1.2h1.2l1.2-0.1l1.2-0.1
		l1.1-0.1l1.1-0.1l1-0.1l1.1-0.1l1-0.2l1-0.2l1-0.2l1-0.2l1-0.2l1-0.3l0.9-0.2l0.9-0.3l0.8-0.3l0.8-0.3l0.9-0.3l0.8-0.3l0.7-0.3
		l0.7-0.3l0.7-0.4l0.7-0.4l0.5-0.3l0.5-0.3l0.5-0.3l0.5-0.4l0.5-0.4l0.3-0.3l0.3-0.3l0.3-0.3l0.3-0.3l0.3-0.4l0.2-0.4l0.2-0.4
		l0.2-0.4l0.2-0.4l0.1-0.4l0.1-0.4l0.1-0.4v-0.4v-0.4v-0.4v-0.4V178l-0.1-0.5l-0.1-0.5l-0.1-0.5l-0.1-0.5l-0.1-0.5l-0.3-1.1
		l-0.4-1.1l-0.4-1.1l-0.8-2.3l-0.2-0.7l-0.2-0.7l-0.2-0.7l-0.2-0.7l-0.1-0.6l-0.1-0.6l-0.1-0.6l-0.1-0.6v-0.6v-0.7v-0.7V162v-0.7
		v-0.9v-0.9l0.1-1.2l0.1-1.2v-1v-1v-1l-0.1-1l-0.1-1l-0.1-0.9l-0.1-0.9l-0.1-0.9l-0.2-0.9l-0.2-0.9l-0.2-0.9l-0.2-0.9l-0.3-0.9
		l-0.3-0.9l-0.8-2.4l-0.2-0.7l-0.2-0.7l-0.1-0.4l-0.1-0.4l-0.1-0.4v-0.4v-0.3V138v-0.3l0.1-0.3l0.1-0.3l0.1-0.3l0.2-0.3l0.2-0.2
		l0.2-0.2l0.3-0.3l0.3-0.3l0.9-0.8l0.5-0.4l0.4-0.4l0.4-0.4l0.4-0.5l0.4-0.5l0.4-0.5l0.4-0.5l0.4-0.5l0.3-0.5l0.3-0.5l0.3-0.5
		l0.3-0.5l0.3-0.5l0.2-0.5l0.2-0.5l0.2-0.5l-0.1-0.4l0.1-0.3l0.1-0.3v-0.3v-0.3V125v-0.4L398,124.2z M388.8,112.6l-0.2,0.2l-0.2,0.1
		l-0.4,0.3l-0.4,0.2l-0.4,0.2l-1.3,0.7l-1.1,0.6l-0.4,0.2l-0.4,0.2l-0.3,0.1l-0.3,0.1l-0.3,0.1l-0.3,0.1h-0.2h-0.2h-0.2H382h-0.1
		v-0.2l-0.1-0.1l-0.1-0.1l-0.1-0.1l-0.1-0.2l-0.1-0.2l-0.1-0.2l-0.1-0.2L381,114l-0.1-0.4l-0.1-0.4l-0.1-0.4L380,111l-0.3-1l-0.3-1
		l-0.3-1l-0.6-1.5l-0.6-1.5l1,0.4l1,0.4l1,0.4l1,0.5l1,0.5l1,0.5l1,0.5l0.8,0.4l0.8,0.5l0.5,0.3l0.5,0.4l0.3,0.2l0.3,0.2l0.3,0.3
		l0.3,0.3l0.1,0.1l0.1,0.2l0.1,0.2l0.1,0.1l0.1,0.1v0.2v0.2v0.2v0.1l-0.1,0.1l-0.1,0.1L388.8,112.6z M392.3,121.3
		c-0.7,0.1-3.3,0.4-3.2-1.5c0-0.7,0.4-1.7,1.7-1.9s1.9,0.2,2.4,0.8C393.9,119.6,393.4,121.1,392.3,121.3z"/>
	<path class="st1" d="M160,123.2h-0.9h-1.5l-1.5,0.1l-1.5,0.1l-1.5,0.1l-1.2,0.1l-1.2,0.1l-1.2,0.2l-1.2,0.2l-1.1,0.2l-1.1,0.2
		l-1.1,0.2l-1,0.2l-1,0.3l-1,0.3l-1,0.3l-1,0.3l-0.9,0.3l-1,0.4l-0.8,0.3l-0.8,0.3l-0.8,0.4l-0.8,0.4l-0.8,0.4l-0.8,0.4l-0.8,0.5
		l-0.8,0.5l-0.8,0.5l-0.8,0.5l-0.8,0.5l-0.8,0.6l-0.7,0.6l-0.7,0.6l-0.7,0.6l-0.7,0.6l-0.7,0.6l-0.7,0.7l-0.7,0.7l-0.4,0.5l-0.4,0.5
		l-0.4,0.5l-0.3,0.4l-0.3,0.4l-0.3,0.4l-0.2,0.4l-0.2,0.4l-0.2,0.4l-0.2,0.4l-0.2,0.4l-0.3,0.7l-0.3,0.7l-0.2,0.4l-0.2,0.4l-0.2,0.4
		l-0.1,0.2l-0.1,0.2l-0.1,0.2l-0.1,0.1l-0.1,0.1l-0.1,0.1l-0.1,0.1l-0.2,0.1h-0.2H118h-0.2h-0.2h-0.3H117h-0.3h-0.3l-0.3-0.1
		l-0.5-0.1l-0.5-0.1l-0.4-0.2l-0.4-0.2l-0.4-0.2l-0.4-0.2l-0.9-0.5l-0.8-0.5l-0.8-0.5l-0.8-0.5l-0.7-0.5l-0.7-0.5l-0.7-0.5l-0.7-0.5
		l-0.7-0.5l-0.6-0.5l-0.6-0.5l-0.5-0.5l-0.5-0.5l-0.5-0.5l-0.7-0.8l-0.7-0.8l-0.7-0.8l-0.3-0.4l-0.3-0.4l-0.3-0.4l-0.3-0.4l-0.2-0.4
		l-0.2-0.4l-0.2-0.4l-0.2-0.4l-0.2-0.5l-0.2-0.5l-0.2-0.5l-0.1-0.5l-0.1-0.5l-0.2-0.8l-0.1-0.8l-0.1-0.8l-0.1-0.8l-0.1-0.8v-0.8
		v-0.8v-0.8v-0.8l0.1-0.8l0.1-0.8l0.1-0.8l0.1-0.8l0.2-0.8l0.2-0.8l0.2-0.8l0.2-0.8l0.3-0.8l0.3-0.8l0.3-0.7l0.3-0.7l0.3-0.8
		l0.3-0.8l0.4-0.8l0.7-1.5l0.8-1.5l0.8-1.5l1.5-2.7l0.5-1l0.5-1l0.5-1l0.2-0.4l0.2-0.5l0.2-0.5l0.1-0.3l0.1-0.3l0.1-0.3V97v-0.6
		v-0.2v-0.1V96l-0.1-0.1l-0.1-0.1l-0.1-0.1l-0.1-0.1h-0.1h-0.1h-0.1h-0.1l-0.2,0.1l-0.2,0.1l-0.3,0.1l-0.3,0.2l-0.3,0.2l-0.3,0.3
		l-0.3,0.3l-0.3,0.3l-0.3,0.3l-0.3,0.4l-0.3,0.4l-0.3,0.4l-0.5,0.6l-0.4,0.6l-0.4,0.6l-0.4,0.7l-0.4,0.7l-0.6,1l-0.5,1l-0.5,1
		l-0.5,1l-0.7,1.5l-0.7,1.5l-0.7,1.5l-0.6,1.5l-0.6,1.5l-0.6,1.6l-0.6,1.7l-0.6,1.7l-0.5,1.7l-1.5,4.8l-0.9,3.1l-0.4,1.3l-0.4,1.3
		l-0.5,1.3l-0.6,1.4l-0.6,1.4l-0.6,1.4l-0.6,1.4l-2.6,5.5l-0.8,1.8l-0.8,1.8l-0.8,1.9l-0.8,1.9l-0.7,1.9l-2.1,5.6l-0.7,1.9l-0.8,1.8
		l-0.5,1.2l-0.6,1.2l-0.6,1.2l-0.4,0.9l-0.5,0.9l-0.5,0.9l-0.5,0.9l-0.5,0.9l-0.6,0.8l-0.6,0.8l-0.6,0.8l-0.6,0.8l-0.6,0.8l-0.7,0.8
		l-0.7,0.7l-0.7,0.7l-0.7,0.7l-0.7,0.7l-0.7,0.7l-0.7,0.6l-1.3,1.1l-1.3,1.1l-1.4,1.1l-2.9,2.3l-2.1,1.7l-2.1,1.7l-2.2,2l-2.2,2
		l-2.2,2l-7.3,6.9l-5.2,5L24.6,216l-9.5,9.1l-1.7,1.6l-1.7,1.7l-1.3,1.3L9.2,231l-0.7,0.8l-0.7,0.8l-0.7,0.8l-0.7,0.8L5.8,235
		l-0.7,1l-0.7,1l-0.7,1l-0.6,1l-0.5,0.8l-0.4,0.8l-0.4,0.8l-0.4,0.8L1,243l-0.3,0.6l-0.2,0.6l-0.2,0.6l-0.1,0.4l-0.1,0.4L0,246v0.4
		v0.2v0.2v0.2l0.1,0.1v0.1l0.1,0.1l0.1,0.1l0.1,0.1l0.1,0.1l0.1,0.1l0.2,0.1H1h0.1h0.3l0.3-0.1l0.3-0.1l0.4-0.1l0.4-0.1l0.4-0.1
		l0.7-0.3l0.7-0.2l0.7-0.3l0.7-0.4l1-0.5l1-0.6l2.6-1.6l2.4-1.5l2.4-1.5l1.2-0.8l1.2-0.8l1.2-0.9l1.2-0.9l3.3-2.4l1.2-0.9l1.2-0.9
		l1.2-0.8l0.9-0.6l0.9-0.5l0.9-0.5l0.8-0.4l0.8-0.4l0.8-0.4l0.8-0.4l0.8-0.4l0.9-0.4l0.9-0.4l1-0.3l1-0.3l1-0.3l1.3-0.4l1.3-0.3
		l1.3-0.3l1.3-0.3l1.9-0.4l1.8-0.3l5.2-0.9l8.3-1.4l4.2-0.7l4.2-0.6l2.6-0.4l2.6-0.3l1.6-0.2l1.6-0.1l1.6-0.1l1.1-0.1h1.1h1.1h1.1
		h1.1L86,220h1.3l1.1,0.1l1.1,0.1l1.1,0.2l1.1,0.2l1.1,0.2l1.1,0.2l1.1,0.3l1.1,0.3l1.1,0.3l1.2,0.4l1.1,0.4l1.1,0.4l1.1,0.4
		l1.3,0.5l1.6,0.5l1.3,0.5l1.2,0.6l1.2,0.6l1.2,0.6l1.2,0.6l1.1,0.6l1,0.6l1,0.6l1,0.7l1,0.7l1,0.7l1,0.7l0.8,0.6l0.8,0.7l0.8,0.7
		l0.8,0.7l0.8,0.7l0.8,0.7l0.7,0.7l0.7,0.7l0.7,0.8l0.7,0.8l0.7,0.8l0.7,0.8l0.6,0.8l0.6,0.9l0.6,0.9l0.6,0.9l0.6,0.9l0.6,0.9
		l0.9,1.6l0.9,1.6l0.5,0.9l0.5,0.9l0.5,0.9l0.3,0.4l0.3,0.4l0.3,0.4l0.2,0.2l0.2,0.2l0.2,0.2l0.2,0.1l0.2,0.1l0.2,0.1l0.2,0.1h0.2
		h0.2h0.2h0.2l0.2-0.1l0.5,0.2l0.2-0.1l0.3-0.2l0.3-0.2l0.3-0.2l0.2-0.2l0.2-0.2l0.2-0.2l0.2-0.2l0.2-0.3l0.2-0.3l0.1-0.3l0.2-0.4
		l0.1-0.4l0.1-0.4l0.2-0.7l0.2-0.7l0.3-1.6l0.3-1.6l0.8-3.7l0.8-3.9l0.2-1l0.2-1l0.1-0.7l0.1-0.7l0.1-0.7l0.1-0.6v-0.6v-0.6v-0.6
		v-0.6v-0.6l-0.1-0.6l-0.1-0.6l-0.1-0.6l-0.1-0.6l-0.1-0.6l-0.2-0.6l-0.2-0.6l-0.4-1.3l-0.4-1.3l-0.5-1.3l-1-2.8l-1.1-3.1l-1.1-3.2
		l-2.8-8.3l-2.7-8.1l-1-3.1l-0.9-3.1l-0.9-3.1l-0.6-2.2l-0.6-2.2l-0.6-2.2l-0.6-2.5l-0.5-2.5l-0.5-2.5l-0.5-2.5l-0.5-3.1l-0.5-3.1
		l-0.4-3.2l-0.2-1.8l-0.2-1.8l-0.2-1.8l-0.1-1.2l-0.1-1.2l-0.1-1.2v-1.2v-0.9v-0.9v-0.9l0.1-0.9l0.1-0.7l0.1-0.7l0.1-0.7l0.1-0.6
		l0.2-0.6l0.2-0.6l0.2-0.6l0.2-0.6l0.3-0.6l0.3-0.5l0.3-0.5l0.3-0.5l0.3-0.5l0.4-0.5l0.4-0.5l0.4-0.5l0.4-0.5l0.4-0.5l0.5-0.4
		l0.5-0.5l0.5-0.4l0.6-0.4l0.6-0.4l0.6-0.4l0.6-0.4l0.7-0.4l0.7-0.4l1-0.5l1-0.5l1-0.5l1.1-0.5l1.1-0.5l1.1-0.4l1.1-0.4l1.1-0.4
		l1.1-0.4l1-0.3l1-0.3l1-0.3l1.1-0.3l1.1-0.3l1-0.2l1-0.2l1-0.2l1-0.2l1-0.1l1-0.1l1.1-0.1l1.1-0.1l1.1-0.1l1.1-0.1h0.1l1.6-2.9
		L160,123.2z M124.5,176.4l0.9,4l0.7,3l0.7,3l0.4,1.7l0.5,1.7l0.5,1.7l0.5,1.7l0.8,2.5l0.8,2.5l2.6,7.8l0.6,1.8l0.6,1.8l0.3,1.1
		l0.3,1.1l0.3,1.1l0.2,0.9l0.2,0.9l0.2,0.9l0.2,0.9l0.1,0.8l0.1,0.8l0.1,0.8l0.1,0.8v0.8v0.8v0.8v1.4v1.7l0.1,1.7v0.7v0.7v0.6v0.6
		v0.4v0.4l-0.1,0.4l-0.1,0.4l-0.1,0.4l-0.1,0.3l-0.1,0.3l-0.2,0.3l-0.2,0.3l-0.2,0.3l-0.2,0.2l-0.2,0.2l-0.2,0.2l-0.2,0.2l-0.2,0.2
		l-0.2,0.2l-0.2,0.2l-0.2,0.1l-0.2,0.1l-0.2,0.1l-0.2,0.1h-0.2h-0.2h-0.2h-0.3h-0.3l-0.3-0.1l-0.2-0.1l-0.3-0.1l-0.3-0.1l-0.3-0.1
		l-0.5-0.3l-0.5-0.3l-0.5-0.3l-0.5-0.4l-0.5-0.4l-0.5-0.4l-0.8-0.6l-0.8-0.6l-1-0.7l-1-0.7l-1-0.7l-1-0.7l-1-0.7l-1-0.7l-1-0.6
		l-1.4-0.9l-1.5-0.8l-1.5-0.8l-1.5-0.8l-1.5-0.8l-1.4-0.7l-1.4-0.7l-1.4-0.6l-1-0.4l-1-0.4l-1-0.4l-1-0.4l-1-0.4l-1-0.4l-1-0.3
		l-1-0.3l-1-0.3l-1-0.3l-1-0.3l-1.1-0.2l-1.1-0.2l-1.1-0.2l-1.7-0.3l-1.7-0.2l-1.2-0.2l-1.2-0.1l-1.2-0.1l-1.2-0.1l-1.2-0.1
		l-1.2-0.1h-1.2h-1.2h-1.2h-1.2l-1.2,0.1l-1.2,0.1l-1.2,0.1l-1.2,0.1l-1.4,0.2l-1.4,0.2l-1.4,0.2l-1.4,0.2l-2.3,0.4l-2.3,0.5
		l-2.3,0.5l-2.3,0.5l-3.4,0.9l-3.4,0.9l-3.4,1l-4.2,1.3l-4.1,1.4l-4.1,1.4l-4.1,1.5l-4.1,1.6l-4,1.6l-4,1.7l0.1-0.4l0.1-0.4l0.1-0.4
		l0.1-0.4l0.2-0.4l0.2-0.4l0.2-0.4l0.3-0.4l0.3-0.4l0.4-0.5l0.4-0.5l0.4-0.5l0.5-0.6l0.5-0.6l0.5-0.6l1.1-1.1l1.1-1.1l1.1-1.1
		l4.7-4.3l8.1-7.3l9.1-8.3l8.5-8.1l7.2-7.4l3.5-3.3l1.2-1.2l1.2-1.2l0.7-0.7l0.7-0.7l0.7-0.8l0.7-0.8l0.7-0.8l0.7-0.8l0.6-0.8
		l0.6-0.9l0.6-0.9l0.6-0.9l0.5-0.9l0.5-0.9l0.5-0.9l0.5-0.9l0.5-0.9l0.6-1.2l0.6-1.2l0.6-1.3l1.3-3l1.3-3l2.6-6.2l1.5-3.4l1.5-3.4
		l1.6-3.4l0.9-1.9l0.9-1.9l0.4-0.8l0.4-0.8l0.4-0.8l0.2-0.3l0.2-0.3l0.1-0.1v0.1v0.1l-0.1,0.3l-0.1,0.3l-0.2,0.8l-0.3,0.8l-0.7,2.1
		l-0.8,2.3l-0.8,2.4l-0.6,2l-0.6,2l-0.5,2l-1,3.8l-0.4,1.4l-0.4,1.3l-0.4,1.3l-0.4,1.3l-0.5,1.3l-0.4,1.1l-0.4,1.1l-0.4,1.1
		l-0.5,1.1l-0.5,1.1l-0.5,1.1l-0.5,1.1l-0.6,1.2l-0.6,1.2l-0.6,1.2l-0.6,1.1l-0.7,1.1l-0.9,1.5l-0.9,1.5l-0.9,1.5l-1,1.5l-1,1.4
		l-1,1.4l-0.9,1.2l-0.9,1.2l-0.9,1.2l-0.9,1.2l-1,1.1l-1,1.1l-1,1.1l-0.9,1l-0.9,1l-1,1l-1,1l-1,0.9l-1,0.9l-1,0.9l-1,0.9l-1.1,0.9
		l-1.4,1.1l-1.4,1.1l-1.4,1.1l-2,1.5l-2,1.4l-7,4.8l-2.9,2l-1.2,0.9l-1.2,0.9l-0.6,0.5l-0.6,0.5l-0.6,0.5l-0.5,0.5l-0.5,0.5
		l-0.5,0.5l-0.5,0.5l-0.3,0.4l-0.3,0.4l-0.3,0.4l-0.3,0.4l-0.2,0.3l-0.2,0.3l-0.2,0.3l-0.1,0.3l-0.1,0.3l-0.1,0.3l-0.1,0.3v0.1v0.1
		v0.1v0.1v0.1l0.1,0.1l0.1,0.1h0.1H33l0,0h0.1h0.1h0.1l0.3-0.1l0.3-0.1l0.3-0.2l0.3-0.2l0.3-0.2l0.3-0.3l0.5-0.5l0.5-0.5l0.9-0.9
		l0.9-0.9l1-0.8l1-0.8l1-0.8l1-0.8l1.7-1.3l1.7-1.2l6.2-4.4l2.2-1.6l2.2-1.6l2.2-1.7l1.4-1.1l1.4-1.1l1.4-1.1l1.4-1.2l1.3-1.2
		l1.3-1.2l1.1-1l1-1l1-1l1-1l1-1.1l1-1.1l1-1.1l0.9-1.1l0.9-1.1l0.9-1.1l0.9-1.1l0.8-1.1l0.8-1.1l0.8-1.1l0.7-1.1l0.7-1.1l0.7-1.1
		l0.7-1.1l0.6-1.1l0.6-1.2l0.6-1.2l0.6-1.3l0.6-1.3l0.6-1.3l0.5-1.3L87,166l0.5-1.3l0.6-1.8l0.6-1.8l0.6-1.8l0.5-1.8l1.7-6.3
		l0.4-1.4l0.4-1.4l0.3-0.9l0.3-0.9l0.3-0.9l0.3-1l0.4-1l0.4-1l0.4-1l0.4-0.9l0.3-0.6l0.3-0.6L96,139l0.3-0.4l0.3-0.4l0.3-0.4
		l0.2-0.2l0.2-0.2l0.1-0.1l0.1-0.1l0.1-0.1h0.1h0.1h0.1H98h0.1l0.1,0.1l0.1,0.1v0.1v0.3v0.3v0.4v0.4l-0.1,0.5l-0.1,0.5l-0.1,0.5
		l-0.2,0.8l-0.2,0.8l-0.2,0.8l-1.4,4.5l-0.6,2l-0.6,2l-0.5,2l-0.4,1.8l-0.4,1.8l-1.4,6l-0.9,3.5l-0.9,3.5l-1,3.5l-1,3.5l-1.1,3.5
		l-0.8,2.5l-0.8,2.5l-0.5,1.4l-0.5,1.4l-0.6,1.4l-0.4,1.1l-0.5,1.1l-0.5,1.1l-0.3,0.7l-0.4,0.7l-0.4,0.7l-0.4,0.7l-0.4,0.7l-0.5,0.7
		l-0.5,0.7l-0.5,0.6l-0.5,0.6l-0.7,0.8l-0.7,0.8l-1.1,1.2l-1,1.2l-0.5,0.6l-0.5,0.6l-0.4,0.6l-0.4,0.6l-0.3,0.5l-0.3,0.5l-0.3,0.5
		l-0.2,0.3l-0.2,0.4l-0.2,0.4l-0.1,0.3l-0.1,0.3v0.2v0.2v0.1v0.1v0.1l0.1,0.1l0.1,0.1H72h0.1h0.1h0.2l0.2-0.1l0.2-0.1l0.4-0.2
		l0.4-0.3l0.4-0.3l0.6-0.5l0.6-0.5l0.6-0.6l0.6-0.6l0.7-0.7l0.7-0.8l0.7-0.8l0.7-0.8l0.7-0.9l0.7-0.9l0.7-0.9l0.6-0.9l0.6-0.9
		l0.6-0.9l0.6-1l0.6-1l0.5-1l0.5-1l0.5-1l0.5-1l0.4-1l0.4-1l0.4-1.1l0.4-1.1l0.4-1.1l0.4-1.1l0.6-1.8l0.5-1.8l0.5-1.8l0.5-1.8
		l0.9-3.8l0.9-3.8l2.1-9.9l1.7-8.4l0.7-3.2l0.2-1l0.2-1l0.2-0.8l0.2-0.8l0.3-0.8l0.2-0.4l0.2-0.4l0.2-0.4L99,143l0.2-0.3l0.2-0.3
		l0.2-0.2l0.2-0.2l0.2-0.2l0.2-0.1l0.2-0.1l0.1-0.1h0.1h0.2h0.1h0.1h0.1l0.1,0.1l0.1,0.1l0.1,0.1l0.1,0.1l0.1,0.1l0.1,0.2v0.2v0.2
		v0.2v0.2v0.6l-0.1,0.6l-0.1,0.6l-0.3,1.9l-0.3,1.9l-0.5,2.6l-0.4,2.6l-0.4,2.4l-0.4,2.4l-1.1,8l-1,7.7l-1.2,8.4l-0.2,1.8l-0.2,1.8
		l-0.1,1.2l-0.1,1.2l-0.1,1.2l-0.1,1.4l-0.1,1.4v1.4v1.4v1.4v1.1v1.1l0.1,1.1l0.1,1l0.1,1l0.1,1l0.1,0.8l0.1,0.8l0.2,0.8l0.2,0.8
		l0.2,0.8l0.2,0.8l0.2,0.5l0.2,0.5l0.2,0.5l0.1,0.2L97,210l0.1,0.1l0.1,0.1v-0.1V210v-0.2v-0.2v-0.2v-0.5v-0.4V208l-0.1-0.8
		l-0.1-0.8l-0.2-1.4l-0.1-1.4l-0.1-0.9v-0.9v-0.9V200v-1.3l0.1-1.3l0.2-2.8l0.2-2.8l0.8-7.9l1.6-13.7l1.7-13.7l0.3-2.4l0.3-2.4
		l0.2-1.3l0.2-1.3l0.2-0.8l0.2-0.8l0.1-0.6l0.2-0.6l0.2-0.5l0.1-0.3l0.1-0.3l0.1-0.3l0.2-0.2l0.1-0.1l0.1-0.1l0.1-0.1l0.1-0.1
		l0.1-0.1l0.1-0.1h0.1h0.2h0.1h0.1h0.1l0.1,0.1l0.1,0.1l0.1,0.1l0.1,0.1l0.1,0.2l0.1,0.2l0.1,0.2l0.1,0.2l0.1,0.3l0.1,0.3l0.1,0.3
		l0.1,0.3l0.1,0.6l0.1,0.6v0.6v0.6v1.1v1.1l-0.1,1.9l-0.1,1.9l-0.2,4.4l-0.2,4.4l-0.1,4.4l-0.1,3.1v3.1v3.1v2.2l0.1,2.2l0.1,2.2
		l0.1,2.2l0.1,1.4l0.1,1.4l0.2,1.4l0.1,1l0.2,1l0.2,1l0.2,1l0.3,1.2l0.3,1.2l0.3,1.2l0.3,1.2l0.3,1.2l0.4,1.2l0.4,1.2l0.4,1.2
		l0.5,1.2l0.5,1.2l0.5,1.2l0.5,1.2l0.6,1.2l0.3,0.7l0.4,0.7l0.2,0.4l0.2,0.4l0.1,0.2l0.1,0.2l0.1,0.1l0.1,0.1h0.1v-0.1v-0.1v-0.3
		V212l-0.1-0.6l-0.1-0.6l-0.1-0.6l-0.4-2l-0.4-2L112,201l-0.7-3.1l-0.6-3.1l-0.6-3.2l-0.4-2.5l-0.4-2.5l-0.2-1.6l-0.2-1.6l-0.2-1.6
		l-0.1-1.5l-0.1-1.5l-0.1-1.5l-0.1-1.5v-1.5v-1.5v-2.2l0.1-2.2l0.2-4.3l0.2-4.1l0.3-4.1l0.1-1.7l0.2-1.7l0.1-0.9l0.1-0.9l0.1-0.9
		l0.1-0.6l0.1-0.6l0.1-0.5l0.1-0.2l0.1-0.2l0.1-0.2l0.1-0.1l0.1-0.1l0.1-0.1l0.1-0.1l0.1-0.1h0.1h0.1h0.3h0.3h0.4h0.4h0.3l0.3,0.1
		l0.3,0.1l0.3,0.1l0.2,0.1l0.2,0.1l0.2,0.1l0.1,0.1l0.1,0.1l0.1,0.2l0.1,0.2l0.1,0.2l0.1,0.2v0.2v0.3v0.3v0.3v0.6v0.6v0.6l-0.1,2.3
		l-0.1,2.2v2.2v2.2l0.1,2.2l0.1,2.2l0.1,2.2l0.2,2.1l0.2,2.1l0.2,2.1l0.2,2.1l0.6,4.6l0.7,4.6l0.5,3.4l0.6,3.4l0.6,3.4l0.5,2.7
		l0.6,2.7l0.6,2.7l0.7,2.7l0.8,2.8l0.8,2.8l0.9,2.8l0.9,2.8l1,2.8l1,2.8l1.1,2.8l1.1,2.8l0.2-0.2l0.1-0.2l0.1-0.2l0.1-0.2l0.1-0.3
		v-0.3v-0.3V226v-0.3v-0.4v-0.4l-0.1-0.4l-0.1-0.5l-0.1-0.5l-0.1-0.5l-0.3-1l-0.3-1l-0.4-1l-1.5-4.2l-1-2.6l-0.9-2.7l-0.9-2.7
		l-0.5-1.7l-0.5-1.7l-0.5-1.7l-0.4-1.7l-0.4-1.8l-0.4-1.8l-0.4-2l-0.3-2l-0.3-2l-0.4-3l-0.4-3l-0.3-3l-0.8-8.1l-0.7-7.9l-0.5-5.5
		l-0.1-1.1l-0.1-1.1v-0.8v-0.8v-0.8v-0.8V155v-0.5l0.1-0.5l0.1-0.5l0.1-0.5l0.1-0.4l0.1-0.4l0.2-0.4l0.2-0.4l0.2-0.3l0.2-0.3
		l0.2-0.3l0.1-0.2l0.1-0.2l0.2-0.2l0.1-0.1l0.2-0.1l0.1-0.1h0.1h0.1h0.1h0.1l0.1,0.1l0.1,0.1l0.1,0.1l0.1,0.2l0.1,0.2l0.1,0.2
		l0.1,0.5l0.1,0.5l0.1,0.5l0.2,1.8l0.2,1.8l0.1,1.5l0.2,1.5l0.2,1.5l0.2,1.3l0.2,1.3l0.3,1.3l0.6,3.1l0.7,3.1L124.5,176.4z"/>
</g>
<g class="st2">
	<path class="st1" d="M75.4,80.9c-0.6,1.4-0.8,2.5-1.2,2.5c-0.2,0-1.2-0.3-3.2-1c-0.5-0.2-0.8-0.4-0.8-0.7c0-0.1,0.1-2.3,0.6-6.1
		c0.8-6,1.2-9.6,1.5-11c0.1-0.5,0-1,1.7-1c1.1,0,2.5,0.4,2.6,0.5c0.1,0.2,0.1,0.4,0.1,0.6c0,0.3-0.6,3-1.8,8.2
		c-0.5,2.2-0.8,3.1-0.8,3.3s0.1,0.3,0.1,0.3c0.4,0,1.2-3.2,3.3-8.2c0.9-2,1-3.2,2.1-3.2c0.4,0,1.1,0.5,2.5,0.9
		c0.3,0.1,0.4,0.3,0.4,0.5c0,0.1-0.3,1.7-0.9,5.1c-0.6,3.1-0.8,4.7-0.8,4.7c0,0.2,0.1,0.3,0.1,0.3c0.4,0,0.7-3.7,3.7-10.1
		c1.1-2.5,1.5-3.3,2.2-3.3c1.3,0,2.7,0.8,2.7,1.3c0,0.4-1.8,4.5-5.2,12.2c-1.2,2.8-1.9,4.6-2.3,5.5c-0.1,0.3-0.1,0.9-1.3,0.9
		c-0.4,0-2-0.3-3.2-1c-0.3-0.1-0.4-0.3-0.4-0.5c0,0,0.1-1.2,0.3-3.2c0.2-1.7,1-3.6,1-5c0-0.1,0-0.2-0.1-0.2
		C78.1,73.2,77.6,75.9,75.4,80.9z"/>
	<path class="st1" d="M93.9,80.9c-0.6,1.4-0.8,2.5-1.2,2.5c-0.2,0-1.2-0.3-3.2-1c-0.5-0.2-0.8-0.4-0.8-0.7c0-0.1,0.1-2.3,0.6-6.1
		c0.8-6,1.2-9.6,1.5-11c0.1-0.5,0-1,1.7-1c1.1,0,2.5,0.4,2.6,0.5c0.1,0.2,0.1,0.4,0.1,0.6c0,0.3-0.6,3-1.8,8.2
		c-0.5,2.2-0.8,3.1-0.8,3.3s0.1,0.3,0.1,0.3c0.4,0,1.2-3.2,3.3-8.2c0.9-2,1-3.2,2.1-3.2c0.4,0,1.1,0.5,2.5,0.9
		c0.3,0.1,0.4,0.3,0.4,0.5c0,0.1-0.3,1.7-0.9,5.1c-0.6,3.1-0.8,4.7-0.8,4.7c0,0.2,0.1,0.3,0.1,0.3c0.4,0,0.7-3.7,3.7-10.1
		c1.1-2.5,1.5-3.3,2.2-3.3c1.3,0,2.7,0.8,2.7,1.3c0,0.4-1.8,4.5-5.2,12.2c-1.2,2.8-1.9,4.6-2.3,5.5c-0.1,0.3-0.1,0.9-1.3,0.9
		c-0.4,0-2-0.3-3.2-1c-0.3-0.1-0.4-0.3-0.4-0.5c0,0,0.1-1.2,0.3-3.2c0.2-1.7,1-3.6,1-5c0-0.1,0-0.2-0.1-0.2
		C96.6,73.2,96.2,75.9,93.9,80.9z"/>
	<path class="st1" d="M112.4,80.9c-0.6,1.4-0.8,2.5-1.2,2.5c-0.2,0-1.2-0.3-3.2-1c-0.5-0.2-0.8-0.4-0.8-0.7c0-0.1,0.1-2.3,0.6-6.1
		c0.8-6,1.2-9.6,1.5-11c0.1-0.5,0-1,1.7-1c1.1,0,2.5,0.4,2.6,0.5c0.1,0.2,0.1,0.4,0.1,0.6c0,0.3-0.6,3-1.8,8.2
		c-0.5,2.2-0.8,3.1-0.8,3.3s0.1,0.3,0.1,0.3c0.4,0,1.2-3.2,3.3-8.2c0.9-2,1-3.2,2.1-3.2c0.4,0,1.1,0.5,2.5,0.9
		c0.3,0.1,0.4,0.3,0.4,0.5c0,0.1-0.3,1.7-0.9,5.1c-0.6,3.1-0.8,4.7-0.8,4.7c0,0.2,0.1,0.3,0.1,0.3c0.4,0,0.7-3.7,3.7-10.1
		c1.1-2.5,1.5-3.3,2.2-3.3c1.3,0,2.7,0.8,2.7,1.3c0,0.4-1.8,4.5-5.2,12.2c-1.2,2.8-1.9,4.6-2.3,5.5c-0.1,0.3-0.1,0.9-1.3,0.9
		c-0.4,0-2-0.3-3.2-1c-0.3-0.1-0.4-0.3-0.4-0.5c0,0,0.1-1.2,0.3-3.2c0.2-1.7,1-3.6,1-5c0-0.1,0-0.2-0.1-0.2
		C115.1,73.2,114.7,75.9,112.4,80.9z"/>
	<path class="st1" d="M124,81.3c0-0.2,0.1-0.4,0.1-0.6c0-0.1,0-0.2,0-0.3c0-1,1.6-3.2,2.7-3.2c1.5,0,2.2,1.2,2.2,2
		c0,2.6-2.1,3.7-2.9,3.7C124.8,83.1,124,82.4,124,81.3z"/>
</g>
<g class="st2">
	<path class="st1" d="M132.1,95.6c0-0.2,2.2-12.5,7.9-33.4c0.8-2.7,0.4-4.8,3.8-4.8c2.8,0,6,1.7,6,2.7c0,0.6-0.9,4.6-2.7,12.1
		c-2.4,10-3.9,15.2-3.9,15.8c0,1.3,1.2,0.8,4.9,1.8c2.2,0.6,3.3,1,3.3,2.1c0,0.4-0.2,0.9-0.3,1.6c-0.1,0.6-0.1,1.2-0.1,1.7v0.4
		c0,0.2,0,0.4-0.1,0.6c-0.1,0.3-0.4,0.6-0.6,0.8c-0.5,0.4-5.3,0.4-14.5,3.3C133.2,98.7,132.1,96,132.1,95.6z"/>
	<path class="st1" d="M163.7,99.5c-0.1-0.1-0.3-0.1-0.5-0.1h-0.7c-0.5,0-1.1-0.1-1.6-0.3c-4-1.8-6-5.7-6-11.9
		c0-5.3,2.7-14.5,7.9-21.8c3.5-4.9,5.4-8.1,9.1-8.1c0.3,0,0.8,0.1,1.5,0.1c1.3,0,2.6,0.6,4.4,1.2c4.7,1.6,7.1,5.5,7.1,12
		c0,4.7-1.1,9.9-3.1,14.6c-2.6,6-6.2,10.5-8.8,12.6c-1.8,1.5-4.1,2.6-5.7,2.6h-0.5C165.3,100.4,164.3,99.7,163.7,99.5z M165.9,92.1
		c1.3,0,3-2,5-6c2.5-5,4.2-9.5,4.2-15.3c0-3.2-0.7-4.8-1.6-4.8c-0.4,0-1.9,1.8-3.9,5.4c-4,7.1-5.4,14.5-5.4,17
		C164.2,90.7,164.8,92.1,165.9,92.1z M168.9,48.6c1.1-1.5,2-2.2,4-2.2c1.8,0,2.9,3.5,2.9,3.8c0,1.3-2.6,3.9-4.3,3.9
		c-1.9,0-3.9-1.2-3.9-2.7C167.6,51.3,168.3,49.4,168.9,48.6z M179,48.6c1.1-1.5,2-2.2,3.9-2.2c1.8,0,2.9,3.5,2.9,3.8
		c0,1.3-2.6,3.9-4.3,3.9c-1.9,0-3.9-1.2-3.9-2.7C177.7,51.3,178.4,49.4,179,48.6z"/>
	<path class="st1" d="M189.9,100.4c-0.1,0-2.2-0.8-3.6-1.6c-2.3-1.2-3.9-3.9-3.9-6.6s1-6,1.5-6.7c0.8-1.1,1.8-1.1,4.4-1.1
		c0.8,0,3.1,1,3.1,2.6c0,0.5-0.1,1.2-0.1,2c0,2.2-0.8,3.6-0.8,4.2c0,0.4,0.2,0.6,0.5,0.6c1.6,0,3.3-7,6.3-20.8
		c1.9-8.4,3.1-12.8,3.1-13.4c0-0.3-0.4-0.5-0.4-0.9c0-0.8,2.4-1.4,4.7-1.4c2.2,0,3.5,1,4.7,1.4c0.8,0.3,1.3,0.1,1.3,0.5
		c0,0.4-1.1,2.4-2.4,7.4c-2.6,9.8-3.5,17-5,21.2c-3.2,8.9-9.7,12.5-10.8,12.5c-0.2,0-0.6-0.1-1.1-0.1
		C191.3,100.3,190.6,100.4,189.9,100.4z"/>
	<path class="st1" d="M235,95.5v0.1c0,0.7-3,4.4-4.2,4.4c-1.7,0-3.5-2.3-6.7-7.1c-2.3-3.4-3.2-5.9-3.7-5.9c-1.2,0-1.1,4.3-2.8,10.9
		c-0.5,1.8-0.5,2.5-3.3,2.5c-0.2,0-2.6-0.9-4.3-2.1c-0.6-0.5-0.9-1.1-0.9-1.8c0-0.9,2.3-12.2,7.6-33.5c0.5-2,1-3.1,1.5-3.3
		c0.5-0.2,1.7-0.5,3.6-1.1c4.3-1.2,7.2-1.2,7.8-1.2c2,0,6.2,0.8,8,2.1c0.6,0.5,1.1,0.9,1.3,1.7c1.6,3.7,2.3,6.3,2.3,7.6
		c0,4.9-4,8.7-10.8,14.1C231.7,88.4,235,92.1,235,95.5z M222.7,77.9c0.2,0,3.1-1.6,6.1-4.4c2.7-2.5,3.8-5,3.8-6.6
		c0-1.1-1-1.6-2.9-1.6c-2.8,0-3.9,0.4-4.3,1.3c-0.1,0.4-0.7,2-1.6,5.3c-1,3.6-1.5,5.4-1.5,5.6C222.3,77.8,222.5,77.9,222.7,77.9z"/>
	<path class="st1" d="M248.9,99.5c-0.1-0.1-0.3-0.1-0.5-0.1h-0.7c-0.5,0-1.1-0.1-1.6-0.3c-4-1.8-6-5.7-6-11.9
		c0-5.3,2.7-14.5,7.9-21.8c3.5-4.9,5.4-8.1,9.1-8.1c0.3,0,0.8,0.1,1.5,0.1c1.3,0,2.6,0.6,4.4,1.2c4.7,1.6,7.1,5.5,7.1,12
		c0,4.7-1.1,9.9-3.1,14.6c-2.6,6-6.2,10.5-8.8,12.6c-1.8,1.5-4.1,2.6-5.7,2.6H252C250.5,100.4,249.5,99.7,248.9,99.5z M251.1,92.1
		c1.3,0,3-2,5-6c2.5-5,4.2-9.5,4.2-15.3c0-3.2-0.7-4.8-1.6-4.8c-0.4,0-1.9,1.8-3.9,5.4c-4,7.1-5.4,14.5-5.4,17
		C249.4,90.7,250,92.1,251.1,92.1z"/>
	<path class="st1" d="M275.9,100.1c-2.3,0-3.5-1.2-5.3-1.9c-0.2-0.1-0.5-0.6-0.5-1.5c0-1.5,0.9-5.6,2.6-12.4
		c3.3-13.2,5.2-20,5.4-20.8c0.6-2.5,1.9-3.7,4-3.7c2,0,4.6,0.7,8.1,1.8c0.5,0.2,0.6,0.3,0.6,0.9c0,1.4-0.8,4.7-1.1,9.7
		c-0.3,4.7-0.8,7.6-0.8,8.2c0,0.2,0.1,0.3,0.4,0.3c0.6,0,2.5-7.4,7.3-17.9c2.2-4.6,1.5-5.2,3.5-5.2c1.9,0,5.5,0.9,8.2,2.4
		c0.8,0.4,1.1,1,1.1,1.9c0,0.5-1.1,2.8-2,7.9c-0.8,4.6-2.3,11.2-4.5,19.7c-1.6,6.3-2.5,9.5-2.6,9.9c-0.1,0.5-0.9,0.7-2.4,0.7
		c-2.6,0-5.7-1.1-5.7-2c0-0.4,1.2-3.7,3-10.7c2.9-11.1,4.7-16.4,4.7-16.9c0-0.2-0.2-0.5-0.3-0.5c-0.6,0-3.3,8.9-11.9,25.9
		c-0.6-0.1-1.1-0.5-1.7-0.5c-0.2,0-0.3,0.1-0.5,0.1c-0.6,0-1.1-0.4-1.9-0.6c-0.5-0.1-0.6-0.2-0.6-1.1V92c0-1.6-0.1-3.5-0.1-5.7
		c0-6.4,0.9-11.8,0.9-14.9c0-0.4-0.1-0.6-0.5-0.6c-0.6,0-0.8,6.6-3.3,17.8c-1.2,5.6-2.1,8.9-2.1,10.3v0.3l-0.6,0.8
		C276.6,100,276.2,100.1,275.9,100.1z"/>
	<path class="st1" d="M311.7,85.8c1.4,0,1.2,0.1,1.6,1.2c1.1,2.8,2.6,4.2,4.7,4.2c1.5,0,2.9-1.4,2.9-3.2c0-1.6-1.9-3.3-4.8-6.4
		c-2.1-2.3-3.2-5-3.2-7.4c0-5.3,2.8-10.2,8.1-14.2c2.3-1.8,4.7-2.6,5.5-2.6c1.8,0,3,1.2,4.7,2c2.3,1.3,4.6,1.5,4.6,7.1
		c0,5-1.9,8.4-4.1,8.4c-1.3,0-4.2-0.6-4.9-0.9C326,73.6,326,73,326,72v-0.8c0-2,0.5-3.5,0.5-4.3c0-0.4-0.2-0.5-0.6-0.5
		c-0.6,0-3.5,2.6-3.5,5.7c0,2.8,2.3,4.4,5,7c2.6,2.5,3.9,4.7,3.9,7.3c0,6.9-6.4,13.6-13.2,13.6c-5.6,0-10.9-4.4-10.9-10.2
		c0-0.4,0.1-1,0.1-1.7C309.4,86.6,310.9,85.8,311.7,85.8z"/>
</g>
<g class="st2">
	<path class="st1" d="M333.7,81.3c0-0.2,0.1-0.4,0.1-0.6c0-0.1,0-0.2,0-0.3c0-1,1.6-3.2,2.7-3.2c1.5,0,2.2,1.2,2.2,2
		c0,2.6-2.1,3.7-2.9,3.7C334.5,83.1,333.7,82.4,333.7,81.3z"/>
	<path class="st1" d="M343.3,76.3c0.7,0,0.6,0.1,0.8,0.6c0.5,1.3,1.3,2,2.2,2c0.7,0,1.4-0.7,1.4-1.5c0-0.8-0.9-1.6-2.3-3.1
		c-1-1.1-1.5-2.4-1.5-3.5c0-2.5,1.3-4.9,3.9-6.8c1.1-0.8,2.3-1.2,2.6-1.2c0.9,0,1.5,0.6,2.2,1c1.1,0.6,2.2,0.7,2.2,3.4
		c0,2.4-0.9,4-2,4c-0.6,0-2-0.3-2.3-0.4c-0.4-0.2-0.4-0.4-0.4-0.9v-0.4c0-1,0.2-1.6,0.2-2.1c0-0.2-0.1-0.3-0.3-0.3
		c-0.3,0-1.6,1.2-1.6,2.7c0,1.3,1.1,2.1,2.4,3.4c1.2,1.2,1.8,2.2,1.8,3.5c0,3.3-3,6.5-6.3,6.5c-2.7,0-5.2-2.1-5.2-4.9
		c0-0.2,0-0.5,0.1-0.8C342.2,76.6,342.9,76.3,343.3,76.3z"/>
	<path class="st1" d="M354.3,80.5c0-0.4,0.8-4.3,2.7-11.4c1.1-4.1,1.5-5.9,1.9-5.9c0.2,0,0.3,0.1,0.5,0.1c0.1,0,0.2-0.1,0.4-0.1
		c0.4,0,1,0.1,1.6,0.1c0.7,0,1.5-0.1,2.5-0.1c0.7,0,1.9,0.1,2.9,0.4c0.4,0.1,0.9,0.3,0.9,1.9c0,0.6-0.2,1.5-0.3,1.6
		c-0.3,0.3-2,0.3-5.5,0.7c-0.4,1.1-0.7,2.2-0.9,3.3c0.4,0,0.8,0,1.3,0c1.5,0,2.4,0.1,2.5,0.3c0.3,0.4,0.6,1.1,0.6,1.7
		c0,0.6-0.4,1.6-0.4,1.7c-0.3,0.3-2.1,0.4-5.3,1c-0.3,1.3-0.6,2.1-0.6,2.5c0,0.1,0,0.2,0.1,0.2c2.1-0.1,3.2-0.1,3.4-0.1
		c0.3,0,0.4,0.1,0.4,0.1v0.2c0,0.3,1,0.6,1,2c0,1.3-0.3,1.4-0.9,1.4h-0.1c-1,0-2.1,0.5-3.2,0.6c-1.1,0.1-2.4,0.3-3.7,0.7
		C354.9,82.5,354.3,81.7,354.3,80.5z"/>
</g>
<g class="st2">
	<path class="st1" d="M185.8,120.3c0,1.8-0.8,3-2.6,4.2c-0.9,0.6-2.5,1.4-4,1.8c-1.5,0.4-2.5,0.7-3,0.7c-1.4,0-3.1-1.3-3.1-1.8
		c0-1,0.9-5.5,2.9-13.2c0.7-2.7,1.1-4.1,1.1-4.1c0.2-0.5,2.3-1.1,5.7-1.1c1.5,0,2.7,0.3,3.4,1c1.3,1.2,2,2.5,2,3.7
		c0,2-1.5,3.9-4.4,5.7C185.2,118,185.8,119,185.8,120.3z M178,122.3c1.2,0,3.9-1.3,3.9-2.4c0-0.4-1.2-1-2.7-1h-0.4
		c-0.3,0-0.4,0-0.4,0.2c-0.6,1.9-0.9,2.9-0.9,2.9C177.5,122.2,177.7,122.3,178,122.3z M179.9,115c1.3,0,4.2-2.2,4.2-3.6
		c0-0.6-0.6-0.8-1.7-0.8c-0.9,0-1.5,0.1-1.7,0.4c-0.1,0.1-0.1,0.5-0.3,1.3c-0.5,1.6-0.8,2.5-0.8,2.6
		C179.6,114.9,179.7,115,179.9,115z"/>
	<path class="st1" d="M192.5,126.7c-0.2,0-1.3-0.7-3.2-2.3c-0.8-0.6-1-1-1-2.7c0-1.1,0.4-3.1,1.1-6.1c1.3-5.1,2.2-7.7,2.2-7.7
		c0.3-0.3,0.8-0.7,1.6-0.7c0.8,0,2.7,1,2.7,1.7c0,0.1-0.4,0.6-1.3,4.3c-1.1,4.5-2.1,7.4-2.1,8.6c0,0.5,0.3,0.8,0.8,0.8
		c1.8,0,2.6-3.8,4.4-11.3c0.6-2.6,0.7-3.8,1-4.1c0.3-0.3,0.9-0.5,1.6-0.5c1.7,0,3,1.5,3,1.7c0,0.1-0.4,1.3-1.1,4.1
		c-0.4,1.5-0.8,4.2-2,8.3c-1.1,4.1-4.7,6.3-6.5,6.3C193.2,127,192.8,126.7,192.5,126.7z"/>
	<path class="st1" d="M208.5,124.5c-0.3,1.1-0.2,2.4-1.5,2.4c-0.2,0-0.9-0.5-2.3-0.9c-0.4-0.1-0.7-0.1-0.7-0.6c0-0.2,1.2-5,3.3-14.4
		c-0.4,0-0.8-0.1-1.1-0.1c-0.1,0-0.2,0-0.3,0c-0.3,0-0.6-0.1-0.9-0.1h-0.1c-0.2,0-0.3,0-0.3-0.3c0-0.2,0.1-0.4,0.1-0.6
		c0-0.2-0.1-0.4-0.1-0.7c0-0.8,0.2-1.7,0.4-1.8c1-0.5,2.7-0.6,5-0.8c1.4-0.1,2.7-0.1,3.9-0.1h1.2c0.4,0,0.7,1.2,0.7,2.7
		c0,1-0.7,1.2-3.7,1.6C209.7,119.4,208.7,123.9,208.5,124.5z"/>
	<path class="st1" d="M215.6,115.7c1.3-5.3,2-7.9,2-8c0-0.6,0-1.1,1.9-1.1c1.4,0,2.7,1.1,2.7,1.3c0,0.2-0.3,0.4-0.4,0.9
		c-0.1,0.2-0.3,1.3-0.8,3.2c-0.7,2.5-1.1,4.9-1.5,7.2c-0.7,3.2-1.3,5.7-1.7,7.2c-0.2,0.7-0.6,0.8-1.7,0.8h-0.4
		c-1.5,0-2.4-0.9-2.4-1.1C213.3,125.8,213.9,122.3,215.6,115.7z"/>
	<path class="st1" d="M233.6,123.9c0,0.4-0.6,1.1-0.8,1.3c-0.4,0.3-1.2,1.3-1.5,1.3c-1.1,0-2.3-2-3.3-6.3c-0.2-0.8-0.2-1.2-0.4-1.2
		c-0.3,0-0.3,1.3-1.2,4.8c-0.6,2-0.8,3.3-1.5,3.3c0,0-1-0.3-2.7-1c-0.4-0.2-0.7-0.6-0.7-0.9c0-0.1,0.3-0.8,0.7-2.2
		c0.1-0.3,0.7-2.9,1.8-7.7c1.1-4.5,1.8-6.9,1.8-7.2c0-0.1-0.1-0.2-0.1-0.3c0-0.2,0.5-0.6,0.5-0.6c0.2,0,0.5,0.1,1,0.2
		c0.8,0.1,1.5,0.1,2,0.2c0.6,0.1,1,0.4,1,0.8c0,0-0.2,1.4-0.6,2.9c-0.7,2.5-1.2,3.8-1.2,3.9c0,0.1,0,0.1,0.1,0.1
		c0.2,0,1.5-2,4.6-6.3c1.5-2,2.4-3,2.5-3c0.7,0,0.5,0.2,0.7,0.6c0.4,0.8,1.6,1.3,1.6,1.8c0,0.4-2.3,3-6.1,8.9
		C232.8,121.5,233.6,123.6,233.6,123.9z"/>
	<path class="st1" d="M235.3,124.4c0-0.4,0.8-4.3,2.7-11.4c1.1-4.1,1.5-5.9,1.9-5.9c0.2,0,0.3,0.1,0.5,0.1c0.1,0,0.2-0.1,0.4-0.1
		c0.4,0,1,0.1,1.6,0.1c0.7,0,1.5-0.1,2.5-0.1c0.7,0,1.9,0.1,2.9,0.4c0.4,0.1,0.9,0.3,0.9,1.9c0,0.6-0.2,1.5-0.3,1.6
		c-0.3,0.3-2,0.3-5.5,0.7c-0.4,1.1-0.7,2.2-0.9,3.3c0.4,0,0.8,0,1.3,0c1.5,0,2.4,0.1,2.5,0.3c0.3,0.4,0.6,1.1,0.6,1.7
		c0,0.6-0.4,1.6-0.4,1.7c-0.3,0.3-2.1,0.4-5.3,1c-0.3,1.3-0.6,2.1-0.6,2.5c0,0.1,0,0.2,0.1,0.2c2.1-0.1,3.2-0.1,3.4-0.1
		c0.3,0,0.4,0.1,0.4,0.1v0.2c0,0.3,0.9,0.6,0.9,2c0,1.3-0.3,1.4-0.9,1.4h-0.1c-1,0-2.1,0.5-3.2,0.6c-1.1,0.1-2.4,0.3-3.7,0.7
		C236,126.4,235.3,125.7,235.3,124.4z"/>
	<path class="st1" d="M253.6,115.3V115c0-0.1,0-0.2-0.1-0.2c-0.1,0-0.2,0.1-0.2,0.3c0,0.1-0.3,4-1.6,10.5c-0.2,1-0.9,1.7-2.4,1.7
		c-0.4,0-0.7-0.2-1.3-0.4c-0.3-0.1-0.4-0.1-0.4-0.6c0-0.4,0.9-4.9,3.1-13.4c0.8-2.9,1.1-4.5,1.4-4.9c0.4-0.5,0.7-0.6,1.7-0.6
		c0.4,0,0.9,0.3,1.6,0.6c0.3,0.1,0.6,0,0.8,0.2c0.2,0.4,0.5,0.1,0.5,0.7c0,0.1,0,0.4,0,0.8c0,0.1,0.1,2.7,0.4,7.8
		c0.1,1.3,0,1.8,0.2,1.8s0.2-0.2,0.2-0.5s0.1-1.6,0.4-3.4c0.5-3.1,0.9-5.6,1.4-7.4c0.3-0.9,0.3-1.4,0.4-1.5c0.3-0.2,1.2-0.5,1.6-0.5
		c0.2,0,0.4,0,0.5,0h0.4c0.5,0,1.6,0.5,1.6,0.7c0,0.1-0.5,2.2-1.5,6.3c-0.7,2.7-1.2,5.6-2,8.8c-0.8,3-1,4.3-1.3,4.3
		c-0.4,0-0.7,0.1-0.9,0.1c-0.1,0-0.9-0.1-2.4-0.4C254.2,122.3,253.6,118.7,253.6,115.3z"/>
</g>
</svg>
