<?xml version="1.0" encoding="utf-8"?>
<!-- Generator: Adobe Illustrator 26.3.1, SVG Export Plug-In . SVG Version: 6.00 Build 0)  -->
<svg version="1.1" id="Layer_1" xmlns="http://www.w3.org/2000/svg" xmlns:xlink="http://www.w3.org/1999/xlink" x="0px" y="0px"
	 viewBox="0 0 398.3 254.2" style="enable-background:new 0 0 398.3 254.2;" xml:space="preserve">
<style type="text/css">
	.st0{fill-rule:evenodd;clip-rule:evenodd;fill:#F1F1F1;}
	.st1{fill:#F1F1F1;}
</style>
<g>
	<polygon class="st0" points="210.2,50.4 208.6,49.5 208.5,49.4 208.4,49.2 208.3,49 208.2,48.9 208.2,48.7 208.1,48.5 208.1,48.3 
		208.1,48.2 208.1,48 208.1,47.7 208.2,47.5 208.3,47.2 208.4,46.9 208.5,46.6 208.6,46.3 208.9,45.9 209.1,45.5 209.3,45.2 
		209.6,44.8 209.9,44.4 210.2,44.1 210.5,43.7 210.8,43.4 211.1,43.1 211.5,42.8 211.8,42.5 212.2,42.3 212.6,42.1 213,41.9 
		213.3,41.7 213.7,41.6 214.1,41.5 214.5,41.4 214.9,41.3 215.2,41.2 215.5,41.2 215.9,41.2 216.1,41.2 216.4,41.2 216.6,41.2 
		216.9,41.3 217.1,41.3 217.1,41.4 217.2,41.4 217.3,41.5 217.3,41.5 217.3,41.5 217.3,41.6 217.2,41.6 217.2,41.7 217.1,41.7 
		217.1,41.8 216.8,41.9 216.5,42.1 215.5,42.4 214.9,42.7 214.3,43 214,43.1 213.6,43.3 213.3,43.6 213,43.8 212.7,44 212.4,44.2 
		212.2,44.4 212,44.7 211.8,44.9 211.6,45.1 211.5,45.4 211.3,45.6 211.2,45.9 211.1,46.1 211,46.4 210.9,46.7 210.9,47 210.9,47.3 
		210.8,47.9 210.9,48.4 210.9,49.3 210.9,49.7 210.8,50.1 	"/>
	<polygon class="st0" points="300.2,40.6 300.1,40.7 300.1,40.8 300,40.8 299.7,41 299.4,41.1 298.9,41.3 298.5,41.5 298.1,41.6 
		297.7,41.8 297.3,42 296.8,42.2 296.5,42.4 296.2,42.6 295.9,42.8 295.3,43.3 294.8,43.8 294,44.5 293.6,44.8 293.2,45.1 
		292.9,45.4 292.5,45.6 292.3,45.7 292.1,45.8 292,45.8 291.9,45.8 291.8,45.8 291.7,45.8 291.6,45.7 291.5,45.6 291.5,45.5 
		291.4,45.4 291.4,45.3 291.4,45.1 291.3,44.8 291.3,44.5 291.3,44.3 291.4,44.1 291.4,43.9 291.5,43.8 291.5,43.6 291.6,43.5 
		291.7,43.3 291.9,43.1 292.1,42.9 292.3,42.7 292.6,42.5 292.8,42.2 293.1,42 293.5,41.7 293.8,41.4 294.2,41.2 294.6,41 295,40.7 
		295.4,40.5 295.7,40.4 296,40.2 296.4,40.1 296.7,40 296.9,39.9 297.2,39.8 297.5,39.7 297.7,39.7 298,39.7 298.3,39.7 298.7,39.7 
		299,39.7 299.3,39.8 299.5,39.8 299.8,39.9 299.9,40 300.1,40.1 300.2,40.2 300.3,40.3 300.3,40.3 300.3,40.4 300.3,40.5 	"/>
	<polygon class="st0" points="261.1,39.9 260.6,40.1 260.2,40.3 259.8,40.5 259.4,40.7 259,40.9 258.7,41.2 258.4,41.4 258.2,41.5 
		258,41.7 257.9,42 257.7,42.2 257.5,42.4 257.4,42.7 257.3,42.9 257.2,43.2 257.1,43.4 257,43.7 257,43.9 257,44.1 257,44.3 
		257,44.6 257.1,44.8 257.1,45.1 257.2,45.5 257.3,45.8 257.4,46.1 257.5,46.3 257.5,46.6 257.5,46.8 257.5,46.9 257.5,47.1 
		257.4,47.2 257.4,47.3 257.3,47.4 257.2,47.5 257.1,47.6 257,47.6 256.9,47.7 256.7,47.7 256.5,47.7 256.4,47.7 256.1,47.7 
		255.9,47.6 255.7,47.5 255.5,47.4 255.4,47.3 255.2,47.2 255,47 254.8,46.9 254.6,46.7 254.5,46.6 254.4,46.4 254.3,46.2 
		254.2,46.1 254.1,45.9 254,45.8 254,45.6 254,45.4 253.9,45.2 253.9,45 254,44.8 254,44.6 254,44.3 254.1,44.1 254.2,43.8 
		254.4,43.5 254.5,43.2 254.7,42.9 254.9,42.5 255.1,42.2 255.4,41.8 255.7,41.4 256,41.1 256.3,40.7 256.7,40.4 257,40.1 
		257.4,39.7 257.8,39.4 258.1,39.2 258.5,39 258.8,38.9 259.1,38.7 259.5,38.6 259.8,38.4 260.1,38.3 260.5,38.2 260.8,38.2 
		261.1,38.1 261.3,38 261.6,38 261.9,38 262.2,38 262.4,38 262.5,38.1 262.6,38.1 262.7,38.2 262.7,38.2 262.7,38.3 262.8,38.3 
		262.8,38.4 262.8,38.5 262.7,38.5 262.7,38.6 262.6,38.7 262.5,38.8 262.4,38.9 262.3,39.1 262.1,39.3 261.9,39.4 261.6,39.6 
		261.4,39.7 	"/>
	<polygon class="st0" points="182.8,39.4 182.4,39.6 182.1,39.9 181.8,40.1 181.6,40.4 181.3,40.6 181.1,40.9 180.9,41.2 
		180.7,41.4 180.6,41.7 180.4,42 180.2,42.3 180.1,42.7 179.9,43.2 179.8,43.8 179.6,44.2 179.5,44.6 179.4,45 179.2,45.4 
		179.1,45.5 179,45.7 178.9,45.9 178.8,46 178.7,46.1 178.5,46.1 178.4,46.2 178.3,46.2 178.2,46.3 178,46.3 177.8,46.3 177.6,46.3 
		177.4,46.3 177.2,46.2 176.9,46.1 176.8,46 176.7,45.9 176.6,45.8 176.5,45.7 176.4,45.6 176.3,45.5 176.2,45.3 176.1,45.2 
		176.1,45 176,44.8 176,44.6 176,44.4 176,44.2 176,43.9 176.1,43.6 176.1,43.3 176.2,42.9 176.4,42.6 176.5,42.2 176.7,41.9 
		176.9,41.6 177.1,41.3 177.3,41 177.5,40.7 177.7,40.5 178,40.2 178.3,40 178.6,39.7 178.9,39.5 179.2,39.2 179.6,39 179.9,38.7 
		180.3,38.5 180.8,38.3 181.2,38.1 181.6,37.9 182,37.8 182.5,37.6 182.9,37.5 183.3,37.4 183.8,37.3 184.1,37.2 184.5,37.2 
		184.8,37.1 185.2,37.1 185.5,37.1 185.7,37.1 185.8,37.2 185.9,37.2 185.9,37.2 185.9,37.2 185.9,37.3 185.9,37.3 185.9,37.4 
		185.8,37.4 185.8,37.5 185.7,37.6 185.5,37.7 185.1,38 184.6,38.3 183.8,38.7 183.3,39.1 	"/>
	<polygon class="st0" points="231.9,41.1 231.9,41.4 231.8,41.6 231.8,41.8 231.8,42.3 231.9,42.7 231.9,43.2 231.9,43.7 
		231.9,44.2 231.9,44.4 231.8,44.6 231.8,44.8 231.8,45 231.7,45.1 231.6,45.2 231.5,45.3 231.4,45.4 231.3,45.4 231.2,45.5 
		231.1,45.5 230.9,45.5 230.8,45.4 230.6,45.4 230.4,45.3 230.2,45.2 230,45 229.7,44.8 229.6,44.7 229.5,44.5 229.4,44.4 
		229.3,44.2 229.3,44.1 229.2,43.9 229.2,43.7 229.1,43.5 229.1,43.4 229.1,43.1 229.1,42.9 229.1,42.7 229.2,42.5 229.3,42.2 
		229.4,42 229.5,41.6 229.6,41.3 229.8,41 230.1,40.6 230.3,40.2 230.6,39.8 230.9,39.3 231.2,38.9 231.5,38.5 231.8,38.1 
		232.2,37.8 232.5,37.4 232.8,37.2 233,37 233.3,36.7 233.6,36.5 233.9,36.4 234.2,36.2 234.5,36.1 234.8,35.9 235,35.9 235.2,35.8 
		235.5,35.7 235.9,35.7 236.3,35.7 236.7,35.7 237.1,35.7 237.3,35.7 237.6,35.8 237.7,35.8 237.8,35.9 237.9,35.9 237.9,36 
		237.9,36 237.9,36.1 237.9,36.1 237.8,36.2 237.8,36.3 237.7,36.3 237.4,36.5 237.1,36.7 235.9,37.3 235.5,37.6 235.1,37.8 
		234.6,38.1 234.1,38.5 233.8,38.7 233.5,38.9 233.2,39.2 233,39.4 232.8,39.6 232.6,39.9 232.4,40.1 232.3,40.3 232.2,40.5 
		232.1,40.7 232,40.9 	"/>
	<polygon class="st0" points="279.6,40.2 279.5,40.4 279.4,40.5 279.4,40.7 279.3,41 279.3,41.2 279.3,41.5 279.3,42 279.4,42.5 
		279.4,43.1 279.4,43.5 279.4,43.9 279.4,44.1 279.4,44.3 279.3,44.4 279.3,44.5 279.2,44.6 279.2,44.7 279.1,44.7 279,44.8 
		278.9,44.8 278.8,44.8 278.6,44.8 278.5,44.7 278.2,44.6 278,44.5 277.7,44.3 277.4,44.1 277.2,43.9 277,43.6 276.8,43.5 
		276.8,43.4 276.7,43.2 276.6,43.1 276.6,43 276.5,42.8 276.5,42.6 276.5,42.5 276.5,42.3 276.5,42.1 276.6,41.9 276.6,41.7 
		276.7,41.4 276.8,41.2 277,40.9 277.2,40.5 277.5,40 277.8,39.6 278.1,39.2 278.4,38.8 278.7,38.4 279,38.1 279.3,37.7 279.6,37.4 
		279.9,37.1 280.2,36.9 280.5,36.6 280.9,36.4 281.2,36.2 281.6,36 281.9,35.8 282.2,35.7 282.5,35.6 282.8,35.5 283.1,35.5 
		283.3,35.4 283.6,35.4 284,35.3 284.4,35.3 284.7,35.3 285,35.3 285.2,35.4 285.4,35.4 285.5,35.5 285.6,35.5 285.6,35.6 
		285.6,35.7 285.6,35.7 285.5,35.8 285.5,35.9 285.4,35.9 285.3,36 285.1,36.1 284.6,36.4 284.1,36.6 283.4,37 282.9,37.3 
		282.4,37.5 282.1,37.8 281.7,38 281.4,38.2 281.1,38.5 280.8,38.7 280.5,39 280.3,39.2 280.1,39.4 279.9,39.6 279.8,39.8 279.7,40 
			"/>
	<polygon class="st0" points="306.7,36.2 306.9,36.6 307,37 307.1,37.4 307.5,39.3 307.9,41.2 308.3,43.3 307.6,42.6 307,41.8 
		306.3,41 305.7,40.2 305.1,39.4 304.5,38.7 304,37.9 303.4,37.1 302.9,36.3 302.3,35.4 301.8,34.6 301.5,33.9 301.2,33.3 
		300.9,32.7 300.7,32.3 300.6,32 300.5,31.6 300.4,31.4 300.4,31.2 300.4,31 300.4,30.9 300.4,30.8 300.5,30.7 300.5,30.6 
		300.6,30.6 300.7,30.5 300.8,30.5 300.9,30.5 301,30.5 301.1,30.5 301.3,30.5 301.5,30.5 301.7,30.6 302,30.7 302.2,30.8 302.5,31 
		302.8,31.2 303.1,31.4 303.3,31.6 303.5,31.8 303.8,32 304,32.2 304.4,32.7 304.8,33.1 305.2,33.6 305.5,34.1 305.9,34.6 
		306.2,35.1 306.4,35.4 306.6,35.8 	"/>
	<polygon class="st0" points="200.8,36 200.7,36.2 200.6,36.4 200.6,36.6 200.5,36.8 200.5,37 200.5,37.2 200.5,37.6 200.5,38 
		200.5,38.3 200.5,38.6 200.5,39 200.4,39.3 200.4,39.5 200.4,39.7 200.3,39.8 200.2,39.9 200.2,40 200.1,40.1 200,40.1 200,40.1 
		199.8,40.1 199.7,40.1 199.6,40 199.4,40 199.3,39.8 199.1,39.7 199,39.6 198.8,39.4 198.7,39.2 198.5,39 198.4,38.8 198.2,38.5 
		198.1,38.3 198,38.1 198,37.9 197.9,37.7 197.9,37.6 197.9,37.4 197.9,37.2 197.9,37 198,36.8 198.1,36.6 198.2,36.3 198.3,36 
		198.4,35.7 198.6,35.4 198.9,35 199.1,34.6 199.4,34.2 199.8,33.8 200.1,33.3 200.5,32.9 200.9,32.5 201.3,32.1 201.6,31.8 
		202,31.5 202.3,31.2 202.7,31 203,30.8 203.3,30.6 203.6,30.4 203.9,30.3 204.2,30.1 204.5,30 204.8,29.9 205.1,29.9 205.4,29.8 
		205.6,29.7 205.9,29.7 206.3,29.7 206.6,29.7 206.8,29.7 207.1,29.8 207.2,29.8 207.3,29.9 207.4,29.9 207.4,30 207.4,30 
		207.4,30.1 207.4,30.1 207.4,30.2 207.4,30.3 207.3,30.4 207.2,30.4 207,30.6 206.8,30.8 206.6,30.9 206,31.3 205.5,31.7 205,32 
		204.6,32.3 203.9,32.8 203.3,33.3 202.9,33.6 202.4,34 202.1,34.3 201.8,34.6 201.5,34.9 201.3,35.3 201.1,35.5 200.9,35.7 	"/>
	<polygon class="st0" points="247.3,33.1 247.2,33.3 247.2,33.5 247.2,33.6 247.2,33.9 247.2,34.2 247.3,34.8 247.4,35.2 
		247.4,35.6 247.5,35.9 247.5,36.1 247.5,36.3 247.4,36.5 247.4,36.6 247.4,36.7 247.3,36.8 247.3,36.9 247.2,37 247.1,37 247,37 
		246.9,37 246.7,37 246.6,36.9 246.3,36.8 246.1,36.7 245.8,36.4 245.5,36.2 245.2,35.9 245,35.7 244.9,35.5 244.8,35.4 244.7,35.2 
		244.6,35 244.6,34.9 244.5,34.7 244.5,34.6 244.5,34.4 244.5,34.3 244.5,34 244.5,33.8 244.6,33.6 244.7,33.4 244.7,33.1 
		244.8,32.9 245,32.6 245.1,32.3 245.3,32 245.5,31.7 245.7,31.4 245.9,31.1 246.1,30.8 246.4,30.5 246.6,30.3 246.8,30 247.1,29.8 
		247.4,29.6 247.7,29.4 248,29.2 248.2,29.1 248.4,29 248.7,28.9 249.1,28.7 249.5,28.6 249.9,28.6 250.3,28.5 250.6,28.5 251,28.5 
		251.3,28.5 251.6,28.5 251.8,28.6 252,28.6 252.1,28.7 252.1,28.8 252.2,28.8 252.2,28.9 252.2,29 252.1,29 252,29.2 251.9,29.2 
		251.8,29.3 251.4,29.6 251,29.8 250.3,30.2 249.9,30.5 249.5,30.7 249.2,31 248.9,31.2 248.6,31.4 248.4,31.6 248.2,31.9 
		247.9,32.1 247.8,32.3 247.6,32.5 247.5,32.7 247.4,32.8 247.3,33 	"/>
	<polygon class="st0" points="219.9,31 219.8,31.2 219.7,31.3 219.7,31.5 219.6,31.8 219.6,32.1 219.6,32.4 219.6,33 219.7,33.6 
		219.7,34.2 219.8,34.6 219.8,34.9 219.7,35.1 219.7,35.2 219.7,35.4 219.6,35.5 219.6,35.6 219.5,35.6 219.5,35.7 219.4,35.8 
		219.3,35.8 219.1,35.8 219,35.8 218.8,35.8 218.6,35.8 218.4,35.7 218.1,35.6 217.9,35.4 217.7,35.3 217.5,35.1 217.4,35 
		217.3,34.9 217.2,34.7 217.1,34.6 217.1,34.4 217,34.3 217,34.1 217,33.9 217,33.7 217,33.4 217,33.2 217,32.9 217.1,32.6 
		217.1,32.3 217.2,31.9 217.3,31.6 217.4,31.3 217.6,31 217.7,30.7 217.9,30.3 218,30.1 218.2,29.8 218.4,29.5 218.6,29.3 218.8,29 
		219,28.8 219.2,28.6 219.5,28.4 219.7,28.2 220,28 220.3,27.8 220.6,27.6 220.9,27.4 221.3,27.3 221.7,27.1 222.1,26.9 222.4,26.8 
		222.8,26.7 223.2,26.6 223.6,26.5 224,26.4 224.3,26.3 224.5,26.3 224.6,26.3 224.7,26.4 224.8,26.4 224.8,26.5 224.8,26.5 
		224.8,26.6 224.8,26.6 224.7,26.7 224.6,26.8 224.5,26.9 224.2,27.2 223.9,27.5 223.3,27.9 222.8,28.3 222.2,28.7 221.6,29.1 
		221.3,29.3 221,29.6 220.7,29.8 220.5,30 220.4,30.2 220.2,30.4 220.1,30.6 220,30.8 	"/>
	<polygon class="st0" points="293.7,30.9 294,31.4 294.3,31.9 294.5,32.4 294.8,32.9 294.9,33.2 295,33.5 295.1,33.8 295.2,34.1 
		295.2,34.4 295.2,34.7 295.2,35 295.2,35.3 295.1,35.6 295,35.9 294.9,36.1 294.8,36.4 294.6,36.6 294,36 293.4,35.5 292.9,34.9 
		292.3,34.3 291.5,33.4 290.7,32.5 290,31.6 289.4,30.8 288.8,30 288.2,29.2 287.9,28.7 287.6,28.2 287.3,27.7 287.1,27.4 287,27.1 
		286.9,26.8 286.9,26.6 286.8,26.5 286.9,26.3 286.9,26.2 286.9,26.1 287,26.1 287,26 287.1,26 287.2,25.9 287.3,25.9 287.4,25.9 
		287.6,25.9 287.8,25.9 288,25.9 288.2,26 288.5,26.1 288.8,26.2 289.1,26.4 289.5,26.6 289.8,26.8 290.2,27 290.6,27.3 290.9,27.6 
		291.3,27.9 291.7,28.3 292,28.7 292.4,29.1 292.8,29.7 293.3,30.3 	"/>
	<polygon class="st0" points="278.4,22.5 278.8,22.9 279.1,23.3 279.5,23.6 279.8,24.1 280.2,24.6 280.5,25 280.8,25.6 281.1,26.1 
		281.4,26.7 281.7,27.2 281.9,27.7 282.1,28.3 282.3,28.7 282.4,29.2 282.5,29.6 282.5,29.9 282.6,30.3 282.6,30.6 282.6,30.9 
		282.6,31.1 282.5,31.4 282.4,31.6 282.3,31.8 282.3,31.9 282.2,32.1 282,32.2 281.9,32.4 281.8,32.5 281.6,32.6 281.5,32.7 
		281.3,32.7 281.2,32.8 281,32.8 280.8,32.8 280.7,32.8 280.6,32.7 280.4,32.7 280.3,32.6 280.2,32.5 280.1,32.4 279.9,32.3 
		279.8,32.1 279.6,31.8 279.5,31.6 279.2,31 278.9,30.5 278.7,29.9 278.4,29.3 278.2,28.8 277.9,28.4 277.7,27.9 277.3,27.4 
		276.9,26.9 276.6,26.4 275.7,25.4 275.4,25 275,24.6 274.7,24.1 274.4,23.7 274.1,23.2 273.9,22.8 273.7,22.4 273.5,22 273.4,21.6 
		273.3,21.4 273.2,21.2 273.2,20.9 273.2,20.8 273.2,20.7 273.2,20.6 273.3,20.5 273.3,20.4 273.4,20.4 273.5,20.3 273.6,20.3 
		273.7,20.3 273.9,20.3 274,20.3 274.2,20.3 274.5,20.4 274.7,20.4 275,20.5 275.5,20.7 275.9,20.9 276.4,21.1 276.8,21.4 
		277.3,21.7 277.6,21.9 278,22.2 	"/>
	<polygon class="st0" points="290.9,19.6 293,20.4 295.1,21.2 297.2,22 298.5,22.5 299.7,23.1 301,23.7 302.2,24.3 303.6,24.9 
		304.9,25.6 306.2,26.3 307.5,27 309.6,28.2 311.7,29.5 313.8,30.7 316,32.1 318.2,33.6 320.4,35.1 322.3,36.3 324.1,37.6 326,39 
		326.9,39.7 327.8,40.4 328.8,41.2 329.7,42 330.4,42.6 331.2,43.3 331.9,44 332.6,44.7 333.4,45.6 334.2,46.4 335,47.3 335.3,47.7 
		335.7,48.1 336,48.6 336.3,49 336.5,49.3 336.7,49.7 336.8,50 336.9,50.2 336.9,50.3 337,50.5 336.9,50.6 336.9,50.8 336.8,50.9 
		336.8,51 336.7,51 336.6,51.1 336.4,51.2 336.2,51.2 336,51.2 335.7,51.3 335.4,51.3 335,51.3 334.7,51.3 334.4,51.2 334,51.2 
		333.7,51.1 333.4,51 333.1,50.9 332.7,50.7 332.3,50.4 331.9,50.2 331.6,49.9 331.2,49.6 330.6,49.2 330.1,48.7 328.5,47.3 
		327,45.8 325.6,44.5 324.2,43.2 322.3,41.5 320.3,39.8 319.6,39.3 318.9,38.7 318.2,38.2 317.5,37.7 317.2,37.4 316.8,37.2 
		316.6,37.1 316.4,37 316.3,36.9 316.2,36.9 316.1,36.9 316,36.9 316,36.9 315.9,36.9 315.9,36.9 315.9,37 315.9,37.1 316,37.2 
		316,37.3 316.1,37.5 316.3,37.8 316.5,38.1 316.8,38.5 317.4,39.4 318.1,40.4 318.8,41.2 321.3,44.4 322.3,45.5 323.2,46.7 
		323.5,47.1 323.8,47.6 324.1,48.1 324.3,48.3 324.4,48.6 324.4,48.9 324.5,49 324.5,49.1 324.4,49.3 324.4,49.4 324.3,49.5 
		324.3,49.6 324.2,49.7 324,49.7 323.9,49.8 323.7,49.8 323.6,49.8 323.4,49.8 323.1,49.8 322.9,49.8 322.6,49.7 322.4,49.6 
		322.1,49.5 321.9,49.4 321.7,49.2 321.6,49.1 321.4,48.9 320.9,48.3 320.4,47.7 320.1,47.3 319.8,46.9 319.4,46.5 318.4,45.4 
		317.3,44.3 316,42.9 315.4,42.2 314.8,41.6 314.2,40.9 313.9,40.6 313.7,40.2 313.4,39.9 313.1,39.5 313,39.2 312.9,39 312.8,38.7 
		312.7,38.5 312.6,38.2 312.5,37.9 312.5,37.7 312.5,37.5 312.5,37.2 312.6,37 312.6,36.8 312.7,36.6 312.8,36.3 312.9,36 
		313.1,35.7 313.1,35.6 313.2,35.5 313.2,35.3 313.2,35.2 313.2,35.1 313.1,35 313.1,34.9 312.9,34.7 312.7,34.5 312.5,34.3 
		312.1,34 311.6,33.6 311.2,33.3 310.5,32.9 309.8,32.5 309.1,32.1 308.3,31.7 306.7,30.8 305,29.9 303.3,29.1 301,28 298.7,27 
		296.4,26 294,24.9 291.6,24 289.2,23 286.8,22.1 284.4,21.3 282,20.5 276.9,18.8 276,18.5 275,18.2 274.1,17.9 273.5,17.6 
		272.8,17.3 272.1,17.1 271.7,16.9 271.3,16.6 271,16.4 270.8,16.2 270.6,16.1 270.4,15.9 270.3,15.7 270.2,15.6 270.1,15.4 
		270.1,15.3 270.1,15.2 270.1,15.1 270.2,14.9 270.2,14.8 270.3,14.7 270.4,14.6 270.6,14.6 270.7,14.5 270.9,14.4 271.1,14.4 
		271.4,14.3 271.7,14.3 272.1,14.3 272.4,14.3 273,14.3 273.6,14.4 274.1,14.4 274.9,14.6 275.6,14.7 276.3,14.9 277.1,15.1 
		278.2,15.4 279.3,15.7 280.9,16.2 282.4,16.7 286.7,18.1 	"/>
	<polygon class="st0" points="257.7,1.9 261.4,2.6 265.1,3.3 268.8,4.1 272.5,5 275.5,5.8 278.4,6.6 281.4,7.4 284.4,8.3 287.3,9.3 
		289.6,10 291.8,10.8 294,11.7 296.2,12.5 298.3,13.4 300.4,14.3 301.9,15 303.5,15.7 305.1,16.5 306.6,17.3 308.8,18.4 310.9,19.6 
		313,20.8 315.4,22.1 317.7,23.5 320,24.9 322.5,26.5 324.9,28.1 327.3,29.7 330.6,32 333.9,34.4 337.2,36.7 340.4,39.2 341.3,39.9 
		342.2,40.6 343,41.3 343.9,42 344.4,42.4 344.8,42.8 345.2,43.2 345.7,43.7 345.9,43.9 346.1,44.2 346.3,44.4 346.5,44.7 
		346.5,44.9 346.6,45 346.7,45.2 346.7,45.4 346.7,45.5 346.7,45.6 346.7,45.8 346.7,45.9 346.6,46 346.5,46.1 346.4,46.2 
		346.2,46.3 346.1,46.4 345.9,46.4 345.6,46.5 345.4,46.6 345.1,46.6 344.8,46.6 344.4,46.6 344,46.6 343.6,46.5 343.1,46.5 
		342.7,46.4 342.1,46.3 341.6,46.1 341.1,46 340.6,45.8 340.1,45.6 339.6,45.4 339.1,45.1 338.5,44.8 337.9,44.5 337.3,44.1 
		336.7,43.8 336,43.3 335.2,42.8 334.5,42.3 333.8,41.8 332,40.4 330.2,39 326.6,36.2 325.1,35 323.6,33.8 322.5,33 321.4,32.2 
		320.3,31.4 318.8,30.3 317.3,29.3 315.7,28.3 314.2,27.3 312.6,26.4 311,25.4 309.7,24.7 308.3,23.9 306.9,23.2 305.5,22.5 
		303.4,21.4 301.3,20.5 299.2,19.5 296.7,18.5 294.2,17.4 291.7,16.5 287.5,14.9 283.3,13.3 279,11.9 274.7,10.5 270.3,9.1 266,7.8 
		263.9,7.2 261.8,6.7 259.7,6.2 258.5,5.9 257.4,5.6 256.2,5.4 255.1,5.2 254.2,5 253.2,4.9 252.3,4.8 251.4,4.7 250.6,4.7 
		249.8,4.6 249,4.6 248.2,4.6 249.1,5 249.9,5.4 250.8,5.8 251.6,6.2 252.4,6.6 253.2,7.1 254,7.5 254.8,8 255.5,8.5 256.2,9 
		256.9,9.5 257.7,10 258.3,10.5 258.9,11 259.5,11.5 260.1,12.1 260.7,12.6 261.2,13.2 261.7,13.7 262.2,14.3 262.7,14.8 
		263.1,15.4 263.6,16 264,16.6 264.3,17.2 264.7,17.8 265,18.4 265.4,19.1 265.7,19.7 266,20.3 266.2,21 266.5,21.6 266.7,22.3 
		266.9,22.9 267.1,23.6 267.2,24.2 267.4,24.9 267.5,25.6 267.6,26.2 267.6,26.9 267.6,27.6 267.6,28 267.6,28.5 267.6,28.9 
		267.6,29.2 267.5,29.6 267.4,29.9 267.3,30.2 267.2,30.4 267.1,30.7 267,30.9 266.9,31.1 266.7,31.3 266.5,31.5 266.4,31.6 
		266.2,31.8 266,31.9 265.7,32 265.5,32.1 265.3,32.2 265,32.2 264.8,32.3 264.5,32.3 264.2,32.3 263.9,32.3 263.6,32.2 263.3,32.2 
		263.1,32.1 262.9,32 262.7,31.9 262.5,31.8 262.4,31.6 262.3,31.5 262.2,31.4 262.1,31.2 262,31.1 261.9,30.9 261.9,30.7 
		261.9,30.4 261.9,30.2 261.9,30 261.9,29.6 261.9,29.3 261.9,28.9 261.9,28.5 261.9,28.2 261.9,27.6 261.9,27.1 261.8,26.6 
		261.7,26 261.6,25.7 261.6,25.4 261.5,25.1 261.4,24.9 261.2,24.6 261.1,24.4 261,24.2 260.8,24 260.6,23.9 260.4,23.7 260.2,23.6 
		260,23.4 259.6,23.3 259.3,23.1 259,23 258.5,22.9 258,22.7 257.5,22.6 256.8,22.4 256,22.2 255.3,22.1 254.2,21.9 253.2,21.7 
		252.1,21.6 250.7,21.4 249.3,21.3 247.9,21.2 245.1,21 242.3,20.8 237.5,20.6 232.8,20.5 228,20.4 225.3,20.4 222.6,20.5 220,20.6 
		217.3,20.7 214.6,20.9 211.5,21.1 208.4,21.4 205.3,21.8 202.2,22.2 199.1,22.6 196.1,23.1 193.1,23.7 190,24.3 187.7,24.8 
		185.4,25.3 183.1,25.9 180.7,26.5 178.4,27.1 176.4,27.8 174.3,28.4 172.2,29.1 170.2,29.8 168.1,30.5 166.4,31.2 164.7,31.8 
		163,32.5 161.3,33.3 159.7,34 158.6,34.5 157.5,35.1 156.4,35.6 155.5,36.1 154.6,36.6 153.8,37.2 153.1,37.6 152.4,38.1 
		151.7,38.6 151,39.1 150.4,39.6 149.7,40.1 149,40.8 148.4,41.4 147.7,42.1 147,42.7 146.3,43.5 146,43.8 145.7,44.1 145.3,44.4 
		144.9,44.7 144.6,45 144.2,45.2 143.9,45.4 143.6,45.5 143.3,45.6 143.1,45.7 142.8,45.7 142.5,45.7 142.2,45.8 142.1,45.7 
		141.9,45.7 141.8,45.7 141.6,45.6 141.5,45.6 141.4,45.5 141.3,45.4 141.2,45.3 141.1,45.1 141.1,45 141.1,44.9 141.1,44.7 
		141.1,44.6 141.1,44.4 141.1,44.2 141.2,44 141.3,43.8 141.4,43.5 141.6,43.2 141.7,42.9 142,42.5 142.2,42.1 142.5,41.8 
		142.9,41.3 143.3,40.9 143.7,40.4 144.3,39.7 145,39.1 145.7,38.4 146.4,37.8 147.2,37.2 147.9,36.6 148.7,36 149.5,35.5 
		150.3,34.9 151.2,34.4 152,33.9 153.1,33.2 154.1,32.7 155.2,32.1 156.3,31.5 157.4,31 158.5,30.5 160.2,29.7 161.9,29 163.6,28.3 
		165.3,27.6 167.1,26.9 169.2,26.2 171.3,25.5 173.4,24.8 175.5,24.2 177.7,23.6 180.8,22.7 183.9,21.9 187.1,21.2 190.2,20.5 
		193.5,19.9 196.8,19.2 200.1,18.7 203.5,18.1 205.9,17.8 208.3,17.5 210.7,17.2 213.1,17 215.5,16.8 217.7,16.6 219.9,16.5 
		222.1,16.4 224.3,16.4 226.5,16.4 228.7,16.4 230.8,16.5 233,16.5 235.2,16.7 237.3,16.8 239.5,17 241.7,17.2 243.9,17.5 
		246.1,17.8 248.3,18.1 250.5,18.5 252.7,18.9 254.9,19.3 257.1,19.8 259.3,20.2 259.1,19.8 259,19.3 258.8,18.9 258.6,18.4 
		258.4,18 258.2,17.6 257.9,17.1 257.6,16.7 257.4,16.3 257.1,15.9 256.7,15.5 256.4,15 256,14.6 255.6,14.3 255.2,13.9 254.7,13.4 
		254.2,13 253.7,12.6 253.1,12.1 252.6,11.7 251.8,11.2 250.9,10.7 250.1,10.2 249.3,9.7 248.4,9.2 246.5,8.2 244.6,7.2 242.7,6.3 
		238.9,4.5 238,4.1 237.1,3.7 236.2,3.2 235.8,3 235.4,2.7 235.1,2.5 234.9,2.4 234.8,2.2 234.7,2.1 234.6,2 234.6,1.8 234.6,1.7 
		234.6,1.6 234.6,1.5 234.7,1.4 234.7,1.3 234.8,1.2 235,1 235.2,0.9 235.4,0.8 235.7,0.7 236,0.6 236.3,0.5 236.8,0.3 237.3,0.2 
		237.8,0.2 238.3,0.1 239,0 239.7,0 240.3,0 240.9,0 241.6,0 242.9,0.1 244.1,0.2 245.9,0.3 247.6,0.5 250.1,0.8 252.7,1.1 
		255.2,1.5 	"/>
</g>
<path class="st0" d="M234.2,158.7l-0.7,0.2l-0.7,0.2l-0.7,0.2l-0.7,0.2l-1.1,0.2l-1.1,0.2l-1.1,0.2l-1.1,0.1l-2.3,0.2l-2.3,0.2
	L216,161l-6.4,0.4l6.7,0.4l6.8,0.3l3.6,0.1l3.6,0.1h3.6h1.9h1.9h1.3l1.3-0.1l1.3-0.1l1.3-0.1l1.3-0.2l1-0.1l1-0.1l1-0.1h0.4h0.4h0.4
	h0.2h0.2h0.1l0.1,0.1h0.1v0.1v0.1v0.1v0.1l-0.1,0.1l-0.1,0.1l-0.1,0.1l-0.2,0.2l-0.2,0.2l-0.2,0.2l-0.3,0.2l-0.3,0.2l-0.3,0.2
	l-0.4,0.2l-0.4,0.2L246,164l-0.5,0.1l-0.5,0.1l-0.8,0.2l-0.8,0.1l-0.8,0.1l-0.8,0.1l-2.1,0.2l-2.1,0.2l-2.1,0.2l-2.1,0.1l-2.1,0.1
	h-1.7h-1.7h-1.7h-1.7l-1.7-0.1l-1.7-0.1l-1.7-0.1l-1.4-0.1l-1.4-0.1l-1.4-0.2l-1.4-0.2l-2.5-0.4l-2.5-0.4l-1.1-0.2l-1.1-0.2
	l-0.9-0.2l-0.9-0.2l-0.9-0.2l-0.6-0.2l-0.6-0.2l-0.3-0.1l-0.3-0.1l-0.3-0.2l-0.2-0.1l-0.2-0.1l-0.2-0.2l-0.2-0.2l-0.1-0.1l-0.1-0.2
	l-0.1-0.2v-0.1v-0.1v-0.1v-0.1v-0.1v-0.1l0.1-0.1l0.1-0.1l0.1-0.1l0.1-0.1l0.2-0.1l0.2-0.1l0.2-0.1h0.2h0.3h0.3h0.3h0.7h0.7h0.7h3
	h2.7h2.7l2.7-0.1l1.6-0.1l1.6-0.1l1.6-0.1l1.3-0.1l1.3-0.1l1.3-0.1l1.3-0.2l1.7-0.2l1.7-0.3l1.7-0.3l3.1-0.6l3.1-0.6l1.1-0.2
	l1.1-0.2l0.4-0.1h0.4h0.3h0.3h0.1h0.1l0,0l0,0v0.1v0.1l-0.1,0.1l-0.1,0.1l-0.1,0.1l-0.3,0.2l-0.3,0.2l-0.3,0.2l-0.6,0.3l-0.6,0.3
	l-0.6,0.3l-0.6,0.2l-0.7,0.3L236,159l-0.8,0.3L234.2,158.7L234.2,158.7z M390.8,117.9c1.3-0.2,1.9,0.2,2.4,0.8
	c0.7,0.9,0.2,2.4-0.9,2.6c-0.7,0.1-3.3,0.4-3.2-1.5C389.1,119.1,389.5,118.1,390.8,117.9L390.8,117.9z M333.1,123.6l0.2-0.1l0.2-0.1
	l0.2-0.1l0.3-0.1l0.3-0.1l0.3-0.1l0.3-0.1l0.3-0.1h0.3h0.3h0.3h0.3l0.3,0.1l0.3,0.1l0.3,0.1l0.2,0.1l0.2,0.1l0.2,0.1l0.2,0.2
	l0.2,0.2l0.1,0.2l0.1,0.2l0.1,0.2l0.1,0.2v0.2v0.2v0.2l-0.1,0.2l-0.1,0.2l-0.1,0.2l-0.1,0.2l-0.2,0.2l-0.2,0.2l-0.2,0.1l-0.2,0.1
	l-0.2,0.1l-0.2,0.1l-0.2,0.1h-0.2h-0.3h-0.2h-0.4l-0.3-0.1l-0.3-0.1l-0.3-0.1l-0.3-0.1l-0.3-0.1l-0.3-0.1l-0.2-0.1l-0.2-0.1
	l-0.2-0.2l-0.2-0.2l-0.1-0.2l-0.1-0.2l-0.1-0.2l-0.1-0.1v-0.2v-0.2v-0.2v-0.1l0.1-0.2l0.1-0.1l0.1-0.1l0.1-0.1L333.1,123.6
	L333.1,123.6z M381.9,115.5l-0.1-0.1l-0.1-0.1l-0.1-0.1l-0.1-0.2l-0.1-0.2l-0.1-0.2l-0.1-0.2L381,114l-0.1-0.4l-0.1-0.4l-0.1-0.4
	L380,111l-0.3-1l-0.3-1l-0.3-1l-0.6-1.5l-0.6-1.5l1,0.4l1,0.4l1,0.4l1,0.5l1,0.5l1,0.5l1,0.5l0.8,0.4l0.8,0.5l0.5,0.3l0.5,0.4
	l0.3,0.2l0.3,0.2l0.3,0.3l0.3,0.3l0.1,0.1l0.1,0.2l0.1,0.2l0.1,0.1l0.1,0.1v0.2v0.2v0.2v0.1l-0.1,0.1l-0.1,0.1l-0.2,0.2l-0.2,0.2
	l-0.2,0.1l-0.4,0.3l-0.4,0.2l-0.4,0.2l-1.3,0.7l-1.1,0.6l-0.4,0.2l-0.4,0.2l-0.3,0.1l-0.3,0.1l-0.3,0.1l-0.3,0.1h-0.2h-0.2h-0.2H382
	h-0.1L381.9,115.5L381.9,115.5z M323.2,112.8l0.8-0.3l0.8-0.3l0.8-0.3l0.8-0.3l0.8-0.2l0.8-0.2l0.8-0.2l0.6-0.1l0.6-0.1l0.6-0.1
	l0.6-0.1h0.6h0.6h0.6h0.6h0.6l0.6,0.1l0.6,0.1l0.6,0.1l0.6,0.2l0.6,0.2l0.6,0.2l0.6,0.2l0.6,0.3l0.6,0.3l0.6,0.3l0.6,0.3l0.6,0.4
	l0.6,0.4l0.6,0.4l0.5,0.4l0.5,0.4l0.5,0.5l0.5,0.5l0.5,0.5l0.4,0.5H345h-0.5H344h-0.5h-0.6l-0.6,0.1l-0.6,0.1l-0.6,0.1l-1.1,0.2
	l-1.1,0.2l-1.1,0.2l-2,0.4l-1.9,0.5l-1,0.3l-1,0.3l-0.7,0.2l-0.7,0.2l-0.7,0.2l-0.6,0.3l-0.6,0.3l-0.6,0.3l-0.6,0.3l-0.6,0.4
	l-0.6,0.4l-0.6,0.4l-0.6,0.4l-0.7,0.5l-0.7,0.6l-0.7,0.6l-0.7,0.6l-0.9,0.8l-0.9,0.8l-0.9,0.9l-0.9,0.9l-0.9,0.9l-0.9,1l-0.9,1
	l-0.9,1l-0.9,1l-0.8,1.1l-0.3-0.3l-0.3-0.3l-0.2-0.4l-0.2-0.4l-0.2-0.4l-0.2-0.4l-0.2-0.4l-0.1-0.4l-0.1-0.4l-0.1-0.4l-0.1-0.4v-0.5
	v-0.5v-0.5v-0.5v-0.5l0.1-0.5l0.1-0.5l0.1-0.5l0.2-0.5l0.2-0.7l0.3-0.7l0.3-0.7l0.3-0.7l0.3-0.6l0.3-0.7l0.4-0.6l0.4-0.6l0.4-0.6
	l0.4-0.6l0.4-0.5l0.5-0.5l0.5-0.5l0.5-0.5l0.5-0.5l0.5-0.5l0.6-0.4l0.5-0.4l0.5-0.4l0.5-0.3l0.6-0.3l0.6-0.3l0.6-0.3l0.6-0.3
	L323.2,112.8L323.2,112.8z M353.4,129.5l-0.1,0.6l-0.1,0.5l-0.1,0.5l-0.1,0.5l-0.2,0.5l-0.2,0.5l-0.2,0.5l-0.2,0.5l-0.3,0.5
	l-0.3,0.6l-0.3,0.6l-0.4,0.6l-0.4,0.6l-0.4,0.6l-0.5,0.6l-0.5,0.6l-0.5,0.6l-0.5,0.6l-0.6,0.5l-0.7,0.6l-0.7,0.6l-0.7,0.6l-0.7,0.6
	l-0.8,0.5l-0.8,0.5l-0.8,0.5l-0.8,0.5l-0.8,0.5l-0.8,0.4l-0.8,0.4l-0.8,0.4l-0.8,0.4l-0.8,0.3l-0.8,0.3l-0.8,0.3l-0.6,0.2l-0.5,0.1
	l-0.6,0.1l-0.6,0.1l-0.6,0.1l-0.5,0.1h-0.5h-0.5h-0.5h-0.5l-0.5-0.1l-0.5-0.1l-0.6-0.1l-0.6-0.1l-0.6-0.2l-0.6-0.2l-0.6-0.2
	l-0.6-0.2l-0.9-0.4l-0.9-0.4l-0.9-0.4l-0.9-0.5l-0.8-0.5l-0.8-0.5l-0.7-0.5l-0.7-0.5l-0.7-0.5l-0.7-0.5l-0.7-0.5l-0.7-0.5l-0.6-0.6
	l-0.5-0.5l-0.5-0.5l-0.5-0.5l-0.5-0.5l-0.4-0.5l-0.4-0.5l-0.4-0.5l-0.4-0.5L311,136l-0.3-0.6l-0.3-0.6l-0.3-0.6l-0.3-0.6l-0.2-0.6
	l-0.2-0.6l-0.2-0.6l-0.2-0.6l-0.2-0.6l-0.1-0.6l-0.1-0.6l-0.1-0.6v-0.6v-0.6V127v-0.6l0.1-0.6l0.1-0.6l0.1-0.5l0.1-0.5l0.2-0.5
	l0.2-0.5l0.2-0.5l0.2-0.5l0.2-0.5l0.3-0.5l0.3-0.5l0.4-0.5l0.4-0.5l0.4-0.5l0.4-0.5l0.5-0.5l0.5-0.5l0.5-0.4l0.5-0.4l0.6-0.5
	l0.7-0.5l0.7-0.5l0.7-0.5l0.7-0.5l0.9-0.6l0.9-0.5l0.9-0.5l0.9-0.5l0.8-0.4l0.8-0.4l0.8-0.4l0.8-0.4l0.9-0.4l0.9-0.4l0.9-0.3
	l0.9-0.3l0.9-0.3l0.7-0.2l0.7-0.2l0.7-0.1l0.7-0.1l0.7-0.1l0.7-0.1h0.5h0.5h0.5l0.5,0.1l0.5,0.1l0.5,0.1l0.5,0.1l0.5,0.2l0.6,0.2
	l0.6,0.2l0.6,0.3l0.5,0.3l0.5,0.3l0.5,0.3l0.7,0.4l0.7,0.4l0.7,0.4l0.7,0.4l0.7,0.4l0.7,0.5l0.6,0.5l0.6,0.5l0.5,0.4l0.5,0.5
	l0.5,0.5l0.5,0.5l0.4,0.5l0.4,0.5l0.4,0.5l0.4,0.5l0.4,0.6l0.4,0.6l0.3,0.6l0.4,0.7l0.4,0.7l0.3,0.7l0.3,0.6l0.2,0.6l0.2,0.6
	l0.2,0.6l0.2,0.6l0.2,0.6l0.1,0.6l0.1,0.6l0.1,0.6v0.6v0.6v0.6L353.4,129.5L353.4,129.5z M254.4,129.8l-0.5,0.9l-0.2,0.4l-0.3,0.4
	l-0.3,0.4l-0.2,0.2l-0.2,0.2l-0.2,0.1l-0.2,0.1l-0.2,0.1l-0.2,0.1l-0.2,0.1h-0.2h-0.2h-0.2h-0.2h-0.2l-0.2-0.1l-0.2-0.1l-0.2-0.1
	l-0.1-0.1l-0.1-0.2l-0.1-0.2l-0.1-0.2v-0.2v-0.2v-0.2V131v-0.2l0.1-0.2l0.1-0.2l0.1-0.4l0.2-0.4l0.2-0.4l0.2-0.4l0.2-0.4l0.2-0.4
	l0.3-0.5l0.3-0.4l0.3-0.4l0.3-0.4l0.4-0.4l0.3-0.4l0.4-0.3l0.4-0.3l0.5-0.4l0.5-0.3l0.5-0.3l0.6-0.3l0.6-0.3l0.6-0.3l0.7-0.3
	l0.7-0.3l0.7-0.2l0.7-0.2l0.7-0.2l0.7-0.2l0.4-0.1l0.4-0.1l0.4-0.1h0.5h0.3h0.3h0.3h0.3l0.3,0.1l0.3,0.1l0.2,0.1l0.1,0.1l0.1,0.1
	l0.1,0.1l0.1,0.1l0.1,0.1l0.1,0.1l0.1,0.1v0.1v0.1v0.1v0.1l-0.1,0.1l-0.1,0.1l-0.2,0.1l-0.2,0.1l-0.2,0.1l-0.4,0.2l-0.4,0.2
	l-0.4,0.1l-1.6,0.5l-0.9,0.3l-0.9,0.4l-0.9,0.4l-0.7,0.3l-0.7,0.3l-0.4,0.2l-0.4,0.2l-0.4,0.2l-0.4,0.3l-0.3,0.3l-0.3,0.3l-0.3,0.3
	l-0.3,0.3l-0.3,0.4l-0.3,0.4l-0.3,0.4L254.4,129.8L254.4,129.8z M232.2,132.7l-0.3,0.4l-0.3,0.4l-0.2,0.3l-0.2,0.3l-0.2,0.2
	l-0.2,0.2l-0.2,0.1l-0.1,0.1h-0.1h-0.1h-0.1h-0.1l-0.1-0.1l-0.1-0.1l-0.1-0.1l-0.1-0.1l-0.1-0.1l-0.1-0.1l-0.1-0.2l-0.1-0.3
	l-0.1-0.3l-0.1-0.3v-0.3v-0.3v-0.3v-0.3v-0.3v-0.3l0.1-0.3l0.1-0.3l0.1-0.3l0.2-0.3l0.2-0.2l0.2-0.2l0.2-0.2l0.2-0.2l0.3-0.3
	l0.3-0.2l0.3-0.2l0.5-0.4l0.5-0.3l0.6-0.3l0.8-0.4l0.8-0.4l0.8-0.3l0.8-0.3l0.5-0.2l0.5-0.2l0.5-0.2l0.5-0.1l0.5-0.1l0.5-0.1
	l0.4-0.1l0.4-0.1h0.4h0.4h0.4h0.3h0.3h0.3l0.3,0.1l0.3,0.1l0.3,0.1l0.2,0.1l0.2,0.1l0.1,0.1l0.1,0.1v0.1v0.1v0.1v0.1v0.1l-0.1,0.1
	l-0.1,0.1l-0.1,0.1L243,126l-0.3,0.1l-0.3,0.1l-0.3,0.1l-0.7,0.2l-0.7,0.2l-1.3,0.3l-0.5,0.1l-0.5,0.1l-0.5,0.2l-0.5,0.2l-0.4,0.2
	l-0.4,0.2l-0.4,0.2l-0.4,0.2l-0.3,0.2l-0.3,0.2L235,129l-0.2,0.2l-0.2,0.2l-0.3,0.4l-0.3,0.4l-0.3,0.4l-0.3,0.4L232.2,132.7
	L232.2,132.7z M270.6,114.2h-0.1h-0.1h-0.1h-0.1h-0.1l-0.1-0.1l-0.1-0.1l-0.1-0.1l-0.1-0.2l-0.1-0.2l-0.1-0.2l-0.1-0.2l-0.1-0.2
	v-0.2v-0.2v-0.2v-0.2l0.1-0.2l0.1-0.2l0.1-0.3l0.2-0.3l0.2-0.2l0.3-0.3l0.3-0.3l0.3-0.3l0.6-0.5l0.6-0.5l0.6-0.5l0.6-0.5l0.6-0.4
	l0.6-0.4l0.6-0.4l0.6-0.4l0.5-0.3l0.5-0.2l0.5-0.2l0.5-0.2l0.5-0.2l0.5-0.2l0.5-0.1l0.5-0.1l0.5-0.1l0.5-0.1h0.5h0.4h0.4h0.4h0.4
	l0.4,0.1l0.4,0.1l0.3,0.1l0.3,0.1l0.2,0.1l0.1,0.1l0.1,0.1l0.1,0.1v0.1v0.1v0.1v0.1v0.1l-0.1,0.1l-0.1,0.1l-0.2,0.1l-0.2,0.1
	l-0.3,0.2l-0.3,0.2l-0.3,0.1l-1.1,0.4l-1.1,0.4l-1.2,0.4l-1.2,0.5l-0.8,0.3l-0.7,0.3l-0.7,0.3l-0.7,0.4l-0.5,0.3l-0.5,0.3l-0.5,0.3
	l-0.5,0.3l-0.4,0.3L273,112l-0.4,0.4l-1.1,1.1l-0.2,0.2L271,114l-0.1,0.1l-0.1,0.1H270.6L270.6,114.2z M229.7,121.5l-0.1,0.1h-0.1
	h-0.1h-0.1h-0.1l-0.1-0.1l-0.1-0.1l-0.2-0.1l-0.1-0.2l-0.1-0.2l-0.1-0.2l-0.1-0.2l-0.1-0.2l-0.1-0.2v-0.2v-0.2v-0.2v-0.2v-0.2
	l0.1-0.3l0.1-0.3l0.1-0.2l0.2-0.3l0.2-0.3l0.2-0.3l0.4-0.5l0.4-0.4l0.4-0.4l0.5-0.4l0.5-0.4l0.5-0.4l0.5-0.3l0.5-0.3l0.4-0.2
	l0.4-0.2l0.4-0.2l0.4-0.2l0.4-0.1l0.4-0.1l0.4-0.1l0.4-0.1h0.4h0.4h0.4h0.2h0.3h0.2l0.3,0.1l0.2,0.1l0.2,0.1h0.1l0.1,0.1v0.1v0.1
	v0.1v0.1l-0.1,0.1l-0.1,0.1l-0.2,0.1l-0.2,0.1l-0.2,0.1l-0.4,0.2l-0.4,0.2l-0.4,0.2l-1.3,0.6l-0.5,0.3l-0.5,0.3l-0.4,0.2l-0.4,0.2
	l-0.3,0.2l-0.3,0.3l-0.3,0.3l-0.3,0.3l-0.3,0.3l-0.3,0.3l-0.2,0.3l-0.2,0.3l-0.2,0.3l-0.9,1.4l-0.2,0.3l-0.2,0.3l-0.1,0.1
	L229.7,121.5L229.7,121.5L229.7,121.5z M207.6,125.5h-0.1h-0.1h-0.1h-0.1l-0.1-0.1l-0.1-0.1l-0.1-0.1l-0.1-0.1l-0.1-0.1l-0.1-0.2
	l-0.1-0.2l-0.1-0.2l-0.1-0.2l-0.1-0.2v-0.3v-0.3v-0.3v-0.3l0.1-0.3l0.1-0.3l0.1-0.3l0.1-0.3l0.2-0.3l0.2-0.3l0.3-0.4l0.3-0.4
	l0.3-0.3l0.4-0.4l0.4-0.4l0.4-0.4l0.4-0.3l0.5-0.3l0.5-0.3l0.5-0.3l0.5-0.2l0.4-0.2l0.5-0.2l0.5-0.1l0.5-0.1l0.5-0.1l0.5-0.1h0.5
	h0.4h0.4h0.4h0.2h0.2h0.1l0.1,0.1h0.1l0,0l0,0v0.1v0.1l-0.1,0.1l-0.1,0.1l-0.1,0.1l-0.3,0.2l-0.3,0.1l-0.3,0.1l-1.2,0.5l-0.6,0.2
	l-0.6,0.3l-0.4,0.2l-0.4,0.2l-0.4,0.3l-0.4,0.3l-0.3,0.2L211,120l-0.3,0.3l-0.3,0.3l-0.2,0.3l-0.2,0.4l-0.2,0.4l-0.2,0.4l-0.2,0.5
	l-0.2,0.5l-0.2,0.4l-0.2,0.4l-0.2,0.4l-0.1,0.2l-0.2,0.2l-0.1,0.1l-0.1,0.1L207.6,125.5L207.6,125.5z M252.8,114.4l-0.2,0.3
	l-0.2,0.3l-0.2,0.3l-0.2,0.3l-0.1,0.1l-0.2,0.1l-0.2,0.1l-0.1,0.1l-0.1,0.1h-0.2H251h-0.1h-0.1l-0.2-0.1l-0.1-0.1l-0.1-0.1l-0.1-0.1
	l-0.1-0.2l-0.1-0.2l-0.1-0.2v-0.2v-0.2v-0.2v-0.2v-0.2l0.1-0.2l0.1-0.2l0.1-0.3l0.2-0.2l0.2-0.2l0.3-0.3l0.2-0.3l0.3-0.3l0.4-0.4
	l0.4-0.4l0.4-0.4l0.5-0.5l0.5-0.5l0.6-0.4l0.6-0.4l0.5-0.4l0.6-0.4l0.6-0.4l0.6-0.3l0.4-0.2l0.4-0.2l0.4-0.2l0.4-0.1l0.4-0.1
	l0.4-0.1l0.4-0.1h0.4h0.4h0.4h0.4h0.4l0.4,0.1l0.3,0.1l0.3,0.1l0.2,0.1l0.2,0.1l0.2,0.1l0.1,0.1v0.1v0.1v0.1l0,0l-0.1,0.1l-0.1,0.1
	l-0.2,0.1l-0.2,0.1l-0.2,0.1l-0.6,0.2l-0.6,0.2l-1.5,0.5l-0.9,0.3l-0.8,0.3l-0.8,0.4l-0.4,0.2l-0.4,0.2l-0.4,0.2l-0.3,0.2l-0.3,0.2
	l-0.3,0.2l-0.3,0.3l-0.3,0.3l-0.3,0.3l-0.2,0.3l-0.2,0.3l-0.2,0.4l-0.2,0.4L252.8,114.4L252.8,114.4z M186.8,121.4L186.8,121.4h-0.2
	h-0.1h-0.1l-0.2-0.1l-0.1-0.1L186,121l-0.1-0.2l-0.1-0.2l-0.2-0.3l-0.2-0.4l-0.1-0.3l-0.1-0.3l-0.1-0.2v-0.2v-0.2v-0.2v-0.2v-0.2
	v-0.2l0.1-0.2l0.1-0.2l0.1-0.2l0.1-0.2l0.2-0.3l0.2-0.3l0.3-0.3l0.3-0.4l0.4-0.4l0.4-0.4l0.4-0.3l0.3-0.2l0.3-0.2l0.3-0.2l0.3-0.1
	l0.3-0.1l0.3-0.1l0.2-0.1h0.2h0.2h0.2h0.2h0.2l0.2,0.1l0.1,0.1l0.1,0.1l0.1,0.1l0.1,0.1v0.1v0.1v0.1v0.1v0.1l-0.1,0.1l-0.1,0.1
	L191,115l-0.1,0.1l-0.2,0.2l-0.2,0.2l-0.8,0.6l-0.2,0.2l-0.3,0.2l-0.2,0.2l-0.2,0.2l-0.2,0.3l-0.2,0.3l-0.1,0.3l-0.1,0.3l-0.1,0.4
	l-0.1,0.4l-0.2,0.8l-0.1,0.5l-0.2,0.5l-0.2,0.5l-0.1,0.2l-0.1,0.2l-0.1,0.2l-0.1,0.1l-0.1,0.1L186.8,121.4L186.8,121.4L186.8,121.4z
	 M64.3,185.2l3.5-3.3l1.2-1.2l1.2-1.2l0.7-0.7l0.7-0.7l0.7-0.8l0.7-0.8l0.7-0.8l0.7-0.8l0.6-0.8l0.6-0.9l0.6-0.9l0.6-0.9l0.5-0.9
	l0.5-0.9l0.5-0.9l0.5-0.9l0.5-0.9l0.6-1.2l0.6-1.2l0.6-1.3l1.3-3l1.3-3l2.6-6.2l1.5-3.4l1.5-3.4l1.6-3.4l0.9-1.9l0.9-1.9l0.4-0.8
	l0.4-0.8l0.4-0.8l0.2-0.3l0.2-0.3l0.1-0.1l0,0l0,0l0,0l0,0v0.1v0.1l-0.1,0.3l-0.1,0.3l-0.2,0.8l-0.3,0.8l-0.7,2.1l-0.8,2.3l-0.8,2.4
	l-0.6,2l-0.6,2l-0.5,2l-1,3.8l-0.4,1.4l-0.4,1.3l-0.4,1.3l-0.4,1.3l-0.5,1.3l-0.4,1.1l-0.4,1.1l-0.4,1.1l-0.5,1.1l-0.5,1.1l-0.5,1.1
	l-0.5,1.1l-0.6,1.2l-0.6,1.2l-0.6,1.2l-0.6,1.1l-0.7,1.1l-0.9,1.5l-0.9,1.5l-0.9,1.5l-1,1.5l-1,1.4l-1,1.4l-0.9,1.2l-0.9,1.2
	l-0.9,1.2l-0.9,1.2l-1,1.1l-1,1.1l-1,1.1l-0.9,1l-0.9,1l-1,1l-1,1l-1,0.9l-1,0.9l-1,0.9l-1,0.9l-1.1,0.9l-1.4,1.1l-1.4,1.1l-1.4,1.1
	l-2,1.5l-2,1.4l-7,4.8l-2.9,2l-1.2,0.9l-1.2,0.9l-0.6,0.5l-0.6,0.5l-0.6,0.5l-0.5,0.5l-0.5,0.5l-0.5,0.5l-0.5,0.5l-0.3,0.4l-0.3,0.4
	l-0.3,0.4l-0.3,0.4l-0.2,0.3l-0.2,0.3l-0.2,0.3l-0.1,0.3l-0.1,0.3l-0.1,0.3l-0.1,0.3v0.1v0.1v0.1v0.1v0.1l0.1,0.1l0.1,0.1h0.1H33h0
	h0.1h0.1h0.1l0.3-0.1l0.3-0.1l0.3-0.2l0.3-0.2l0.3-0.2l0.3-0.3l0.5-0.5l0.5-0.5l0.9-0.9l0.9-0.9l1-0.8l1-0.8l1-0.8l1-0.8l1.7-1.3
	l1.7-1.2l6.2-4.4l2.2-1.6l2.2-1.6l2.2-1.7l1.4-1.1l1.4-1.1l1.4-1.1l1.4-1.2l1.3-1.2l1.3-1.2l1.1-1l1-1l1-1l1-1l1-1.1l1-1.1l1-1.1
	l0.9-1.1l0.9-1.1l0.9-1.1l0.9-1.1l0.8-1.1l0.8-1.1l0.8-1.1l0.7-1.1l0.7-1.1l0.7-1.1l0.7-1.1l0.6-1.1l0.6-1.2l0.6-1.2l0.6-1.3
	l0.6-1.3l0.6-1.3l0.5-1.3L87,166l0.5-1.3l0.6-1.8l0.6-1.8l0.6-1.8l0.5-1.8l1.7-6.3l0.4-1.4l0.4-1.4l0.3-0.9l0.3-0.9l0.3-0.9l0.3-1
	l0.4-1l0.4-1l0.4-1l0.4-0.9l0.3-0.6l0.3-0.6L96,139l0.3-0.4l0.3-0.4l0.3-0.4l0.2-0.2l0.2-0.2l0.1-0.1l0.1-0.1l0.1-0.1h0.1h0.1h0.1
	H98h0.1l0.1,0.1l0.1,0.1v0.1v0.3v0.3v0.4v0.4l-0.1,0.5l-0.1,0.5l-0.1,0.5l-0.2,0.8l-0.2,0.8l-0.2,0.8l-1.4,4.5l-0.6,2l-0.6,2l-0.5,2
	l-0.4,1.8l-0.4,1.8l-1.4,6l-0.9,3.5l-0.9,3.5l-1,3.5l-1,3.5l-1.1,3.5l-0.8,2.5l-0.8,2.5l-0.5,1.4l-0.5,1.4l-0.6,1.4l-0.4,1.1
	l-0.5,1.1l-0.5,1.1l-0.3,0.7l-0.4,0.7l-0.4,0.7l-0.4,0.7l-0.4,0.7l-0.5,0.7l-0.5,0.7l-0.5,0.6l-0.5,0.6l-0.7,0.8l-0.7,0.8l-1.1,1.2
	l-1,1.2l-0.5,0.6l-0.5,0.6l-0.4,0.6l-0.4,0.6l-0.3,0.5l-0.3,0.5l-0.3,0.5l-0.2,0.3l-0.2,0.4l-0.2,0.4l-0.1,0.3l-0.1,0.3v0.2v0.2v0.1
	v0.1v0.1l0.1,0.1l0.1,0.1H72h0.1h0.1h0.2l0.2-0.1l0.2-0.1l0.4-0.2l0.4-0.3l0.4-0.3l0.6-0.5l0.6-0.5l0.6-0.6l0.6-0.6l0.7-0.7l0.7-0.8
	l0.7-0.8l0.7-0.8l0.7-0.9l0.7-0.9l0.7-0.9l0.6-0.9l0.6-0.9l0.6-0.9l0.6-1l0.6-1l0.5-1l0.5-1l0.5-1l0.5-1l0.4-1l0.4-1l0.4-1.1
	l0.4-1.1l0.4-1.1l0.4-1.1l0.6-1.8l0.5-1.8l0.5-1.8l0.5-1.8l0.9-3.8l0.9-3.8l2.1-9.9l1.7-8.4l0.7-3.2l0.2-1l0.2-1l0.2-0.8l0.2-0.8
	l0.3-0.8l0.2-0.4l0.2-0.4l0.2-0.4L99,143l0.2-0.3l0.2-0.3l0.2-0.2l0.2-0.2l0.2-0.2l0.2-0.1l0.2-0.1l0.1-0.1h0.1h0.2h0.1h0.1h0.1
	l0.1,0.1l0.1,0.1l0.1,0.1l0.1,0.1l0.1,0.1l0.1,0.2v0.2v0.2v0.2v0.2v0.6l-0.1,0.6l-0.1,0.6l-0.3,1.9l-0.3,1.9l-0.5,2.6l-0.4,2.6
	l-0.4,2.4l-0.4,2.4l-1.1,8l-1,7.7l-1.2,8.4l-0.2,1.8l-0.2,1.8l-0.1,1.2l-0.1,1.2l-0.1,1.2l-0.1,1.4l-0.1,1.4v1.4v1.4v1.4v1.1v1.1
	l0.1,1.1l0.1,1l0.1,1l0.1,1l0.1,0.8l0.1,0.8l0.2,0.8l0.2,0.8l0.2,0.8l0.2,0.8l0.2,0.5l0.2,0.5l0.2,0.5l0.1,0.2L97,210l0.1,0.1
	l0.1,0.1l0,0l0,0l0,0v-0.1V210v-0.2v-0.2v-0.2v-0.5v-0.4V208l-0.1-0.8l-0.1-0.8l-0.2-1.4l-0.1-1.4l-0.1-0.9v-0.9v-0.9V200v-1.3
	l0.1-1.3l0.2-2.8l0.2-2.8l0.8-7.9l1.6-13.7l1.7-13.7l0.3-2.4l0.3-2.4l0.2-1.3l0.2-1.3l0.2-0.8l0.2-0.8l0.1-0.6l0.2-0.6l0.2-0.5
	l0.1-0.3l0.1-0.3l0.1-0.3l0.2-0.2l0.1-0.1l0.1-0.1l0.1-0.1l0.1-0.1l0.1-0.1l0.1-0.1h0.1h0.2h0.1h0.1h0.1l0.1,0.1l0.1,0.1l0.1,0.1
	l0.1,0.1l0.1,0.2l0.1,0.2l0.1,0.2l0.1,0.2l0.1,0.3l0.1,0.3l0.1,0.3l0.1,0.3l0.1,0.6l0.1,0.6v0.6v0.6v1.1v1.1l-0.1,1.9l-0.1,1.9
	l-0.2,4.4l-0.2,4.4l-0.1,4.4l-0.1,3.1v3.1v3.1v2.2l0.1,2.2l0.1,2.2l0.1,2.2l0.1,1.4l0.1,1.4l0.2,1.4l0.1,1l0.2,1l0.2,1l0.2,1
	l0.3,1.2l0.3,1.2l0.3,1.2l0.3,1.2l0.3,1.2l0.4,1.2l0.4,1.2l0.4,1.2l0.5,1.2l0.5,1.2l0.5,1.2l0.5,1.2l0.6,1.2l0.3,0.7l0.4,0.7
	l0.2,0.4l0.2,0.4l0.1,0.2l0.1,0.2l0.1,0.1l0.1,0.1h0.1l0,0l0,0l0,0l0,0v-0.1v-0.1v-0.3V212l-0.1-0.6l-0.1-0.6l-0.1-0.6l-0.4-2
	l-0.4-2L112,201l-0.7-3.1l-0.6-3.1l-0.6-3.2l-0.4-2.5l-0.4-2.5l-0.2-1.6l-0.2-1.6l-0.2-1.6l-0.1-1.5l-0.1-1.5l-0.1-1.5l-0.1-1.5
	v-1.5v-1.5v-2.2l0.1-2.2l0.2-4.3l0.2-4.1l0.3-4.1l0.1-1.7l0.2-1.7l0.1-0.9l0.1-0.9l0.1-0.9l0.1-0.6l0.1-0.6l0.1-0.5l0.1-0.2l0.1-0.2
	l0.1-0.2l0.1-0.1l0.1-0.1l0.1-0.1l0.1-0.1l0.1-0.1h0.1h0.1h0.3h0.3h0.4h0.4h0.3l0.3,0.1l0.3,0.1l0.3,0.1l0.2,0.1l0.2,0.1l0.2,0.1
	l0.1,0.1l0.1,0.1l0.1,0.2l0.1,0.2l0.1,0.2l0.1,0.2v0.2v0.3v0.3v0.3v0.6v0.6v0.6l-0.1,2.3l-0.1,2.2v2.2v2.2l0.1,2.2l0.1,2.2l0.1,2.2
	l0.2,2.1l0.2,2.1l0.2,2.1l0.2,2.1l0.6,4.6l0.7,4.6l0.5,3.4l0.6,3.4l0.6,3.4l0.5,2.7l0.6,2.7l0.6,2.7l0.7,2.7l0.8,2.8l0.8,2.8
	l0.9,2.8l0.9,2.8l1,2.8l1,2.8l1.1,2.8l1.1,2.8l0.2-0.2l0.1-0.2l0.1-0.2l0.1-0.2l0.1-0.3v-0.3v-0.3V226v-0.3v-0.4v-0.4l-0.1-0.4
	l-0.1-0.5l-0.1-0.5l-0.1-0.5l-0.3-1l-0.3-1l-0.4-1l-1.5-4.2l-1-2.6l-0.9-2.7l-0.9-2.7l-0.5-1.7l-0.5-1.7l-0.5-1.7l-0.4-1.7l-0.4-1.8
	l-0.4-1.8l-0.4-2l-0.3-2l-0.3-2l-0.4-3l-0.4-3l-0.3-3l-0.8-8.1l-0.7-7.9l-0.5-5.5l-0.1-1.1l-0.1-1.1v-0.8v-0.8v-0.8v-0.8V155v-0.5
	l0.1-0.5l0.1-0.5l0.1-0.5l0.1-0.4l0.1-0.4l0.2-0.4l0.2-0.4l0.2-0.3l0.2-0.3l0.2-0.3l0.1-0.2l0.1-0.2l0.2-0.2l0.1-0.1l0.2-0.1
	l0.1-0.1h0.1h0.1h0.1h0.1l0.1,0.1l0.1,0.1l0.1,0.1l0.1,0.2l0.1,0.2l0.1,0.2l0.1,0.5l0.1,0.5l0.1,0.5l0.2,1.8l0.2,1.8l0.1,1.5
	l0.2,1.5l0.2,1.5l0.2,1.3l0.2,1.3l0.3,1.3l0.6,3.1l0.7,3.1l1.4,6.2l0.9,4l0.7,3l0.7,3l0.4,1.7l0.5,1.7l0.5,1.7l0.5,1.7l0.8,2.5
	l0.8,2.5l2.6,7.8l0.6,1.8l0.6,1.8l0.3,1.1l0.3,1.1l0.3,1.1l0.2,0.9l0.2,0.9l0.2,0.9l0.2,0.9l0.1,0.8l0.1,0.8l0.1,0.8l0.1,0.8v0.8
	v0.8v0.8v1.4v1.7l0.1,1.7v0.7v0.7v0.6v0.6v0.4v0.4l-0.1,0.4l-0.1,0.4l-0.1,0.4l-0.1,0.3l-0.1,0.3l-0.2,0.3l-0.2,0.3l-0.2,0.3
	l-0.2,0.2l-0.2,0.2l-0.2,0.2l-0.2,0.2l-0.2,0.2l-0.2,0.2l-0.2,0.2l-0.2,0.1l-0.2,0.1l-0.2,0.1l-0.2,0.1h-0.2h-0.2h-0.2h-0.3h-0.3
	l-0.3-0.1l-0.2-0.1l-0.3-0.1l-0.3-0.1l-0.3-0.1l-0.5-0.3l-0.5-0.3l-0.5-0.3l-0.5-0.4l-0.5-0.4l-0.5-0.4l-0.8-0.6l-0.8-0.6l-1-0.7
	l-1-0.7l-1-0.7l-1-0.7l-1-0.7l-1-0.7l-1-0.6l-1.4-0.9l-1.5-0.8l-1.5-0.8l-1.5-0.8l-1.5-0.8l-1.4-0.7l-1.4-0.7l-1.4-0.6l-1-0.4
	l-1-0.4l-1-0.4l-1-0.4l-1-0.4l-1-0.4l-1-0.3l-1-0.3l-1-0.3l-1-0.3l-1-0.3l-1.1-0.2l-1.1-0.2l-1.1-0.2l-1.7-0.3l-1.7-0.2l-1.2-0.2
	l-1.2-0.1l-1.2-0.1l-1.2-0.1l-1.2-0.1l-1.2-0.1h-1.2h-1.2h-1.2h-1.2l-1.2,0.1l-1.2,0.1l-1.2,0.1l-1.2,0.1l-1.4,0.2l-1.4,0.2
	l-1.4,0.2l-1.4,0.2l-2.3,0.4l-2.3,0.5l-2.3,0.5l-2.3,0.5l-3.4,0.9l-3.4,0.9l-3.4,1l-4.2,1.3l-4.1,1.4l-4.1,1.4l-4.1,1.5l-4.1,1.6
	l-4,1.6l-4,1.7l0.1-0.4l0.1-0.4l0.1-0.4l0.1-0.4l0.2-0.4l0.2-0.4l0.2-0.4l0.3-0.4l0.3-0.4l0.4-0.5l0.4-0.5l0.4-0.5l0.5-0.6l0.5-0.6
	l0.5-0.6l1.1-1.1l1.1-1.1l1.1-1.1l4.7-4.3l8.1-7.3l9.1-8.3l8.5-8.1L64.3,185.2L64.3,185.2z M383.4,105.4l0.6,0.2l0.6,0.2l0.6,0.3
	l0.6,0.2l0.5,0.3l0.5,0.3l0.5,0.3l0.5,0.3l0.5,0.4l0.5,0.4l0.5,0.4l0.4,0.4l0.4,0.4l0.4,0.5l0.4,0.5l0.4,0.6l0.4,0.6l0.4,0.6
	l0.6,0.9l0.6,0.9l0.6,0.9l0.5,1l0.6,1.1l0.6,1.1l0.6,1.1l0.4,0.8l0.4,0.8l0.2,0.5l0.2,0.6l0.2,0.6l0.1,0.4l0.1,0.4l0.1,0.4l0.1,0.4
	l0.1,0.4v0.4v0.4v0.3v0.3l-0.1,0.3l-0.1,0.3l0.1,0.4l-0.2,0.5l-0.2,0.5l-0.2,0.5l-0.3,0.5l-0.3,0.5l-0.3,0.5l-0.3,0.5l-0.3,0.5
	l-0.4,0.5l-0.4,0.5l-0.4,0.5l-0.4,0.5l-0.4,0.5l-0.4,0.4l-0.4,0.4l-0.5,0.4l-0.9,0.8l-0.3,0.3l-0.3,0.3l-0.2,0.2l-0.2,0.2l-0.2,0.3
	l-0.1,0.3l-0.1,0.3l-0.1,0.3v0.3v0.3v0.3v0.4l0.1,0.4l0.1,0.4l0.1,0.4l0.2,0.7l0.2,0.7l0.8,2.4l0.3,0.9l0.3,0.9l0.2,0.9l0.2,0.9
	l0.2,0.9l0.2,0.9l0.1,0.9l0.1,0.9l0.1,0.9l0.1,1l0.1,1v1v1v1l-0.1,1.2l-0.1,1.2v0.9v0.9v0.7v0.7v0.7v0.7v0.6l0.1,0.6l0.1,0.6
	l0.1,0.6l0.1,0.6l0.2,0.7l0.2,0.7l0.2,0.7l0.2,0.7l0.8,2.3l0.4,1.1l0.4,1.1l0.3,1.1l0.1,0.5l0.1,0.5l0.1,0.5l0.1,0.5l0.1,0.5v0.5
	v0.4v0.4v0.4v0.4l-0.1,0.4l-0.1,0.4l-0.1,0.4l-0.2,0.4l-0.2,0.4l-0.2,0.4l-0.2,0.4l-0.3,0.4l-0.3,0.3l-0.3,0.3l-0.3,0.3l-0.3,0.3
	l-0.5,0.4l-0.5,0.4l-0.5,0.3l-0.5,0.3l-0.5,0.3l-0.7,0.4l-0.7,0.4l-0.7,0.3l-0.7,0.3l-0.8,0.3l-0.9,0.3l-0.8,0.3l-0.8,0.3l-0.9,0.3
	l-0.9,0.2l-1,0.3l-1,0.2l-1,0.2l-1,0.2l-1,0.2l-1,0.2l-1.1,0.1l-1,0.1l-1.1,0.1l-1.1,0.1l-1.2,0.1l-1.2,0.1h-1.2h-1.2h-1.2h-1.3
	h-1.3h-1.3l-1.3-0.1l-1.2-0.1l-1.2-0.1l-1.2-0.1l-1.2-0.1l-1.7-0.2l-0.7-0.1l-0.7-0.1h-0.4h-0.4h-0.4H353h-0.4l-0.4,0.1l-0.4,0.1
	l-0.4,0.1l-0.4,0.1l-0.4,0.1l-0.5,0.2l-0.5,0.2l-1.5,0.8l-0.6,0.3l-0.6,0.3l-0.6,0.2l-0.4,0.1l-0.4,0.1l-0.4,0.1l-0.7,0.2l-0.7,0.2
	l-0.7,0.1l-2.3,0.4l-1.6,0.3l-0.9,0.2l-0.9,0.2l-0.9,0.2l-0.8,0.1l-0.8,0.1l-0.8,0.1l-0.8,0.1l-0.9,0.1h-0.9h-0.9h-0.9h-0.9h-1.1
	h-1.1l-1.1-0.1l-1.1-0.1l-1.8-0.2l-0.8-0.1l-0.8-0.1h-0.8h-0.6h-0.6h-0.6h-0.6l-0.5,0.1l-0.5,0.1l-0.5,0.1l-2.5,0.5l-0.8,0.2
	l-0.8,0.1l-0.8,0.1l-0.7,0.1h-0.7h-0.7h-0.7h-0.7l-0.6-0.1l-0.6-0.1l-0.6-0.1l-1-0.2l-1-0.2l-2.4-0.5l-2.4-0.5l-5.2-1.2l-1.3-0.3
	l-1.3-0.3l-1-0.3l-1.1-0.3l-1-0.3l-1-0.3l-1-0.4l-1-0.4l-1-0.4l-1-0.4l-1.1-0.5l-1.1-0.5l-1.1-0.5l-2.4-1.2l-2.4-1.2l-2.4-1.3
	l-2.3-1.3l-1-0.6l-1-0.6l-0.6-0.4L267,181l-0.6-0.4l-0.4-0.3l-0.4-0.3l-0.4-0.3l-0.7-0.7l-0.3-0.2l-0.3-0.2l-0.3-0.2l-0.3-0.2
	l-0.2-0.1l-0.3-0.1l-0.3-0.1l-0.3-0.1h-0.3h-0.3h-0.3H261h-0.3l-0.5,0.1l-0.5,0.1l-0.9,0.3l-0.9,0.3l-2.2,0.7l-1.3,0.4l-1.3,0.3
	l-1.3,0.3l-1.3,0.3l-1.4,0.3l-1.4,0.3l-1.4,0.2l-1.4,0.2l-1.4,0.2l-1.7,0.2l-1.7,0.2l-1.7,0.1l-1.7,0.1l-1.7,0.1l-2,0.1h-2h-1.9h-2
	l-2-0.1l-1.7-0.1l-1.7-0.1l-1.7-0.1l-1.7-0.2l-1.7-0.2l-1.7-0.2l-1.8-0.3l-1.8-0.3l-1.8-0.3l-1.8-0.4l-1.8-0.4l-1.8-0.4l-1.9-0.5
	l-1.8-0.5l-1.8-0.5l-3.1-0.9l-3-1l-3-1l-3-1.1l-3-1.1l-1.3-0.5l-1.3-0.5l-1.2-0.5l-0.8-0.4l-0.8-0.4l-0.8-0.4l-0.7-0.4l-0.7-0.4
	l-0.7-0.4l-0.7-0.4l-0.7-0.5l-0.7-0.5l-0.7-0.5l-0.7-0.5l-0.6-0.5l-0.7-0.6l-0.7-0.7l-0.7-0.7l-0.7-0.7l-0.8-0.9l-0.8-0.9l-0.8-0.9
	l-0.8-0.9l-0.8-0.9l-0.8-1l-0.8-1l-0.8-1l-0.8-1l-0.5-0.7l-0.5-0.7l-0.4-0.7l-0.2-0.4l-0.2-0.4l-0.2-0.4l-0.2-0.3l-0.1-0.4l-0.1-0.4
	l-0.1-0.4l-0.1-0.4l-0.1-0.4v-0.4v-0.3v-0.3V148v-0.2v-0.2l0.1-0.2l0.1-0.2l0.1-0.2l0.1-0.2l0.1-0.2l0.1-0.1l0.1-0.1l0.1-0.1
	l0.2-0.1h0.2h0.2h0.2h0.3l0.3,0.1l0.3,0.1l0.6,0.2l0.6,0.2l0.6,0.2l0.8,0.3l0.8,0.2l0.8,0.2l0.9,0.2l0.9,0.2l0.9,0.2l0.9,0.2
	l0.9,0.1l1.2,0.2l1.2,0.1l1.2,0.1l1.2,0.1l1.2,0.1l2.4,0.1l2.4,0.1l2.4,0.1h3.9h3.9l3.7-0.1l3.7-0.1l1.9-0.1l1.9-0.1l1.9-0.1l1-0.1
	l1-0.1l0.7-0.1l0.7-0.1l0.7-0.1l0.5-0.1l0.5-0.1l0.5-0.1l0.4-0.1l0.4-0.1l0.3-0.1l0.3-0.1l0.3-0.1l0.2-0.2l0.1-0.1l0.1-0.1l0.1-0.1
	l0.1-0.1l0.1-0.1v-0.1v-0.2v-0.2l0.3-0.5l-0.1-0.1l-0.1-0.2l-0.2-0.2l-0.2-0.2l-0.3-0.3l-0.3-0.3l-0.3-0.3l-0.3-0.3l-0.7-0.5
	l-0.7-0.5l-0.7-0.5l-2-1.4l-2-1.3l-2.1-1.3l-2.4-1.5l-2.4-1.4l-2.5-1.4l-1.2-0.6l-1.2-0.6l-1.2-0.6l-0.9-0.4l-0.9-0.4l-0.9-0.4
	l-0.9-0.4l-0.9-0.3l-0.9-0.3l-1-0.3l-1-0.3l-1-0.3l-1-0.3l-1-0.2l-1-0.2l-1.2-0.2l-1.2-0.2l-1.2-0.2l-1.2-0.2l-1.6-0.2l-1.6-0.2
	l-1.6-0.1l-1.6-0.1l-1.6-0.1l-1.3-0.1h-1.3H163h-1.3h-1.3h-1.3l-1.1,0.1l-1.1,0.1l-1.1,0.1l-1.1,0.1l-1,0.1l-1,0.1l-1,0.2l-1,0.2
	l-1,0.2l-1,0.2l-1.1,0.3l-1.1,0.3l-1,0.3l-1,0.3l-1,0.3l-1.1,0.4l-1.1,0.4l-1.1,0.4l-1.1,0.4l-1.1,0.5l-1.1,0.5l-1,0.5l-1,0.5
	l-1,0.5l-0.7,0.4l-0.7,0.4l-0.6,0.4l-0.6,0.4l-0.6,0.4l-0.6,0.4l-0.5,0.4l-0.5,0.5l-0.5,0.4l-0.4,0.5l-0.4,0.5l-0.4,0.5l-0.4,0.5
	l-0.4,0.5l-0.3,0.5l-0.3,0.5l-0.3,0.5l-0.3,0.5l-0.3,0.6l-0.2,0.6l-0.2,0.6l-0.2,0.6l-0.2,0.6l-0.1,0.6l-0.1,0.7l-0.1,0.7l-0.1,0.7
	l-0.1,0.9v0.9v0.9v0.9v1.2l0.1,1.2l0.1,1.2l0.1,1.2l0.2,1.8l0.2,1.8l0.2,1.8l0.4,3.2l0.5,3.1l0.5,3.1l0.5,2.5l0.5,2.5l0.5,2.5
	l0.6,2.5l0.6,2.2l0.6,2.2l0.6,2.2l0.9,3.1l0.9,3.1l1,3.1l2.7,8.1l2.8,8.3l1.1,3.2l1.1,3.1l1,2.8l0.5,1.3l0.4,1.3l0.4,1.3l0.2,0.6
	l0.2,0.6l0.1,0.6l0.1,0.6l0.1,0.6l0.1,0.6l0.1,0.6v0.6v0.6v0.6v0.6v0.6l-0.1,0.6l-0.1,0.7l-0.1,0.7l-0.1,0.7l-0.2,1l-0.2,1l-0.8,3.9
	l-0.8,3.7l-0.3,1.6l-0.3,1.6l-0.2,0.7l-0.2,0.7l-0.1,0.4l-0.1,0.4l-0.2,0.4l-0.1,0.3l-0.2,0.3l-0.2,0.3l-0.2,0.2l-0.2,0.2l-0.2,0.2
	l-0.2,0.2l-0.3,0.2l-0.3,0.2l-0.3,0.2l-0.2,0.1L137,254l-0.2,0.1h-0.2h-0.2h-0.2H136l-0.2-0.1l-0.2-0.1l-0.2-0.1l-0.2-0.1l-0.2-0.2
	l-0.2-0.2l-0.2-0.2l-0.3-0.4l-0.3-0.4l-0.3-0.4l-0.5-0.9l-0.5-0.9l-0.5-0.9l-0.9-1.6l-0.9-1.6l-0.6-0.9l-0.6-0.9l-0.6-0.9l-0.6-0.9
	l-0.6-0.9l-0.6-0.8l-0.7-0.8l-0.7-0.8l-0.7-0.8l-0.7-0.8l-0.7-0.7l-0.7-0.7l-0.8-0.7l-0.8-0.7l-0.8-0.7l-0.8-0.7l-0.8-0.7l-0.8-0.6
	l-1-0.7l-1-0.7l-1-0.7l-1-0.7l-1-0.6l-1-0.6l-1.1-0.6l-1.2-0.6l-1.2-0.6l-1.2-0.6l-1.2-0.6l-1.3-0.5L103,224l-1.3-0.5l-1.1-0.4
	l-1.1-0.4l-1.1-0.4l-1.2-0.4l-1.1-0.3l-1.1-0.3l-1.1-0.3l-1.1-0.2l-1.1-0.2l-1.1-0.2l-1.1-0.2l-1.1-0.1l-1.1-0.1l-1.3,0l-1.1-0.1
	h-1.1h-1.1h-1.1h-1.1l-1.1,0.1l-1.6,0.1l-1.6,0.1l-1.6,0.2l-2.6,0.3l-2.6,0.4l-4.2,0.6l-4.2,0.7l-8.3,1.4l-5.2,0.9l-1.8,0.3
	l-1.9,0.4l-1.3,0.3l-1.3,0.3l-1.3,0.3l-1.3,0.4l-1,0.3l-1,0.3l-1,0.3l-0.9,0.4l-0.9,0.4l-0.8,0.4l-0.8,0.4l-0.8,0.4l-0.8,0.4
	l-0.8,0.4l-0.9,0.5l-0.9,0.5l-0.9,0.6l-1.2,0.8l-1.2,0.9l-1.2,0.9l-3.3,2.4l-1.2,0.9l-1.2,0.9l-1.2,0.8l-1.2,0.8l-2.4,1.5l-2.4,1.5
	L8,245l-1,0.6l-1,0.5l-0.7,0.4l-0.7,0.3L3.9,247l-0.7,0.3l-0.4,0.1l-0.4,0.1L2,247.6l-0.3,0.1l-0.3,0.1H1.1H1H0.8l-0.2-0.1l-0.1-0.1
	l-0.1-0.1l-0.1-0.1l-0.1-0.1l-0.1-0.1v-0.1L0,247v-0.2v-0.2v-0.2V246l0.1-0.4l0.1-0.4l0.1-0.4l0.2-0.6l0.2-0.6L1,243l0.4-0.8
	l0.4-0.8l0.4-0.8l0.4-0.8l0.5-0.8l0.6-1l0.7-1l0.7-1l0.7-1l0.6-0.8l0.7-0.8l0.7-0.8l0.7-0.8l0.7-0.8l1.2-1.3l1.3-1.3l1.7-1.7
	l1.7-1.6l9.5-9.1l11.1-10.5l5.2-5l7.3-6.9l2.2-2l2.2-2l2.2-2l2.1-1.7l2.1-1.7l2.9-2.3l1.4-1.1l1.3-1.1l1.3-1.1l0.7-0.6l0.7-0.7
	l0.7-0.7l0.7-0.7l0.7-0.7l0.7-0.7l0.7-0.8l0.6-0.8l0.6-0.8l0.6-0.8l0.6-0.8l0.6-0.8l0.5-0.9l0.5-0.9l0.5-0.9l0.5-0.9l0.4-0.9
	l0.6-1.2l0.6-1.2l0.5-1.2l0.8-1.8l0.7-1.9l2.1-5.6l0.7-1.9l0.8-1.9l0.8-1.9l0.8-1.8l0.8-1.8l2.6-5.5l0.6-1.4l0.6-1.4l0.6-1.4
	l0.6-1.4l0.5-1.3l0.4-1.3l0.4-1.3l0.9-3.1l1.5-4.8l0.5-1.7l0.6-1.7l0.6-1.7l0.6-1.6l0.6-1.5l0.6-1.5l0.7-1.5l0.7-1.5l0.7-1.5l0.5-1
	l0.5-1l0.5-1l0.6-1l0.4-0.7l0.4-0.7l0.4-0.6l0.4-0.6l0.5-0.6l0.3-0.4l0.3-0.4l0.3-0.4l0.3-0.3l0.3-0.3l0.3-0.3l0.3-0.3l0.3-0.2
	l0.3-0.2l0.3-0.1l0.2-0.1l0.2-0.1h0.1h0.1h0.1h0.1l0.1,0.1l0.1,0.1l0.1,0.1l0.1,0.1v0.1v0.1v0.2V97v0.2l-0.1,0.3l-0.1,0.3l-0.1,0.3
	l-0.2,0.5l-0.2,0.5l-0.2,0.4l-0.5,1l-0.5,1l-0.5,1l-1.5,2.7l-0.8,1.5l-0.8,1.5l-0.7,1.5l-0.4,0.8l-0.3,0.8l-0.3,0.8l-0.3,0.7
	l-0.3,0.7l-0.3,0.8l-0.3,0.8l-0.2,0.8l-0.2,0.8l-0.2,0.8l-0.2,0.8l-0.1,0.8l-0.1,0.8l-0.1,0.8l-0.1,0.8v0.8v0.8v0.8v0.8l0.1,0.8
	l0.1,0.8l0.1,0.8l0.1,0.8l0.2,0.8l0.1,0.5l0.1,0.5l0.2,0.5l0.2,0.5l0.2,0.5l0.2,0.4l0.2,0.4l0.2,0.4l0.2,0.4l0.3,0.4l0.3,0.4
	l0.3,0.4l0.3,0.4l0.7,0.8l0.7,0.8l0.7,0.8l0.5,0.5l0.5,0.5l0.5,0.5l0.6,0.5l0.6,0.5l0.7,0.5l0.7,0.5l0.7,0.5l0.7,0.5l0.7,0.5
	l0.8,0.5l0.8,0.5l0.8,0.5l0.9,0.5l0.4,0.2l0.4,0.2l0.4,0.2l0.4,0.2l0.5,0.1l0.5,0.1l0.3,0.1h0.3h0.3h0.3h0.3h0.2h0.2h0.2h0.2
	l0.2-0.1l0.1-0.1l0.1-0.1l0.1-0.1l0.1-0.1l0.1-0.2l0.1-0.2l0.1-0.2l0.2-0.4l0.2-0.4l0.2-0.4l0.3-0.7l0.3-0.7l0.2-0.4l0.2-0.4
	l0.2-0.4l0.2-0.4l0.2-0.4l0.3-0.4l0.3-0.4l0.3-0.4l0.4-0.5l0.4-0.5l0.4-0.5l0.7-0.7l0.7-0.7l0.7-0.6l0.7-0.6l0.7-0.6l0.7-0.6
	l0.7-0.6l0.8-0.6l0.8-0.5l0.8-0.5l0.8-0.5l0.8-0.5l0.8-0.5l0.8-0.4l0.8-0.4l0.8-0.4l0.8-0.4l0.8-0.3l0.8-0.3l1-0.4l0.9-0.3l1-0.3
	l1-0.3l1-0.3l1-0.3l1-0.2l1.1-0.2l1.1-0.2l1.1-0.2l1.2-0.2l1.2-0.2l1.2-0.1l1.2-0.1l1.5-0.1l1.5-0.1l1.5-0.1h1.5h1.9h1.9l1.9,0.1
	l1.9,0.1l1.9,0.1l1.5,0.1l1.5,0.1l1.5,0.2l1.5,0.2l1.5,0.2l1.5,0.2l1.4,0.2l1.4,0.3l1.4,0.3l1.4,0.3l1.4,0.3l1.4,0.4l1.4,0.4
	l1.2,0.4l1.2,0.4l1.2,0.4l1.2,0.4l1.2,0.4l1.2,0.5l1.2,0.5l1.2,0.5l1.2,0.5l1.2,0.6l1.1,0.6l1.1,0.6l1.1,0.6l1.4,0.8l0.6,0.3
	l0.6,0.3l0.6,0.3l0.3,0.1l0.3,0.1l0.3,0.1h0.2h0.2h0.2h0.2h0.2l0.2-0.1l0.2-0.1l0.2-0.1l0.1-0.1l0.1-0.1l0.2-0.2l0.2-0.3l0.2-0.3
	l0.3-0.4l0.3-0.4l0.2-0.3l0.2-0.3l0.3-0.3l0.3-0.3l0.3-0.3l0.3-0.3l0.3-0.2l0.3-0.2l0.3-0.2l0.4-0.2l0.4-0.2l0.6-0.2l0.6-0.2
	l0.6-0.2l0.6-0.2l0.6-0.1l0.4-0.1l0.4-0.1h0.4h0.2h0.2h0.1h0.1h0.1l0,0v0.1v0.1l-0.1,0.1l-0.1,0.1l-0.3,0.2l-0.2,0.2l-0.6,0.4
	l-0.6,0.4l-0.7,0.5l-0.7,0.5l-0.4,0.3l-0.4,0.3l-0.4,0.3l-0.3,0.2L213,133l-0.2,0.3l-0.2,0.3l-0.2,0.3l-0.2,0.3l-0.2,0.3l-0.1,0.2
	l-0.1,0.3l-0.1,0.3v0.3v0.3v0.3l0.1,0.3l0.1,0.3l0.1,0.3l0.1,0.3l0.1,0.3l0.2,0.3l0.3,0.5l0.3,0.4l0.3,0.4l0.5,0.6l0.5,0.6l0.4,0.5
	l0.4,0.5l0.4,0.5l0.5,0.5l0.5,0.4l0.2,0.2l0.2,0.2l0.2,0.2l0.2,0.1l0.2,0.1l0.2,0.1l0.3,0.1l0.3,0.1l0.3,0.1h0.3h0.4h0.4h0.4h0.6
	l0.6-0.1l0.6-0.1l0.6-0.1l0.7-0.1l0.7-0.2l0.7-0.2l0.7-0.2l1.1-0.3l1.1-0.3l1.1-0.4l1.1-0.4l4.5-1.6l1-0.3l1-0.3l0.7-0.2l0.7-0.2
	l0.4-0.1l0.4-0.1l0.4-0.1l0.4-0.1h0.3h0.4h0.2h0.2h0.2l0.2,0.1l0.2,0.1l0.1,0.1l0.1,0.1l0.1,0.1l0.1,0.1l0.1,0.1l0.1,0.1v0.1v0.2
	v0.2v0.2v0.2l-0.1,0.2l-0.1,0.2l-0.1,0.2l-0.1,0.2l-0.2,0.2l-0.2,0.2l-0.2,0.2l-0.3,0.2l-0.3,0.2l-0.3,0.2l-0.3,0.2l-0.3,0.2
	l-0.4,0.2l-0.5,0.2l-0.5,0.2l-0.5,0.2l-0.5,0.2l-0.7,0.3l-0.7,0.2l-0.8,0.2l-0.7,0.2l-0.7,0.2l-0.8,0.2l-2,0.4l-2,0.4l-2.5,0.5
	l-2.5,0.5l-4.1,0.9l-3.4,0.7l-3.4,0.7l-1.7,0.3l-1.7,0.3l-1.7,0.3l-1.7,0.3l-1.3,0.2l-1.3,0.1l-1.3,0.1l-1.3,0.1L199,151h-1.3h-1.8
	h-1.8l-3.3-0.1l-2.9-0.1H185h-0.7h-0.7h-0.7h-0.4h-0.4h-0.3l-0.3,0.1h-0.1l-0.1,0.1l-0.1,0.1l-0.1,0.1v0.1v0.1v0.1v0.1l0.1,0.1
	l0.1,0.1l0.1,0.1l0.3,0.2l0.3,0.1l0.3,0.1l0.4,0.1l0.4,0.1l0.4,0.1l0.5,0.1l0.5,0.1l0.5,0.1l0.5,0.1l0.5,0.1l1.2,0.1l1.2,0.1
	l1.2,0.1l2.9,0.1l2.9,0.1h2.9h2.9h2.6l2.6-0.1l2.6-0.1l1.6-0.1l1.6-0.1l1.6-0.2l1.6-0.2l1.6-0.2l1.5-0.2l1.5-0.2l1.5-0.3l1.4-0.3
	l1.4-0.3l3.2-0.8l3.2-0.8l2.6-0.6l2.6-0.6l0.9-0.2l0.9-0.2h0.3h0.3h0.2h0.2h0.1h0.1l0,0l0,0l0,0l0,0l-0.1,0.1l-0.1,0.1l-0.1,0.1
	l-0.3,0.2l-0.3,0.2l-0.4,0.2l-0.7,0.4L236,151l-0.7,0.3l-0.6,0.3l-0.7,0.3l-0.7,0.2l-0.8,0.3l-0.8,0.2l-0.8,0.2l-0.8,0.2l-1.4,0.3
	l-1.4,0.3L226,154l-2.5,0.5L221,155l-1.4,0.3l-1.4,0.2l-1.4,0.2l-1.4,0.2l-1.3,0.1l-1.3,0.1l-1.3,0.1l-1.3,0.1l-1.3,0.1h-1.3h-2.5
	h-2.5l-3.8-0.1l-3.9-0.1l-3.8-0.2l-3.8-0.2l-1.9-0.1l-1.9-0.2l-1.1-0.1l-1-0.1l-1-0.1l-1-0.2l-0.8-0.1l-0.8-0.2l-0.8-0.2l-0.8-0.2
	l1.4,0.8l1.4,0.8l1.4,0.7l1.4,0.7l1.5,0.7l1.5,0.7l1.6,0.7l1.6,0.7l1.6,0.6l1.6,0.6l1.6,0.6l1.6,0.6l2.1,0.7l2.1,0.7l2.1,0.7
	l2.1,0.6l2.1,0.6l1.8,0.5l1.8,0.4l1.8,0.4l1.7,0.4l1.7,0.3l1.7,0.3l1.3,0.2l1.3,0.2l1.3,0.2l1.3,0.2l1.3,0.1l1.3,0.1l1.3,0.1
	l1.3,0.1h1.3h1.3h1.3h1.3h1.3l1.3-0.1l1.4-0.1l1.4-0.1l1.4-0.1l1.4-0.1l3.1-0.4l3.1-0.4l2.8-0.4l2.8-0.3l0.8-0.1l0.8-0.1l0.8-0.1
	h0.5h0.5h0.5h0.3l0.3,0.1l0.2,0.1l0.1,0.1l0.1,0.1l0.1,0.1l0.1,0.1v0.1v0.1v0.1v0.1l-0.1,0.2l-0.1,0.1l-0.1,0.1l-0.2,0.2l-0.2,0.2
	l-0.2,0.1L255,169l-0.2,0.1l-0.4,0.2l-0.4,0.2l-0.4,0.1l-0.6,0.2l-0.6,0.2l-0.6,0.2l-1.3,0.3l-1.3,0.3l-1.3,0.3l-1.3,0.3l-1.3,0.2
	l-1.3,0.2l-1.3,0.2l-1.6,0.2l-1.6,0.2l-1.6,0.1l-1.6,0.1l-1.6,0.1h-1.6h-1.6h-1.6h-1.6l-1.6-0.1l-1.9-0.1l-1.9-0.1l-1.9-0.2
	l-1.9-0.2l-1.9-0.2l-1.8-0.2l-1.8-0.3l-1.8-0.3l-1.8-0.3l-1.8-0.3l-1.5-0.3l-1.5-0.3l-1.5-0.4l-1.5-0.4l-1.5-0.4l-2.3-0.7l-2.3-0.7
	l-2.2-0.8L191,165l-3.5-1.3l-2-0.8l-2-0.8l-2-0.8l-0.7-0.3l-0.7-0.3l-0.7-0.3l-0.6-0.3l-0.6-0.3l-0.5-0.3l-0.5-0.3l-0.5-0.3
	l-0.5-0.3l-0.5-0.4l-0.4-0.3l-0.3-0.3l-0.2-0.2l-0.2-0.2l-0.2-0.2l-0.2-0.2l-0.1-0.2l-0.1-0.2v-0.1v-0.1v-0.1v-0.2v-0.2l0.1-0.2
	l0.1-0.2l0.1-0.2l0.2-0.2l0.2-0.3l0.2-0.3l0.1-0.1v-0.1v-0.2v-0.1v-0.1v-0.1v-0.1l-0.1-0.1l-0.1-0.1l-0.1-0.1l-0.1-0.1l-0.1-0.1
	l-0.2-0.1l-0.2-0.1l-0.3-0.1l-0.3-0.1l-0.3-0.1l-0.6-0.1l-0.6-0.1l-0.6-0.1l-0.9-0.1l-0.9-0.1H169h-0.6H168h-0.4h-0.2h-0.2H167l0,0
	l-0.2,0.1l-0.1,0.1l-0.1,0.1l-0.1,0.1v0.1v0.2v0.2l0.1,0.3l0.1,0.2l0.1,0.2l0.2,0.4l0.2,0.4l0.2,0.3l0.2,0.3l0.4,0.5l0.4,0.5
	l0.4,0.5l0.5,0.7l0.6,0.7l0.6,0.7l0.6,0.6l0.6,0.7l0.7,0.6l0.7,0.6l0.7,0.6l0.7,0.6l0.9,0.7l0.9,0.6l0.9,0.6l0.9,0.6l0.9,0.6
	l0.9,0.5l0.9,0.5l1,0.5l1,0.5l1,0.5l1.2,0.6l1.2,0.6l1.2,0.5l1.2,0.5l2,0.8l2,0.8l2,0.7l2.6,0.9l2.6,0.8l2.6,0.8l2.6,0.8l1.7,0.5
	l1.7,0.5l1.7,0.4l1.6,0.4l1.6,0.4l1.7,0.3l1.2,0.2l1.2,0.2l1.2,0.2l1.2,0.2l1.2,0.1l1.1,0.1l1.1,0.1l1.1,0.1h1.1h1.1h1.1h1.1
	l1.3-0.1l1.3-0.1l1.3-0.1l1.3-0.1l1.3-0.2l1.3-0.2l2.2-0.3l2.2-0.4l2.2-0.4l2.2-0.4l2.2-0.5l2.5-0.6l2.5-0.6l1.4-0.4l1.4-0.4
	l1.4-0.4l1.1-0.3l1.1-0.4l1.1-0.4l0.8-0.3l0.8-0.3l0.8-0.3l0.8-0.4l2.1-1l0.6-0.3l0.6-0.2l0.4-0.1l0.4-0.1l0.4-0.1l0.4-0.1h0.2h0.2
	h0.2h0.2h0.2h0.2l0.1,0.1l0.1,0.1l0.1,0.1l0.1,0.1l0.1,0.1l0.1,0.1v0.2v0.2v0.2v0.2v0.2v0.2l-0.1,0.2l-0.1,0.3l-0.1,0.3l-0.2,0.3
	l-0.2,0.3l-0.3,0.3l-0.3,0.3l-0.3,0.3l-0.3,0.3l-0.3,0.3l-0.3,0.3L267,175l-0.2,0.3l-0.1,0.2l-0.1,0.2l-0.1,0.2l-0.1,0.2v0.2v0.2
	v0.2v0.2l0.1,0.2l0.1,0.2l0.1,0.2l0.2,0.2l0.2,0.2l0.3,0.3l0.3,0.3l0.3,0.3l0.5,0.4l0.5,0.4l0.5,0.3l0.5,0.3l0.8,0.5l0.9,0.5
	l0.8,0.5l1,0.5l1,0.5l1,0.5l1.1,0.5l1.3,0.6l1.3,0.5l1.4,0.5l1.3,0.5l3.6,1.3l3.6,1.2l3.9,1.3l3.9,1.2l2.2,0.7l2.3,0.6l2.3,0.6
	l0.8,0.2l0.8,0.2l0.8,0.2l0.4,0.1l0.4,0.1h0.3h0.3h0.1h0.1h0.1l0,0v-0.1v-0.1v-0.1v-0.1l-0.1-0.2l-0.1-0.1l-0.1-0.1l-0.3-0.3
	l-0.3-0.3l-0.3-0.3l-0.6-0.4l-0.6-0.4l-1.2-0.8l-0.5-0.4l-0.5-0.4l-0.5-0.4l-0.3-0.3l-0.3-0.3l-0.1-0.1l-0.1-0.2l-0.1-0.2v-0.1v-0.1
	v-0.1v-0.1v-0.1l0.1-0.1l0.1-0.1l0.1-0.1l0.2-0.1l0.2-0.1l0.3-0.1h0.3h0.2h0.3h0.3h0.3l0.5,0.1l0.5,0.1l0.5,0.1l0.9,0.3l0.9,0.3
	l0.9,0.3l3.1,1.2l1.1,0.4l1.1,0.4l1.1,0.4l1.2,0.4l1,0.3l1,0.3l1,0.2l1,0.2l1,0.2l1,0.2l1,0.1l1,0.1l1,0.1l1,0.1l1,0.1h1h1h1h1h1
	l1-0.1l1-0.1l1-0.1l1-0.1l1-0.2l1-0.2l1-0.2l1-0.2l1-0.3l1-0.3l1-0.3l1-0.3l-2.2-0.7l-2.2-0.7l-2.2-0.7l-2.2-0.8l-2.1-0.8l-2.1-0.8
	l-2-0.8l-2-0.9l-2-0.9l-2-1l-1.5-0.8l-1.5-0.8l-1.5-0.8l-1.2-0.7l-1.2-0.7l-1.2-0.7l-1.2-0.7l-1.2-0.8l-0.8-0.6l-0.8-0.6l-0.8-0.6
	l-0.7-0.6l-0.7-0.6l-0.7-0.6l-0.6-0.5l-0.6-0.5l-0.5-0.6l-0.5-0.6l-0.4-0.5l-0.4-0.5l-0.4-0.5l-0.3-0.4l-0.3-0.4l-0.2-0.4l-0.2-0.4
	l-0.2-0.5l-0.2-0.4l-0.1-0.4l-0.1-0.4l-0.1-0.4l-0.1-0.4l-0.1-0.4l-0.1-0.4v-0.4v-0.4v-0.3v-0.3l0.1-0.3l0.1-0.3l0.1-0.3l0.1-0.3
	l0.1-0.3l0.1-0.1l0.1-0.1l0.1-0.1l0.1-0.1l0.1-0.1l0.1-0.1h0.1h0.1h0.1h0.1h0.1l0.2,0.1l0.2,0.1l0.2,0.1l0.2,0.2l0.2,0.2l0.2,0.2
	l0.2,0.2l0.3,0.4l0.3,0.4l0.2,0.5l0.4,0.8l0.4,0.7l0.3,0.5l0.3,0.5l0.3,0.5l0.4,0.5l0.4,0.4l0.4,0.4l0.4,0.5l0.5,0.4l0.5,0.4
	l0.5,0.4l0.6,0.5l0.7,0.5l0.7,0.5l0.7,0.5l0.7,0.5l0.8,0.5l0.8,0.5l1.2,0.7l1.2,0.7l1.2,0.6l1.2,0.6l2,1l2,1l2.1,1l2.1,0.9l2.7,1.2
	l2.7,1.1l2.8,1.1l1.8,0.7l1.8,0.7l1.9,0.6l1.2,0.4l1.2,0.4l1.2,0.3l1.2,0.3l1.2,0.3l1.2,0.3l1.3,0.3l1.3,0.3l1.3,0.2l1.3,0.2
	l1.3,0.2l1.4,0.2l1.4,0.1l1.4,0.1l1.4,0.1l1.4,0.1h1.4h1.2h1.2h1.2l1.2-0.1l1.2-0.1l1.2-0.1l1.2-0.1l1-0.1l1-0.1l1-0.2l0.9-0.2
	l0.9-0.2l0.9-0.2l0.9-0.2l0.9-0.3l0.9-0.3l0.9-0.3l0.8-0.3l0.8-0.3l0.8-0.3l0.5-0.3l0.5-0.3l0.5-0.3l0.5-0.3l0.5-0.3l0.5-0.3
	l0.5-0.3l0.4-0.3l0.4-0.4l0.3-0.3l0.3-0.3l0.3-0.3l0.3-0.3l0.2-0.3l0.2-0.3l0.2-0.3l0.2-0.3l0.2-0.3l0.1-0.2l0.1-0.2l0.1-0.2v-0.2
	v-0.1v-0.1v-0.1l-0.1-0.1l-0.1-0.1l-0.1-0.1l-0.1-0.1l-0.1-0.1l-0.1-0.1l-0.2-0.1h-0.2h-0.2h-0.3h-0.3h-0.3h-0.3l-0.7,0.1l-0.7,0.1
	l-0.7,0.1l-0.7,0.2l-1.1,0.3l-1.1,0.3l-1.1,0.3l-1.5,0.5l-1.5,0.5l-1.2,0.4l-1.2,0.4l-1,0.3l-1,0.3l-1,0.3l-1,0.3l-0.9,0.2l-0.9,0.2
	l-0.9,0.2l-0.9,0.2l-0.9,0.1l-1.1,0.1l-1.1,0.1l-1.1,0.1l-1.1,0.1l-1.4,0.1h-1.4h-1.4h-1.4h-1.4l-1.4-0.1l-1.4-0.1l-1.4-0.1
	l-1.4-0.1l-1.4-0.1l-1.3-0.1l-1.3-0.2l-1.3-0.2l-0.8-0.1l-0.8-0.1l-0.8-0.2l-0.8-0.2l-0.8-0.2l-0.4-0.1l-0.4-0.1L342,181l-0.4-0.2
	l-0.3-0.1l-0.3-0.2l-0.1-0.1l-0.1-0.1l-0.1-0.1l-0.1-0.1l-0.1-0.1l-0.1-0.1v-0.1v-0.1v-0.1v-0.1l0.1-0.1l0.1-0.1l0.2-0.2l0.2-0.1
	l0.2-0.1l0.3-0.2l0.3-0.1l0.3-0.1l0.3-0.1l0.4-0.1l0.4-0.1h0.4h0.4h0.5h0.5h0.5h0.5l0.8,0.1l0.8,0.1l0.8,0.1l0.8,0.2l3.2,0.7
	l0.7,0.1l0.8,0.1l0.8,0.1l0.8,0.1l0.8,0.1l0.8,0.1h0.8h0.8h1h1h1l1-0.1l1-0.1l1.4-0.2l1.4-0.2l1.3-0.2l1.9-0.3l1.9-0.4l1.9-0.4
	l1.9-0.4l1.9-0.5l1.9-0.5l1.9-0.5l1.2-0.4l1.2-0.4l1.2-0.4l0.8-0.3l0.8-0.3l0.8-0.3l0.7-0.3l0.7-0.3l0.7-0.3l0.7-0.3l0.3-0.2
	l0.3-0.2l0.3-0.2l0.3-0.2l0.3-0.2l0.2-0.2l0.2-0.2l0.2-0.2l0.2-0.2l0.1-0.2l0.1-0.2l0.1-0.2l0.1-0.2v-0.2v-0.2v-0.2v-0.2v-0.1
	l-0.1-0.1l-0.1-0.1l-0.1-0.1l-0.1-0.1l-0.2-0.1l-0.2-0.1l-0.2-0.1h-0.2h-0.3h-0.3l-0.3,0.1l-0.3,0.1l-0.3,0.1l-0.6,0.2l-0.6,0.2
	l-0.6,0.3l-0.7,0.3l-0.7,0.3l-0.7,0.3l-0.7,0.3l-0.7,0.2l-0.7,0.2l-0.8,0.2l-0.8,0.2L381,172l-1.3,0.3l-1.3,0.2l-1,0.2l-1,0.2
	l-0.7,0.1l-0.7,0.1l-0.7,0.1h-0.7h-0.4h-0.4h-0.4h-0.3l-0.3-0.1l-0.3-0.1l-0.3-0.1l-0.2-0.1l-0.2-0.1l-0.2-0.1l-0.2-0.1l-0.1-0.2
	l-0.1-0.2l-0.1-0.1l-0.1-0.2v-0.2v-0.2v-0.2l0.1-0.2l0.1-0.2l0.1-0.2l0.1-0.1l0.1-0.1l0.2-0.2l0.2-0.1l0.3-0.1l0.3-0.1l0.3-0.1
	l0.3-0.1l0.3-0.1l0.6-0.2l0.6-0.1l0.6-0.1l1.1-0.2l1.1-0.2l2.1-0.4l2.1-0.4l1-0.2l1-0.2l0.6-0.1l0.6-0.2l0.6-0.2l0.5-0.2l0.5-0.2
	l0.5-0.2l0.4-0.2l0.4-0.3l0.4-0.3l0.4-0.3l0.7-0.6l0.7-0.6l0.3-0.2l0.3-0.2l0.2-0.3l0.2-0.3l0.2-0.3l0.2-0.3l0.2-0.3l0.1-0.3
	l0.1-0.3l0.1-0.4l0.1-0.4l0.1-0.4l0.1-0.4l0.1-0.5v-0.5v-0.5v-0.5v-0.5V157l-0.1-0.6l-0.1-0.6l-0.1-0.6l-0.2-0.6l-0.2-0.7l-0.2-0.7
	l-0.3-0.7l-0.4-0.9l-0.4-0.9l-0.7-1.8l-0.7-1.8l-0.7-1.8l-0.6-1.8l-0.6-1.8l-2-6.4l-1.7-5.5l-0.7-2.1l-0.7-2.1l-0.6-1.6l-0.6-1.6
	l-0.6-1.6l-0.7-1.6l-0.5-1.2l-0.5-1.2l-0.6-1.2l-0.6-1.2l-0.6-1.1l-0.6-1l-0.6-1l-0.6-1l-0.7-1l-0.7-0.9l-0.7-0.9l-0.7-0.9l-0.7-0.9
	l-0.8-0.9l-0.8-0.9l-1-1.1l-1-1l-1-1l-1-1l-1.6-1.6l-0.6-0.6l-0.6-0.6l-0.3-0.3l-0.2-0.3l-0.2-0.3l-0.1-0.2l-0.1-0.2l-0.1-0.2
	l-0.1-0.1v-0.1v-0.2V95v-0.1v-0.1l0.1-0.1l0.1-0.1l0.1-0.1l0.1-0.1l0.2-0.1l0.2-0.1l0.2-0.1l0.4-0.1l0.4-0.1l0.5-0.1l0.5-0.1h0.3
	h0.3h0.3l0.3,0.1l0.3,0.1l0.3,0.1l0.3,0.1l0.3,0.2l0.4,0.2l0.4,0.3l0.4,0.3l0.7,0.5l0.7,0.5l0.7,0.5l1.7,1.4l1.3,1.1l1.4,1.1
	l0.7,0.5l0.7,0.5l0.7,0.5l0.7,0.5l0.6,0.4l0.6,0.4l0.6,0.3l0.6,0.3l0.6,0.3l0.6,0.3l0.7,0.2l1,0.3l1,0.3l1,0.3L383.4,105.4
	L383.4,105.4z"/>
<g>
	<path class="st1" d="M51.4,81.9c-0.7,1.6-0.9,2.8-1.4,2.8c-0.2,0-1.4-0.4-3.7-1.1c-0.6-0.2-0.9-0.4-0.9-0.8c0-0.1,0.1-2.6,0.6-7
		c0.9-6.8,1.4-11,1.7-12.6c0.1-0.5,0-1.1,2-1.1c1.3,0,2.9,0.4,2.9,0.6c0.1,0.2,0.1,0.5,0.1,0.7c0,0.3-0.7,3.4-2,9.3
		c-0.5,2.5-1,3.6-1,3.8s0.1,0.3,0.1,0.3c0.5,0,1.4-3.6,3.8-9.3c1-2.3,1.2-3.6,2.4-3.6c0.5,0,1.3,0.5,2.8,1c0.4,0.1,0.5,0.3,0.5,0.6
		c0,0.2-0.4,1.9-1.1,5.8c-0.6,3.5-0.9,5.4-0.9,5.4c0,0.2,0.1,0.3,0.2,0.3c0.5,0,0.8-4.3,4.2-11.5c1.3-2.8,1.7-3.7,2.5-3.7
		c1.5,0,3.1,0.9,3.1,1.5c0,0.5-2,5.1-5.9,13.9c-1.4,3.2-2.2,5.3-2.6,6.3c-0.1,0.3-0.1,1-1.5,1c-0.4,0-2.2-0.4-3.6-1.1
		c-0.3-0.2-0.4-0.3-0.4-0.6c0,0,0.1-1.3,0.4-3.6c0.2-1.9,1.1-4.1,1.1-5.7c0-0.2,0-0.2-0.2-0.2C54.5,73.2,54,76.2,51.4,81.9z"/>
	<path class="st1" d="M72.6,81.9c-0.7,1.6-0.9,2.8-1.4,2.8c-0.2,0-1.4-0.4-3.7-1.1c-0.6-0.2-0.9-0.4-0.9-0.8c0-0.1,0.1-2.6,0.6-7
		c0.9-6.8,1.4-11,1.7-12.6c0.1-0.5,0-1.1,2-1.1c1.3,0,2.9,0.4,2.9,0.6C74,63,74,63.2,74,63.4c0,0.3-0.7,3.4-2,9.3
		c-0.5,2.5-1,3.6-1,3.8s0.1,0.3,0.1,0.3c0.5,0,1.4-3.6,3.8-9.3c1-2.3,1.2-3.6,2.4-3.6c0.5,0,1.3,0.5,2.8,1c0.4,0.1,0.5,0.3,0.5,0.6
		c0,0.2-0.4,1.9-1.1,5.8c-0.6,3.5-0.9,5.4-0.9,5.4c0,0.2,0.1,0.3,0.2,0.3c0.5,0,0.8-4.3,4.2-11.5c1.3-2.8,1.7-3.7,2.5-3.7
		c1.5,0,3.1,0.9,3.1,1.5c0,0.5-2,5.1-5.9,13.9c-1.4,3.2-2.2,5.3-2.6,6.3c-0.1,0.3-0.1,1-1.5,1c-0.4,0-2.2-0.4-3.6-1.1
		c-0.3-0.2-0.4-0.3-0.4-0.6c0,0,0.1-1.3,0.4-3.6c0.2-1.9,1.1-4.1,1.1-5.7c0-0.2,0-0.2-0.2-0.2C75.6,73.2,75.1,76.2,72.6,81.9z"/>
	<path class="st1" d="M93.7,81.9c-0.7,1.6-0.9,2.8-1.4,2.8c-0.2,0-1.4-0.4-3.7-1.1c-0.6-0.2-0.9-0.4-0.9-0.8c0-0.1,0.1-2.6,0.6-7
		c0.9-6.8,1.4-11,1.7-12.6c0.1-0.5,0-1.1,2-1.1c1.3,0,2.9,0.4,2.9,0.6c0.1,0.2,0.1,0.5,0.1,0.7c0,0.3-0.7,3.4-2,9.3
		c-0.5,2.5-1,3.6-1,3.8s0.1,0.3,0.1,0.3c0.5,0,1.4-3.6,3.8-9.3c1-2.3,1.2-3.6,2.4-3.6c0.5,0,1.3,0.5,2.8,1c0.4,0.1,0.5,0.3,0.5,0.6
		c0,0.2-0.4,1.9-1.1,5.8c-0.6,3.5-0.9,5.4-0.9,5.4c0,0.2,0.1,0.3,0.2,0.3c0.5,0,0.8-4.3,4.2-11.5c1.3-2.8,1.7-3.7,2.5-3.7
		c1.5,0,3.1,0.9,3.1,1.5c0,0.5-2,5.1-5.9,13.9c-1.4,3.2-2.2,5.3-2.6,6.3c-0.1,0.3-0.1,1-1.5,1c-0.4,0-2.2-0.4-3.6-1.1
		c-0.3-0.2-0.4-0.3-0.4-0.6c0,0,0.1-1.3,0.4-3.6c0.2-1.9,1.1-4.1,1.1-5.7c0-0.2,0-0.2-0.2-0.2C96.8,73.2,96.3,76.2,93.7,81.9z"/>
	<path class="st1" d="M106.9,82.5c0-0.2,0.1-0.4,0.1-0.7c0-0.1,0-0.2,0-0.3c0-1.1,1.9-3.6,3.1-3.6c1.7,0,2.6,1.4,2.6,2.3
		c0,2.9-2.4,4.3-3.3,4.3C107.8,84.5,106.9,83.7,106.9,82.5z"/>
	<path class="st1" d="M119.6,102.2c-2.6-0.7-4.1-1.1-4.1-2c0-0.8,3.1-13.4,8.9-38.1c1.2-5.1,1.9-6.7,5.8-6.7h2.8c9,0,16,5.7,16,15.4
		c0,10.6-4.3,18.2-13.2,26.5c-4.8,4.5-9,6.6-9.8,6.6C124.5,104,122.4,102.9,119.6,102.2z M128,93.2c0.1,0,2.8-2.5,5.5-7.2
		c2.5-4.4,4.5-8.7,4.5-14.4c0-3.3-0.8-4.9-3.5-4.9c-0.5,0-0.3,0.4-1.2,3.3c-0.1,0.2-1.1,3.8-2.6,10.5c-1.9,8.2-3.1,11.7-3.1,12.1
		C127.5,92.8,127.7,93.2,128,93.2z"/>
	<path class="st1" d="M155.2,102.2c-1.4,3.3-0.8,3.7-2.7,3.7c-0.6,0-1.4-0.1-2.6-0.1c-0.5,0-1.7-0.8-3.6-2.1
		c-0.7-0.5-1.1-0.6-1.1-1.3c0-1.7,5.1-15,16.6-38.5c3.6-7.3,3.3-8.7,6.6-8.7c1.1,0,2.6,0.2,4.2,0.7c2.9,0.9,4.7,1.1,5.5,1.4
		c1.6,0.7,2.4,1.7,2.4,3.1c0,1.3-1.3,12.3-2.8,32.1c-0.4,5.3-0.1,8-0.8,8.5c-2.5,1.5-3.7,1.6-4.9,1.6h-1.5c-2.7,0-2.9-1.1-2.9-2.5
		v-0.7c0-0.9,0.1-1.5,0.1-2c0-0.5-0.3-1.7-0.3-3.7c0-0.3,0-0.4-0.3-0.4c-4.5,0-7,0.4-7.4,0.4c-0.3,0-0.5-0.1-0.6-0.1
		C158,93.9,157.5,96.9,155.2,102.2z M164,84.3c3.1,0,3.3-0.1,3.6-1.3c0.2-0.8,0.3-2.2,0.5-4.3c1.1-8,2.1-12.4,2.1-13.1
		c0-0.2-0.1-0.2-0.3-0.2c-0.6,0-1.3,2.3-3,7.4c-2.3,7.1-4.3,10.5-4.3,11C162.6,84.2,163,84.3,164,84.3z"/>
	<path class="st1" d="M183.5,98.8c0-0.2,2.5-14.2,9-38.2c0.9-3.1,0.5-5.5,4.3-5.5c3.1,0,6.9,1.9,6.9,3.1c0,0.7-1.1,5.2-3.1,13.8
		c-2.7,11.4-4.4,17.4-4.4,18c0,1.5,1.3,0.9,5.6,2c2.5,0.7,3.8,1.1,3.8,2.4c0,0.4-0.2,1-0.3,1.8c-0.1,0.7-0.1,1.4-0.1,1.9v0.5
		c0,0.3,0,0.5-0.1,0.7c-0.1,0.3-0.4,0.7-0.7,0.9c-0.5,0.4-6,0.5-16.6,3.8C184.8,102.3,183.5,99.2,183.5,98.8z"/>
	<path class="st1" d="M216.3,102.2c-1.4,3.3-0.8,3.7-2.7,3.7c-0.6,0-1.4-0.1-2.6-0.1c-0.5,0-1.7-0.8-3.6-2.1
		c-0.7-0.5-1.1-0.6-1.1-1.3c0-1.7,5.1-15,16.6-38.5c3.6-7.3,3.3-8.7,6.6-8.7c1.1,0,2.6,0.2,4.2,0.7c2.9,0.9,4.7,1.1,5.5,1.4
		c1.6,0.7,2.4,1.7,2.4,3.1c0,1.3-1.3,12.3-2.8,32.1c-0.4,5.3-0.1,8-0.8,8.5c-2.5,1.5-3.7,1.6-4.9,1.6h-1.5c-2.7,0-2.9-1.1-2.9-2.5
		v-0.7c0-0.9,0.1-1.5,0.1-2c0-0.5-0.3-1.7-0.3-3.7c0-0.3,0-0.4-0.3-0.4c-4.5,0-7,0.4-7.4,0.4c-0.3,0-0.5-0.1-0.6-0.1
		C219.1,93.9,218.6,96.9,216.3,102.2z M225.1,84.3c3.1,0,3.3-0.1,3.6-1.3c0.2-0.8,0.3-2.2,0.5-4.3c1.1-8,2.1-12.4,2.1-13.1
		c0-0.2-0.1-0.2-0.3-0.2c-0.6,0-1.3,2.3-3,7.4c-2.3,7.1-4.3,10.5-4.3,11C223.7,84.2,224,84.3,225.1,84.3z"/>
	<path class="st1" d="M244.4,100.9c0-2.3,2.7-14.4,8.2-36.2c1.9-7.4,0.7-8.4,6.5-8.4c1.9,0,3.3,0.1,4.1,0.1c2.4,0,4.5-0.3,6.3-0.3
		c1.2,0,1.9,0.3,2.2,0.3c0.4,0,0.6-0.5,1-0.5c1.2,0,3.3,2.6,3.3,5.8c0,2.2-0.3,3.5-0.9,4c-0.3,0.2-3.7,1-5.9,1
		c-0.8,0-1.5-0.1-2.1-0.1c-0.9,0-2.2,0.2-4.1,0.6c-0.7,3-1.5,5.5-2,7.6c5.8,0,9,0.5,9.5,0.9c0.1,0.1,1.1,3.1,1.1,4.3
		c0,3.6-1.5,3.9-1.9,4c-0.7,0.3-4.3,1-11,1.7c-2.1,7.2-2.8,12.2-3.6,14.9c-0.6,2-1.2,3.5-4.5,3.5c-1.2,0-2.7-1-5.8-2
		C244.5,101.7,244.4,101.3,244.4,100.9z"/>
	<path class="st1" d="M277.8,76.8c3.2-12.6,4.7-19,4.7-19c0-1.3,0.1-2.7,4.6-2.7c3.3,0,6.5,2.5,6.5,3.1c0,0.5-0.7,1.1-1,2.1
		c-0.1,0.5-0.8,3-2,7.6c-1.6,6.1-2.6,11.8-3.7,17.1c-1.6,7.8-3.1,13.7-4.1,17.3c-0.5,1.7-1.5,1.9-4,1.9h-1c-3.7,0-5.7-2.2-5.7-2.7
		C272.3,101.1,273.8,92.6,277.8,76.8z"/>
	<path class="st1" d="M295.8,87.6c1.6,0,1.3,0.1,1.8,1.3c1.2,3.1,3,4.8,5.3,4.8c1.7,0,3.3-1.6,3.3-3.7c0-1.9-2.2-3.7-5.5-7.4
		c-2.4-2.7-3.6-5.7-3.6-8.5c0-6.1,3.2-11.6,9.2-16.2c2.6-2,5.4-2.9,6.3-2.9c2.1,0,3.5,1.3,5.3,2.3c2.7,1.5,5.3,1.7,5.3,8.1
		c0,5.7-2.1,9.6-4.7,9.6c-1.5,0-4.8-0.7-5.5-1c-1-0.4-1.1-1.1-1.1-2.2V71c0-2.3,0.5-3.9,0.5-4.9c0-0.4-0.3-0.6-0.7-0.6
		c-0.7,0-3.9,2.9-3.9,6.5c0,3.1,2.6,5,5.7,8c2.9,2.9,4.4,5.3,4.4,8.3c0,7.9-7.3,15.6-15,15.6c-6.3,0-12.4-5.1-12.4-11.7
		c0-0.5,0.1-1.1,0.1-1.9C293.2,88.5,294.8,87.6,295.8,87.6z"/>
	<path class="st1" d="M350.5,96.5c0,0.9-1.3,2.7-2,3.1c-1,0.6-2.9,3.1-3.7,3.1c-2.6,0-5.6-4.8-8-15.1c-0.5-2-0.4-2.9-0.9-2.9
		c-0.7,0-0.7,3.2-2.9,11.4c-1.3,4.8-1.8,7.8-3.6,7.8c-0.1,0-2.5-0.7-6.5-2.4c-1.1-0.5-1.7-1.3-1.7-2.1c0-0.3,0.8-1.8,1.6-5.1
		c0.2-0.7,1.6-6.9,4.3-18.4c2.5-10.8,4.2-16.6,4.2-17.1c0-0.3-0.1-0.5-0.1-0.8c0-0.5,1.1-1.4,1.2-1.4c0.4,0,1.1,0.3,2.3,0.5
		c2,0.3,3.6,0.3,4.7,0.5c1.5,0.3,2.3,1,2.3,1.8c0,0.1-0.5,3.3-1.5,7c-1.7,6.1-2.8,9-2.8,9.4c0,0.1,0.1,0.2,0.2,0.2
		c0.5,0,3.6-4.9,10.9-15.1c3.5-4.9,5.7-7.2,6-7.2c1.7,0,1.3,0.5,1.7,1.4c1,1.9,3.8,3.1,3.8,4.4c0,1-5.5,7.1-14.5,21.4
		C348.8,90.7,350.5,95.8,350.5,96.5z"/>
	<path class="st1" d="M353.8,82.5c0-0.2,0.1-0.4,0.1-0.7c0-0.1,0-0.2,0-0.3c0-1.1,1.9-3.6,3.1-3.6c1.7,0,2.6,1.4,2.6,2.3
		c0,2.9-2.4,4.3-3.3,4.3C354.7,84.5,353.8,83.7,353.8,82.5z"/>
	<path class="st1" d="M364.7,76.7c0.8,0,0.6,0.1,0.9,0.6c0.6,1.5,1.4,2.3,2.6,2.3c0.8,0,1.6-0.8,1.6-1.8c0-0.9-1.1-1.8-2.6-3.5
		c-1.1-1.3-1.7-2.7-1.7-4.1c0-2.9,1.5-5.6,4.4-7.8c1.2-1,2.6-1.4,3-1.4c1,0,1.7,0.6,2.6,1.1c1.3,0.7,2.5,0.8,2.5,3.9
		c0,2.7-1,4.6-2.2,4.6c-0.7,0-2.3-0.3-2.6-0.5c-0.5-0.2-0.5-0.5-0.5-1.1v-0.4c0-1.1,0.3-1.9,0.3-2.4c0-0.2-0.1-0.3-0.4-0.3
		c-0.3,0-1.9,1.4-1.9,3.1c0,1.5,1.2,2.4,2.7,3.8c1.4,1.4,2.1,2.6,2.1,4c0,3.8-3.5,7.4-7.2,7.4c-3,0-5.9-2.4-5.9-5.6
		c0-0.2,0-0.5,0.1-0.9C363.5,77.1,364.3,76.7,364.7,76.7z"/>
	<path class="st1" d="M377.2,81.6c0-0.5,0.9-4.9,3.1-13c1.3-4.6,1.7-6.7,2.2-6.7c0.2,0,0.4,0.1,0.5,0.1c0.1,0,0.2-0.1,0.4-0.1
		c0.5,0,1.1,0.2,1.8,0.2c0.8,0,1.7-0.2,2.8-0.2c0.8,0,2.2,0.2,3.3,0.4c0.5,0.1,1.1,0.4,1.1,2.2c0,0.7-0.2,1.7-0.3,1.8
		c-0.3,0.3-2.3,0.3-6.3,0.8c-0.4,1.2-0.8,2.5-1,3.7c0.4,0,1,0,1.5,0c1.8,0,2.7,0.2,2.8,0.3c0.4,0.4,0.7,1.2,0.7,1.9
		c0,0.6-0.4,1.9-0.4,1.9c-0.4,0.4-2.4,0.4-6,1.1c-0.3,1.5-0.6,2.4-0.6,2.9c0,0.1,0,0.2,0.1,0.3c2.4-0.1,3.7-0.2,3.9-0.2
		c0.3,0,0.5,0.1,0.5,0.2v0.3c0,0.3,1.1,0.7,1.1,2.3c0,1.5-0.4,1.6-1,1.6h-0.1c-1.1,0-2.4,0.5-3.7,0.7c-1.3,0.2-2.7,0.3-4.2,0.8
		C377.9,83.8,377.2,82.9,377.2,81.6z"/>
</g>
</svg>
